<svg xmlns="http://www.w3.org/2000/svg" width="495" height="220" viewBox="0 0 495 220"><title>曆日卡片</title><desc>顯示今日西曆日期、農曆月日、干支紀日，以及依建除十二神循環推算出的開發者宜/忌建議。</desc><rect width="495" height="220" fill="#f7f1e7" rx="6"/><rect width="494" height="219" x=".5" y=".5" fill="none" stroke="#cdbda8" rx="5.5"/><style>@media (prefers-reduced-motion: reduce){*{animation-duration:0.01ms!important;animation-iteration-count:1!important;}}</style><path fill="#302a25" d="m36.84 35.62.15-.19c.61.14 1.1.31 1.51.49.39.19.68.4.9.6.21.2.34.41.41.6.07.18.09.35.03.49-.05.13-.15.22-.27.25-.13.04-.29.02-.47-.06-.12-.26-.31-.52-.56-.79-.26-.27-.55-.52-.85-.78-.31-.24-.6-.44-.85-.61m-5.43-3.08v6c0 .05-.08.1-.22.19-.15.08-.36.14-.58.14h-.15v-6.02zm5.88.05v5.9c0 .04-.08.1-.23.19-.17.1-.4.15-.67.15h-.17v-6.02zm.97-.83 1.09 1.02c-.15.15-.41.14-.76-.02-.39.09-.84.17-1.33.26-.49.08-1.02.17-1.56.24-.56.08-1.09.13-1.6.15l-.09-.29c.5-.12 1.01-.26 1.53-.41.53-.15 1.04-.3 1.53-.49.5-.17.89-.32 1.19-.46m-5.98-.02 1.1 1.01c-.15.15-.4.13-.76-.02-.36.08-.77.19-1.24.29-.49.1-1 .18-1.51.27-.53.09-1.04.14-1.53.19l-.09-.29c.46-.12.95-.27 1.46-.44.51-.16.99-.33 1.45-.51.46-.19.83-.34 1.12-.5m5.63-.76.85-1.04.15.12c.1.08.24.19.41.31q.225.195.51.42c.17.15.34.29.49.43-.05.18-.2.27-.46.27H26.69v-.51zm-11.82 0v-.56l1.28.56h-.21v4.26c0 .74-.02 1.53-.05 2.39s-.12 1.73-.24 2.63c-.13.9-.34 1.79-.63 2.65a9.3 9.3 0 0 1-1.2 2.4l-.29-.15c.42-1.01.75-2.08.93-3.18.19-1.11.29-2.25.34-3.4.05-1.14.07-2.26.07-3.34zm4.03 9.08v4.88c0 .01-.05.06-.14.11-.08.07-.2.12-.34.17-.13.05-.28.07-.44.07h-.17V39l1.17.55h7.67v.51zm7.05-.51h-.16l.62-.67 1.36 1.04c-.05.07-.15.14-.27.19-.13.05-.29.1-.46.13v4.61c0 .03-.05.09-.15.14q-.15.075-.36.15c-.15.05-.29.07-.41.07h-.17zm-7.58 4.33h8.25v.49h-8.25zm0-2.19h8.25v.51h-8.25zm7.4-7.21v.27c-.39.78-.9 1.5-1.53 2.14-.63.65-1.38 1.21-2.21 1.7l-.21-.27c.65-.52 1.21-1.1 1.7-1.77.5-.66.87-1.34 1.16-2.07zm-5.73 0v.27c-.34.78-.8 1.5-1.34 2.16-.56.66-1.23 1.24-1.98 1.73l-.2-.28c.56-.53 1.04-1.13 1.46-1.79.41-.66.73-1.36.99-2.09zm-.05 1.04.17-.16c.54.12.97.26 1.26.45.28.18.47.39.56.57.08.21.1.39.05.53-.05.15-.16.26-.29.29-.15.05-.31.02-.49-.1q-.135-.405-.51-.87c-.26-.29-.5-.53-.75-.71m6.81-1.04.67-.83s.07.05.2.17c.14.12.31.25.5.41.18.16.35.33.51.49-.04.19-.17.27-.43.27h-5.63l-.13-.51zm-6.2 0 .65-.78s.06.05.2.15c.14.12.31.24.49.39.19.15.34.32.5.48-.05.19-.19.27-.45.27h-5.28l-.14-.51zm13.23 3.23v-.51h9.01v.51zm0 5.97v-.5h9.01v.5zm8.45 1.42V31.44h-.17l.64-.75 1.41 1.12c-.05.07-.15.14-.27.19-.14.07-.29.12-.46.15v12.53c0 .03-.05.09-.15.15-.12.07-.24.14-.39.19-.16.05-.31.08-.45.08zm-9.07.09V30.86l1.24.58h8.4v.49h-8.51v12.8c0 .05-.04.12-.12.19-.09.08-.21.13-.34.18-.14.06-.29.09-.46.09"/><line x1="24" x2="471" y1="58" y2="58" stroke="#cdbda8"/><path fill="#6b5b4b" d="M406.8 39.28h-1.68V44h-1.04v-4.72h-1.68v-.86h4.4m5.02 5.58v-2.4h-1.64V44h-1.04v-5.58h1.04v2.32h1.64v-2.32h1.04V44m6.33 0h-3.53v-5.58h3.53v.86h-2.48v1.46h2.39v.86h-2.39v1.54h2.48m13.31.86h-1.11l-.39-1.42h-1.66l-.38 1.42h-1.06l1.57-5.58h1.46zm-1.68-2.27-.61-2.28h-.07l-.61 2.28m8.99 2.27H435v-5.58h1.05v4.72h2.47m5.58.86v-2.58l.05-1.62h-.07L443 42.67l-1.08-2.87h-.07l.05 1.62V44h-.92v-5.58h1.25l.78 2.05h.05l.79-2.05h1.17V44m6.68 0h-1.11l-.39-1.42h-1.66l-.38 1.42h-1.06l1.57-5.58h1.46zm-1.68-2.27-.61-2.28h-.07l-.61 2.28m7.65 2.27-1.47-4.01h-.08V44h-.89v-5.58h1.28l1.47 4h.08v-4h.89V44m6.84 0h-1.11l-.39-1.42h-1.66l-.38 1.42h-1.06l1.57-5.58h1.46zm-1.68-2.27-.61-2.28h-.07l-.61 2.28m7.21 2.37q-1.09 0-1.62-.76-.52-.75-.52-2.13t.52-2.13q.53-.76 1.62-.76.42 0 .74.11.31.11.54.31.24.2.39.47.15.28.24.61l-.96.27q-.06-.19-.13-.36t-.18-.29q-.11-.13-.27-.2-.16-.06-.38-.06-.55 0-.78.41-.24.42-.24 1.14v.96q0 .72.24 1.13.23.42.78.42.22 0 .38-.07t.27-.19.18-.29.13-.36l.96.27q-.09.33-.24.6-.15.28-.39.48-.23.19-.54.3-.32.12-.74.12"/><polygon fill="#cdbda8" points="24.00,70.00 124.00,70.00 151.71,54.00 51.71,54.00"/><polygon fill="#6b5b4b" points="24.00,70.00 24.00,170.00 51.71,186.00 51.71,86.00"/><rect width="100" height="100" x="24" y="70" fill="#8b5e3c"/><path fill="#f7f1e7" d="M71.8 130.56v4.84H50.15v-5.37l9.86-8.4q2.46-2.11 3.65-3.85t1.19-3.72v-.44q0-2.2-1.23-3.34-1.24-1.15-3.44-1.15-2.42 0-3.69 1.32-1.28 1.32-1.85 3.26l-5.02-1.89q.49-1.5 1.39-2.89.9-1.38 2.24-2.44 1.35-1.05 3.19-1.69 1.85-.64 4.23-.64 2.46 0 4.38.68 1.91.68 3.23 1.89t2 2.89q.68 1.67.68 3.65 0 1.89-.59 3.47-.59 1.59-1.65 3.02t-2.49 2.75-3.1 2.64l-6.69 5.41zm15.53 5.37q-2.68 0-4.77-.86t-3.54-2.42q-1.46-1.56-2.23-3.78-.77-2.23-.77-5 0-3.3 1.02-6.22 1.01-2.93 2.61-5.37 1.61-2.44 3.59-4.38t3.96-3.21h7.83q-2.77 1.93-4.95 3.72-2.18 1.78-3.78 3.63-1.61 1.84-2.69 3.85-1.07 2-1.6 4.37l.35.09q.44-.88 1.06-1.69.61-.82 1.47-1.45.86-.64 1.98-1.02 1.12-.37 2.62-.37 1.93 0 3.61.66 1.67.66 2.88 1.91 1.21 1.26 1.91 3.02.71 1.76.71 3.96 0 2.33-.8 4.27-.79 1.93-2.26 3.34-1.48 1.41-3.57 2.18t-4.64.77m-.04-4.53q2.64 0 4-1.39 1.37-1.39 1.37-3.94v-.53q0-2.55-1.39-3.91-1.39-1.37-3.98-1.37-2.51 0-3.92 1.37-1.41 1.36-1.41 3.91v.53q0 2.55 1.37 3.94 1.36 1.39 3.96 1.39"/><path fill="#6b5b4b" d="M192.09 82h-3.58v-.43c.27-.31.53-.63.79-.93.24-.3.47-.56.67-.79.28-.35.51-.64.69-.9.17-.25.3-.49.39-.71.08-.22.12-.45.12-.68q0-.6-.3-.93c-.2-.21-.48-.33-.84-.33-.15 0-.29.02-.44.06s-.3.12-.47.22l.33-.24-.22.78c-.04.15-.09.26-.16.32-.06.06-.14.1-.23.1-.07 0-.14-.03-.2-.08a.37.37 0 0 1-.13-.17c.05-.27.15-.5.32-.68.17-.19.37-.32.62-.42.25-.09.5-.13.77-.13.54 0 .95.13 1.22.4s.41.64.41 1.12c0 .24-.06.48-.17.72q-.18.345-.54.78c-.25.3-.59.65-1 1.06-.08.09-.19.2-.32.35l-.47.5-.52.58.07-.25v.12h3.19zm2.6.12c-.31 0-.62-.1-.9-.31q-.42-.315-.69-.99c-.17-.44-.26-1.02-.26-1.75 0-.71.09-1.29.26-1.73.18-.44.41-.77.69-.98.28-.2.59-.3.9-.3.33 0 .63.1.91.3.28.21.5.54.68.98.17.44.26 1.02.26 1.73 0 .73-.09 1.31-.26 1.75-.18.45-.4.78-.68.99s-.58.31-.91.31m0-.25c.15 0 .29-.05.44-.14.13-.09.26-.24.37-.46.12-.21.2-.5.28-.86.06-.36.09-.8.09-1.34q0-.78-.09-1.32c-.08-.35-.16-.63-.28-.85-.11-.2-.24-.36-.37-.45a.84.84 0 0 0-.44-.14c-.15 0-.3.05-.43.14-.15.09-.28.25-.39.45-.11.22-.2.5-.26.85-.07.36-.11.8-.11 1.32 0 .54.04.99.11 1.34.06.36.15.65.26.86.11.22.24.37.39.46.13.09.28.14.43.14m6.32.13h-3.58v-.43c.27-.31.53-.63.79-.93.24-.3.47-.56.67-.79.28-.35.51-.64.69-.9.17-.25.3-.49.39-.71.08-.22.12-.45.12-.68q0-.6-.3-.93c-.2-.21-.48-.33-.84-.33-.15 0-.29.02-.44.06s-.3.12-.47.22l.33-.24-.22.78c-.04.15-.09.26-.16.32-.06.06-.14.1-.23.1-.07 0-.14-.03-.2-.08a.37.37 0 0 1-.13-.17c.05-.27.15-.5.32-.68.17-.19.37-.32.62-.42.25-.09.5-.13.77-.13.54 0 .95.13 1.22.4s.41.64.41 1.12c0 .24-.06.48-.17.72q-.18.345-.54.78c-.25.3-.59.65-1 1.06-.08.09-.19.2-.32.35l-.47.5-.52.58.07-.25v.12h3.19zm2.69.12c-.39 0-.72-.1-1-.3-.28-.19-.49-.46-.64-.8-.16-.35-.23-.76-.23-1.24q0-.69.24-1.32c.16-.43.39-.8.69-1.15.3-.33.65-.61 1.08-.83.42-.22.9-.36 1.42-.42l.04.17q-.915.195-1.53.69c-.42.34-.73.74-.94 1.22s-.31 1-.31 1.57c0 .68.1 1.22.31 1.59q.315.57.87.57c.21 0 .4-.06.56-.18s.29-.31.39-.55c.09-.24.14-.52.14-.86 0-.48-.09-.85-.29-1.1a.99.99 0 0 0-.8-.37c-.22 0-.44.05-.64.14-.21.11-.42.27-.62.51l-.15-.09h.05c.42-.59.95-.89 1.58-.89.33 0 .6.07.83.22.23.14.41.34.53.6q.18.405.18.93c0 .36-.08.69-.23.97-.15.29-.36.51-.62.67-.27.17-.57.25-.91.25m2.56-1.6-.07-.24h6.15l.42-.5s.02.01.08.05c.05.04.11.1.19.15.08.07.16.13.25.2l.24.21c-.02.09-.1.13-.22.13zm3.64 2.1v-6.16h.55v5.99c0 .01-.04.05-.12.09-.09.05-.2.08-.34.08zm-2.04-4.19v-.24h4.01l.38-.47s.02.02.07.06.1.08.18.14.15.12.23.18c.08.08.15.14.22.2-.01.09-.09.13-.21.13zm-.27 1.99v-2.49l.64.26h-.09v2.23zm.61-5.25.82.33c-.03.04-.06.08-.11.1s-.12.04-.21.03c-.31.63-.68 1.19-1.11 1.7-.42.5-.88.91-1.35 1.22l-.1-.09c.26-.24.52-.54.76-.88.25-.35.49-.72.72-1.14.23-.41.42-.83.58-1.27m-.42 1.53.11-.24h4.16l.41-.49s.02.01.07.05.11.09.19.15c.08.05.16.12.25.19.08.07.16.14.23.22q-.015.06-.06.09c-.04.03-.09.03-.15.03zm6.91 5.43-.06-.21c.59-.21 1.08-.48 1.47-.82.38-.34.67-.74.85-1.2.19-.45.27-.96.27-1.52 0-.47-.04-.85-.15-1.16-.1-.31-.24-.54-.41-.69a.96.96 0 0 0-.6-.23c-.2 0-.39.06-.56.18-.16.12-.3.29-.4.51-.11.23-.16.51-.16.85 0 .47.12.85.36 1.11.23.27.53.4.89.4.23 0 .44-.05.63-.16.2-.1.37-.26.52-.46l.16.04h-.06c-.14.27-.33.49-.58.65s-.56.24-.9.24c-.32 0-.61-.07-.86-.21a1.53 1.53 0 0 1-.6-.61c-.16-.26-.23-.58-.23-.94q0-.57.24-.99c.16-.27.38-.48.65-.63.26-.15.57-.22.9-.22.38 0 .7.09.98.28q.405.285.63.81c.15.35.23.77.23 1.26 0 .58-.12 1.12-.36 1.61q-.375.75-1.08 1.29c-.48.36-1.07.63-1.77.82m9.32-.37v-5.85h-.08l.28-.33.68.52c-.03.03-.07.06-.13.09a.7.7 0 0 1-.22.07v5.56c0 .15-.02.28-.06.38a.5.5 0 0 1-.25.27c-.13.07-.33.12-.61.15-.01-.08-.04-.16-.06-.24a.4.4 0 0 0-.14-.16 1.4 1.4 0 0 0-.29-.12q-.195-.06-.51-.09v-.13s.05 0 .16.01c.09.01.21.01.36.02l.4.03c.12 0 .2.01.25.01.09 0 .15-.01.18-.05.02-.03.04-.08.04-.14m-3.66-3.34v-2.77l.63.26h-.11v2.51c0 .31-.01.61-.04.92-.02.32-.08.62-.15.92-.08.3-.19.6-.34.88-.16.28-.36.54-.6.79s-.55.48-.91.69l-.11-.09c.34-.28.62-.57.84-.88s.38-.63.5-.98c.11-.34.19-.7.23-1.08.04-.37.06-.77.06-1.17m.23-2.27v-.24h3.69v.24zm0 1.79v-.23h3.69v.23zm-.08 1.84v-.23h3.76v.23"/><path fill="#302a25" d="M192.06 92.63v-.49h9.01v.49zm0 2.41v-.49h9.01v.49zm8.49.74v-5.99h-.17l.61-.71 1.41 1.07c-.05.07-.15.13-.27.18-.12.07-.28.12-.44.16v4.93c0 .03-.06.08-.18.13-.11.06-.23.11-.39.16-.15.05-.28.07-.4.07zm-9 .15v-6.72l1.23.58h8.43v.48h-8.52v5.28c0 .04-.05.09-.13.14-.11.05-.22.1-.36.15-.15.05-.31.09-.46.09zm-2.67 7.95-.15-.49h13.21l.83-1.07s.05.03.16.12c.1.08.22.19.39.31.15.13.3.27.49.42.17.15.32.29.48.44-.05.19-.21.27-.46.27zm2.4-3.06-.13-.49h9.38l.76-1s.05.03.16.12c.08.08.22.18.37.3s.31.26.48.39c.15.16.3.29.44.41-.05.19-.21.27-.46.27zm4.83 2.77v-8.05l1.75.18a.48.48 0 0 1-.15.29c-.11.09-.26.16-.46.19v7.39zm-3.37-8.1 1.64.71c-.06.08-.12.15-.23.2-.12.05-.25.07-.44.04-.51.93-1.1 1.75-1.8 2.48s-1.41 1.31-2.18 1.75l-.2-.2c.61-.55 1.21-1.26 1.78-2.14.57-.89 1.04-1.84 1.43-2.84m-.85 2.67v-.5h8.98l.8-1s.05.03.15.12c.1.08.22.17.37.29.16.12.31.25.48.4.15.16.31.29.44.43-.05.17-.2.26-.46.26zm14.13-6.24-.14-.51h7.11l.61-.85s.07.05.21.17c.13.11.28.27.47.42.19.17.34.34.48.49-.04.19-.17.28-.41.28zm-.32 7.61-.14-.49h7.45l.68-.94s.06.07.22.19c.15.12.32.27.51.46.18.19.37.36.52.51-.05.19-.18.27-.42.27zm1.82-.22V88.97l1.61.19c-.02.1-.07.19-.13.26-.09.08-.24.13-.43.17v9.72zm4.13 0V88.96l1.68.18a.5.5 0 0 1-.15.29c-.09.09-.24.16-.46.19v9.69zm-3.4.7 1.61.71c-.05.09-.12.16-.24.21s-.25.06-.42.05c-.43.76-.94 1.41-1.53 1.97-.6.56-1.21 1.02-1.85 1.38l-.23-.22q.765-.645 1.5-1.74c.48-.71.87-1.49 1.16-2.36m2.51.24.19-.14c.59.19 1.05.39 1.41.63.36.25.61.49.78.75.16.25.26.47.29.69.02.23-.02.4-.1.53-.08.14-.22.22-.37.24q-.24.045-.51-.15c-.05-.29-.19-.58-.36-.91a10 10 0 0 0-.63-.91 7 7 0 0 0-.7-.73m-2.68-5.92v-.49h4.09v.49zm-.02 2.53v-.49h4.13v.49zm7.79-6.54v-.49h4.33v.49zm-.06 3.72v-.51h4.39v.51zm0 3.88v-.48h4.34v.48zm3.76 4.6V89.83h-.17l.56-.72 1.41 1.07c-.11.17-.37.29-.73.34v12.14c0 .29-.03.56-.1.78s-.22.41-.47.55c-.26.13-.63.23-1.16.3a2.4 2.4 0 0 0-.1-.49.68.68 0 0 0-.26-.34c-.12-.09-.3-.17-.53-.24-.22-.07-.52-.12-.88-.17v-.27s.09 0 .27.02c.17.01.38.01.61.03.24.02.48.03.7.05s.36.02.44.02c.16 0 .28-.04.33-.09s.08-.15.08-.29m-4.27-6.81v-6.45l1.28.57h-.2v5.86c0 .76-.04 1.55-.11 2.35-.06.79-.2 1.56-.4 2.31-.22.75-.55 1.46-.97 2.12-.43.67-1.02 1.28-1.77 1.82l-.26-.18c.74-.75 1.26-1.57 1.6-2.47.34-.88.56-1.84.68-2.84.1-1 .15-2.02.15-3.09m17.09.01.27-.13c.94.73 1.72 1.44 2.38 2.12.67.68 1.19 1.33 1.62 1.91.41.59.71 1.14.93 1.61.22.49.36.9.41 1.26s.05.65-.02.85c-.08.2-.2.32-.35.34-.17.03-.36-.03-.58-.2-.14-.6-.38-1.23-.72-1.91s-.73-1.38-1.17-2.07c-.46-.7-.92-1.38-1.39-2.03-.5-.64-.96-1.22-1.38-1.75m-4.69-.28 1.87.69c-.05.09-.12.14-.21.17-.08.04-.25.04-.47 0-.29.65-.63 1.31-1.06 2.01-.42.69-.9 1.39-1.41 2.07-.52.7-1.07 1.34-1.65 1.96-.57.61-1.17 1.15-1.78 1.61l-.22-.18c.49-.5.98-1.08 1.48-1.74.47-.66.93-1.36 1.37-2.11.43-.75.84-1.51 1.19-2.28.36-.76.65-1.49.89-2.2m.53-6.45.17-.13c.66.22 1.22.45 1.68.73.46.27.81.54 1.09.83.25.29.44.58.56.85s.17.51.15.73-.08.39-.19.51c-.1.14-.23.21-.41.22-.17.02-.35-.03-.54-.18-.08-.4-.27-.82-.54-1.26-.27-.45-.58-.87-.94-1.28-.36-.39-.7-.73-1.03-1.02m7.27 4.25.97-1.26s.07.05.19.14c.12.1.27.22.46.37.18.16.37.33.57.5.21.17.39.32.55.47-.05.19-.21.27-.46.27h-14.69l-.15-.49"/><line x1="188" x2="471" y1="106" y2="106" stroke="#cdbda8"/><path fill="#6b5b4b" d="m190.62 118.52-.2-.5c.12-.04.28-.08.49-.15.21-.06.44-.14.71-.23.26-.09.52-.18.8-.27l.04.11q-.18.105-.48.27c-.2.11-.41.23-.64.37-.24.14-.48.26-.72.4m-.07-2.36h.39l.11.07v1.82l-.43.16.2-.19c.04.17.03.31-.04.41-.06.11-.12.17-.19.2l-.3-.61c.11-.06.18-.1.21-.14.04-.04.05-.09.05-.14zm3.56-4.16h-.08l.29-.32.65.5c-.03.03-.07.06-.13.08-.06.03-.14.05-.22.08v1.77c0 .02-.02.04-.07.07-.05.02-.11.04-.17.07-.07.02-.13.03-.2.03h-.07zm-4.22.24v1.94c0 .02-.03.04-.07.07-.04.02-.09.05-.15.07s-.13.04-.21.04h-.08v-2.62l.56.26h4.48v.24zm-.28 1.59h4.77v.24h-4.77zm0-.92h4.77v.23h-4.77zm2.95-1.61.77.09c-.01.06-.03.1-.07.13s-.12.06-.2.06v2.37h-.5zm-1.56 0 .75.08c-.01.06-.02.1-.06.13-.04.04-.11.07-.19.07v2.37h-.5zm3.36 5.08.54.43c-.04.05-.12.06-.22.02-.1.06-.25.12-.41.2-.17.08-.35.16-.53.23-.2.08-.38.15-.56.2l-.06-.09a8.859 8.859 0 0 0 .91-.68c.14-.12.25-.23.33-.31m-2.28-.16.13-.08c.19.38.45.7.79.96.33.25.72.45 1.18.6.44.15.94.25 1.48.32v.09c-.23.04-.37.2-.44.47-.52-.12-.98-.28-1.39-.48s-.76-.45-1.05-.76c-.28-.3-.52-.68-.7-1.12m-2.88-1.67v-.27l.62.27h-.1v.79c0 .22-.02.47-.03.75-.03.28-.09.57-.17.86-.09.3-.22.59-.4.87s-.42.54-.72.77l-.1-.09c.27-.33.47-.68.6-1.04q.18-.54.24-1.08c.04-.36.06-.71.06-1.04zm5.16 0 .34-.45s.03.02.07.05c.04.04.09.08.17.14.06.05.13.12.21.18.07.07.15.14.2.19-.02.09-.09.13-.21.13h-5.75v-.24zm.09 1.59.34-.43.11.08c.08.06.16.13.27.21q.15.12.27.24c-.02.09-.09.13-.21.13h-5.77l-.08-.23zm-.55-.81.34-.41.11.08c.07.06.15.13.26.21.09.08.18.16.25.23-.01.09-.08.13-.2.13h-5.09l-.07-.24zm8.14-1.27.07-.09c.29.06.52.14.71.23s.32.18.43.28c.09.1.16.19.19.28s.04.17.02.23c-.03.07-.08.11-.13.12-.07.02-.14.01-.23-.03-.05-.12-.14-.24-.26-.37s-.26-.25-.4-.37c-.14-.11-.28-.2-.4-.28m-2.55-1.45v2.82c0 .03-.04.05-.11.09a.54.54 0 0 1-.27.06h-.07v-2.83zm2.77.02v2.78c0 .01-.04.05-.12.09s-.18.07-.31.07h-.08v-2.83zm.45-.39.51.48c-.07.07-.19.06-.36-.01-.18.04-.39.08-.62.12s-.48.08-.74.11c-.26.04-.51.07-.75.08l-.04-.14c.23-.06.47-.12.72-.19s.49-.15.72-.23.42-.16.56-.22m-2.81-.01.52.47c-.08.08-.2.07-.36 0-.17.04-.36.08-.59.13s-.47.09-.71.13c-.25.04-.49.06-.72.09l-.04-.14c.22-.05.45-.13.69-.21.24-.07.46-.15.68-.24.21-.08.39-.16.53-.23m2.64-.36.4-.49s.03.02.08.06c.04.04.11.09.19.14.07.07.15.13.24.2.08.08.16.14.23.2-.02.09-.1.13-.22.13h-6.2v-.24zm-5.56 0v-.26l.6.26h-.09v2.01c0 .34-.01.72-.03 1.12-.01.41-.05.82-.11 1.24s-.16.84-.29 1.25c-.14.41-.33.78-.57 1.13l-.14-.08c.2-.47.35-.97.44-1.49s.14-1.06.16-1.6c.03-.54.03-1.07.03-1.57zm1.9 4.27v2.3q0 .015-.06.06c-.04.03-.1.05-.16.08q-.105.03-.21.03h-.08v-2.96l.55.25h3.61v.24zm3.32-.24h-.08l.3-.31.64.49c-.03.03-.08.06-.13.09-.07.02-.14.05-.22.06v2.17c0 .02-.02.04-.07.06-.05.03-.1.05-.17.08a.7.7 0 0 1-.19.03h-.08zm-3.57 2.04h3.88v.24h-3.88zm0-1.03h3.88v.24h-3.88zm3.48-3.39v.13c-.18.37-.42.7-.72 1.01-.29.3-.65.56-1.04.8l-.09-.13c.3-.25.56-.52.8-.83.23-.32.4-.64.54-.98zm-2.69 0v.13c-.16.37-.38.7-.64 1.01-.26.32-.57.59-.92.82l-.1-.14q.39-.36.69-.84c.19-.31.34-.64.46-.98zm-.03.49.08-.07c.26.05.46.12.59.2.14.09.23.19.27.28s.05.18.02.24c-.02.08-.07.12-.13.14-.08.02-.15.01-.24-.05-.04-.13-.12-.26-.24-.41a2.7 2.7 0 0 0-.35-.33m3.21-.49.31-.39s.03.02.1.08c.06.05.14.12.23.19.09.08.17.16.24.23-.02.09-.08.13-.2.13h-2.65l-.06-.24zm-2.92 0 .3-.37s.04.03.1.07c.06.06.14.12.23.19s.16.15.23.22c-.02.09-.08.13-.2.13h-2.49l-.07-.24"/><path fill="#8b5e3c" d="M198.15 126.2h-.43l.63-.92 1.67 1.26c-.12.12-.29.22-.51.29s-.51.12-.83.15c.15 1.26.35 2.48.61 3.69.25 1.21.61 2.33 1.05 3.4s1 2.02 1.67 2.89c.66.87 1.48 1.6 2.45 2.19l-.09.19c-.25.05-.49.17-.7.36-.22.18-.37.39-.47.63-1.17-.96-2.09-2.11-2.76-3.47-.66-1.35-1.17-2.89-1.51-4.63-.36-1.73-.61-3.65-.78-5.76zm-2.13 0h2.64v.51h-2.48zm-2.85 1.77 1.87.39c-.04.1-.1.17-.19.2-.08.05-.25.07-.49.05-.17 1.52-.46 2.99-.85 4.44-.41 1.45-.99 2.77-1.72 4.01s-1.68 2.31-2.82 3.23l-.22-.19c.95-.95 1.73-2.07 2.36-3.34a19.7 19.7 0 0 0 1.43-4.19c.34-1.49.54-3.02.63-4.6m23.87 10.52v-12.43h-.17l.59-.71 1.45 1.1a1.13 1.13 0 0 1-.75.34v11.84c0 .3-.04.57-.12.8-.09.23-.26.42-.53.57-.27.16-.7.26-1.29.33-.03-.19-.09-.36-.14-.51a.76.76 0 0 0-.3-.34c-.14-.11-.34-.19-.61-.28-.28-.06-.63-.13-1.08-.18v-.27s.11 0 .33.01c.2.02.46.04.76.05.31.02.6.04.85.05.26.02.44.04.55.04.18 0 .32-.04.37-.1a.52.52 0 0 0 .09-.31m-7.77-7.09v-5.9l1.32.56h-.22v5.32c0 .67-.03 1.31-.08 1.98-.05.66-.17 1.3-.33 1.93-.17.65-.4 1.28-.73 1.87-.32.6-.74 1.16-1.26 1.69-.52.52-1.17 1.02-1.93 1.48l-.24-.21c.73-.59 1.33-1.21 1.78-1.87.46-.64.8-1.34 1.06-2.07.24-.73.41-1.5.49-2.3.09-.8.14-1.63.14-2.48m.49-4.83v-.51h7.84v.51zm0 3.81v-.49h7.84v.49zm-.17 3.91v-.49h7.99v.49zm20.3 6v-15.47l1.8.19c-.02.12-.07.24-.15.32-.09.09-.26.15-.5.19v14.31c0 .05-.05.11-.13.19-.1.08-.22.14-.36.19-.15.05-.29.08-.44.08zm-6.99-8.82-.15-.49h12.99l.9-1.18s.05.05.17.14c.12.08.25.2.42.34.17.15.36.31.55.46.18.17.35.32.51.46-.05.18-.19.27-.45.27zm26.47.25.27-.13c.94.73 1.72 1.44 2.38 2.12.67.68 1.19 1.33 1.62 1.91.41.59.71 1.14.93 1.61.22.49.36.9.41 1.26s.05.65-.02.85c-.08.2-.2.32-.35.34-.17.03-.36-.03-.58-.2-.14-.6-.38-1.23-.72-1.91s-.73-1.38-1.17-2.07c-.46-.7-.92-1.38-1.39-2.03-.5-.64-.96-1.22-1.38-1.75m-4.69-.28 1.87.69c-.05.09-.12.14-.21.17-.08.04-.25.04-.47 0-.29.65-.63 1.31-1.06 2.01-.42.69-.9 1.39-1.41 2.07-.52.7-1.07 1.34-1.65 1.96-.57.61-1.17 1.15-1.78 1.61l-.22-.19c.49-.49.98-1.07 1.48-1.73a27.337 27.337 0 0 0 2.56-4.38c.36-.77.65-1.5.89-2.21m.53-6.45.17-.13c.66.22 1.22.45 1.68.73.46.27.81.54 1.09.83.25.29.44.58.56.85s.17.51.15.73-.08.39-.19.51c-.1.14-.23.21-.41.22-.17.02-.35-.03-.54-.19-.08-.39-.27-.81-.54-1.25-.27-.45-.58-.87-.94-1.28-.36-.39-.7-.73-1.03-1.02m7.27 4.25.97-1.26s.07.05.19.14c.12.1.27.22.46.37.18.16.37.33.57.5.21.17.39.32.55.47-.05.19-.21.28-.46.28h-14.69l-.15-.5"/><line x1="188" x2="471" y1="142" y2="142" stroke="#cdbda8"/><path fill="#6b5b4b" d="m188.4 150.76-.07-.23h6.15l.42-.54s.03.02.08.06c.06.04.12.09.2.16q.12.105.27.21c.09.08.17.15.25.21-.03.09-.1.13-.22.13zm.44-2.51-.06-.24h5.28l.42-.52s.02.01.08.05.12.1.2.16c.08.07.16.14.25.21s.17.15.24.21c-.02.09-.09.13-.21.13zm2.88 6.4v-6.64h.54v6.45c0 .02-.02.04-.06.07s-.09.05-.15.08a.9.9 0 0 1-.24.04zm5.31-4.19-.07-.23h5.06v.23zm4.7-.23h-.09l.38-.33.59.56c-.04.04-.08.06-.13.07q-.09.015-.24.03c-.52.98-1.25 1.83-2.2 2.53-.95.69-2.17 1.21-3.65 1.54l-.06-.14c.89-.26 1.68-.59 2.39-1.01.7-.41 1.31-.89 1.82-1.44.52-.54.91-1.14 1.19-1.81m-3.48.16.13-.09c.2.5.48.96.84 1.37.35.41.76.78 1.23 1.09.46.31.97.58 1.53.8.55.22 1.13.39 1.73.52l-.01.08a.6.6 0 0 0-.32.14c-.1.07-.17.17-.21.31-.78-.22-1.49-.51-2.14-.89s-1.21-.84-1.69-1.39c-.47-.55-.84-1.2-1.09-1.94m1.48-.05v-3.04l.82.08c-.01.06-.03.1-.07.14-.05.04-.12.07-.22.09v2.73zm-3.2-1.5-.07-.23h5.97l.4-.51s.03.02.08.06.11.09.19.14c.07.07.15.13.24.2q.12.12.24.21c-.03.09-.1.13-.22.13"/><path fill="#302a25" d="m195.96 172.01.13-.24q1.665.405 2.91.87c.81.32 1.51.63 2.07.93.56.33 1.01.63 1.35.92.32.31.56.58.69.82.14.25.21.45.19.63-.02.16-.1.28-.25.34-.16.06-.34.06-.58-.02-.31-.36-.72-.73-1.23-1.14q-.765-.585-1.68-1.17c-.61-.39-1.22-.75-1.85-1.09-.63-.33-1.23-.61-1.75-.85m6.88-8.77 1.4.9a.4.4 0 0 1-.23.15.84.84 0 0 1-.4-.03q-.39.3-.96.66c-.39.24-.78.48-1.2.71-.43.24-.84.44-1.23.63l-.2-.24c.34-.25.7-.56 1.05-.9.36-.32.68-.66 1.01-1 .32-.32.57-.63.76-.88m-1.85-1.96 1.39.88c-.05.09-.13.14-.22.16-.08.02-.22 0-.41-.05-.37.29-.85.59-1.41.95-.58.36-1.14.66-1.7.93l-.22-.2c.31-.26.63-.56.95-.88.33-.33.63-.63.92-.96.29-.32.51-.59.7-.83m-3.96-.34.29-.17c.27.87.64 1.68 1.12 2.43.47.75 1.03 1.43 1.66 2.04s1.33 1.16 2.09 1.6c.75.46 1.53.85 2.37 1.16l-.04.17c-.52.05-.88.35-1.1.91-1.04-.52-1.99-1.17-2.82-1.95-.85-.77-1.58-1.67-2.18-2.7-.59-1.04-1.07-2.2-1.39-3.49m-7.23 2.65.17-.17c.6.12 1.09.29 1.48.48.37.2.66.41.85.63s.31.44.34.64c.04.21.02.38-.05.51-.09.16-.19.24-.34.26-.15.03-.34 0-.54-.12-.07-.26-.21-.53-.41-.82a8 8 0 0 0-.72-.79c-.25-.26-.52-.46-.78-.62m4.81-1.63h-.17l.75-.71 1.24 1.14q-.075.12-.24.15c-.12.02-.27.03-.45.05-.38.97-.87 1.89-1.48 2.75-.63.87-1.38 1.67-2.26 2.37-.91.71-1.96 1.31-3.2 1.78l-.17-.25c1.56-.8 2.86-1.86 3.86-3.15 1-1.27 1.7-2.65 2.12-4.13m-5.06 0h5.59v.51h-5.44zm6.29 5.68h1.31c-.04.8-.11 1.55-.19 2.26-.1.71-.29 1.38-.56 2.01-.27.62-.68 1.2-1.24 1.73-.56.54-1.33 1.04-2.3 1.5-.97.45-2.19.86-3.67 1.22l-.19-.27c1.33-.43 2.42-.87 3.25-1.33s1.5-.97 1.99-1.49c.49-.53.85-1.08 1.07-1.67.22-.6.36-1.22.43-1.89.05-.66.08-1.34.1-2.07m2.63-.07.72-.88s.06.05.22.17c.15.12.32.27.54.44.22.19.41.36.58.51-.05.19-.21.27-.46.27h-7.41l-.14-.51zm2.62 3.15.8-1.01s.05.04.15.1c.1.09.24.19.39.31.16.12.31.26.5.39.17.15.32.29.45.44-.01.09-.05.16-.13.21-.09.05-.19.07-.31.07h-13.02l-.14-.51zm14.3-8.27h4.83v.5h-4.83zm-.65 0v-.68l1.29.68h-.2v13.47c0 .03-.04.08-.12.13s-.19.11-.32.16c-.14.05-.29.08-.48.08h-.17zm4.64 0h-.17l.58-.71 1.43 1.09c-.05.07-.16.13-.27.18-.14.07-.29.12-.46.14v8.38c0 .29-.04.55-.11.77-.08.22-.23.41-.45.54-.24.15-.62.24-1.13.29-.01-.19-.03-.34-.08-.48a.9.9 0 0 0-.24-.34c-.12-.08-.27-.17-.48-.25-.2-.07-.47-.12-.81-.17v-.27s.08 0 .24.01c.15.02.34.04.56.06.22.01.42.03.63.03.18.02.32.02.41.02.15 0 .23-.04.28-.09.06-.05.07-.14.07-.25zm-7.07-1.71 1.46 1.14c-.15.17-.42.18-.85.03-.41.17-.88.34-1.44.53-.56.18-1.14.35-1.75.51-.63.15-1.23.29-1.82.39l-.1-.26c.52-.18 1.08-.42 1.66-.69.56-.28 1.11-.57 1.62-.85.49-.29.9-.57 1.22-.8m-.7 3.07 1.67.19a.5.5 0 0 1-.15.29c-.09.09-.24.14-.45.17v4.17c0 .81-.08 1.59-.23 2.34-.16.77-.45 1.46-.85 2.13-.41.66-.99 1.27-1.72 1.81-.73.55-1.7 1.03-2.87 1.42l-.16-.26c.97-.42 1.77-.92 2.4-1.46.63-.53 1.1-1.12 1.46-1.75.34-.63.58-1.31.72-2.02.11-.7.18-1.45.18-2.23zm-4.38-1.53 1.75.56c-.04.09-.1.16-.21.21-.1.05-.25.1-.46.12v1.07h-1.08zm0 1.16h.83l.25.15v7.6l-.96.34.37-.37c.09.34.07.61-.07.81-.13.21-.27.34-.39.41l-.56-1.19c.22-.13.37-.24.44-.32.05-.09.09-.19.09-.34zm.18 8.74-.54-.99c.31-.1.73-.25 1.28-.44.54-.19 1.15-.43 1.85-.68.68-.26 1.38-.51 2.07-.78l.12.25c-.49.27-1.17.65-2.02 1.14-.85.5-1.77.99-2.76 1.5"/><line x1="24" x2="471" y1="178" y2="178" stroke="#cdbda8"/><path fill="#8b5e3c" d="M38.4 187.42h-.19l.75-.74 1.36 1.3c-.07.05-.15.07-.26.09s-.25.05-.4.07c-.21.27-.5.56-.85.88-.36.32-.7.58-1.01.8l-.2-.12c.09-.2.19-.44.29-.73s.2-.56.31-.83c.08-.27.15-.51.2-.72m-11.82-.86.29-.02c.19.63.27 1.19.24 1.67-.05.47-.15.86-.34 1.17-.19.32-.39.56-.63.71-.15.09-.3.16-.47.19-.19.03-.34.02-.5-.03a.57.57 0 0 1-.32-.31.65.65 0 0 1 .05-.56c.1-.17.24-.31.43-.41.22-.12.44-.31.64-.54.21-.24.38-.53.49-.85q.18-.495.12-1.02m.09.86h12.07v.51H26.67zm4.59-2.56.17-.12c.56.12 1.02.27 1.36.47.32.21.56.43.71.65q.21.36.21.66c0 .21-.05.38-.16.51q-.165.21-.42.24c-.17.02-.36-.03-.56-.19-.05-.39-.22-.78-.48-1.2-.25-.43-.54-.77-.83-1.02m-2.87 5.03v-.56l1.27.56h5.68l.59-.77 1.48 1.13c-.07.08-.15.13-.27.18s-.27.09-.49.1v8.96h-1.11v-9.11h-6.07v9.11h-1.08zm9.58 9.31.85-1.12s.06.04.16.12c.1.09.24.21.39.34.15.14.32.29.51.44.17.16.32.31.46.45-.05.18-.19.27-.43.27H24.88l-.13-.5zm-9.21-3.17h7.45v.49h-7.45zm0-3.1h7.45v.49h-7.45zm20.74-2.82c.32 0 .58-.1.8-.32.22-.23.32-.48.32-.8 0-.33-.1-.58-.32-.8a1.07 1.07 0 0 0-.8-.32c-.32 0-.58.1-.8.32s-.32.47-.32.8c0 .32.1.57.32.8.22.22.48.32.8.32m0 8.3c.32 0 .58-.11.8-.33s.32-.47.32-.8c0-.32-.1-.59-.32-.81s-.48-.33-.8-.33-.58.11-.8.33-.32.49-.32.81c0 .33.1.58.32.8s.48.33.8.33m19.16-8.81 1.68.44a.5.5 0 0 1-.2.26c-.1.08-.26.11-.46.11-.05.72-.12 1.43-.21 2.15-.1.71-.25 1.41-.47 2.1-.22.7-.53 1.37-.92 2.03a9 9 0 0 1-1.6 1.9c-.66.63-1.49 1.21-2.5 1.77l-.22-.31c1.07-.74 1.94-1.53 2.59-2.34.63-.8 1.12-1.65 1.44-2.52s.53-1.77.65-2.7c.12-.94.19-1.9.22-2.89m.65.66.32-.05c.08.92.22 1.8.41 2.65.18.87.46 1.67.81 2.42.36.76.82 1.46 1.41 2.09.6.64 1.33 1.22 2.2 1.73l-.04.21c-.29.03-.53.12-.71.27-.19.15-.31.39-.38.71a7.3 7.3 0 0 1-1.87-1.94c-.49-.73-.9-1.54-1.19-2.41s-.51-1.78-.64-2.75c-.16-.97-.26-1.94-.32-2.93m-2.03-5.51 1.8.41c-.01.12-.08.21-.17.27-.1.07-.25.11-.44.12a24 24 0 0 1-1.12 3.57c-.46 1.14-1 2.13-1.62 2.94l-.27-.15c.27-.63.53-1.32.77-2.11a28 28 0 0 0 1.05-5.05m5.41 3.47h-.21l.75-.71 1.28 1.24c-.1.08-.33.15-.67.17-.15.29-.35.63-.61.99-.25.37-.53.74-.8 1.1-.29.37-.54.7-.8.99l-.22-.14c.16-.32.31-.71.46-1.17.16-.44.31-.89.48-1.35.15-.44.25-.81.34-1.12m-5.58 0h6.16v.51h-6.28zm-5.85 3.42v7.8c0 .05-.08.12-.23.22-.16.1-.38.16-.63.16h-.17v-7.69l.51-.81.73.32zm2.38 0h-.17l.6-.68 1.36 1.04c-.05.06-.15.13-.27.18-.14.07-.29.12-.46.16v6.37c0 .02-.05.07-.15.12-.11.05-.23.1-.36.14-.14.03-.27.05-.39.05h-.16zm-2.84 5.73h3.37v.51H60.8zm.06-5.73h3.36v.49h-3.36zm1.41-5.15v.27a24.3 24.3 0 0 1-1.23 4.78c-.56 1.51-1.32 2.87-2.29 4.11l-.27-.2c.49-.84.9-1.75 1.24-2.74.34-.97.63-1.99.86-3.04.24-1.06.43-2.11.55-3.18zm1.7 0 .78-.97s.05.03.15.1c.09.09.22.19.38.31.15.12.32.25.49.39.15.13.31.27.44.41-.05.18-.19.27-.44.27H58.9l-.13-.51zm16.86 10.47-.14-.49h8.49l.81-1.02s.06.03.16.12c.1.08.22.18.37.3s.31.26.48.39c.17.16.32.29.46.43-.05.19-.19.27-.43.27zm1.85-5.07v-.49h6.97v.49zm0 2.4v-.49h6.97v.49zm2.88-4.96v-4.47l1.7.18c-.02.12-.07.21-.16.29-.08.09-.23.16-.46.17v3.83zm0 11.03v-6.48h1.08v6.16c0 .03-.08.1-.25.18-.17.09-.39.14-.66.14zm.52-13.11v-.49h2.95l.79-.99s.06.04.16.12c.08.09.2.17.35.29.16.12.31.26.48.39.17.16.32.29.46.43-.05.17-.21.25-.46.25zm-4.02 8.11v-6.85l1.17.53h6.42v.49h-6.51V195c0 .04-.05.09-.13.14-.09.05-.21.1-.34.15-.14.05-.28.07-.43.07zm7.13-.2v-6.12h-.16l.62-.68 1.36 1.05a.9.9 0 0 1-.27.17c-.13.07-.29.12-.44.16v5.04c0 .04-.05.09-.15.14-.12.07-.24.12-.38.17-.13.05-.27.07-.41.07zm-13.34-6.02-.14-.49h4.1l.7-.97s.05.03.13.1c.09.09.21.17.34.29.14.12.28.25.43.39l.41.41c-.05.19-.19.27-.43.27zm2.38 9.45v-13.84l1.7.19c-.02.12-.09.21-.17.29-.1.08-.26.15-.46.17v13.28c0 .29-.03.56-.08.78-.07.22-.22.41-.46.54-.24.14-.6.24-1.09.31-.02-.19-.05-.34-.1-.49a.8.8 0 0 0-.24-.34c-.12-.11-.27-.19-.48-.24q-.33-.075-.81-.15v-.28s.08 0 .24.02c.15.02.33.02.56.03.22.02.42.02.63.04.18.01.32.01.39.01.15 0 .25-.01.3-.06s.07-.14.07-.26m-2.19-3.48-.58-1.43c.34-.09.83-.24 1.48-.44.64-.19 1.37-.43 2.21-.72.81-.27 1.66-.54 2.53-.83l.09.24c-.63.34-1.4.75-2.3 1.2-.9.48-1.92.99-3.08 1.55-.01.12-.06.21-.13.27-.07.07-.14.12-.22.16m17.08-6.57-.15-.49h12.82l.8-.98s.05.03.15.12c.08.08.22.16.37.28.16.12.33.26.5.4.17.15.32.28.47.42-.02.09-.05.14-.13.19-.09.05-.21.06-.33.06zm1.04 8.81-.15-.49h10.96l.78-.94s.05.04.16.11c.08.08.22.16.37.28s.31.26.48.4c.15.13.3.27.44.39-.05.17-.21.25-.46.25zm-1.33 2.41-.15-.47h13.24l.85-1.07s.05.03.16.12c.1.08.23.18.4.32.16.14.33.27.51.43.17.15.33.28.48.4-.03.19-.19.27-.46.27zm12.31-15.02 1.14 1.14q-.255.225-.87-.06c-.73.12-1.53.23-2.43.34-.9.12-1.85.21-2.82.29-.99.09-1.99.17-2.99.23-1.02.05-2.03.08-2.99.1l-.07-.34c.95-.07 1.94-.17 2.97-.29 1.02-.12 2.03-.26 3.03-.41.98-.15 1.92-.31 2.79-.49.86-.17 1.61-.34 2.24-.51m-5.25 14.67v-13.28h1.12v13.28zm-4.42-4.3v-.5h9.87v.5zm0-2.26v-.5h9.94v.5zm9.37 2.85v-5.54h-.16l.6-.7 1.41 1.07c-.05.06-.16.12-.27.17-.14.07-.29.12-.46.16v4.52c0 .02-.05.05-.16.1s-.23.1-.39.15c-.15.06-.29.07-.41.07zm-9.88.15v-6.25l1.22.56h9.2v.48h-9.3v4.82c0 .04-.05.09-.14.14-.08.07-.2.14-.34.17-.15.05-.3.08-.47.08zm24.49-11.16 1.65.17c-.01.11-.05.2-.13.27-.09.08-.22.13-.43.15v3.76h-1.09zm.07 4.25h.95v4.43l-.15.02.22.02v6.56c0 .05-.08.12-.23.2-.17.11-.4.16-.68.16h-.18v-6.92l.23-.02-.16-.02zm2.23.78 1.26.66c-.02.05-.07.12-.17.17s-.24.07-.39.05c-.16.22-.38.51-.63.84-.26.34-.53.66-.8.96l-.21-.12c.12-.25.24-.54.36-.86.12-.33.24-.63.34-.95.1-.31.19-.56.24-.75m1.26-.94h-.17l.59-.66 1.35 1.02a.7.7 0 0 1-.29.19c-.14.07-.29.12-.46.15v4.54c0 .03-.05.08-.14.14-.1.05-.22.1-.34.15-.13.05-.25.07-.37.07h-.17zm-6.05.48v4.88q0 .045-.12.12c-.09.05-.21.1-.33.15s-.25.07-.4.07h-.16v-6.24l1.09.51h6.77v.51zm.25.68.21-.1c.49.25.85.52 1.1.8.24.27.39.52.46.76.05.26.05.46-.02.61-.08.17-.18.27-.32.29-.15.04-.31-.02-.48-.15-.03-.36-.15-.73-.34-1.16-.2-.42-.4-.76-.61-1.05m3.11 3.3.27-.12c.33.76.74 1.48 1.25 2.14.5.66 1.07 1.26 1.69 1.78.63.53 1.26.94 1.91 1.25l-.03.17c-.23.03-.43.13-.6.29-.19.16-.31.39-.39.66-.92-.63-1.73-1.46-2.43-2.53-.72-1.06-1.28-2.27-1.67-3.64m-.01-.14v.27c-.57 1.29-1.33 2.47-2.3 3.51-.99 1.03-2.16 1.92-3.52 2.65l-.19-.26c1.11-.76 2.08-1.7 2.89-2.77a13 13 0 0 0 1.89-3.4zm-3.83-.22h7.12v.49h-7.12zm6.71-6.19.79-1s.05.03.15.12c.09.08.2.19.36.3.15.12.3.26.47.39.17.16.33.29.46.43-.05.19-.2.27-.46.27h-9.91l-.13-.51zm-8.72 1.12 1.43.99c-.05.08-.17.14-.34.17-.17.05-.37 0-.63-.14l.48-.11c-.26.37-.56.79-.92 1.25-.37.48-.78.96-1.24 1.45s-.92.97-1.39 1.43c-.48.46-.94.86-1.4 1.22l-.03-.19h.64c-.05.38-.15.67-.29.89-.13.22-.28.37-.45.42l-.55-1.53s.07-.01.21-.05c.12-.02.22-.05.27-.1.37-.32.76-.72 1.19-1.21a22 22 0 0 0 2.26-3.13c.32-.52.58-.96.76-1.36m-1.66-3.04 1.56.78c-.05.09-.15.17-.3.22-.16.07-.38.05-.65-.06l.46-.14c-.22.44-.53.93-.9 1.48-.38.54-.77 1.09-1.19 1.61-.43.55-.85 1.01-1.26 1.4l-.03-.21h.66c-.05.4-.14.68-.26.9-.13.23-.29.36-.44.41l-.58-1.49s.06-.02.17-.04c.11-.01.19-.07.24-.12.24-.25.48-.57.73-.98.26-.39.5-.82.73-1.28.24-.46.45-.9.63-1.34.19-.44.33-.82.43-1.14m-1.99 10.71h.31c.23.9.3 1.7.22 2.35-.09.66-.24 1.15-.46 1.46-.09.14-.19.24-.34.32-.16.09-.29.12-.43.1-.15 0-.27-.05-.35-.15-.11-.13-.12-.29-.07-.47s.15-.33.3-.48c.16-.17.31-.43.44-.77.14-.34.24-.71.33-1.13.07-.43.08-.84.05-1.23m2.85-.56.23-.08c.51.32.9.66 1.15.98.26.34.41.65.46.94.05.28.05.54-.03.71q-.135.285-.36.36c-.17.05-.34-.02-.51-.19 0-.29-.05-.61-.14-.93-.1-.33-.22-.65-.35-.97-.16-.33-.29-.6-.45-.82m-1.46.37.26-.06c.39.49.66.95.83 1.39.15.44.22.83.22 1.19-.02.36-.07.63-.19.85-.11.22-.27.34-.44.36-.17.03-.34-.05-.49-.24.07-.37.1-.77.1-1.19-.02-.43-.03-.83-.08-1.24-.05-.39-.12-.75-.21-1.06m1.29-3.62.24-.1c.51.39.9.77 1.16 1.14.25.37.41.71.46 1.02.05.32.03.58-.04.77-.08.18-.2.3-.35.34-.17.05-.34-.02-.51-.19 0-.33-.05-.66-.14-1.02-.1-.36-.22-.72-.37-1.06-.16-.34-.29-.64-.45-.9m-3 3.18-.38-1.12c.29-.02.68-.05 1.19-.1.5-.04 1.07-.09 1.7-.16.63-.06 1.28-.13 1.94-.22l.03.28c-.3.1-.69.22-1.17.35-.48.16-1 .31-1.56.48s-1.16.34-1.75.49m.11-3.99-.45-1.14h.93q.585.03 1.29 0c.46-.02.94-.04 1.41-.05l.02.27c-.31.12-.76.25-1.36.42-.59.17-1.21.34-1.84.5m21.42.08.21-.29c.56.22 1.04.44 1.46.68.43.24.78.5 1.09.75.3.26.56.55.76.85.12.19.21.38.29.6.07.22.1.42.09.63-.02.15-.07.28-.15.4-.11.12-.24.17-.41.17-.16 0-.29-.07-.39-.18-.11-.12-.23-.33-.34-.58a8.8 8.8 0 0 0-1.02-1.57c-.43-.49-.96-.96-1.59-1.46m23.06 2.26.17-.25c.85.29 1.53.58 2.05.88.53.31.92.6 1.19.89q.42.42.51.78c.07.24.07.42 0 .58-.08.15-.2.25-.35.29-.16.03-.34 0-.53-.12-.12-.26-.32-.55-.61-.89-.29-.32-.63-.68-1.04-1.07-.42-.37-.88-.73-1.39-1.09m-4.54-7.34 1.43.56c-.05.08-.17.15-.36.17v4.71c0 .75-.02 1.53-.07 2.35-.05.81-.17 1.63-.36 2.44a10 10 0 0 1-.85 2.38c-.37.77-.9 1.47-1.56 2.11l-.27-.19c.61-.88 1.07-1.82 1.36-2.82s.47-2.02.56-3.09q.12-1.605.12-3.18zm6.87-1.09 1.32 1.28a.53.53 0 0 1-.34.1c-.15 0-.34-.04-.52-.12-.58.12-1.25.24-1.98.36-.74.11-1.53.22-2.34.3-.82.09-1.62.15-2.4.19l-.09-.27c.75-.14 1.52-.31 2.32-.51.8-.21 1.54-.43 2.26-.67.69-.23 1.29-.46 1.77-.66m-1.76 5.32v9.9c-.01.03-.1.1-.25.18-.17.11-.39.16-.66.16h-.19v-10.24zm1.42 0 .81-1.02s.05.04.16.12c.08.09.2.19.37.31.15.13.3.27.48.41.16.15.32.28.45.42-.05.19-.2.27-.45.27h-7.72v-.51zm-12.89 5.03-.61-1.39c.25-.08.63-.19 1.09-.34s.96-.32 1.54-.53c.58-.18 1.21-.4 1.87-.64.67-.24 1.33-.48 2.01-.73l.08.25c-.66.36-1.46.78-2.39 1.29-.94.51-2.03 1.07-3.23 1.67-.02.1-.07.19-.14.25-.07.09-.13.14-.22.17m2.19-10.37 1.72.19c-.02.12-.09.21-.17.29-.1.08-.25.14-.46.15v13.23c0 .3-.03.58-.1.8-.09.24-.24.42-.49.58-.26.15-.67.25-1.19.3-.02-.19-.07-.34-.12-.49a.77.77 0 0 0-.28-.36c-.13-.12-.32-.2-.56-.29-.23-.06-.56-.12-.95-.17v-.29s.1 0 .29.02.41.04.66.05c.26.02.51.04.75.05.22.02.39.04.48.04.17 0 .29-.04.34-.09s.08-.15.08-.29zm1.74 3.88.71-.95s.07.07.22.19c.16.13.33.28.53.45.2.19.39.36.54.53-.05.19-.18.27-.44.27h-5.74l-.14-.49zm14.91-1.65.23-.51h2.98v.51zm2.6-.51h-.19l.65-.65 1.19 1.09c-.07.07-.16.1-.26.12-.12.02-.25.04-.41.05-.15.22-.34.48-.54.77s-.43.58-.65.87c-.23.28-.47.54-.69.74h-.34c.17-.27.34-.59.49-.97a18 18 0 0 0 .44-1.1c.14-.38.24-.68.31-.92m-3.67 6.12v-3.89l1.19.54h-.19v3.33c0 .58-.02 1.19-.04 1.86-.03.66-.11 1.34-.23 2.04-.12.69-.33 1.36-.6 2-.27.67-.65 1.26-1.14 1.82l-.25-.19c.4-.76.69-1.56.86-2.39s.28-1.7.33-2.57.07-1.72.07-2.55m.56-2.85v-.5h4.69v.5zm0 2.75V192h4.69v.49zm-.07 2.94v-.51h4.76v.51zm4.27 3.28v-9.47h-.19l.54-.68 1.4 1.04a.7.7 0 0 1-.29.19c-.14.06-.29.12-.46.15v8.89c0 .26-.04.49-.1.68-.07.2-.22.37-.45.49s-.59.22-1.07.28c-.01-.16-.05-.29-.1-.41a.6.6 0 0 0-.25-.29c-.12-.09-.28-.17-.5-.22s-.49-.11-.83-.16v-.25s.08 0 .26.02c.15.01.35.01.57.03s.43.02.65.03c.2.02.34.02.42.02.16 0 .28-.03.33-.08.05-.06.07-.14.07-.26m-2.4-3.62v-5.85h.93v5.85zm3.96-8.57-.15-.49h6.93v.49zm6.34-.49h-.17l.6-.63 1.24.99c-.05.06-.14.11-.24.15-.1.03-.24.07-.41.08-.02.77-.07 1.41-.14 1.94-.06.53-.15.94-.27 1.26s-.25.54-.44.7c-.17.12-.37.22-.63.29-.25.08-.53.12-.78.12 0-.16-.02-.29-.05-.43a.64.64 0 0 0-.21-.31c-.08-.06-.23-.13-.46-.2-.22-.07-.45-.12-.67-.15v-.29c.17.01.37.01.59.03s.42.04.63.05c.19.02.34.04.42.04.24 0 .4-.05.48-.14.14-.12.24-.47.32-1.05.09-.56.14-1.38.19-2.45m-2.92 14.28v-9.28l1.63.17c-.02.12-.05.2-.14.27-.08.08-.22.13-.41.17v8.26c0 .05-.05.12-.13.17-.09.05-.21.1-.34.15-.14.06-.27.09-.41.09zm-3.56-3.54-.13-.51h6.58l.73-.92s.08.07.24.19c.15.14.32.29.54.46.22.19.41.36.56.51-.05.19-.19.27-.42.27zm2.74-10.74h1.28c-.19 1.29-.62 2.36-1.26 3.19-.67.84-1.62 1.52-2.86 2.03l-.12-.26c.99-.59 1.7-1.31 2.14-2.12.45-.82.72-1.77.82-2.84m-1.38 5.13 1.52.46q-.075.135-.21.24c-.08.07-.22.1-.41.08-.25.72-.57 1.38-.96 1.99-.4.63-.82 1.14-1.3 1.55l-.23-.17c.34-.51.64-1.12.93-1.85s.51-1.5.66-2.3m-.17 2.69v-.49h4.86l.7-.85s.07.05.22.17c.16.11.33.25.53.4.19.17.37.34.53.5-.05.18-.19.27-.43.27zm-6.02-9.13 1.6.49c-.03.09-.1.17-.2.24-.1.09-.24.12-.43.1-.39 1.04-.88 1.99-1.46 2.86-.59.88-1.22 1.61-1.9 2.19l-.24-.19c.53-.66 1.04-1.51 1.51-2.51.48-1 .85-2.06 1.12-3.18m18.11 2.96.2-.1c.6.35 1.04.69 1.33 1.05s.46.7.54 1c.09.31.09.56 0 .77-.08.2-.2.32-.37.37s-.36-.02-.54-.18c-.02-.33-.09-.65-.21-1.01s-.27-.7-.42-1.04c-.17-.33-.34-.62-.53-.86m-2.84.39.31.02c.25.88.34 1.66.29 2.36-.07.7-.21 1.21-.41 1.53-.09.14-.21.24-.34.32-.15.09-.29.14-.44.14-.16.02-.28-.04-.38-.16a.55.55 0 0 1-.08-.49c.05-.19.13-.35.29-.51.15-.19.28-.44.4-.8.12-.35.22-.74.29-1.17s.09-.85.07-1.24m1.43-3.32 1.7.19a.5.5 0 0 1-.15.29c-.09.08-.24.15-.46.19v14.52c0 .05-.04.1-.12.16a1.2 1.2 0 0 1-.32.16c-.14.05-.28.07-.43.07h-.22zm4.05 1.33.28-.19c.34.85.8 1.62 1.4 2.3a9.3 9.3 0 0 0 2.04 1.8c.78.53 1.65.95 2.58 1.31.94.36 1.94.63 2.99.83l-.03.19a1.1 1.1 0 0 0-.61.27c-.17.15-.29.38-.38.65-1.34-.39-2.56-.9-3.65-1.53s-2.02-1.4-2.79-2.33c-.78-.94-1.39-2.03-1.83-3.3m6.3-.26h-.17l.77-.67 1.22 1.12c-.12.12-.36.18-.73.2-.82 1.68-1.99 3.11-3.54 4.28-1.54 1.19-3.51 2.08-5.95 2.67l-.13-.27c2.14-.69 3.94-1.68 5.39-2.92 1.44-1.24 2.5-2.72 3.14-4.41m-7.78 0h8.24v.5h-8.09zm4.31 6.5 1.67.17c-.02.12-.05.2-.14.27-.08.09-.22.14-.4.15v6.43h-1.13zm4.29 6.7.8-1.04s.05.03.15.12c.1.08.22.19.39.31.15.11.31.25.48.4.17.16.32.29.47.43-.01.08-.06.15-.15.2-.08.05-.19.07-.31.07h-10.96l-.14-.49zm-1.16-3.91.8-1.01.15.12c.09.09.21.19.36.31q.225.18.48.39c.17.15.32.29.46.42-.04.19-.19.28-.46.28h-8.66l-.13-.51zm6.12-5.09v-.51h5.92v.51zm0 1.74v-.5h5.92v.5zm0 1.82v-.5h5.92v.5zm.33 2.99v-.48h5.16v.48zm0 2.67v-.49h5.16v.49zm-.87-5.02v-5.23l1.26.52h-.21v4.36c0 .03-.08.1-.24.2q-.255.15-.66.15zm.34 6.07v-4.76l1.29.56h-.2v3.85c0 .05-.09.11-.24.2-.17.1-.39.15-.68.15zm-.09-14.04v-.49h2.25v.49zm0 2.11v-.49h2.25v.49zm-.47.68v-3.79l1.14.51h-.21v2.94c0 .05-.07.12-.2.2-.15.09-.34.14-.6.14zm6.17 5.03v-4.56h-.15l.57-.59 1.26.95c-.12.15-.32.26-.61.31v3.52c0 .03-.05.08-.15.13-.12.07-.24.12-.36.17-.14.05-.27.07-.39.07zm-3.83-5.24v-3.07h-.13l.51-.53 1.12.83c-.03.05-.1.1-.21.16-.1.05-.22.1-.33.12v2.15c0 .04-.06.09-.14.14-.1.05-.22.1-.34.14-.12.05-.24.06-.32.06zm2.33-2.58v-.49h2.31v.49zm0 2.11v-.48h2.31v.48zm-.54.66v-3.77l1.14.51h-.21v2.92c0 .05-.06.12-.22.2-.15.09-.34.14-.58.14zm2.38-.19v-3.07h-.15l.54-.56 1.19.88c-.12.15-.34.26-.63.31v2.1c0 .04-.05.07-.14.12-.1.05-.2.11-.32.16a.9.9 0 0 1-.36.06zm-.73 11.16v-3.9H201l.58-.63 1.29.97c-.05.05-.12.1-.23.16a1 1 0 0 1-.39.13v2.91c0 .03-.06.08-.16.13-.12.06-.24.11-.37.16-.14.05-.27.07-.41.07zm-6.4-4.92-.13-.49h7.33l.69-.88s.09.05.24.17.32.27.55.44c.2.17.39.34.56.51-.06.17-.19.25-.45.25zm3.81-1.65v-3.91h1.02v3.91zm7.06-8.58 1.71.19c-.01.12-.06.22-.15.28-.08.09-.24.16-.44.19-.02 1.21-.03 2.37-.05 3.5-.02 1.14-.09 2.25-.2 3.3-.12 1.06-.31 2.06-.58 3.01-.29.95-.68 1.85-1.21 2.69-.53.85-1.21 1.63-2.07 2.33l-.24-.29c.86-.94 1.53-1.96 1.99-3.06.46-1.11.76-2.3.93-3.57.17-1.28.27-2.64.29-4.08.02-1.43.02-2.93.02-4.49m.9 5.12.34-.12c.12 1.39.32 2.7.61 3.92.29 1.23.68 2.33 1.19 3.28.51.97 1.14 1.79 1.89 2.45l-.07.14a.9.9 0 0 0-.59.17c-.19.12-.33.3-.45.53-.49-.57-.9-1.23-1.24-1.96-.36-.73-.64-1.53-.87-2.4-.22-.86-.4-1.81-.52-2.82-.14-1-.24-2.06-.29-3.19m1.09-4.2.18-.14c.55.17.97.38 1.3.6.32.22.54.46.69.69.16.24.22.46.24.65 0 .2-.05.37-.13.49-.11.12-.23.21-.38.22-.15.02-.3-.03-.49-.17-.04-.27-.12-.56-.27-.85-.16-.29-.33-.56-.53-.83-.2-.26-.41-.48-.61-.66m-4.49 4.57-.14-.49h5.17l.77-.97s.08.07.23.19c.16.11.36.27.58.45.22.19.41.38.6.55-.05.19-.19.27-.44.27zm9.72-2.09 1.75.17c-.01.12-.06.22-.17.29-.1.08-.25.13-.47.15v1c0 .04-.04.07-.12.12-.09.05-.21.1-.34.14-.15.03-.29.05-.44.05h-.21zm.17-2.7h11.75v.51h-11.59zm11.27 0h-.2l.8-.73 1.33 1.2c-.14.1-.4.15-.79.15-.49.29-1.05.58-1.7.91-.64.32-1.31.61-2 .9-.7.29-1.36.52-2.03.71h-.35c.59-.25 1.2-.58 1.83-.97.63-.37 1.21-.76 1.77-1.15.56-.4 1-.74 1.34-1.02m-5.2 2.63 1.65.19c-.02.12-.08.2-.17.27-.08.09-.24.14-.44.15v7.4c0 .29-.04.54-.1.75-.09.22-.24.39-.48.51-.24.13-.61.23-1.1.28-.02-.15-.07-.3-.12-.42a.76.76 0 0 0-.26-.31c-.12-.08-.29-.15-.51-.22-.22-.06-.53-.12-.9-.17v-.25s.09 0 .27.02c.17.01.38.01.63.03.26.02.48.03.7.05s.36.02.44.02c.15 0 .27-.04.32-.09s.07-.13.07-.25zm3.81.83 1.38.97c-.05.09-.12.12-.21.14-.08.02-.22 0-.39-.05-.29.19-.66.41-1.09.66-.44.26-.88.49-1.34.75-.46.25-.87.47-1.26.66l-.17-.17c.33-.27.67-.59 1.06-.95s.76-.71 1.12-1.07.65-.66.9-.94m-3.25 3.3.17-.17c.82.26 1.5.55 2.04.85.55.33.97.63 1.28.92.29.31.49.58.61.83.12.26.15.48.12.67-.05.18-.14.29-.27.34-.16.05-.34.03-.56-.09q-.255-.54-.84-1.17c-.39-.43-.81-.82-1.27-1.21s-.89-.71-1.28-.97m-4.55-2.92.17-.16c.63.14 1.15.31 1.58.52.41.22.73.44.95.66q.33.33.42.66c.06.22.06.39 0 .53-.06.15-.16.24-.32.29-.15.05-.34.01-.54-.09-.12-.29-.29-.58-.55-.88-.25-.29-.54-.58-.85-.85-.3-.27-.59-.5-.86-.68m.35 6.24-1.02-1.18c.29-.12.72-.32 1.25-.57.52-.26 1.1-.55 1.76-.89.67-.34 1.33-.7 2.03-1.05l.12.22c-.46.36-1.01.8-1.64 1.31-.64.51-1.39 1.07-2.26 1.7 0 .22-.08.37-.24.46m-2.6-6.75h.85l.26.15v10h.15l-.48.64-1.41-.85c.11-.1.24-.2.41-.3.17-.09.33-.16.48-.19l-.26.59zm12.18-.66 1.73.18c-.02.12-.07.21-.14.29-.08.09-.25.15-.47.19v11.05c0 .05-.04.1-.12.17a1.35 1.35 0 0 1-.78.24h-.22zm-11.6 10.33h12.09v.49h-12.09zm15.54-9.57-.15-.51h13.07l.83-1.02s.05.03.16.12c.1.08.23.19.39.31.15.13.32.27.51.4.17.16.32.29.47.43-.03.18-.19.27-.46.27zm.7 3.5-.12-.51h5.54l.78-.97s.05.04.14.1c.08.09.22.17.37.29s.31.26.48.4c.15.15.3.28.46.42-.06.19-.21.27-.46.27zm7.66-7.66 1.82.2c-.02.1-.05.2-.13.29-.09.08-.24.15-.46.19-.02 1.27.03 2.54.15 3.8.12 1.28.32 2.49.61 3.62.29 1.14.68 2.18 1.21 3.08.53.92 1.19 1.67 2 2.26.14.12.24.19.33.17.07-.01.13-.1.22-.25.1-.21.22-.5.37-.87q.21-.54.36-1.05l.22.03-.31 2.58c.26.33.41.58.46.73.06.17.04.31-.05.4-.1.13-.23.2-.41.22-.18.01-.37 0-.57-.07a2.8 2.8 0 0 1-.63-.31c-.22-.13-.43-.27-.61-.42-.91-.7-1.64-1.57-2.23-2.59-.6-1-1.05-2.14-1.4-3.41-.34-1.26-.57-2.62-.73-4.07-.15-1.44-.22-2.95-.22-4.53m2.35.57.15-.15c.61.07 1.12.17 1.51.32.4.16.69.34.89.53s.34.37.39.56.05.34 0 .48c-.05.13-.15.22-.31.27-.15.05-.32.03-.51-.05-.11-.22-.3-.44-.54-.7-.26-.24-.51-.48-.78-.7-.29-.22-.55-.4-.8-.56m-6.97 12.79V192h1.1v6.01zm-2.86 1.8-.78-1.34c.49-.09 1.17-.24 2.06-.46.88-.22 1.88-.48 3.02-.77s2.3-.58 3.51-.9l.08.29c-.88.34-1.94.75-3.18 1.21-1.24.47-2.7 1-4.35 1.56-.03.1-.08.19-.15.26-.07.06-.14.12-.21.15"/><path fill="#8b5e3c" d="m28.88 210.56 1.63.17c-.02.11-.05.19-.13.26-.09.08-.23.13-.38.15v3.23c0 .12.05.2.15.26.09.05.34.06.77.06h2.43c.56 0 1.04 0 1.43-.01.39-.02.66-.02.81-.04.12-.01.22-.03.28-.07.05-.01.08-.06.13-.15.09-.15.17-.41.26-.76l.27-1.23h.22l.05 2.06c.21.05.34.12.43.19.06.08.1.17.1.29 0 .15-.05.27-.16.35-.1.11-.28.19-.57.24s-.68.1-1.21.12q-.795.03-2.07.03H30.8c-.53 0-.93-.03-1.21-.1-.27-.07-.46-.18-.56-.36-.1-.15-.15-.39-.15-.69zm-1.85-5.69v-.56l1.31.56h-.21v3.09c0 .1.03.17.09.22.05.05.18.1.39.12.2.02.52.04.95.04h3.99c.92 0 1.7 0 2.35-.02s1.09-.02 1.34-.04c.21-.01.34-.05.41-.1.05-.03.1-.1.15-.22.09-.18.19-.46.29-.85.09-.37.21-.83.33-1.37h.22l.03 2.36c.26.05.43.1.53.17.08.07.13.15.13.27 0 .15-.06.29-.2.39s-.41.17-.8.22-.97.1-1.73.12c-.77.02-1.8.04-3.08.04h-3.89c-.72 0-1.26-.04-1.63-.09-.38-.05-.63-.17-.77-.36-.14-.18-.2-.44-.2-.78zm-.53-3.18h10.49v.49H26.65zm9.81 0h-.17l.61-.7 1.39 1.06a.7.7 0 0 1-.28.18c-.14.07-.29.12-.45.16v3.52c0 .01-.05.06-.15.11-.12.05-.24.11-.37.16-.16.05-.29.08-.41.08h-.17zm-8.86 3.18h9.42v.49h-9.42zm-.73 6.15.31.02c.15.68.2 1.29.11 1.82-.08.54-.23 1-.44 1.36-.22.35-.44.63-.66.81-.15.11-.31.17-.48.22-.18.06-.34.07-.47.04a.45.45 0 0 1-.34-.22.52.52 0 0 1 0-.51c.08-.15.2-.31.37-.43.26-.15.51-.39.75-.69.24-.31.44-.67.61-1.09.16-.43.24-.87.24-1.33m9.94-.05.19-.13c.75.3 1.36.62 1.82.98s.8.7 1.04 1.04c.24.36.39.68.44.97s.05.52-.03.71c-.09.19-.21.31-.38.34-.19.03-.37-.02-.59-.17a5 5 0 0 0-.51-1.33c-.26-.45-.56-.9-.92-1.32-.36-.43-.7-.78-1.06-1.09m-5.27-.78.19-.15c.65.23 1.18.49 1.58.78.39.29.7.58.89.85.18.29.3.56.35.81.05.26.04.46-.05.62-.08.17-.2.27-.35.3-.16.05-.34 0-.53-.15-.05-.36-.19-.73-.41-1.12-.22-.38-.47-.73-.76-1.07s-.6-.63-.91-.87m18.11-4.08c.32 0 .58-.1.8-.32.22-.23.32-.48.32-.8 0-.33-.1-.58-.32-.8a1.07 1.07 0 0 0-.8-.32c-.32 0-.58.1-.8.32s-.32.47-.32.8c0 .32.1.57.32.8.22.22.48.32.8.32m0 8.3c.32 0 .58-.11.8-.33s.32-.47.32-.8c0-.32-.1-.59-.32-.81s-.48-.33-.8-.33-.58.11-.8.33-.32.49-.32.81c0 .33.1.58.32.8s.48.33.8.33m12.04-1.96.23-.15c.45.73.97 1.26 1.6 1.61.61.36 1.36.58 2.25.7.88.12 1.93.17 3.16.17h2.85c.56 0 1.11 0 1.64-.02.51 0 .93 0 1.27-.01v.22c-.22.05-.41.15-.53.32-.12.19-.2.39-.22.63h-5.06c-1.28 0-2.35-.09-3.25-.27-.9-.19-1.67-.53-2.29-1.04-.63-.49-1.18-1.23-1.65-2.16m.57-7.39.89.5c-.16.24-.34.53-.56.85-.24.33-.5.68-.75 1.06-.27.37-.53.73-.78 1.07-.26.36-.5.65-.7.9h.15l-.49.37-.92-.84c.12-.07.26-.14.44-.21.17-.05.33-.1.48-.12l-.54.43c.18-.24.42-.53.68-.87.25-.34.52-.7.79-1.09l.75-1.12c.22-.36.41-.66.56-.93m0 0h-.22l.65-.65 1.29 1.15c-.07.09-.19.14-.36.18-.17.05-.35.06-.56.06-.22.02-.42 0-.63-.01zm.29 3.92h-.17l.7-.7 1.21 1.09c-.12.12-.34.19-.68.21-.22.83-.55 1.66-.94 2.5-.41.83-.92 1.59-1.51 2.33-.61.73-1.36 1.37-2.23 1.93l-.19-.24c.7-.59 1.3-1.27 1.81-2.05s.93-1.62 1.26-2.48c.32-.87.57-1.74.74-2.59m-3.55-3.92h3.72v.5H59zm1.17 3.92h3.1v.49h-3.3zm-.37-8.11.17-.15c.61.19 1.1.41 1.49.66.4.26.68.51.87.77.19.25.31.49.36.71s.03.41-.03.56c-.09.16-.19.24-.35.27-.15.06-.33 0-.52-.11-.09-.31-.22-.63-.44-.97-.22-.33-.48-.65-.75-.95-.29-.31-.55-.57-.8-.79m12.56.84h-.17l.56-.68 1.4 1.07c-.05.05-.16.12-.29.17-.14.07-.29.12-.46.13v10.37c0 .27-.03.51-.1.7-.07.2-.21.37-.43.49s-.56.21-1.02.26a1.6 1.6 0 0 0-.07-.41.7.7 0 0 0-.2-.29c-.12-.08-.26-.15-.43-.2-.18-.05-.42-.1-.73-.16v-.25s.07 0 .21.02c.13.01.3.01.49.03s.36.02.55.02c.17.01.28.01.35.01.14 0 .22-.01.27-.08.05-.05.07-.12.07-.24zm-4.76 7.1v3.67c0 .05-.08.11-.24.19-.17.09-.35.12-.54.12h-.14v-4.95l1.01.46h3.19v.51zm-2.77-7.1v-.55l1.23.55h-.19v4.79c0 .61-.02 1.24-.07 1.89-.05.64-.14 1.27-.29 1.9s-.37 1.24-.68 1.82c-.32.58-.75 1.11-1.31 1.58l-.25-.17a7 7 0 0 0 1.05-2.12c.22-.77.36-1.55.43-2.38.05-.82.08-1.65.08-2.5zm3.52.81 1.46.17a.4.4 0 0 1-.13.24q-.135.105-.36.15v3.64h-.97zm1.78 5.78h-.13l.51-.52 1.1.85c-.1.13-.29.22-.56.25v3.25c0 .01-.05.06-.13.12-.09.05-.19.1-.31.15s-.24.07-.34.07h-.14zm.21-1.8.59-.75s.07.05.19.16c.12.1.27.22.46.37.17.15.32.31.46.44-.05.19-.19.27-.43.27h-5.37l-.13-.49zm0-2.23.56-.71s.07.05.19.13c.12.11.25.23.42.38s.33.29.46.44c-.05.19-.19.27-.42.27h-5.29l-.14-.51zm-3.37 6.94h3.73v.49h-3.73zm-1.85-9.5h7.68v.51h-7.68zm11.9 1.48-.15-.48h11.17l.88-1.11s.05.06.17.12c.1.09.24.21.41.33.15.13.32.29.51.44s.34.3.47.44c-.03.17-.18.26-.44.26zm-1.07 12.06-.15-.5h13.24l.88-1.14s.05.03.17.11c.11.09.24.21.41.34.17.16.36.31.54.46.19.17.34.33.5.46-.05.19-.21.27-.48.27zm6.46-12.54h1.17c-.12.66-.27 1.41-.44 2.24-.17.84-.36 1.7-.54 2.6-.19.91-.39 1.81-.58 2.69q-.315 1.35-.6 2.55c-.18.82-.37 1.55-.52 2.18h-1.16c.17-.65.36-1.38.54-2.2.19-.81.4-1.66.6-2.56.2-.89.41-1.79.59-2.69.19-.9.36-1.75.53-2.58.15-.84.29-1.57.41-2.23m-4.64 5.54-.15-.49h9.91v.49zm8.94 6.75v-7.24h-.17l.65-.7 1.36 1.06c-.06.06-.16.13-.28.18-.12.07-.27.12-.45.16V215zm12.85.2v-14.29l1.77.2c-.02.12-.07.2-.15.29-.09.09-.24.15-.44.19v13.61zm.61-7.6v-.51h4.46l.88-1.08s.05.03.17.12c.1.08.24.2.41.32.15.14.32.27.51.42.19.16.36.31.51.46-.05.19-.2.27-.46.27zm-7.17 7.84-.15-.51h13.1l.89-1.09s.05.04.17.12c.1.09.24.21.41.34.17.14.35.27.54.43.19.15.36.3.51.44-.05.19-.2.27-.48.27zm27.91-7.8v6.9c0 .29-.03.55-.12.78-.08.24-.23.43-.47.58s-.61.26-1.11.31c-.01-.16-.03-.31-.08-.46a.7.7 0 0 0-.26-.36c-.11-.1-.27-.19-.49-.25-.22-.07-.53-.14-.9-.19v-.24s.09 0 .26.02c.16.02.37.02.61.03.24.02.46.02.68.04.2.01.34.01.42.01.15 0 .27-.01.33-.06.05-.06.06-.12.06-.24v-6.87zm3 .9 1.29 1.04c-.05.05-.12.1-.24.13-.12.04-.27.02-.42-.03-.29.22-.69.51-1.18.83-.49.33-.98.63-1.46.89l-.19-.17c.26-.26.53-.57.82-.91.29-.33.54-.66.8-.98.25-.32.44-.58.58-.8m-4.39-7.82 1.75.49c-.08.22-.29.34-.65.33-.15.22-.32.46-.54.71s-.42.49-.59.71h-.45c.07-.27.16-.62.24-1.07zm-1.24 8.69h-.15l.66-.63 1.14 1.02c-.1.12-.33.19-.67.2-.25.8-.59 1.57-1.02 2.28-.44.73-1 1.38-1.66 1.96-.68.57-1.51 1.07-2.5 1.46l-.15-.24c1.27-.68 2.24-1.55 2.94-2.6a10.2 10.2 0 0 0 1.41-3.45m-2.74-.02h2.99v.51h-2.83zm5.02-1.16.2-.08c.26 1.17.65 2.16 1.16 2.94.51.8 1.09 1.44 1.75 1.94q.99.765 2.04 1.26l-.02.18c-.2.04-.37.14-.53.28-.15.15-.27.35-.34.59-.69-.46-1.34-1-1.88-1.62a8.1 8.1 0 0 1-1.45-2.24c-.39-.88-.71-1.97-.93-3.25m-3.28-.79h6.13v.5h-6.13zm.01-2.3h6.11v.51h-6.11zm-.54-2.3v-.52l1.21.52h4.94l.55-.64 1.19.93c-.05.06-.14.12-.22.17-.11.05-.24.11-.41.12v5.05c0 .05-.09.1-.26.19-.18.08-.39.13-.63.13h-.17v-5.44h-5.2v5.26c0 .05-.07.12-.22.2-.15.09-.37.14-.63.14h-.15zm-2.13.58 1.47.94c-.05.1-.17.17-.34.2-.17.05-.38 0-.63-.13l.47-.12c-.24.41-.54.86-.91 1.36-.38.51-.79 1.02-1.25 1.54-.45.53-.93 1.04-1.41 1.53-.49.5-.97.94-1.43 1.33l-.03-.19h.63c-.05.39-.15.68-.29.89-.14.2-.29.34-.44.39l-.54-1.5s.06-.01.2-.05c.12-.02.22-.05.27-.1.37-.34.77-.77 1.19-1.29.41-.51.82-1.06 1.21-1.63.39-.58.76-1.14 1.09-1.71.32-.56.56-1.03.74-1.46m-1.73-2.63 1.56.76q-.075.165-.3.24c-.17.07-.39.05-.65-.07l.46-.12c-.22.43-.51.9-.87 1.45-.37.56-.76 1.09-1.17 1.61-.42.53-.83.99-1.22 1.38l-.04-.19h.65c-.05.36-.14.65-.26.85-.13.23-.27.36-.42.41l-.58-1.46s.05-.02.17-.05c.1-.02.19-.05.24-.1.22-.26.46-.58.7-.97.23-.39.47-.82.69-1.28s.43-.9.61-1.32c.19-.43.33-.82.43-1.14m-1.73 10.74.32.02c.12.61.17 1.17.14 1.68-.04.51-.12.95-.26 1.31s-.29.65-.46.85c-.1.12-.22.22-.37.29-.16.08-.31.12-.44.1-.16 0-.28-.05-.36-.17a.44.44 0 0 1-.05-.46c.06-.15.17-.3.32-.44.19-.19.37-.46.56-.8.19-.32.32-.69.44-1.12.1-.42.16-.83.16-1.26m2.51-.63.22-.1c.55.32.95.65 1.23.99.25.34.42.64.49.93s.07.55-.02.73c-.08.19-.2.31-.35.34-.16.05-.33 0-.5-.15-.01-.29-.06-.61-.18-.95s-.24-.66-.39-.99c-.16-.3-.33-.58-.5-.8m-1.24.39.26-.06c.39.49.66.95.81 1.39.15.46.24.87.24 1.21-.02.35-.07.64-.19.86s-.25.34-.4.38c-.17.03-.34-.05-.5-.24.05-.39.09-.8.09-1.22-.02-.43-.05-.84-.11-1.24-.05-.41-.11-.77-.2-1.08m1.22-3.79.24-.1c.53.39.92.8 1.19 1.17.27.4.45.77.51 1.09.05.33.05.6-.03.8-.09.2-.21.32-.36.38-.15.05-.32-.02-.51-.19-.01-.33-.07-.68-.17-1.07s-.24-.77-.39-1.12c-.15-.36-.32-.68-.48-.96m-2.97 3.28-.37-1.12c.28-.01.68-.05 1.19-.1.49-.03 1.07-.09 1.7-.15.62-.07 1.27-.14 1.93-.21l.04.27c-.31.09-.7.21-1.18.36-.47.16-1 .31-1.56.46-.56.17-1.15.34-1.75.49m.07-3.92-.43-1.14c.22.02.55.02.94.02.39.01.81.01 1.29 0 .46 0 .93 0 1.41-.02l.02.27c-.33.1-.78.24-1.38.39-.59.17-1.22.32-1.85.48m21.43.08.21-.29c.56.22 1.04.44 1.46.68.43.24.78.5 1.09.75.3.26.56.55.76.85.12.19.21.38.29.6.07.22.1.42.09.63-.02.15-.07.28-.15.4-.11.12-.24.17-.41.17-.16 0-.29-.07-.39-.18-.11-.12-.23-.33-.34-.58a8.8 8.8 0 0 0-1.02-1.57c-.43-.49-.96-.96-1.59-1.46m16.32 8.06h-4.74v-.48l1.97-.18h.68l2.09.18zm-1.71 0h-1.51c.01-.65.03-1.29.05-1.96v-6.18h-1.62v-.51l2.13-.19-.51.25v-.1c.05-1.07.2-1.95.45-2.62.24-.66.58-1.19 1.04-1.61.36-.32.73-.58 1.12-.73.4-.15.8-.22 1.23-.22.41 0 .78.07 1.1.22.33.15.53.37.62.66-.02.21-.09.38-.24.49-.16.14-.36.21-.62.21-.22 0-.42-.07-.61-.19-.2-.12-.42-.29-.66-.54l-.46-.48v-.15h.7v.14c-.32.03-.61.13-.9.32s-.51.42-.7.71-.32.6-.44.95c-.12.36-.19.79-.22 1.28-.04.51-.04 1.14 0 1.87v4.49c0 .64 0 1.29.01 1.93.02.67.02 1.31.04 1.96m2.57-8.14h-3.32v-.63h3.32zm5.44 8.39c-.75 0-1.45-.16-2.08-.52-.64-.36-1.17-.87-1.56-1.57-.39-.68-.6-1.53-.6-2.55s.21-1.87.61-2.56c.41-.68.94-1.19 1.59-1.55.64-.36 1.32-.53 2.04-.53q1.095 0 2.07.51c.65.36 1.17.87 1.58 1.57.39.69.6 1.54.6 2.56s-.21 1.87-.6 2.57-.92 1.21-1.55 1.55c-.64.36-1.34.52-2.1.52m0-.52c.85 0 1.51-.36 2-1.06.48-.69.72-1.71.72-3.04 0-1.31-.24-2.33-.72-3.04-.49-.72-1.15-1.07-2-1.07-.84 0-1.5.35-1.99 1.07-.5.71-.73 1.73-.73 3.04 0 1.33.23 2.35.73 3.04.49.7 1.15 1.06 1.99 1.06m10.28.27h-4.5v-.48l1.88-.2h.7l1.92.2zm-1.6 0h-1.49c.01-.27.01-.65.03-1.1 0-.46 0-.96.02-1.47v-3.91c-.02-.46-.04-.88-.05-1.31l-1.5-.06v-.45l2.62-.68.22.14.1 2.4v2.55c0 .39 0 .83.02 1.32 0 .51 0 1.01.01 1.47 0 .45 0 .83.02 1.1m-.07-5.42-.35-.89h.3c.17-.56.41-1.03.72-1.44.3-.39.64-.72 1.03-.94.38-.22.77-.34 1.16-.34.32 0 .61.07.87.19.25.14.41.32.49.58-.02.3-.08.54-.22.71s-.36.26-.66.26c-.22 0-.41-.05-.58-.17-.17-.1-.36-.26-.55-.48l-.39-.37.77.03c-.6.15-1.09.46-1.5.92-.42.46-.78 1.1-1.09 1.94m9.37 5.67q-1.245 0-2.19-.54c-.63-.36-1.14-.88-1.5-1.56-.35-.67-.54-1.48-.54-2.42 0-1.02.2-1.88.63-2.6.42-.69.97-1.24 1.65-1.61.66-.36 1.39-.55 2.17-.55.51 0 .99.09 1.41.28.43.18.8.45 1.11.78.29.32.51.73.63 1.19-.1.39-.34.59-.72.59-.23 0-.42-.07-.56-.2-.15-.12-.24-.34-.29-.63l-.42-1.51.85.68c-.36-.22-.68-.4-.99-.5a3.6 3.6 0 0 0-.93-.13c-.58 0-1.11.17-1.57.49s-.83.8-1.08 1.39c-.28.6-.41 1.31-.41 2.15 0 1.22.3 2.17.9 2.83.59.68 1.38 1.03 2.33 1.03.51 0 .98-.11 1.43-.31.44-.19.85-.49 1.22-.92l.27.22a3.9 3.9 0 0 1-1.38 1.36c-.54.33-1.22.49-2.02.49m9.25 0c-.83 0-1.57-.16-2.23-.5s-1.17-.85-1.54-1.55c-.38-.7-.57-1.55-.57-2.57 0-.95.21-1.78.6-2.48s.9-1.22 1.53-1.62c.63-.37 1.33-.56 2.07-.56.73 0 1.38.16 1.91.46.52.32.91.75 1.2 1.28.28.52.41 1.14.41 1.8 0 .41-.03.75-.12 1.02h-6.93V210h4.93c.3 0 .51-.08.61-.24.1-.15.15-.4.15-.74 0-.74-.18-1.33-.58-1.81-.39-.46-.91-.69-1.61-.69-.49 0-.95.15-1.36.46-.41.32-.73.76-.97 1.34-.24.59-.36 1.29-.36 2.11 0 .91.14 1.66.43 2.26.27.59.64 1.02 1.14 1.29.49.29 1.03.43 1.66.43.6 0 1.13-.11 1.58-.33.45-.2.84-.51 1.19-.92l.28.24c-.38.56-.85 1.02-1.41 1.35-.57.34-1.25.5-2.01.5m13.74 4.17h-4.54v-.48l1.88-.17h.63l2.03.17zm-1.64 0h-1.48c.02-.39.02-.82.04-1.27 0-.46 0-.92.02-1.4v-8.21l-.06-1.33-1.51-.06v-.45l2.62-.68.22.14.1 1.44.04.09v5.97l-.04.17v1.63c0 .39 0 .82.02 1.27 0 .48 0 .96.02 1.42 0 .45 0 .88.01 1.27m2.64-4.17c-.51 0-1.02-.11-1.53-.34-.51-.22-.99-.62-1.41-1.22h-.22l.23-.47c.43.45.84.78 1.25.95.39.18.81.27 1.27.27.49 0 .95-.14 1.36-.39.39-.26.71-.67.97-1.24q.36-.84.36-2.25c0-1.29-.24-2.24-.72-2.87-.49-.63-1.12-.94-1.88-.94-.43 0-.85.11-1.28.31-.42.2-.88.6-1.39 1.17l-.17-.45h.18c.45-.65.96-1.11 1.52-1.4.56-.27 1.12-.41 1.68-.41.7 0 1.31.19 1.84.56.52.38.95.91 1.25 1.59.31.67.46 1.47.46 2.41 0 .97-.15 1.82-.47 2.51-.33.72-.79 1.26-1.35 1.64-.57.39-1.22.57-1.95.57m9.04 0c-.8 0-1.43-.25-1.87-.76-.44-.49-.66-1.38-.64-2.65l.05-5.07.37.29-1.78-.24v-.44l2.67-.27.17.2-.07 2.23v3.31c0 .91.15 1.55.44 1.91s.7.54 1.26.54c.52 0 1.03-.15 1.53-.46.49-.3.93-.73 1.34-1.25l.39.66h-.44c-.44.59-.95 1.07-1.51 1.44-.56.38-1.21.56-1.91.56m5.94-.25-2.62.15-.05-2.09v-.03l.01-6.04-1.37-.15v-.44l2.63-.29.17.2-.07 2.23v5.87l1.3.13zm4.48.25c-.54 0-1.03-.06-1.48-.18-.44-.12-.9-.27-1.36-.5v-2.02h.75l.41 2.14-.63-.03v-.61c.32.22.65.37 1 .49.36.12.79.17 1.28.17.75 0 1.31-.15 1.7-.46.37-.3.56-.69.56-1.17 0-.43-.12-.77-.37-1.04-.26-.25-.73-.49-1.43-.71l-.89-.33c-.69-.25-1.24-.57-1.63-.96-.41-.39-.61-.91-.61-1.53 0-.72.27-1.31.83-1.81.55-.49 1.33-.73 2.35-.73.51 0 .97.07 1.38.19.39.12.8.32 1.22.58l-.05 1.82h-.68l-.41-1.99.53.1v.54c-.34-.23-.66-.4-.99-.52-.32-.1-.64-.16-1-.16-.65 0-1.14.14-1.46.43-.33.29-.5.64-.5 1.1 0 .41.14.73.41.99s.72.49 1.33.71l.87.31c.86.29 1.47.65 1.83 1.05.36.41.55.91.55 1.5 0 .49-.14.94-.4 1.33-.27.4-.66.73-1.17.95-.51.24-1.15.35-1.94.35m9.17-.25h-4.17v-.48l1.85-.18h.57l1.75.18zm-1.26 0h-1.5c.02-.27.02-.65.04-1.1 0-.46 0-.96.01-1.47v-10.08l-1.49-.07v-.46l2.65-.51.25.16-.05 2.63v3.9l.04.22v2.89c0 .39 0 .83.01 1.32 0 .51 0 1.01.02 1.47 0 .45 0 .83.02 1.1m7.07 0h-4.16v-.48l1.83-.18h.55l1.78.18zm-1.27 0h-1.52c.02-.27.02-.65.04-1.1 0-.46 0-.94.01-1.45v-3.3c0-.83-.13-1.43-.4-1.77-.29-.32-.68-.49-1.18-.49-.39 0-.85.12-1.37.37-.53.26-1.09.72-1.72 1.4l-.32-.58h.37c.59-.73 1.21-1.27 1.8-1.61.6-.33 1.21-.5 1.84-.5.75 0 1.32.24 1.75.73.42.5.63 1.33.63 2.5v1.91c0 .39 0 .85.01 1.34 0 .51 0 .99.02 1.45.02.45.02.83.04 1.1"/><path fill="#6b5b4b" d="M447.62 214.14v-4.58l.56.26h3.74v.24h-3.78v3.9c0 .02-.02.04-.06.07s-.1.06-.16.08c-.06.03-.14.03-.22.03zm4-.05v-4.27h-.08l.31-.33.64.5c-.03.03-.07.07-.12.1-.07.03-.14.05-.22.07v3.73c0 .01-.02.04-.08.07-.05.03-.11.06-.17.09-.08.02-.14.04-.2.04zm-3.76-2.79v-.23h4.02v.23zm0 1.26v-.23h4.02v.23zm0 1.27v-.23h4.02v.23zm1.68-5h.76c-.12.2-.24.4-.39.62-.15.21-.29.4-.42.53h-.19c.03-.08.06-.2.09-.34s.06-.27.08-.42c.03-.14.05-.27.07-.39m-3.22.23-.07-.23h6.06l.39-.48s.02.02.08.06c.04.04.11.09.18.14.07.06.15.12.24.19.08.07.15.13.22.2q-.03.12-.21.12zm4.1 5.3.04-.14c.52.08.96.16 1.32.25.36.1.64.2.86.31.21.1.36.2.46.31.1.1.16.19.16.26.01.08-.01.15-.06.19-.06.05-.12.08-.2.08-.09 0-.17-.03-.26-.1-.21-.2-.52-.4-.91-.61-.39-.2-.86-.38-1.41-.55m-1.55-.26.67.43a.2.2 0 0 1-.13.07c-.07.01-.15 0-.24-.02a10.055 10.055 0 0 1-1.77.76c-.35.12-.7.21-1.06.28l-.05-.12a8.84 8.84 0 0 0 1.91-.91c.28-.17.5-.34.67-.49m10.43.91-2.82-.01v-.22l1.16-.12h.58l1.08.12zm-1.03-.01h-.7c.01-.62.02-1.22.02-1.84v-3.58l-1.15.2v-.24l1.72-.44.12.08-.03 1.27v2.71c0 .3 0 .61.01.92 0 .31 0 .62.01.92m3.86 1.39h-.37l2.34-7.57h.35zm7.74-1.25h-.6v-5.57h-.09l.28-.14-1.16 1.83-1.22 1.89.06-.26v.11h3.69v.46h-4v-.37l2.59-4h.45"/></svg>