<svg xmlns="http://www.w3.org/2000/svg" width="495" height="220" viewBox="0 0 495 220"><title>曆日卡片</title><desc>顯示今日西曆日期、農曆月日、干支紀日，以及依建除十二神循環推算出的開發者宜/忌建議。</desc><rect width="495" height="220" fill="#f7f1e7" rx="6"/><rect width="494" height="219" x=".5" y=".5" fill="none" stroke="#cdbda8" rx="5.5"/><style>@media (prefers-reduced-motion: reduce){*{animation-duration:0.01ms!important;animation-iteration-count:1!important;}}</style><path fill="#302a25" d="m36.84 35.62.15-.19c.61.14 1.1.31 1.51.49.39.19.68.4.9.6.21.2.34.41.41.6.07.18.09.35.03.49-.05.13-.15.22-.27.25-.13.04-.29.02-.47-.06-.12-.26-.31-.52-.56-.79-.26-.27-.55-.52-.85-.78-.31-.24-.6-.44-.85-.61m-5.43-3.08v6c0 .05-.08.1-.22.19-.15.08-.36.14-.58.14h-.15v-6.02zm5.88.05v5.9c0 .04-.08.1-.23.19-.17.1-.4.15-.67.15h-.17v-6.02zm.97-.83 1.09 1.02c-.15.15-.41.14-.76-.02-.39.09-.84.17-1.33.26-.49.08-1.02.17-1.56.24-.56.08-1.09.13-1.6.15l-.09-.29c.5-.12 1.01-.26 1.53-.41.53-.15 1.04-.3 1.53-.49.5-.17.89-.32 1.19-.46m-5.98-.02 1.1 1.01c-.15.15-.4.13-.76-.02-.36.08-.77.19-1.24.29-.49.1-1 .18-1.51.27-.53.09-1.04.14-1.53.19l-.09-.29c.46-.12.95-.27 1.46-.44.51-.16.99-.33 1.45-.51.46-.19.83-.34 1.12-.5m5.63-.76.85-1.04.15.12c.1.08.24.19.41.31q.225.195.51.42c.17.15.34.29.49.43-.05.18-.2.27-.46.27H26.69v-.51zm-11.82 0v-.56l1.28.56h-.21v4.26c0 .74-.02 1.53-.05 2.39s-.12 1.73-.24 2.63c-.13.9-.34 1.79-.63 2.65a9.3 9.3 0 0 1-1.2 2.4l-.29-.15c.42-1.01.75-2.08.93-3.18.19-1.11.29-2.25.34-3.4.05-1.14.07-2.26.07-3.34zm4.03 9.08v4.88c0 .01-.05.06-.14.11-.08.07-.2.12-.34.17-.13.05-.28.07-.44.07h-.17V39l1.17.55h7.67v.51zm7.05-.51h-.16l.62-.67 1.36 1.04c-.05.07-.15.14-.27.19-.13.05-.29.1-.46.13v4.61c0 .03-.05.09-.15.14q-.15.075-.36.15c-.15.05-.29.07-.41.07h-.17zm-7.58 4.33h8.25v.49h-8.25zm0-2.19h8.25v.51h-8.25zm7.4-7.21v.27c-.39.78-.9 1.5-1.53 2.14-.63.65-1.38 1.21-2.21 1.7l-.21-.27c.65-.52 1.21-1.1 1.7-1.77.5-.66.87-1.34 1.16-2.07zm-5.73 0v.27c-.34.78-.8 1.5-1.34 2.16-.56.66-1.23 1.24-1.98 1.73l-.2-.28c.56-.53 1.04-1.13 1.46-1.79.41-.66.73-1.36.99-2.09zm-.05 1.04.17-.16c.54.12.97.26 1.26.45.28.18.47.39.56.57.08.21.1.39.05.53-.05.15-.16.26-.29.29-.15.05-.31.02-.49-.1q-.135-.405-.51-.87c-.26-.29-.5-.53-.75-.71m6.81-1.04.67-.83s.07.05.2.17c.14.12.31.25.5.41.18.16.35.33.51.49-.04.19-.17.27-.43.27h-5.63l-.13-.51zm-6.2 0 .65-.78s.06.05.2.15c.14.12.31.24.49.39.19.15.34.32.5.48-.05.19-.19.27-.45.27h-5.28l-.14-.51zm13.23 3.23v-.51h9.01v.51zm0 5.97v-.5h9.01v.5zm8.45 1.42V31.44h-.17l.64-.75 1.41 1.12c-.05.07-.15.14-.27.19-.14.07-.29.12-.46.15v12.53c0 .03-.05.09-.15.15-.12.07-.24.14-.39.19-.16.05-.31.08-.45.08zm-9.07.09V30.86l1.24.58h8.4v.49h-8.51v12.8c0 .05-.04.12-.12.19-.09.08-.21.13-.34.18-.14.06-.29.09-.46.09"/><line x1="24" x2="471" y1="58" y2="58" stroke="#cdbda8"/><path fill="#6b5b4b" d="M406.8 39.28h-1.68V44h-1.04v-4.72h-1.68v-.86h4.4m5.02 5.58v-2.4h-1.64V44h-1.04v-5.58h1.04v2.32h1.64v-2.32h1.04V44m6.33 0h-3.53v-5.58h3.53v.86h-2.48v1.46h2.39v.86h-2.39v1.54h2.48m13.31.86h-1.11l-.39-1.42h-1.66l-.38 1.42h-1.06l1.57-5.58h1.46zm-1.68-2.27-.61-2.28h-.07l-.61 2.28m8.99 2.27H435v-5.58h1.05v4.72h2.47m5.58.86v-2.58l.05-1.62h-.07L443 42.67l-1.08-2.87h-.07l.05 1.62V44h-.92v-5.58h1.25l.78 2.05h.05l.79-2.05h1.17V44m6.68 0h-1.11l-.39-1.42h-1.66l-.38 1.42h-1.06l1.57-5.58h1.46zm-1.68-2.27-.61-2.28h-.07l-.61 2.28m7.65 2.27-1.47-4.01h-.08V44h-.89v-5.58h1.28l1.47 4h.08v-4h.89V44m6.84 0h-1.11l-.39-1.42h-1.66l-.38 1.42h-1.06l1.57-5.58h1.46zm-1.68-2.27-.61-2.28h-.07l-.61 2.28m7.21 2.37q-1.09 0-1.62-.76-.52-.75-.52-2.13t.52-2.13q.53-.76 1.62-.76.42 0 .74.11.31.11.54.31.24.2.39.47.15.28.24.61l-.96.27q-.06-.19-.13-.36t-.18-.29q-.11-.13-.27-.2-.16-.06-.38-.06-.55 0-.78.41-.24.42-.24 1.14v.96q0 .72.24 1.13.23.42.78.42.22 0 .38-.07t.27-.19.18-.29.13-.36l.96.27q-.09.33-.24.6-.15.28-.39.48-.23.19-.54.3-.32.12-.74.12"/><polygon fill="#cdbda8" points="24.00,70.00 124.00,70.00 151.71,54.00 51.71,54.00"/><polygon fill="#6b5b4b" points="24.00,70.00 24.00,170.00 51.71,186.00 51.71,86.00"/><rect width="100" height="100" x="24" y="70" fill="#8b5e3c"/><path fill="#f7f1e7" d="M72.77 135.4H51.6v-4.71h8.45v-21.82h-.39l-6.69 7.92-3.61-3.04 7.61-9.06h8.85v26h6.95zm10.16-18.3h3.04q2.77 0 4.07-1.1t1.3-2.78v-.3q0-1.9-1.26-2.95-1.25-1.06-3.45-1.06-2.11 0-3.7.97-1.58.97-2.73 2.73l-3.74-3.35q.8-1.05 1.79-2 .99-.94 2.24-1.63 1.25-.68 2.79-1.07 1.54-.4 3.52-.4 2.34 0 4.29.55 1.96.55 3.35 1.61 1.38 1.05 2.15 2.53.77 1.47.77 3.32 0 1.45-.48 2.64t-1.3 2.07q-.81.88-1.89 1.45t-2.31.83v.22q1.36.27 2.55.86 1.19.6 2.07 1.52t1.41 2.22.53 2.93q0 2.02-.84 3.69-.84 1.68-2.35 2.86-1.52 1.19-3.66 1.83-2.13.64-4.77.64-2.2 0-3.92-.46-1.71-.47-3.03-1.26t-2.29-1.82q-.97-1.04-1.72-2.14l4.27-3.3q1.1 1.85 2.62 3.04t4.16 1.19 4.07-1.21 1.43-3.37v-.35q0-2.11-1.54-3.24-1.54-1.12-4.36-1.12h-3.08"/><path fill="#6b5b4b" d="M192.09 82h-3.58v-.43c.27-.31.53-.63.79-.93.24-.3.47-.56.67-.79.28-.35.51-.64.69-.9.17-.25.3-.49.39-.71.08-.22.12-.45.12-.68q0-.6-.3-.93c-.2-.21-.48-.33-.84-.33-.15 0-.29.02-.44.06s-.3.12-.47.22l.33-.24-.22.78c-.04.15-.09.26-.16.32-.06.06-.14.1-.23.1-.07 0-.14-.03-.2-.08a.37.37 0 0 1-.13-.17c.05-.27.15-.5.32-.68.17-.19.37-.32.62-.42.25-.09.5-.13.77-.13.54 0 .95.13 1.22.4s.41.64.41 1.12c0 .24-.06.48-.17.72q-.18.345-.54.78c-.25.3-.59.65-1 1.06-.08.09-.19.2-.32.35l-.47.5-.52.58.07-.25v.12h3.19zm2.6.12c-.31 0-.62-.1-.9-.31q-.42-.315-.69-.99c-.17-.44-.26-1.02-.26-1.75 0-.71.09-1.29.26-1.73.18-.44.41-.77.69-.98.28-.2.59-.3.9-.3.33 0 .63.1.91.3.28.21.5.54.68.98.17.44.26 1.02.26 1.73 0 .73-.09 1.31-.26 1.75-.18.45-.4.78-.68.99s-.58.31-.91.31m0-.25c.15 0 .29-.05.44-.14.13-.09.26-.24.37-.46.12-.21.2-.5.28-.86.06-.36.09-.8.09-1.34q0-.78-.09-1.32c-.08-.35-.16-.63-.28-.85-.11-.2-.24-.36-.37-.45a.84.84 0 0 0-.44-.14c-.15 0-.3.05-.43.14-.15.09-.28.25-.39.45-.11.22-.2.5-.26.85-.07.36-.11.8-.11 1.32 0 .54.04.99.11 1.34.06.36.15.65.26.86.11.22.24.37.39.46.13.09.28.14.43.14m6.32.13h-3.58v-.43c.27-.31.53-.63.79-.93.24-.3.47-.56.67-.79.28-.35.51-.64.69-.9.17-.25.3-.49.39-.71.08-.22.12-.45.12-.68q0-.6-.3-.93c-.2-.21-.48-.33-.84-.33-.15 0-.29.02-.44.06s-.3.12-.47.22l.33-.24-.22.78c-.04.15-.09.26-.16.32-.06.06-.14.1-.23.1-.07 0-.14-.03-.2-.08a.37.37 0 0 1-.13-.17c.05-.27.15-.5.32-.68.17-.19.37-.32.62-.42.25-.09.5-.13.77-.13.54 0 .95.13 1.22.4s.41.64.41 1.12c0 .24-.06.48-.17.72q-.18.345-.54.78c-.25.3-.59.65-1 1.06-.08.09-.19.2-.32.35l-.47.5-.52.58.07-.25v.12h3.19zm2.69.12c-.39 0-.72-.1-1-.3-.28-.19-.49-.46-.64-.8-.16-.35-.23-.76-.23-1.24q0-.69.24-1.32c.16-.43.39-.8.69-1.15.3-.33.65-.61 1.08-.83.42-.22.9-.36 1.42-.42l.04.17q-.915.195-1.53.69c-.42.34-.73.74-.94 1.22s-.31 1-.31 1.57c0 .68.1 1.22.31 1.59q.315.57.87.57c.21 0 .4-.06.56-.18s.29-.31.39-.55c.09-.24.14-.52.14-.86 0-.48-.09-.85-.29-1.1a.99.99 0 0 0-.8-.37c-.22 0-.44.05-.64.14-.21.11-.42.27-.62.51l-.15-.09h.05c.42-.59.95-.89 1.58-.89.33 0 .6.07.83.22.23.14.41.34.53.6q.18.405.18.93c0 .36-.08.69-.23.97-.15.29-.36.51-.62.67-.27.17-.57.25-.91.25m2.56-1.6-.07-.24h6.15l.42-.5s.02.01.08.05c.05.04.11.1.19.15.08.07.16.13.25.2l.24.21c-.02.09-.1.13-.22.13zm3.64 2.1v-6.16h.55v5.99c0 .01-.04.05-.12.09-.09.05-.2.08-.34.08zm-2.04-4.19v-.24h4.01l.38-.47s.02.02.07.06.1.08.18.14.15.12.23.18c.08.08.15.14.22.2-.01.09-.09.13-.21.13zm-.27 1.99v-2.49l.64.26h-.09v2.23zm.61-5.25.82.33c-.03.04-.06.08-.11.1s-.12.04-.21.03c-.31.63-.68 1.19-1.11 1.7-.42.5-.88.91-1.35 1.22l-.1-.09c.26-.24.52-.54.76-.88.25-.35.49-.72.72-1.14.23-.41.42-.83.58-1.27m-.42 1.53.11-.24h4.16l.41-.49s.02.01.07.05.11.09.19.15c.08.05.16.12.25.19.08.07.16.14.23.22q-.015.06-.06.09c-.04.03-.09.03-.15.03zm6.91 5.43-.06-.21c.59-.21 1.08-.48 1.47-.82.38-.34.67-.74.85-1.2.19-.45.27-.96.27-1.52 0-.47-.04-.85-.15-1.16-.1-.31-.24-.54-.41-.69a.96.96 0 0 0-.6-.23c-.2 0-.39.06-.56.18-.16.12-.3.29-.4.51-.11.23-.16.51-.16.85 0 .47.12.85.36 1.11.23.27.53.4.89.4.23 0 .44-.05.63-.16.2-.1.37-.26.52-.46l.16.04h-.06c-.14.27-.33.49-.58.65s-.56.24-.9.24c-.32 0-.61-.07-.86-.21a1.53 1.53 0 0 1-.6-.61c-.16-.26-.23-.58-.23-.94q0-.57.24-.99c.16-.27.38-.48.65-.63.26-.15.57-.22.9-.22.38 0 .7.09.98.28q.405.285.63.81c.15.35.23.77.23 1.26 0 .58-.12 1.12-.36 1.61q-.375.75-1.08 1.29c-.48.36-1.07.63-1.77.82m9.32-.37v-5.85h-.08l.28-.33.68.52c-.03.03-.07.06-.13.09a.7.7 0 0 1-.22.07v5.56c0 .15-.02.28-.06.38a.5.5 0 0 1-.25.27c-.13.07-.33.12-.61.15-.01-.08-.04-.16-.06-.24a.4.4 0 0 0-.14-.16 1.4 1.4 0 0 0-.29-.12q-.195-.06-.51-.09v-.13s.05 0 .16.01c.09.01.21.01.36.02l.4.03c.12 0 .2.01.25.01.09 0 .15-.01.18-.05.02-.03.04-.08.04-.14m-3.66-3.34v-2.77l.63.26h-.11v2.51c0 .31-.01.61-.04.92-.02.32-.08.62-.15.92-.08.3-.19.6-.34.88-.16.28-.36.54-.6.79s-.55.48-.91.69l-.11-.09c.34-.28.62-.57.84-.88s.38-.63.5-.98c.11-.34.19-.7.23-1.08.04-.37.06-.77.06-1.17m.23-2.27v-.24h3.69v.24zm0 1.79v-.23h3.69v.23zm-.08 1.84v-.23h3.76v.23"/><path fill="#302a25" d="M192.06 92.63v-.49h9.01v.49zm0 2.41v-.49h9.01v.49zm8.49.74v-5.99h-.17l.61-.71 1.41 1.07c-.05.07-.15.13-.27.18-.12.07-.28.12-.44.16v4.93c0 .03-.06.08-.18.13-.11.06-.23.11-.39.16-.15.05-.28.07-.4.07zm-9 .15v-6.72l1.23.58h8.43v.48h-8.52v5.28c0 .04-.05.09-.13.14-.11.05-.22.1-.36.15-.15.05-.31.09-.46.09zm-2.67 7.95-.15-.49h13.21l.83-1.07s.05.03.16.12c.1.08.22.19.39.31.15.13.3.27.49.42.17.15.32.29.48.44-.05.19-.21.27-.46.27zm2.4-3.06-.13-.49h9.38l.76-1s.05.03.16.12c.08.08.22.18.37.3s.31.26.48.39c.15.16.3.29.44.41-.05.19-.21.27-.46.27zm4.83 2.77v-8.05l1.75.18a.48.48 0 0 1-.15.29c-.11.09-.26.16-.46.19v7.39zm-3.37-8.1 1.64.71c-.06.08-.12.15-.23.2-.12.05-.25.07-.44.04-.51.93-1.1 1.75-1.8 2.48s-1.41 1.31-2.18 1.75l-.2-.2c.61-.55 1.21-1.26 1.78-2.14.57-.89 1.04-1.84 1.43-2.84m-.85 2.67v-.5h8.98l.8-1s.05.03.15.12c.1.08.22.17.37.29.16.12.31.25.48.4.15.16.31.29.44.43-.05.17-.2.26-.46.26zm14.13-6.24-.14-.51h7.11l.61-.85s.07.05.21.17c.13.11.28.27.47.42.19.17.34.34.48.49-.04.19-.17.28-.41.28zm-.32 7.61-.14-.49h7.45l.68-.94s.06.07.22.19c.15.12.32.27.51.46.18.19.37.36.52.51-.05.19-.18.27-.42.27zm1.82-.22V88.97l1.61.19c-.02.1-.07.19-.13.26-.09.08-.24.13-.43.17v9.72zm4.13 0V88.96l1.68.18a.5.5 0 0 1-.15.29c-.09.09-.24.16-.46.19v9.69zm-3.4.7 1.61.71c-.05.09-.12.16-.24.21s-.25.06-.42.05c-.43.76-.94 1.41-1.53 1.97-.6.56-1.21 1.02-1.85 1.38l-.23-.22q.765-.645 1.5-1.74c.48-.71.87-1.49 1.16-2.36m2.51.24.19-.14c.59.19 1.05.39 1.41.63.36.25.61.49.78.75.16.25.26.47.29.69.02.23-.02.4-.1.53-.08.14-.22.22-.37.24q-.24.045-.51-.15c-.05-.29-.19-.58-.36-.91a10 10 0 0 0-.63-.91 7 7 0 0 0-.7-.73m-2.68-5.92v-.49h4.09v.49zm-.02 2.53v-.49h4.13v.49zm7.79-6.54v-.49h4.33v.49zm-.06 3.72v-.51h4.39v.51zm0 3.88v-.48h4.34v.48zm3.76 4.6V89.83h-.17l.56-.72 1.41 1.07c-.11.17-.37.29-.73.34v12.14c0 .29-.03.56-.1.78s-.22.41-.47.55c-.26.13-.63.23-1.16.3a2.4 2.4 0 0 0-.1-.49.68.68 0 0 0-.26-.34c-.12-.09-.3-.17-.53-.24-.22-.07-.52-.12-.88-.17v-.27s.09 0 .27.02c.17.01.38.01.61.03.24.02.48.03.7.05s.36.02.44.02c.16 0 .28-.04.33-.09s.08-.15.08-.29m-4.27-6.81v-6.45l1.28.57h-.2v5.86c0 .76-.04 1.55-.11 2.35-.06.79-.2 1.56-.4 2.31-.22.75-.55 1.46-.97 2.12-.43.67-1.02 1.28-1.77 1.82l-.26-.18c.74-.75 1.26-1.57 1.6-2.47.34-.88.56-1.84.68-2.84.1-1 .15-2.02.15-3.09m10.77 1v-.51h9.01v.51zm0 5.97v-.5h9.01v.5zm8.45 1.43V90.44h-.18l.65-.75 1.41 1.12c-.05.07-.15.14-.27.19-.14.07-.29.12-.46.15v12.53c0 .03-.05.09-.15.15-.12.07-.24.14-.39.19-.16.05-.31.09-.45.09zm-9.07.08V89.86l1.25.58h8.39v.49h-8.51v12.8c0 .05-.04.12-.12.19-.09.08-.21.13-.34.19-.14.05-.29.08-.46.08"/><line x1="188" x2="471" y1="106" y2="106" stroke="#cdbda8"/><path fill="#6b5b4b" d="m190.62 118.52-.2-.5c.12-.04.28-.08.49-.15.21-.06.44-.14.71-.23.26-.09.52-.18.8-.27l.04.11q-.18.105-.48.27c-.2.11-.41.23-.64.37-.24.14-.48.26-.72.4m-.07-2.36h.39l.11.07v1.82l-.43.16.2-.19c.04.17.03.31-.04.41-.06.11-.12.17-.19.2l-.3-.61c.11-.06.18-.1.21-.14.04-.04.05-.09.05-.14zm3.56-4.16h-.08l.29-.32.65.5c-.03.03-.07.06-.13.08-.06.03-.14.05-.22.08v1.77c0 .02-.02.04-.07.07-.05.02-.11.04-.17.07-.07.02-.13.03-.2.03h-.07zm-4.22.24v1.94c0 .02-.03.04-.07.07-.04.02-.09.05-.15.07s-.13.04-.21.04h-.08v-2.62l.56.26h4.48v.24zm-.28 1.59h4.77v.24h-4.77zm0-.92h4.77v.23h-4.77zm2.95-1.61.77.09c-.01.06-.03.1-.07.13s-.12.06-.2.06v2.37h-.5zm-1.56 0 .75.08c-.01.06-.02.1-.06.13-.04.04-.11.07-.19.07v2.37h-.5zm3.36 5.08.54.43c-.04.05-.12.06-.22.02-.1.06-.25.12-.41.2-.17.08-.35.16-.53.23-.2.08-.38.15-.56.2l-.06-.09a8.859 8.859 0 0 0 .91-.68c.14-.12.25-.23.33-.31m-2.28-.16.13-.08c.19.38.45.7.79.96.33.25.72.45 1.18.6.44.15.94.25 1.48.32v.09c-.23.04-.37.2-.44.47-.52-.12-.98-.28-1.39-.48s-.76-.45-1.05-.76c-.28-.3-.52-.68-.7-1.12m-2.88-1.67v-.27l.62.27h-.1v.79c0 .22-.02.47-.03.75-.03.28-.09.57-.17.86-.09.3-.22.59-.4.87s-.42.54-.72.77l-.1-.09c.27-.33.47-.68.6-1.04q.18-.54.24-1.08c.04-.36.06-.71.06-1.04zm5.16 0 .34-.45s.03.02.07.05c.04.04.09.08.17.14.06.05.13.12.21.18.07.07.15.14.2.19-.02.09-.09.13-.21.13h-5.75v-.24zm.09 1.59.34-.43.11.08c.08.06.16.13.27.21q.15.12.27.24c-.02.09-.09.13-.21.13h-5.77l-.08-.23zm-.55-.81.34-.41.11.08c.07.06.15.13.26.21.09.08.18.16.25.23-.01.09-.08.13-.2.13h-5.09l-.07-.24zm8.14-1.27.07-.09c.29.06.52.14.71.23s.32.18.43.28c.09.1.16.19.19.28s.04.17.02.23c-.03.07-.08.11-.13.12-.07.02-.14.01-.23-.03-.05-.12-.14-.24-.26-.37s-.26-.25-.4-.37c-.14-.11-.28-.2-.4-.28m-2.55-1.45v2.82c0 .03-.04.05-.11.09a.54.54 0 0 1-.27.06h-.07v-2.83zm2.77.02v2.78c0 .01-.04.05-.12.09s-.18.07-.31.07h-.08v-2.83zm.45-.39.51.48c-.07.07-.19.06-.36-.01-.18.04-.39.08-.62.12s-.48.08-.74.11c-.26.04-.51.07-.75.08l-.04-.14c.23-.06.47-.12.72-.19s.49-.15.72-.23.42-.16.56-.22m-2.81-.01.52.47c-.08.08-.2.07-.36 0-.17.04-.36.08-.59.13s-.47.09-.71.13c-.25.04-.49.06-.72.09l-.04-.14c.22-.05.45-.13.69-.21.24-.07.46-.15.68-.24.21-.08.39-.16.53-.23m2.64-.36.4-.49s.03.02.08.06c.04.04.11.09.19.14.07.07.15.13.24.2.08.08.16.14.23.2-.02.09-.1.13-.22.13h-6.2v-.24zm-5.56 0v-.26l.6.26h-.09v2.01c0 .34-.01.72-.03 1.12-.01.41-.05.82-.11 1.24s-.16.84-.29 1.25c-.14.41-.33.78-.57 1.13l-.14-.08c.2-.47.35-.97.44-1.49s.14-1.06.16-1.6c.03-.54.03-1.07.03-1.57zm1.9 4.27v2.3q0 .015-.06.06c-.04.03-.1.05-.16.08q-.105.03-.21.03h-.08v-2.96l.55.25h3.61v.24zm3.32-.24h-.08l.3-.31.64.49c-.03.03-.08.06-.13.09-.07.02-.14.05-.22.06v2.17c0 .02-.02.04-.07.06-.05.03-.1.05-.17.08a.7.7 0 0 1-.19.03h-.08zm-3.57 2.04h3.88v.24h-3.88zm0-1.03h3.88v.24h-3.88zm3.48-3.39v.13c-.18.37-.42.7-.72 1.01-.29.3-.65.56-1.04.8l-.09-.13c.3-.25.56-.52.8-.83.23-.32.4-.64.54-.98zm-2.69 0v.13c-.16.37-.38.7-.64 1.01-.26.32-.57.59-.92.82l-.1-.14q.39-.36.69-.84c.19-.31.34-.64.46-.98zm-.03.49.08-.07c.26.05.46.12.59.2.14.09.23.19.27.28s.05.18.02.24c-.02.08-.07.12-.13.14-.08.02-.15.01-.24-.05-.04-.13-.12-.26-.24-.41a2.7 2.7 0 0 0-.35-.33m3.21-.49.31-.39s.03.02.1.08c.06.05.14.12.23.19.09.08.17.16.24.23-.02.09-.08.13-.2.13h-2.65l-.06-.24zm-2.92 0 .3-.37s.04.03.1.07c.06.06.14.12.23.19s.16.15.23.22c-.02.09-.08.13-.2.13h-2.49l-.07-.24"/><path fill="#8b5e3c" d="M198.15 126.2h-.43l.63-.92 1.67 1.26c-.12.12-.29.22-.51.29s-.51.12-.83.15c.15 1.26.35 2.48.61 3.69.25 1.21.61 2.33 1.05 3.4s1 2.02 1.67 2.89c.66.87 1.48 1.6 2.45 2.19l-.09.19c-.25.05-.49.17-.7.36-.22.18-.37.39-.47.63-1.17-.96-2.09-2.11-2.76-3.47-.66-1.35-1.17-2.89-1.51-4.63-.36-1.73-.61-3.65-.78-5.76zm-2.13 0h2.64v.51h-2.48zm-2.85 1.77 1.87.39c-.04.1-.1.17-.19.2-.08.05-.25.07-.49.05-.17 1.52-.46 2.99-.85 4.44-.41 1.45-.99 2.77-1.72 4.01s-1.68 2.31-2.82 3.23l-.22-.19c.95-.95 1.73-2.07 2.36-3.34a19.7 19.7 0 0 0 1.43-4.19c.34-1.49.54-3.02.63-4.6m23.87 10.52v-12.43h-.17l.59-.71 1.45 1.1a1.13 1.13 0 0 1-.75.34v11.84c0 .3-.04.57-.12.8-.09.23-.26.42-.53.57-.27.16-.7.26-1.29.33-.03-.19-.09-.36-.14-.51a.76.76 0 0 0-.3-.34c-.14-.11-.34-.19-.61-.28-.28-.06-.63-.13-1.08-.18v-.27s.11 0 .33.01c.2.02.46.04.76.05.31.02.6.04.85.05.26.02.44.04.55.04.18 0 .32-.04.37-.1a.52.52 0 0 0 .09-.31m-7.77-7.09v-5.9l1.32.56h-.22v5.32c0 .67-.03 1.31-.08 1.98-.05.66-.17 1.3-.33 1.93-.17.65-.4 1.28-.73 1.87-.32.6-.74 1.16-1.26 1.69-.52.52-1.17 1.02-1.93 1.48l-.24-.21c.73-.59 1.33-1.21 1.78-1.87.46-.64.8-1.34 1.06-2.07.24-.73.41-1.5.49-2.3.09-.8.14-1.63.14-2.48m.49-4.83v-.51h7.84v.51zm0 3.81v-.49h7.84v.49zm-.17 3.91v-.49h7.99v.49zm22.73-7.5h1.22a76 76 0 0 1-.29 3.8c-.12 1.17-.3 2.26-.54 3.24-.24.99-.56 1.89-.97 2.69-.42.8-.95 1.51-1.58 2.14-.65.63-1.44 1.19-2.38 1.65l-.24-.27c.99-.58 1.79-1.31 2.38-2.18.6-.87 1.07-1.87 1.4-3.01.32-1.14.54-2.38.69-3.74.16-1.34.26-2.79.31-4.32m4.33-.08h-.18l.68-.75 1.32 1.12c-.12.16-.37.24-.73.28-.02 1.37-.05 2.65-.1 3.8-.05 1.18-.1 2.21-.15 3.13s-.14 1.72-.22 2.4c-.11.69-.22 1.26-.34 1.7-.12.46-.28.78-.45.98-.25.31-.54.53-.86.67-.34.13-.72.2-1.11.2 0-.19-.01-.34-.05-.49a.63.63 0 0 0-.22-.36c-.14-.1-.36-.2-.65-.29-.3-.08-.62-.17-.96-.22l.01-.31c.26.02.53.06.83.09.29.03.58.05.85.07.26.02.46.03.58.03.17 0 .31-.01.39-.05.09-.02.19-.08.29-.2.22-.22.41-.85.56-1.87.14-1.01.26-2.37.34-4.05.09-1.68.14-3.64.17-5.88m-7.56 0h8.16v.51h-8.01zm-.17 4.04 1.14.92a.34.34 0 0 1-.24.14.6.6 0 0 1-.41-.05c-.29.3-.59.59-.95.87s-.71.5-1.05.69l-.22-.24c.28-.25.57-.59.88-1.02.31-.4.59-.85.85-1.31m-4.44-5.88.17-.13c.6.18 1.07.39 1.43.63.36.23.63.47.8.71.17.25.27.48.29.7s-.02.39-.1.52c-.09.16-.23.24-.38.28-.15.03-.34-.02-.54-.16-.07-.29-.19-.58-.38-.9-.18-.32-.39-.63-.61-.92a8 8 0 0 0-.68-.73m2.14 6.79v8.28c0 .03-.03.08-.12.15-.08.07-.18.12-.32.17-.13.05-.3.08-.49.08h-.19v-7.7zm-.32 1.1.15-.15c.72.17 1.31.37 1.77.61s.8.48 1.06.73c.25.26.4.49.49.71.07.23.07.41.02.57-.07.15-.17.23-.33.27-.15.05-.34.01-.54-.09-.15-.29-.38-.61-.66-.93-.29-.32-.62-.63-.97-.94-.36-.3-.68-.56-.99-.78m1.55-4.71h-.21l.75-.69 1.24 1.22c-.08.05-.17.08-.27.1-.12.02-.27.05-.49.07-.39.83-.9 1.66-1.55 2.51-.66.86-1.39 1.65-2.19 2.42-.8.76-1.65 1.43-2.52 1.97l-.22-.2c.58-.46 1.14-.99 1.7-1.58.56-.6 1.09-1.23 1.58-1.89s.92-1.34 1.29-2.01c.38-.66.67-1.31.89-1.92m-5.26 0h5.84v.51h-5.68zm29.4-1.27.9-1.14s.05.03.17.12c.12.08.25.2.44.34.17.15.36.29.55.44.18.15.37.3.52.46-.03.19-.19.27-.46.27H240.8l-.15-.49zm-1.6 5.52.9-1.1s.05.03.17.12c.12.08.26.2.43.34.17.13.34.27.54.42.19.15.34.31.49.46-.01.19-.15.27-.44.27h-10.45l-.14-.51zm2.36 6.12.97-1.19s.05.05.17.14c.12.08.26.2.44.34.19.15.38.3.58.46.19.17.38.34.55.49-.05.19-.21.27-.46.27h-15.15l-.15-.51"/><line x1="188" x2="471" y1="142" y2="142" stroke="#cdbda8"/><path fill="#6b5b4b" d="m188.4 150.76-.07-.23h6.15l.42-.54s.03.02.08.06c.06.04.12.09.2.16q.12.105.27.21c.09.08.17.15.25.21-.03.09-.1.13-.22.13zm.44-2.51-.06-.24h5.28l.42-.52s.02.01.08.05.12.1.2.16c.08.07.16.14.25.21s.17.15.24.21c-.02.09-.09.13-.21.13zm2.88 6.4v-6.64h.54v6.45c0 .02-.02.04-.06.07s-.09.05-.15.08a.9.9 0 0 1-.24.04zm5.31-4.19-.07-.23h5.06v.23zm4.7-.23h-.09l.38-.33.59.56c-.04.04-.08.06-.13.07q-.09.015-.24.03c-.52.98-1.25 1.83-2.2 2.53-.95.69-2.17 1.21-3.65 1.54l-.06-.14c.89-.26 1.68-.59 2.39-1.01.7-.41 1.31-.89 1.82-1.44.52-.54.91-1.14 1.19-1.81m-3.48.16.13-.09c.2.5.48.96.84 1.37.35.41.76.78 1.23 1.09.46.31.97.58 1.53.8.55.22 1.13.39 1.73.52l-.01.08a.6.6 0 0 0-.32.14c-.1.07-.17.17-.21.31-.78-.22-1.49-.51-2.14-.89s-1.21-.84-1.69-1.39c-.47-.55-.84-1.2-1.09-1.94m1.48-.05v-3.04l.82.08c-.01.06-.03.1-.07.14-.05.04-.12.07-.22.09v2.73zm-3.2-1.5-.07-.23h5.97l.4-.51s.03.02.08.06.11.09.19.14c.07.07.15.13.24.2q.12.12.24.21c-.03.09-.1.13-.22.13"/><path fill="#302a25" d="m195.43 160.82.17-.13c.59.12 1.07.28 1.43.49.35.2.63.41.8.63s.27.42.29.63c.01.2 0 .37-.09.51-.09.13-.22.22-.37.24-.17.03-.36-.02-.58-.14-.09-.26-.21-.51-.39-.78-.19-.27-.39-.55-.62-.8-.22-.26-.44-.48-.64-.65m-5.1 2.47v-.58l1.31.58h-.21v4.16c0 .7-.01 1.45-.06 2.21q-.09 1.17-.33 2.37c-.17.79-.42 1.56-.78 2.31s-.83 1.44-1.46 2.07l-.24-.19c.53-.86.92-1.78 1.17-2.75.26-.97.41-1.96.5-2.97.06-1.03.1-2.03.1-3.03zm11.68 0 .81-1.06s.06.04.16.12c.1.09.24.21.39.33q.225.195.51.42c.17.15.32.29.46.43-.04.18-.17.27-.43.27h-12.95v-.51zm.47 4.83.67-.86s.07.06.2.18c.14.11.31.27.49.42.19.17.38.34.53.49-.05.19-.19.28-.42.28h-11.92l-.15-.51zm-5.88-4.14 1.77.17c-.02.12-.07.23-.15.31-.09.08-.24.14-.43.15-.01 1.07-.03 2.06-.05 2.96s-.08 1.74-.2 2.5c-.12.77-.31 1.46-.58 2.09s-.66 1.21-1.17 1.72c-.51.53-1.18.98-2.01 1.39s-1.85.77-3.06 1.09l-.17-.31c1.29-.42 2.33-.9 3.13-1.42.8-.53 1.39-1.14 1.82-1.84.41-.68.69-1.46.85-2.33.15-.87.22-1.83.24-2.91.01-1.07.01-2.26.01-3.57m.78 6.87.29-.13c.36.81.85 1.53 1.5 2.14.64.61 1.41 1.1 2.31 1.48.89.37 1.89.63 2.99.76l-.01.19c-.24.05-.45.17-.58.34-.16.19-.27.41-.32.68-1.11-.26-2.06-.63-2.84-1.09-.8-.46-1.48-1.05-2.03-1.78-.54-.73-.98-1.59-1.31-2.59m3.4-5.18h-.17l.63-.68 1.36 1.05c-.05.07-.15.14-.27.19-.14.07-.29.12-.46.15v5.17c0 .05-.05.08-.15.14q-.15.075-.36.15c-.15.05-.29.07-.41.07h-.17zm-8.22 4.93h8.82v.51h-8.67zm0-4.93h8.87v.51h-8.72zm19.58-4.93.15-.14c.55.09.99.21 1.31.36.33.15.55.34.7.53.15.2.22.39.24.57 0 .19-.05.36-.14.48-.08.14-.22.22-.37.24-.17.03-.36-.02-.55-.14a2.6 2.6 0 0 0-.51-1.04c-.27-.35-.54-.64-.83-.86m7.24 2.16h-.19l.7-.74 1.31 1.26c-.05.05-.14.09-.24.11-.1.01-.24.05-.39.06-.19.28-.44.58-.73.9-.31.34-.59.63-.85.85l-.2-.12c.06-.22.13-.45.22-.74.08-.29.15-.58.22-.87s.12-.53.15-.71m-11.88-.79.31-.01c.18.63.25 1.17.22 1.63-.06.48-.16.87-.33 1.17-.18.31-.37.55-.59.7-.14.1-.29.17-.46.2-.17.05-.32.05-.46 0a.56.56 0 0 1-.31-.25.61.61 0 0 1 .02-.53.93.93 0 0 1 .39-.37c.24-.14.46-.33.65-.58.19-.26.34-.54.46-.88.1-.35.13-.7.1-1.08m.07.79h12.36v.51h-12.36zm7.14 11.08.08-.31c1.12.12 2.06.26 2.82.43.75.17 1.35.36 1.81.54.46.21.78.41.98.6.19.2.29.39.32.54.02.16-.03.29-.15.38-.12.1-.25.15-.44.15s-.36-.07-.53-.19c-.47-.37-1.12-.75-1.94-1.14-.83-.37-1.81-.71-2.95-1m-3.27-.65 1.47 1.01c-.06.08-.16.12-.29.13-.16.02-.33 0-.53-.05-.46.26-1.02.49-1.65.75s-1.33.48-2.06.66c-.73.19-1.48.36-2.22.48l-.11-.29c.7-.2 1.38-.46 2.08-.77.68-.28 1.31-.61 1.9-.95.58-.34 1.06-.66 1.41-.97m1.5-8.17h1.09v7.31h-1.09zm3.43 0 .73-.87s.09.05.24.17c.16.12.32.26.55.42.22.19.4.36.57.52-.05.18-.18.27-.44.27h-9.43l-.14-.51zm1.04 2.28h-.17l.63-.7 1.38 1.07c-.06.07-.16.13-.28.19-.13.05-.28.1-.46.15v4.86c0 .03-.05.09-.15.14-.12.07-.24.13-.37.17-.15.05-.29.08-.41.08h-.17zm-8.01.5v5.33c0 .03-.05.08-.13.13-.11.05-.22.1-.36.16-.14.05-.27.06-.42.06h-.18v-6.75l1.18.57h8.41v.5zm-.58 4.22H218v.51h-9.18zm0-2.43H218v.51h-9.18"/><line x1="24" x2="471" y1="178" y2="178" stroke="#cdbda8"/><path fill="#8b5e3c" d="M38.4 187.42h-.19l.75-.74 1.36 1.3c-.07.05-.15.07-.26.09s-.25.05-.4.07c-.21.27-.5.56-.85.88-.36.32-.7.58-1.01.8l-.2-.12c.09-.2.19-.44.29-.73s.2-.56.31-.83c.08-.27.15-.51.2-.72m-11.82-.86.29-.02c.19.63.27 1.19.24 1.67-.05.47-.15.86-.34 1.17-.19.32-.39.56-.63.71-.15.09-.3.16-.47.19-.19.03-.34.02-.5-.03a.57.57 0 0 1-.32-.31.65.65 0 0 1 .05-.56c.1-.17.24-.31.43-.41.22-.12.44-.31.64-.54.21-.24.38-.53.49-.85q.18-.495.12-1.02m.09.86h12.07v.51H26.67zm4.59-2.56.17-.12c.56.12 1.02.27 1.36.47.32.21.56.43.71.65q.21.36.21.66c0 .21-.05.38-.16.51q-.165.21-.42.24c-.17.02-.36-.03-.56-.19-.05-.39-.22-.78-.48-1.2-.25-.43-.54-.77-.83-1.02m-2.87 5.03v-.56l1.27.56h5.68l.59-.77 1.48 1.13c-.07.08-.15.13-.27.18s-.27.09-.49.1v8.96h-1.11v-9.11h-6.07v9.11h-1.08zm9.58 9.31.85-1.12s.06.04.16.12c.1.09.24.21.39.34.15.14.32.29.51.44.17.16.32.31.46.45-.05.18-.19.27-.43.27H24.88l-.13-.5zm-9.21-3.17h7.45v.49h-7.45zm0-3.1h7.45v.49h-7.45zm20.74-2.82c.32 0 .58-.1.8-.32.22-.23.32-.48.32-.8 0-.33-.1-.58-.32-.8a1.07 1.07 0 0 0-.8-.32c-.32 0-.58.1-.8.32s-.32.47-.32.8c0 .32.1.57.32.8.22.22.48.32.8.32m0 8.3c.32 0 .58-.11.8-.33s.32-.47.32-.8c0-.32-.1-.59-.32-.81s-.48-.33-.8-.33-.58.11-.8.33-.32.49-.32.81c0 .33.1.58.32.8s.48.33.8.33m18.72-10.6 1.65.19c-.02.12-.07.21-.16.29-.08.09-.24.14-.46.17v11.25c0 .05-.03.12-.11.17-.09.06-.21.11-.33.14-.12.05-.25.07-.39.07h-.2zm-9.03 7.25-.63-1.4c.34-.08.83-.25 1.46-.47s1.35-.5 2.16-.8c.8-.31 1.63-.61 2.48-.94l.09.24c-.61.36-1.34.78-2.21 1.28-.87.49-1.87 1.05-3.01 1.64-.05.23-.15.36-.34.45m1.97-10.31 1.7.19c-.02.12-.08.21-.17.29-.1.08-.25.14-.46.15v13.26c0 .31-.03.58-.1.8-.07.24-.22.43-.44.56-.24.16-.61.24-1.12.29-.02-.17-.05-.32-.1-.47a.86.86 0 0 0-.26-.38c-.12-.1-.27-.19-.49-.25-.22-.07-.5-.12-.84-.17v-.29s.09 0 .26.02c.15.01.36.03.58.05.22.01.42.03.63.05.2.01.34.01.42.01.15 0 .26-.03.31-.08s.08-.14.08-.26zm1.77 3.83.7-.92s.07.07.22.19c.13.12.3.27.51.44.2.19.39.36.54.53-.05.18-.18.27-.44.27h-5.54l-.14-.51zm8.3-1.05.37-.07c.05 1.17.12 2.31.24 3.45.1 1.14.25 2.21.47 3.21.21 1.02.48 1.94.8 2.76.33.83.73 1.51 1.21 2.05l-.05.16c-.26.1-.46.25-.61.47-.16.22-.27.49-.33.8-.42-.63-.78-1.41-1.05-2.35-.27-.93-.48-1.95-.63-3.09a43 43 0 0 1-.31-3.59c-.05-1.26-.1-2.53-.11-3.8m.76-2.67 1.24 1.1q-.225.225-.81 0c-.56.17-1.23.34-1.98.49-.74.17-1.53.33-2.36.45-.83.11-1.66.22-2.48.27l-.09-.29c.77-.15 1.57-.34 2.4-.56.82-.22 1.58-.46 2.31-.72.72-.25 1.31-.51 1.77-.74m-6.88 1.48 1.41.47c-.05.1-.17.17-.39.19v3.25c0 .71-.02 1.49-.07 2.34s-.15 1.72-.31 2.62c-.17.9-.42 1.78-.78 2.65s-.83 1.68-1.45 2.43l-.27-.19c.56-1.01.99-2.09 1.24-3.21.26-1.12.41-2.24.5-3.38.08-1.14.12-2.23.12-3.28zm17.61 12.81-2.65-.15v-.48l1.42-.11c.02-.33.02-.69.02-1.08s0-.78.02-1.17v-9.79l-1.5-.09v-.46l2.65-.51.26.16-.05 2.63v3.47l.03.17v5.9zm2.92.1c-.52 0-1.03-.13-1.56-.39-.53-.25-1.02-.69-1.45-1.32h-.18l.22-.43c.44.48.86.82 1.27 1.02.39.21.82.31 1.28.31.47 0 .92-.12 1.32-.38.39-.25.72-.66.97-1.24.26-.57.38-1.34.38-2.27 0-1.28-.26-2.23-.73-2.86-.5-.63-1.14-.94-1.91-.94a3 3 0 0 0-.81.12c-.29.09-.6.24-.91.46-.3.22-.64.53-1.02.95l-.18-.49h.22c.46-.64.98-1.1 1.56-1.39.56-.29 1.14-.43 1.72-.43.7 0 1.31.19 1.84.56.52.38.95.91 1.25 1.59.31.67.46 1.47.46 2.41 0 .92-.15 1.73-.46 2.45-.32.71-.74 1.27-1.31 1.66-.56.41-1.22.61-1.97.61m9 0c-.8 0-1.43-.25-1.87-.76-.45-.49-.67-1.38-.65-2.65l.05-5.07.37.29-1.78-.24v-.44l2.67-.27.17.2-.07 2.23v3.31c0 .91.15 1.55.44 1.91s.7.54 1.26.54c.53 0 1.04-.15 1.53-.46.49-.3.94-.73 1.34-1.25l.39.66h-.44c-.44.59-.95 1.07-1.51 1.44-.56.38-1.21.56-1.9.56m5.93-.25-2.62.15-.05-2.09v-.03l.02-6.04-1.38-.15v-.44l2.63-.29.17.2-.06 2.23v5.87l1.29.13zm4.96 4.42c-.85 0-1.53-.1-2.04-.31-.52-.18-.9-.45-1.14-.8-.23-.32-.35-.71-.35-1.13 0-.53.18-.99.57-1.36.38-.38.94-.72 1.69-1.01l.08.16c-.44.32-.76.62-.97.91-.2.29-.3.63-.3 1.06 0 .61.22 1.07.66 1.39.43.33 1.04.48 1.84.48 1.19 0 2.09-.21 2.68-.63q.9-.615.9-1.53c0-.39-.13-.71-.4-1-.28-.28-.77-.41-1.48-.41h-2.09c-.26 0-.5 0-.7-.02-.21-.02-.39-.05-.58-.1v-.05c-.87-.22-1.31-.72-1.31-1.5 0-.35.12-.71.34-1.04.22-.32.58-.69 1.09-1.08v-.16l.39.21c-.29.3-.51.56-.65.78-.15.22-.22.46-.22.75s.11.53.31.71c.2.19.54.27 1 .27h2.48c.7 0 1.26.09 1.72.26.44.19.77.44.99.78s.32.75.32 1.23c0 .52-.19 1.01-.54 1.49-.38.49-.92.89-1.64 1.19-.73.31-1.61.46-2.65.46m.21-7.38c-.68 0-1.28-.13-1.77-.39-.49-.25-.89-.59-1.14-1.05-.27-.46-.41-.99-.41-1.58 0-.92.31-1.65.9-2.21.6-.56 1.4-.84 2.43-.84.53 0 .99.07 1.41.22.43.16.77.36 1.04.65l.05.03c.55.53.82 1.25.82 2.15 0 .59-.14 1.12-.41 1.58s-.66.8-1.16 1.05c-.49.26-1.08.39-1.76.39m0-.51c.61 0 1.1-.24 1.48-.69.37-.46.56-1.08.56-1.84 0-.77-.19-1.38-.56-1.84-.38-.46-.87-.68-1.47-.68-.61 0-1.1.24-1.46.7-.37.46-.56 1.07-.56 1.84 0 .76.19 1.36.54 1.82.36.45.85.69 1.47.69m4.71-4.38-2.76-.09v-.29h.1l2.37-.73.29.19zm6.51-.21.2-.29c.56.22 1.04.44 1.46.68.43.24.78.5 1.09.75.31.26.56.55.77.85.11.19.2.38.28.6.07.22.11.42.09.63-.02.15-.07.28-.15.4-.11.12-.24.17-.41.17-.15 0-.29-.07-.39-.18-.1-.12-.22-.33-.34-.58-.27-.56-.61-1.07-1.02-1.57-.43-.49-.95-.96-1.58-1.46m15.25 5.03h.28c.12.67.11 1.23-.01 1.72s-.31.88-.55 1.19c-.24.32-.47.56-.71.71-.15.09-.31.16-.48.19-.17.05-.32.05-.46.02a.5.5 0 0 1-.32-.24.46.46 0 0 1 .04-.49c.08-.16.22-.29.39-.39.27-.14.54-.34.8-.6.25-.25.49-.58.68-.93.18-.36.3-.75.34-1.18m2.72-8.85 1.3.98c-.15.16-.4.17-.78.05-.29.11-.64.23-1.07.36-.42.14-.85.26-1.31.37-.46.12-.92.21-1.34.26l-.12-.26c.39-.15.78-.32 1.21-.54.42-.2.81-.41 1.19-.63.37-.22.68-.41.92-.59m6.83 6.9h-.17l.63-.66 1.26 1.03c-.11.12-.33.21-.67.24-.08 1.46-.22 2.62-.44 3.47-.22.87-.49 1.44-.85 1.73-.2.17-.44.29-.73.38-.29.08-.58.12-.9.12 0-.16-.02-.29-.05-.45a.8.8 0 0 0-.22-.32 1.8 1.8 0 0 0-.55-.24c-.25-.07-.52-.12-.8-.17v-.29c.21.02.45.04.72.05.27.02.53.04.76.06.22.01.39.03.51.03.26 0 .45-.05.58-.15.21-.19.39-.68.56-1.53.16-.84.27-1.92.36-3.3m-8.82 0h9.72v.49h-10.3zm1.32-.46c-.39.48-.88.97-1.44 1.46-.58.49-1.21.97-1.91 1.4-.69.42-1.42.8-2.22 1.08l-.17-.2c.68-.37 1.32-.82 1.93-1.34.62-.51 1.16-1.04 1.65-1.62.5-.56.87-1.07 1.16-1.56l1.72.51c-.02.08-.09.13-.19.18-.12.06-.29.09-.53.09m.1-3.2.62-.74s.06.05.2.15.29.22.48.37c.18.16.34.29.49.45-.03.18-.17.27-.41.27H132v-.5zm-3.07-2.33 1.73.53c-.05.16-.27.26-.64.32v4.54a.5.5 0 0 1-.12.14c-.07.07-.17.12-.29.17-.14.05-.31.07-.51.07h-.17zm9.04.36h-.17l.61-.68 1.36 1.04c-.05.07-.15.13-.27.19-.12.05-.27.1-.44.13v4.12c0 .03-.05.08-.15.13-.12.05-.24.1-.38.14-.13.05-.27.07-.39.07h-.17zm-3.33 1.96h3.98v.49h-3.83zm-.37-1.96h4.21v.49h-4.06zm1.46 6.99.18-.15c.53.15.94.34 1.26.54.33.22.56.42.72.65.15.22.23.42.25.61s0 .35-.08.47c-.09.12-.19.21-.33.22-.13.04-.29 0-.46-.11-.05-.26-.17-.53-.32-.82-.17-.27-.36-.53-.56-.78-.22-.26-.44-.46-.66-.63m-2.28.19.22-.09c.49.26.87.53 1.14.82s.48.56.59.81c.12.26.17.5.17.7q-.015.33-.15.51c-.1.12-.22.19-.37.2-.16.02-.31-.05-.46-.2-.02-.29-.09-.61-.21-.95-.11-.33-.27-.65-.42-.97a7 7 0 0 0-.51-.83m-2.18.27.24-.09c.41.36.72.7.94 1.04.2.36.34.68.4.99.06.3.07.57.02.81s-.12.43-.24.55c-.12.13-.27.2-.42.18-.15 0-.31-.08-.46-.25.07-.36.08-.73.07-1.12-.04-.39-.1-.77-.19-1.14-.1-.36-.22-.68-.36-.97m-1.78-3.49h9.08v.51h-9.08zm3.48-7.56.17-.12c.5.07.87.17 1.16.3.27.16.46.31.58.5.1.19.15.35.13.53-.01.16-.06.3-.18.42s-.26.17-.41.19c-.17.01-.34-.05-.51-.19a2.54 2.54 0 0 0-.94-1.63m6.92 1.73h-.19l.72-.71 1.26 1.24c-.05.05-.14.08-.24.1-.12.02-.26.04-.41.05-.19.26-.46.51-.76.8-.33.29-.63.53-.91.72l-.22-.14c.09-.19.19-.39.28-.65.08-.25.18-.51.27-.76.08-.26.15-.46.2-.65m-11.71-.71.29-.02c.19.56.25 1.04.22 1.46-.03.43-.14.78-.29 1.06-.17.27-.36.47-.56.61-.14.08-.29.14-.44.15-.16.04-.31.02-.43-.03a.5.5 0 0 1-.29-.26.49.49 0 0 1 .04-.51c.08-.15.22-.27.39-.35.32-.16.59-.45.81-.84s.31-.81.26-1.27m0 .71h12.56v.49h-12.56zm16.01 8.93c.09 0 .16-.02.21-.05.05-.02.1-.12.18-.31.07-.12.12-.22.17-.34s.12-.29.22-.51l.43-1.04c.19-.46.43-1.07.75-1.87s.73-1.82 1.24-3.06l.31.09-.41 1.34c-.17.49-.34 1-.5 1.53-.17.53-.32 1.02-.47 1.48-.15.48-.29.88-.39 1.24-.12.36-.19.61-.24.77-.05.25-.1.49-.14.73-.05.25-.07.47-.07.68 0 .25.04.51.12.8.09.29.16.61.23.97.05.35.06.78.05 1.25-.02.36-.11.65-.24.85-.16.21-.38.31-.65.31-.15 0-.27-.09-.34-.24-.08-.15-.13-.36-.15-.61.08-.6.12-1.14.12-1.63 0-.48-.04-.87-.09-1.19-.05-.31-.13-.5-.25-.58a1 1 0 0 0-.36-.17c-.14-.02-.29-.05-.48-.07v-.37h.75m-.05-10.48.16-.15c.59.1 1.08.24 1.46.43.35.18.63.39.81.59.19.22.29.43.33.61.03.21.01.38-.07.51-.09.14-.19.23-.34.26-.16.05-.34.02-.55-.1-.08-.26-.22-.53-.42-.78-.21-.26-.43-.52-.66-.75-.26-.24-.5-.44-.72-.62m-1 3.97.15-.16c.56.09 1.01.21 1.36.36.34.17.6.36.77.54.17.21.27.41.29.6.01.19 0 .36-.09.47-.08.14-.2.23-.36.26-.15.03-.34 0-.52-.12-.1-.36-.31-.71-.63-1.09a6.2 6.2 0 0 0-.97-.86m10.98 7.92V186.5l1.56.19q-.015.15-.15.27c-.08.09-.22.14-.41.16v9.36c0 .05-.03.11-.12.16-.08.07-.2.12-.32.15a.9.9 0 0 1-.35.07zm2.86 1.75v-13.67l1.66.19c-.01.12-.08.22-.17.29-.1.08-.25.15-.46.17v13.12c0 .29-.03.56-.1.78s-.22.41-.46.55c-.24.13-.61.22-1.1.27-.02-.17-.07-.32-.1-.46a.63.63 0 0 0-.26-.32c-.12-.1-.29-.19-.49-.24-.22-.05-.51-.12-.89-.17v-.27s.09 0 .26.01c.17.02.37.04.61.04.24.01.46.03.66.05.21.02.36.02.45.02.15 0 .25-.04.3-.09s.09-.13.09-.27m-8.47-9.16v-.5h3.55v.5zm0 3.09v-.51h3.55v.51zm-.02 3.11v-.51h3.54v.51zm.55.53 1.43.7c-.05.08-.12.15-.23.18-.11.05-.25.07-.4.05-.43.67-.92 1.26-1.48 1.77-.56.53-1.12.94-1.72 1.26l-.2-.22c.47-.41.95-.94 1.41-1.6.46-.65.86-1.36 1.19-2.14m1.63.24.2-.12c.56.29 1.02.58 1.38.88.34.32.6.61.75.9s.24.56.25.8c.02.24-.03.43-.11.58-.09.15-.23.24-.38.25-.15.02-.32-.03-.51-.18-.03-.34-.14-.7-.3-1.09q-.27-.57-.6-1.11c-.22-.35-.46-.66-.68-.91m-2.69-.02v-11.03l1.11.54h2.99v.48h-3.08v9.64c0 .03-.03.08-.1.13-.08.07-.19.12-.3.17-.12.05-.28.07-.43.07zm3.66-.14v-10.35h-.17l.59-.68 1.31 1.02c-.05.07-.13.14-.25.19-.12.06-.27.12-.44.13v9.32c0 .03-.06.08-.16.14-.1.05-.22.1-.34.15-.13.05-.27.08-.39.08zm21.33-10.67.19-.12c.53.15.95.32 1.28.51.32.2.56.41.71.61.15.22.22.41.24.6 0 .18-.04.34-.12.45q-.135.18-.36.21c-.15.02-.32-.04-.49-.16a4 4 0 0 0-.34-.73c-.15-.25-.34-.51-.53-.76-.19-.24-.39-.44-.58-.61m-5.98 13.46-.63-1.24c.32-.05.77-.15 1.33-.27s1.19-.27 1.88-.44c.7-.17 1.43-.34 2.18-.53l.07.27c-.53.22-1.18.48-1.91.78q-1.095.495-2.58 1.02c-.07.22-.19.36-.34.41m1.46-7.14h1.04v5.53l-1.04.32zm2.86-7.05 1.75.22a.48.48 0 0 1-.15.29c-.09.08-.24.15-.46.17-.02 1.2-.02 2.41.01 3.62.02 1.2.11 2.38.24 3.48.14 1.12.34 2.16.65 3.1.29.93.66 1.75 1.15 2.41.11.17.19.26.24.24s.1-.1.17-.27c.1-.21.21-.48.32-.84.12-.35.23-.69.31-1.02l.22.04-.3 2.65c.2.37.32.64.37.83.03.19 0 .32-.1.41-.15.14-.36.17-.6.1s-.47-.2-.69-.41c-.24-.18-.45-.4-.6-.64-.56-.8-1-1.74-1.34-2.77a19.4 19.4 0 0 1-.77-3.39c-.17-1.22-.29-2.53-.34-3.91-.05-1.37-.08-2.82-.08-4.31m2.55 3.94.75-.93s.08.05.23.16a10.829 10.829 0 0 1 1.16.99c-.03.19-.19.27-.44.27h-9.05l-.13-.49zm-4.35 3.01.64-.83s.07.05.21.17c.13.11.3.25.49.4.19.17.36.34.51.5-.05.18-.19.27-.44.27h-4l-.13-.51zm-7.52-6.78.19-.12c.54.15.99.34 1.31.54.32.22.54.44.69.66.16.23.23.45.24.63 0 .21-.05.38-.15.5-.1.13-.24.22-.39.23-.15.02-.34-.03-.53-.15-.05-.25-.13-.53-.29-.82q-.225-.405-.51-.81c-.18-.26-.37-.48-.56-.66m-.37 13.51h3.77v.49h-3.77zm3.23-3.89h-.17l.59-.66 1.33 1.01c-.05.07-.15.14-.27.19-.14.05-.29.1-.44.14v4.15c0 .03-.06.08-.16.13s-.22.1-.34.15c-.13.06-.27.07-.39.07h-.15zm-2.72.49V200c0 .04-.05.09-.14.14-.08.05-.2.1-.32.15s-.26.07-.41.07h-.17v-6.24l1.11.53h3.19v.49zm3.06-7.21.71-.9s.09.05.24.17.32.27.54.44c.21.19.4.36.56.53-.05.19-.2.27-.45.27h-6.46l-.14-.51zm-.68 4.54.63-.81s.06.05.22.17c.13.11.3.25.49.4.19.16.36.33.51.48-.05.19-.19.27-.42.27h-4.9l-.14-.51zm0-2.4.63-.79s.06.05.22.15c.13.12.3.25.49.41.19.15.36.32.51.47-.05.19-.19.28-.42.28h-4.9l-.14-.52"/><path fill="#8b5e3c" d="m28.88 210.56 1.63.17c-.02.11-.05.19-.13.26-.09.08-.23.13-.38.15v3.23c0 .12.05.2.15.26.09.05.34.06.77.06h2.43c.56 0 1.04 0 1.43-.01.39-.02.66-.02.81-.04.12-.01.22-.03.28-.07.05-.01.08-.06.13-.15.09-.15.17-.41.26-.76l.27-1.23h.22l.05 2.06c.21.05.34.12.43.19.06.08.1.17.1.29 0 .15-.05.27-.16.35-.1.11-.28.19-.57.24s-.68.1-1.21.12q-.795.03-2.07.03H30.8c-.53 0-.93-.03-1.21-.1-.27-.07-.46-.18-.56-.36-.1-.15-.15-.39-.15-.69zm-1.85-5.69v-.56l1.31.56h-.21v3.09c0 .1.03.17.09.22.05.05.18.1.39.12.2.02.52.04.95.04h3.99c.92 0 1.7 0 2.35-.02s1.09-.02 1.34-.04c.21-.01.34-.05.41-.1.05-.03.1-.1.15-.22.09-.18.19-.46.29-.85.09-.37.21-.83.33-1.37h.22l.03 2.36c.26.05.43.1.53.17.08.07.13.15.13.27 0 .15-.06.29-.2.39s-.41.17-.8.22-.97.1-1.73.12c-.77.02-1.8.04-3.08.04h-3.89c-.72 0-1.26-.04-1.63-.09-.38-.05-.63-.17-.77-.36-.14-.18-.2-.44-.2-.78zm-.53-3.18h10.49v.49H26.65zm9.81 0h-.17l.61-.7 1.39 1.06a.7.7 0 0 1-.28.18c-.14.07-.29.12-.45.16v3.52c0 .01-.05.06-.15.11-.12.05-.24.11-.37.16-.16.05-.29.08-.41.08h-.17zm-8.86 3.18h9.42v.49h-9.42zm-.73 6.15.31.02c.15.68.2 1.29.11 1.82-.08.54-.23 1-.44 1.36-.22.35-.44.63-.66.81-.15.11-.31.17-.48.22-.18.06-.34.07-.47.04a.45.45 0 0 1-.34-.22.52.52 0 0 1 0-.51c.08-.15.2-.31.37-.43.26-.15.51-.39.75-.69.24-.31.44-.67.61-1.09.16-.43.24-.87.24-1.33m9.94-.05.19-.13c.75.3 1.36.62 1.82.98s.8.7 1.04 1.04c.24.36.39.68.44.97s.05.52-.03.71c-.09.19-.21.31-.38.34-.19.03-.37-.02-.59-.17a5 5 0 0 0-.51-1.33c-.26-.45-.56-.9-.92-1.32-.36-.43-.7-.78-1.06-1.09m-5.27-.78.19-.15c.65.23 1.18.49 1.58.78.39.29.7.58.89.85.18.29.3.56.35.81.05.26.04.46-.05.62-.08.17-.2.27-.35.3-.16.05-.34 0-.53-.15-.05-.36-.19-.73-.41-1.12-.22-.38-.47-.73-.76-1.07s-.6-.63-.91-.87m18.11-4.08c.32 0 .58-.1.8-.32.22-.23.32-.48.32-.8 0-.33-.1-.58-.32-.8a1.07 1.07 0 0 0-.8-.32c-.32 0-.58.1-.8.32s-.32.47-.32.8c0 .32.1.57.32.8.22.22.48.32.8.32m0 8.3c.32 0 .58-.11.8-.33s.32-.47.32-.8c0-.32-.1-.59-.32-.81s-.48-.33-.8-.33-.58.11-.8.33-.32.49-.32.81c0 .33.1.58.32.8s.48.33.8.33m13.75-7.38v8.96c0 .03-.08.1-.23.18-.18.11-.4.16-.67.16h-.17v-9.3zm-2.94 3.48 1.62.67a.4.4 0 0 1-.21.18c-.08.05-.24.05-.42.04-.17.37-.38.78-.63 1.22-.26.46-.53.9-.85 1.34-.32.45-.7.84-1.09 1.18l-.2-.21c.29-.41.56-.88.8-1.41.23-.53.44-1.05.61-1.58.15-.53.29-1 .37-1.43m1.07-9.76.19-.12c.51.18.92.36 1.22.57.29.22.51.42.65.64.12.22.19.41.17.6-.02.18-.07.32-.15.44-.1.12-.24.19-.39.2-.16.02-.33-.05-.5-.18-.06-.36-.22-.74-.46-1.14-.23-.41-.47-.75-.73-1.01m10.7 6.02v9.22c-.02.03-.11.1-.26.2-.17.1-.39.15-.68.15h-.17v-9.57zm.54-5.71 1.34 1.1c-.08.09-.18.12-.32.12s-.31-.03-.49-.1c-.41.16-.9.29-1.46.44-.57.16-1.16.28-1.77.39-.61.12-1.23.24-1.82.33l-.09-.29c.55-.15 1.11-.36 1.7-.6.58-.22 1.13-.45 1.65-.71.51-.25.94-.48 1.26-.68m-5.05 1.34 1.46.5c-.05.1-.17.17-.37.18v4.8q0 1.065-.09 2.19c-.06.77-.2 1.51-.39 2.26-.18.75-.49 1.46-.9 2.14-.42.68-.98 1.31-1.7 1.87l-.24-.22c.67-.76 1.14-1.6 1.47-2.5.32-.9.52-1.83.63-2.8.08-.97.13-1.94.13-2.94zm4.62 4.34.82-1.04.15.12c.09.09.23.2.38.32s.3.26.47.39c.17.16.33.29.48.45-.02.08-.07.15-.15.2-.09.05-.17.07-.29.07h-6.12v-.51zm-7.85-3.01 1.65.53c-.03.08-.1.17-.2.22-.12.06-.26.1-.45.08-.2.39-.45.82-.78 1.29-.32.48-.66.92-1 1.31h-.34c.15-.32.29-.68.44-1.09.14-.39.27-.79.39-1.22.12-.41.21-.78.29-1.12m-4.3.25.22-.1c.46.26.82.53 1.07.8.26.27.44.53.56.78.1.26.16.48.14.67-.02.18-.09.35-.19.46s-.22.18-.36.18c-.15 0-.3-.07-.45-.22-.04-.42-.16-.87-.36-1.36-.2-.47-.41-.88-.63-1.21m3.84 6.87.21-.1q.81.405 1.29.87c.3.3.53.59.66.88.14.29.21.54.22.77 0 .22-.05.4-.13.56-.11.15-.24.23-.38.23-.15.02-.32-.03-.49-.18-.02-.34-.1-.7-.24-1.06a10 10 0 0 0-.53-1.07c-.2-.34-.4-.64-.61-.9m1.33-3.99.76-.97s.09.07.26.18c.15.14.36.29.58.48s.4.36.57.54c-.05.19-.18.28-.44.28h-8.28l-.13-.51zm-.15 2.56.71-.91s.07.06.22.18.32.28.54.44c.21.19.39.36.56.53-.03.19-.18.27-.44.27h-7.77l-.13-.51zm-.17-6.27.73-.95s.06.07.23.19c.16.11.33.27.55.45.22.19.41.36.58.53-.06.19-.19.27-.45.27h-7.61l-.14-.49zm22.93 1.58 1.39.56c-.05.09-.12.17-.22.22s-.24.09-.41.07c-.2.31-.42.63-.64.97-.24.36-.46.66-.65.92l-.31-.15c.12-.33.24-.73.4-1.21.15-.46.29-.92.44-1.38m-5.05.1.2-.1c.53.26.92.53 1.19.82.28.29.45.54.53.8q.105.375 0 .63c-.07.17-.19.27-.34.3-.15.05-.32 0-.49-.13-.02-.26-.09-.53-.21-.82-.12-.27-.27-.54-.42-.82-.15-.25-.31-.49-.46-.68m-.24-3.87.19-.12c.54.15.97.34 1.29.56.31.22.53.44.68.66.15.24.22.46.24.65 0 .2-.05.37-.14.49-.08.14-.22.22-.37.24s-.33-.03-.51-.15c-.09-.39-.26-.8-.53-1.24-.27-.45-.56-.8-.85-1.09m5.51-.22 1.82.59c-.05.09-.12.17-.22.22a.9.9 0 0 1-.45.05c-.16.21-.37.45-.59.68-.24.26-.48.51-.71.77l-.73.7h-.33c.12-.29.26-.62.41-.97.15-.36.29-.72.43-1.07.13-.36.25-.68.37-.97m-2.74 2.87h.99v4.71h-.99zm-2.53 11.19h6.07v.49h-6.07zm0-2.45h6.07v.51h-6.07zm-.73-4.2h7.68v.49h-7.68zm7.21-4.64h-.16l.6-.63 1.32 1a.9.9 0 0 1-.27.17c-.12.05-.27.1-.42.12v4.74c0 .04-.05.09-.16.14-.1.05-.22.1-.35.15-.14.05-.28.07-.39.07h-.17zm-6.86.51v5.18c0 .04-.03.09-.11.14-.09.05-.21.1-.33.15-.13.05-.27.07-.42.07h-.19V203l1.16.51h7.22v.51zm5.84 6.02h-.16l.6-.67 1.32 1.02a.6.6 0 0 1-.23.17c-.12.05-.28.1-.45.14v5.18c0 .04-.05.07-.15.12s-.22.1-.36.16c-.15.05-.28.06-.4.06h-.17zm-5.02.49v5.41c0 .03-.03.08-.12.13-.08.05-.2.1-.32.15a1.1 1.1 0 0 1-.44.07h-.19v-6.78l1.17.53h5.58v.49zm-6.78 3.3-.77-1.48c.33-.07.78-.17 1.36-.32.56-.16 1.21-.33 1.94-.53.71-.19 1.45-.39 2.21-.61l.07.23c-.49.28-1.12.6-1.85.99-.75.39-1.62.83-2.61 1.29-.05.21-.17.34-.35.43m1.29-12.67 1.7.19c-.02.12-.07.2-.15.29-.09.08-.26.13-.48.17v10.23l-1.07.34zm1.34 4.46.72-.97s.06.07.22.18c.15.14.32.29.53.48.18.19.35.36.5.53-.03.18-.17.27-.4.27h-4.8l-.13-.49zm27.46-.62h-.19l.66-.73 1.31 1.11c-.12.15-.35.24-.71.25-.05 1.35-.1 2.59-.19 3.69-.08 1.12-.18 2.11-.3 2.94-.12.84-.28 1.53-.43 2.08-.15.54-.34.93-.56 1.15-.24.26-.53.46-.85.58-.34.14-.71.21-1.12.19 0-.19-.02-.34-.07-.5a.7.7 0 0 0-.26-.33c-.11-.09-.35-.19-.67-.28-.34-.08-.69-.17-1.03-.22l.02-.3c.26.01.55.05.89.08.32.04.64.07.93.09.29.01.49.03.61.03.19 0 .33-.02.41-.05.09-.03.19-.1.31-.19.22-.2.42-.73.59-1.6.16-.85.29-1.95.41-3.33.1-1.36.19-2.91.24-4.66m-13.02 8.4-.87-1.36c.42-.12 1.04-.29 1.82-.54.76-.24 1.65-.53 2.63-.87.99-.32 2.01-.66 3.05-1.02l.08.26c-.73.39-1.61.83-2.65 1.36-1.06.52-2.3 1.1-3.72 1.73-.06.22-.16.36-.34.44m8.44-12.51 1.74.2a.5.5 0 0 1-.15.29c-.09.09-.24.14-.45.17-.01 1.04-.03 2.04-.05 3.01-.03.97-.1 1.92-.22 2.82s-.29 1.79-.54 2.62c-.26.84-.63 1.63-1.11 2.38-.47.75-1.08 1.45-1.83 2.11-.77.66-1.7 1.27-2.83 1.84l-.22-.29c1.18-.73 2.15-1.52 2.88-2.35q1.095-1.245 1.68-2.7c.39-.95.66-1.97.82-3.05.15-1.07.23-2.19.25-3.36s.03-2.42.03-3.69m-6.4 2.3h1.08v8.09l-1.08.35zm2.19 0 .76-.99s.06.03.16.12c.08.08.2.17.35.29.16.12.31.23.48.37.15.15.31.29.44.43-.05.18-.2.27-.46.27h-6.41l-.13-.49zm.92 1.81h8.36v.5H98.8zm12.24 1.89v-.56l1.25.56h-.22v3.23c0 .49-.01 1-.05 1.55-.03.56-.12 1.1-.23 1.66-.14.57-.34 1.09-.62 1.62-.27.53-.64 1-1.12 1.43l-.22-.21c.37-.59.65-1.22.82-1.88.17-.67.27-1.36.32-2.08.05-.7.07-1.39.07-2.09zm1.31 6.55-.63-1.33c.39-.07.83-.15 1.32-.27.5-.1 1.01-.24 1.55-.39.53-.16 1.05-.31 1.55-.5l.08.24c-.46.29-.98.6-1.58.92-.59.32-1.24.63-1.95.9-.06.21-.16.34-.34.43m-.65-4.19.03-.28c.6-.12 1.11-.18 1.55-.16s.82.09 1.12.21c.29.11.53.27.7.42.17.17.27.32.32.48.04.15.02.29-.07.37-.08.09-.22.14-.42.12-.37-.27-.83-.51-1.36-.73-.53-.21-1.16-.34-1.87-.43m-.25-2.36h4.87v.51h-4.72zm11.45 3.89.67-.85s.03.04.11.11c.09.08.19.17.33.27.12.12.25.24.39.35q.21.18.39.36c-.05.19-.19.27-.44.27h-5.15l-.14-.51zm0-7.37.65-.82s.05.03.13.1c.09.07.19.15.31.26.12.1.26.22.39.34.14.12.26.24.36.35-.03.19-.17.28-.41.28h-5.2l-.14-.51zm-9.38-2.67 1.56.71c-.05.1-.15.19-.3.22-.16.05-.38.04-.67-.07l.48-.1c-.25.36-.6.75-1 1.21-.43.46-.87.9-1.35 1.32-.47.45-.93.82-1.37 1.14l-.02-.18h.65c-.04.35-.12.64-.24.85-.12.2-.26.34-.41.39l-.61-1.45s.05-.01.17-.05c.1-.01.18-.05.25-.07.26-.2.53-.47.82-.79.27-.33.54-.68.8-1.08.25-.39.51-.76.73-1.12s.39-.66.51-.93m-2.52 5.22-.47-1.13c.39-.01.93-.03 1.59-.06.67-.02 1.42-.07 2.25-.12s1.67-.11 2.51-.16l.04.28c-.63.15-1.48.34-2.52.56-1.05.22-2.19.44-3.4.63m3.78-3.03.18-.14c.63.26 1.13.55 1.52.85.39.31.66.62.85.9.18.29.29.57.32.82.02.26 0 .48-.08.63-.09.17-.21.27-.36.29-.15.03-.34-.02-.53-.17-.03-.36-.15-.75-.36-1.14-.2-.39-.44-.76-.71-1.12-.29-.36-.56-.66-.83-.92m3.82 5.54 1.62.19a.38.38 0 0 1-.16.25c-.08.09-.22.14-.37.16v5.49c0 .15.05.25.14.3.08.05.29.09.61.09h1.73c.39 0 .75 0 1.04-.02s.49-.02.61-.03c.09-.02.17-.04.22-.05.05-.02.09-.07.14-.12.07-.12.13-.34.24-.7.08-.34.17-.71.25-1.12h.2l.06 1.87c.18.05.32.12.39.19.06.06.1.15.1.27 0 .19-.09.32-.26.41-.17.1-.49.17-.95.22s-1.15.07-2.07.07h-1.89c-.46 0-.8-.04-1.04-.11-.23-.07-.39-.18-.47-.35-.09-.16-.14-.39-.14-.68zm-2.82-1.58h-.17l.54-.68 1.42 1.07c-.06.05-.16.12-.28.17-.13.07-.29.12-.47.14v7.14c0 .29-.04.52-.09.75-.07.22-.2.39-.41.51-.22.13-.54.23-1 .29-.02-.18-.03-.33-.07-.48a.9.9 0 0 0-.2-.34c-.1-.09-.24-.15-.41-.22q-.255-.075-.66-.15v-.26s.07 0 .19.02c.11.01.27.01.45.03.17.02.34.02.5.02.15.01.27.01.34.01.12 0 .2-.03.25-.08s.07-.12.07-.22zm2.81-5.98 1.59.18c-.01.22-.18.36-.51.4v5.06c0 .15.04.24.12.29.09.05.27.07.6.07h2.63c.29 0 .48 0 .6-.02.06-.02.13-.02.2-.02.05 0 .1 0 .15-.01.06-.02.12-.02.21-.04.07-.01.13-.01.19-.03h.17l.05.02c.2.05.34.12.42.17.07.05.1.13.1.25 0 .15-.08.29-.24.39-.15.1-.45.17-.91.21-.46.05-1.12.06-1.99.06h-1.79c-.44 0-.78-.03-1-.1a.77.77 0 0 1-.46-.35c-.08-.16-.13-.38-.13-.67"/><path fill="#6b5b4b" d="M447.62 214.14v-4.58l.56.26h3.74v.24h-3.78v3.9c0 .02-.02.04-.06.07s-.1.06-.16.08c-.06.03-.14.03-.22.03zm4-.05v-4.27h-.08l.31-.33.64.5c-.03.03-.07.07-.12.1-.07.03-.14.05-.22.07v3.73c0 .01-.02.04-.08.07-.05.03-.11.06-.17.09-.08.02-.14.04-.2.04zm-3.76-2.79v-.23h4.02v.23zm0 1.26v-.23h4.02v.23zm0 1.27v-.23h4.02v.23zm1.68-5h.76c-.12.2-.24.4-.39.62-.15.21-.29.4-.42.53h-.19c.03-.08.06-.2.09-.34s.06-.27.08-.42c.03-.14.05-.27.07-.39m-3.22.23-.07-.23h6.06l.39-.48s.02.02.08.06c.04.04.11.09.18.14.07.06.15.12.24.19.08.07.15.13.22.2q-.03.12-.21.12zm4.1 5.3.04-.14c.52.08.96.16 1.32.25.36.1.64.2.86.31.21.1.36.2.46.31.1.1.16.19.16.26.01.08-.01.15-.06.19-.06.05-.12.08-.2.08-.09 0-.17-.03-.26-.1-.21-.2-.52-.4-.91-.61-.39-.2-.86-.38-1.41-.55m-1.55-.26.67.43a.2.2 0 0 1-.13.07c-.07.01-.15 0-.24-.02a10.055 10.055 0 0 1-1.77.76c-.35.12-.7.21-1.06.28l-.05-.12a8.84 8.84 0 0 0 1.91-.91c.28-.17.5-.34.67-.49m10.43.91-2.82-.01v-.22l1.16-.12h.58l1.08.12zm-1.03-.01h-.7c.01-.62.02-1.22.02-1.84v-3.58l-1.15.2v-.24l1.72-.44.12.08-.03 1.27v2.71c0 .3 0 .61.01.92 0 .31 0 .62.01.92m3.86 1.39h-.37l2.34-7.57h.35zm7.74-1.25h-.6v-5.57h-.09l.28-.14-1.16 1.83-1.22 1.89.06-.26v.11h3.69v.46h-4v-.37l2.59-4h.45"/></svg>