<svg role="img" viewBox="0 0 495 280" width="495" height="280" xmlns="http://www.w3.org/2000/svg"><title>The Ticker card</title><desc>Draws 12 months of development activity as candlesticks, where the level is a trailing 7-day contribution count and volume is the month total.</desc><rect width="495" height="280" rx="6" fill="#F7F1E7"/><rect x="0.5" y="0.5" width="494" height="279" rx="5.5" fill="none" stroke="#CDBDA8"/><style>@media (prefers-reduced-motion: reduce){*{animation-duration:0.01ms!important;animation-iteration-count:1!important;}}</style><path d="M28.44 45.92L28.44 44.19Q27.11 44.09 26.17 43.58Q25.22 43.08 24.63 42.28L25.97 40.91Q27.09 42.16 28.56 42.33L28.56 38.81L28.16 38.75Q27.33 38.59 26.73 38.29Q26.13 37.98 25.74 37.54Q25.36 37.10 25.18 36.55Q25 36.01 25 35.38Q25 33.94 25.90 33.05Q26.79 32.17 28.44 31.98L28.44 30.21L30.10 30.21L30.10 31.96Q31.21 32.10 32 32.52Q32.79 32.95 33.33 33.63L31.99 35.01Q31.21 34.07 29.98 33.87L29.98 37.10L30.41 37.17Q32.08 37.47 32.82 38.35Q33.57 39.22 33.57 40.50Q33.57 41.94 32.68 42.90Q31.79 43.86 30.10 44.12L30.10 45.92L28.44 45.92M27.09 35.31Q27.09 35.94 27.43 36.28Q27.77 36.62 28.56 36.81L28.56 33.82Q27.09 34.02 27.09 35.31M31.50 40.63Q31.50 39.95 31.14 39.61Q30.78 39.26 29.98 39.09L29.98 42.32Q30.75 42.18 31.12 41.76Q31.50 41.33 31.50 40.63M39.30 44.20Q38.14 44.20 37.29 43.79Q36.44 43.37 35.89 42.59Q35.34 41.81 35.08 40.67Q34.81 39.53 34.81 38.07Q34.81 36.62 35.08 35.47Q35.34 34.33 35.89 33.55Q36.44 32.76 37.29 32.35Q38.14 31.93 39.30 31.93Q41.61 31.93 42.70 33.55Q43.79 35.16 43.79 38.07Q43.79 40.97 42.70 42.59Q41.61 44.20 39.30 44.20M39.30 42.38Q39.90 42.38 40.30 42.16Q40.71 41.93 40.96 41.50Q41.20 41.08 41.31 40.46Q41.43 39.84 41.43 39.07L41.43 37.05Q41.43 35.52 40.96 34.63Q40.49 33.75 39.30 33.75Q38.11 33.75 37.64 34.63Q37.18 35.52 37.18 37.05L37.18 39.09Q37.18 40.62 37.64 41.50Q38.11 42.38 39.30 42.38M49.81 44.20Q47.48 44.20 46.36 42.61Q45.25 41.01 45.25 38.07Q45.25 35.14 46.36 33.54Q47.48 31.93 49.81 31.93Q50.69 31.93 51.36 32.17Q52.03 32.41 52.53 32.82Q53.02 33.24 53.34 33.83Q53.67 34.41 53.85 35.11L51.81 35.69Q51.69 35.28 51.54 34.92Q51.39 34.56 51.16 34.30Q50.93 34.04 50.59 33.89Q50.25 33.75 49.77 33.75Q48.62 33.75 48.11 34.63Q47.61 35.52 47.61 37.05L47.61 39.09Q47.61 40.62 48.11 41.50Q48.62 42.38 49.77 42.38Q50.25 42.38 50.59 42.24Q50.93 42.10 51.16 41.83Q51.39 41.57 51.54 41.21Q51.69 40.85 51.81 40.45L53.85 41.02Q53.67 41.72 53.34 42.31Q53.02 42.90 52.53 43.31Q52.03 43.73 51.36 43.97Q50.69 44.20 49.81 44.20M64.38 33.97L60.81 33.97L60.81 44L58.60 44L58.60 33.97L55.03 33.97L55.03 32.13L64.38 32.13L64.38 33.97M69.90 44.20Q68.74 44.20 67.89 43.79Q67.04 43.37 66.49 42.59Q65.94 41.81 65.68 40.67Q65.41 39.53 65.41 38.07Q65.41 36.62 65.68 35.47Q65.94 34.33 66.49 33.55Q67.04 32.76 67.89 32.35Q68.74 31.93 69.90 31.93Q72.21 31.93 73.30 33.55Q74.39 35.16 74.39 38.07Q74.39 40.97 73.30 42.59Q72.21 44.20 69.90 44.20M69.90 42.38Q70.50 42.38 70.90 42.16Q71.31 41.93 71.56 41.50Q71.80 41.08 71.91 40.46Q72.03 39.84 72.03 39.07L72.03 37.05Q72.03 35.52 71.56 34.63Q71.09 33.75 69.90 33.75Q68.71 33.75 68.24 34.63Q67.78 35.52 67.78 37.05L67.78 39.09Q67.78 40.62 68.24 41.50Q68.71 42.38 69.90 42.38M80.41 44.20Q78.08 44.20 76.96 42.61Q75.85 41.01 75.85 38.07Q75.85 35.14 76.96 33.54Q78.08 31.93 80.41 31.93Q81.29 31.93 81.96 32.17Q82.63 32.41 83.13 32.82Q83.62 33.24 83.94 33.83Q84.27 34.41 84.45 35.11L82.41 35.69Q82.29 35.28 82.14 34.92Q81.99 34.56 81.76 34.30Q81.53 34.04 81.19 33.89Q80.85 33.75 80.37 33.75Q79.22 33.75 78.71 34.63Q78.21 35.52 78.21 37.05L78.21 39.09Q78.21 40.62 78.71 41.50Q79.22 42.38 80.37 42.38Q80.85 42.38 81.19 42.24Q81.53 42.10 81.76 41.83Q81.99 41.57 82.14 41.21Q82.29 40.85 82.41 40.45L84.45 41.02Q84.27 41.72 83.94 42.31Q83.62 42.90 83.13 43.31Q82.63 43.73 81.96 43.97Q81.29 44.20 80.41 44.20" fill="#302A25"/><path d="M342.80 39.28L341.12 39.28L341.12 44L340.08 44L340.08 39.28L338.40 39.28L338.40 38.42L342.80 38.42M347.82 44L347.82 41.60L346.18 41.60L346.18 44L345.14 44L345.14 38.42L346.18 38.42L346.18 40.74L347.82 40.74L347.82 38.42L348.86 38.42L348.86 44M355.19 44L351.66 44L351.66 38.42L355.19 38.42L355.19 39.28L352.71 39.28L352.71 40.74L355.10 40.74L355.10 41.60L352.71 41.60L352.71 43.14L355.19 43.14M368.40 39.28L366.72 39.28L366.72 44L365.68 44L365.68 39.28L364 39.28L364 38.42L368.40 38.42M374.38 44L370.82 44L370.82 43.22L372.08 43.22L372.08 39.20L370.82 39.20L370.82 38.42L374.38 38.42L374.38 39.20L373.12 39.20L373.12 43.22L374.38 43.22M379.14 44.10Q378.05 44.10 377.52 43.34Q377 42.59 377 41.21Q377 39.83 377.52 39.08Q378.05 38.32 379.14 38.32Q379.56 38.32 379.88 38.43Q380.19 38.54 380.42 38.74Q380.66 38.94 380.81 39.21Q380.96 39.49 381.05 39.82L380.09 40.09Q380.03 39.90 379.96 39.73Q379.89 39.56 379.78 39.44Q379.67 39.31 379.51 39.24Q379.35 39.18 379.13 39.18Q378.58 39.18 378.35 39.59Q378.11 40.01 378.11 40.73L378.11 41.69Q378.11 42.41 378.35 42.82Q378.58 43.24 379.13 43.24Q379.35 43.24 379.51 43.17Q379.67 43.10 379.78 42.98Q379.89 42.86 379.96 42.69Q380.03 42.52 380.09 42.33L381.05 42.60Q380.96 42.93 380.81 43.20Q380.66 43.48 380.42 43.68Q380.19 43.87 379.88 43.98Q379.56 44.10 379.14 44.10M386.58 44L385.22 41.55L384.63 42.32L384.63 44L383.58 44L383.58 38.42L384.63 38.42L384.63 40.93L384.68 40.93L385.33 40L386.50 38.42L387.69 38.42L385.94 40.77L387.77 44M393.59 44L390.06 44L390.06 38.42L393.59 38.42L393.59 39.28L391.11 39.28L391.11 40.74L393.50 40.74L393.50 41.60L391.11 41.60L391.11 43.14L393.59 43.14M397.49 41.83L397.49 44L396.44 44L396.44 38.42L398.56 38.42Q399.38 38.42 399.81 38.88Q400.24 39.34 400.24 40.14Q400.24 40.76 399.96 41.18Q399.67 41.60 399.14 41.71L400.34 44L399.18 44L398.12 41.83L397.49 41.83M397.49 41.02L398.34 41.02Q398.77 41.02 398.95 40.84Q399.14 40.67 399.14 40.30L399.14 39.99Q399.14 39.62 398.95 39.44Q398.77 39.27 398.34 39.27L397.49 39.27M410.14 45.10L409.22 45.10L411.86 37.92L412.78 37.92M423.80 44.10Q423.26 44.10 422.86 43.90Q422.46 43.70 422.20 43.34Q421.94 42.97 421.81 42.43Q421.69 41.90 421.69 41.21Q421.69 40.53 421.81 39.99Q421.94 39.45 422.20 39.08Q422.46 38.71 422.86 38.52Q423.26 38.32 423.80 38.32Q424.89 38.32 425.40 39.08Q425.91 39.84 425.91 41.21Q425.91 42.58 425.40 43.34Q424.89 44.10 423.80 44.10M423.80 43.26Q424.38 43.26 424.61 42.84Q424.85 42.43 424.85 41.70L424.85 40.71Q424.85 39.98 424.61 39.57Q424.38 39.16 423.80 39.16Q423.22 39.16 422.99 39.57Q422.75 39.98 422.75 40.71L422.75 41.70Q422.75 42.43 422.99 42.84Q423.22 43.26 423.80 43.26M423.80 41.68Q423.52 41.68 423.41 41.57Q423.30 41.46 423.30 41.30L423.30 41.12Q423.30 40.96 423.41 40.85Q423.52 40.74 423.80 40.74Q424.08 40.74 424.19 40.85Q424.30 40.96 424.30 41.12L424.30 41.30Q424.30 41.46 424.19 41.57Q424.08 41.68 423.80 41.68M437.70 44L437.70 41.42L437.75 39.80L437.68 39.80L436.60 42.67L435.52 39.80L435.45 39.80L435.50 41.42L435.50 44L434.58 44L434.58 38.42L435.83 38.42L436.61 40.47L436.66 40.47L437.45 38.42L438.62 38.42L438.62 44M443 44.10Q442.46 44.10 442.06 43.90Q441.66 43.70 441.40 43.34Q441.14 42.97 441.01 42.43Q440.89 41.90 440.89 41.21Q440.89 40.53 441.01 39.99Q441.14 39.45 441.40 39.08Q441.66 38.71 442.06 38.52Q442.46 38.32 443 38.32Q444.09 38.32 444.60 39.08Q445.11 39.84 445.11 41.21Q445.11 42.58 444.60 43.34Q444.09 44.10 443 44.10M443 43.24Q443.28 43.24 443.47 43.13Q443.66 43.02 443.78 42.82Q443.90 42.62 443.95 42.33Q444 42.04 444 41.68L444 40.73Q444 40.01 443.78 39.59Q443.56 39.18 443 39.18Q442.44 39.18 442.22 39.59Q442 40.01 442 40.73L442 41.69Q442 42.41 442.22 42.82Q442.44 43.24 443 43.24M449.98 44L448.51 39.99L448.43 39.99L448.43 44L447.54 44L447.54 38.42L448.82 38.42L450.29 42.42L450.37 42.42L450.37 38.42L451.26 38.42L451.26 44M458 39.28L456.32 39.28L456.32 44L455.28 44L455.28 39.28L453.60 39.28L453.60 38.42L458 38.42M463.02 44L463.02 41.60L461.38 41.60L461.38 44L460.34 44L460.34 38.42L461.38 38.42L461.38 40.74L463.02 40.74L463.02 38.42L464.06 38.42L464.06 44M468.54 44.10Q467.82 44.10 467.31 43.85Q466.80 43.60 466.48 43.19L467.11 42.54Q467.42 42.90 467.79 43.07Q468.15 43.24 468.57 43.24Q469.05 43.24 469.30 43.02Q469.56 42.81 469.56 42.40Q469.56 42.06 469.37 41.89Q469.18 41.72 468.72 41.65L468.13 41.55Q467.35 41.42 467.02 40.99Q466.70 40.56 466.70 39.98Q466.70 39.18 467.22 38.75Q467.74 38.32 468.66 38.32Q469.31 38.32 469.79 38.53Q470.26 38.74 470.55 39.10L469.94 39.75Q469.71 39.49 469.40 39.33Q469.09 39.18 468.66 39.18Q467.75 39.18 467.75 39.93Q467.75 40.25 467.94 40.42Q468.14 40.58 468.60 40.66L469.18 40.77Q469.91 40.90 470.26 41.30Q470.62 41.70 470.62 42.33Q470.62 42.72 470.48 43.04Q470.34 43.37 470.08 43.60Q469.82 43.84 469.43 43.97Q469.04 44.10 468.54 44.10" fill="#6B5B4B"/><line x1="24" y1="58" x2="471" y2="58" stroke="#CDBDA8" stroke-width="1"/><path d="M28.60 83.28L26.92 83.28L26.92 88L25.88 88L25.88 83.28L24.20 83.28L24.20 82.42L28.60 82.42M33.62 88L33.62 85.60L31.98 85.60L31.98 88L30.94 88L30.94 82.42L31.98 82.42L31.98 84.74L33.62 84.74L33.62 82.42L34.66 82.42L34.66 88M40.98 88L37.42 88L37.42 87.22L38.68 87.22L38.68 83.20L37.42 83.20L37.42 82.42L40.98 82.42L40.98 83.20L39.72 83.20L39.72 87.22L40.98 87.22M45.54 88.10Q44.82 88.10 44.31 87.85Q43.80 87.60 43.48 87.19L44.11 86.54Q44.42 86.90 44.79 87.07Q45.15 87.24 45.57 87.24Q46.05 87.24 46.30 87.02Q46.56 86.81 46.56 86.40Q46.56 86.06 46.37 85.89Q46.18 85.72 45.72 85.65L45.13 85.55Q44.35 85.42 44.02 84.99Q43.70 84.56 43.70 83.98Q43.70 83.18 44.22 82.75Q44.74 82.32 45.66 82.32Q46.31 82.32 46.79 82.53Q47.26 82.74 47.55 83.10L46.94 83.75Q46.71 83.49 46.40 83.33Q46.09 83.18 45.66 83.18Q44.75 83.18 44.75 83.93Q44.75 84.25 44.94 84.42Q45.14 84.58 45.60 84.66L46.18 84.77Q46.91 84.90 47.26 85.30Q47.62 85.70 47.62 86.33Q47.62 86.72 47.48 87.04Q47.34 87.37 47.08 87.60Q46.82 87.84 46.43 87.97Q46.04 88.10 45.54 88.10M59.50 88L59.50 85.42L59.55 83.80L59.48 83.80L58.40 86.67L57.32 83.80L57.25 83.80L57.30 85.42L57.30 88L56.38 88L56.38 82.42L57.63 82.42L58.41 84.47L58.46 84.47L59.25 82.42L60.42 82.42L60.42 88M64.80 88.10Q64.26 88.10 63.86 87.90Q63.46 87.70 63.20 87.34Q62.94 86.97 62.81 86.43Q62.69 85.90 62.69 85.21Q62.69 84.53 62.81 83.99Q62.94 83.45 63.20 83.08Q63.46 82.71 63.86 82.52Q64.26 82.32 64.80 82.32Q65.89 82.32 66.40 83.08Q66.91 83.84 66.91 85.21Q66.91 86.58 66.40 87.34Q65.89 88.10 64.80 88.10M64.80 87.24Q65.08 87.24 65.27 87.13Q65.46 87.02 65.58 86.82Q65.70 86.62 65.75 86.33Q65.80 86.04 65.80 85.68L65.80 84.73Q65.80 84.01 65.58 83.59Q65.36 83.18 64.80 83.18Q64.24 83.18 64.02 83.59Q63.80 84.01 63.80 84.73L63.80 85.69Q63.80 86.41 64.02 86.82Q64.24 87.24 64.80 87.24M71.78 88L70.31 83.99L70.23 83.99L70.23 88L69.34 88L69.34 82.42L70.62 82.42L72.09 86.42L72.17 86.42L72.17 82.42L73.06 82.42L73.06 88M79.80 83.28L78.12 83.28L78.12 88L77.08 88L77.08 83.28L75.40 83.28L75.40 82.42L79.80 82.42M84.82 88L84.82 85.60L83.18 85.60L83.18 88L82.14 88L82.14 82.42L83.18 82.42L83.18 84.74L84.82 84.74L84.82 82.42L85.86 82.42L85.86 88" fill="#6B5B4B"/><path d="M433.16 92L427.92 92L427.92 91.10L430.20 90.98L430.76 90.98L433.16 91.10L433.16 92M431.36 92L429.59 92Q429.61 91.12 429.61 90.24Q429.61 89.36 429.61 88.48Q429.61 87.60 429.61 86.71L429.61 85.88Q429.61 85.01 429.61 84.13Q429.61 83.25 429.61 82.36Q429.61 81.48 429.59 80.61L431.36 80.61Q431.36 81.48 431.35 82.35Q431.34 83.23 431.34 84.11Q431.34 85 431.34 85.88L431.34 86.61Q431.34 87.53 431.34 88.44Q431.34 89.35 431.35 90.23Q431.36 91.12 431.36 92M434.62 86.68L430.49 86.68L430.49 85.76L434.62 85.76L434.62 86.68M435.13 88.31L434.23 88.31L433.91 86.49L433.91 85.98L434.23 84.21L435.13 84.21L435.13 88.31M430.20 81.63L427.92 81.49L427.92 80.61L430.42 80.61L430.42 81.63L430.20 81.63M437.05 83.65L436.01 83.65L435.45 80.98L436.15 81.58L430.42 81.58L430.42 80.61L436.92 80.61L437.05 83.65M440.82 92L438.33 92L438.33 91.10L440.60 90.98L440.82 90.98L440.82 92M441.76 92L439.99 92Q440.01 91.12 440.01 90.23Q440.01 89.35 440.01 88.47Q440.01 87.60 440.01 86.71L440.01 85.88Q440.01 85 440.01 84.11Q440.01 83.23 440.01 82.35Q440.01 81.48 439.99 80.61L441.76 80.61Q441.76 81.48 441.75 82.36Q441.74 83.25 441.74 84.12Q441.74 85 441.74 85.88L441.74 86.88Q441.74 87.68 441.74 88.53Q441.74 89.38 441.75 90.25Q441.76 91.12 441.76 92M447.35 92L440.82 92L440.82 91.03L446.52 91.03L445.81 91.61L446.45 88.63L447.51 88.63L447.35 92M440.60 81.63L438.33 81.49L438.33 80.61L443.56 80.61L443.56 81.49L441.15 81.63L440.60 81.63M452.45 92L448.37 92L448.37 91.10L450.11 90.98L450.48 90.98L452.45 91.10L452.45 92M450.45 92L449.44 92L453.46 80.53L454.88 80.53L458.93 92L457.11 92L453.68 81.97L453.29 83.65L450.45 92M456.45 88.38L451.37 88.38L451.37 87.48L456.45 87.48L456.45 88.38M460 92L455.04 92L455.04 91.10L457.30 90.98L457.77 90.98L460 91.10L460 92M468.37 92L462.91 92L462.91 91.10L465.36 90.98L465.92 90.98L468.37 91.10L468.37 92M466.51 92L464.74 92Q464.76 91.12 464.77 90.24Q464.78 89.36 464.78 88.48Q464.78 87.60 464.78 86.71L464.78 85.88Q464.78 85.01 464.78 84.13Q464.78 83.25 464.77 82.36Q464.76 81.48 464.74 80.61L466.51 80.61Q466.51 81.48 466.50 82.35Q466.50 83.23 466.50 84.11Q466.50 85 466.50 85.88L466.50 86.71Q466.50 87.58 466.50 88.47Q466.50 89.36 466.50 90.24Q466.51 91.12 466.51 92M461.63 83.74L460.60 83.74L460.73 80.61L470.52 80.61L470.66 83.74L469.62 83.74L469.03 80.81L469.83 81.58L461.45 81.58L462.25 80.81" fill="#6B5B4B"/><path d="M391.80 104.10Q391.26 104.10 390.86 103.90Q390.46 103.70 390.20 103.34Q389.94 102.97 389.81 102.43Q389.69 101.90 389.69 101.21Q389.69 100.53 389.81 99.99Q389.94 99.45 390.20 99.08Q390.46 98.71 390.86 98.52Q391.26 98.32 391.80 98.32Q392.89 98.32 393.40 99.08Q393.91 99.84 393.91 101.21Q393.91 102.58 393.40 103.34Q392.89 104.10 391.80 104.10M391.80 103.24Q392.08 103.24 392.27 103.13Q392.46 103.02 392.58 102.82Q392.70 102.62 392.75 102.33Q392.80 102.04 392.80 101.68L392.80 100.73Q392.80 100.01 392.58 99.59Q392.36 99.18 391.80 99.18Q391.24 99.18 391.02 99.59Q390.80 100.01 390.80 100.73L390.80 101.69Q390.80 102.41 391.02 102.82Q391.24 103.24 391.80 103.24M397.49 104L396.44 104L396.44 98.42L398.56 98.42Q399.38 98.42 399.81 98.88Q400.24 99.34 400.24 100.14Q400.24 100.94 399.81 101.41Q399.38 101.87 398.56 101.87L397.49 101.87L397.49 104M397.49 99.27L397.49 101.02L398.34 101.02Q398.77 101.02 398.95 100.84Q399.14 100.67 399.14 100.30L399.14 99.99Q399.14 99.62 398.95 99.44Q398.77 99.27 398.34 99.27M406.39 104L402.86 104L402.86 98.42L406.39 98.42L406.39 99.28L403.91 99.28L403.91 100.74L406.30 100.74L406.30 101.60L403.91 101.60L403.91 103.14L406.39 103.14M411.58 104L410.11 99.99L410.03 99.99L410.03 104L409.14 104L409.14 98.42L410.42 98.42L411.89 102.42L411.97 102.42L411.97 98.42L412.86 98.42L412.86 104M426 99.28L424.32 99.28L424.32 104L423.28 104L423.28 99.28L421.60 99.28L421.60 98.42L426 98.42M430.20 104.10Q429.66 104.10 429.26 103.90Q428.86 103.70 428.60 103.34Q428.34 102.97 428.21 102.43Q428.09 101.90 428.09 101.21Q428.09 100.53 428.21 99.99Q428.34 99.45 428.60 99.08Q428.86 98.71 429.26 98.52Q429.66 98.32 430.20 98.32Q431.29 98.32 431.80 99.08Q432.31 99.84 432.31 101.21Q432.31 102.58 431.80 103.34Q431.29 104.10 430.20 104.10M430.20 103.24Q430.48 103.24 430.67 103.13Q430.86 103.02 430.98 102.82Q431.10 102.62 431.15 102.33Q431.20 102.04 431.20 101.68L431.20 100.73Q431.20 100.01 430.98 99.59Q430.76 99.18 430.20 99.18Q429.64 99.18 429.42 99.59Q429.20 100.01 429.20 100.73L429.20 101.69Q429.20 102.41 429.42 102.82Q429.64 103.24 430.20 103.24M443.14 104.10Q442.05 104.10 441.52 103.34Q441 102.59 441 101.21Q441 99.83 441.52 99.08Q442.05 98.32 443.14 98.32Q443.56 98.32 443.88 98.43Q444.19 98.54 444.42 98.74Q444.66 98.94 444.81 99.21Q444.96 99.49 445.05 99.82L444.09 100.09Q444.03 99.90 443.96 99.73Q443.89 99.56 443.78 99.44Q443.67 99.31 443.51 99.24Q443.35 99.18 443.13 99.18Q442.58 99.18 442.35 99.59Q442.11 100.01 442.11 100.73L442.11 101.69Q442.11 102.41 442.35 102.82Q442.58 103.24 443.13 103.24Q443.35 103.24 443.51 103.17Q443.67 103.10 443.78 102.98Q443.89 102.86 443.96 102.69Q444.03 102.52 444.09 102.33L445.05 102.60Q444.96 102.93 444.81 103.20Q444.66 103.48 444.42 103.68Q444.19 103.87 443.88 103.98Q443.56 104.10 443.14 104.10M451.32 104L447.80 104L447.80 98.42L448.85 98.42L448.85 103.14L451.32 103.14M455.80 104.10Q455.26 104.10 454.86 103.90Q454.46 103.70 454.20 103.34Q453.94 102.97 453.81 102.43Q453.69 101.90 453.69 101.21Q453.69 100.53 453.81 99.99Q453.94 99.45 454.20 99.08Q454.46 98.71 454.86 98.52Q455.26 98.32 455.80 98.32Q456.89 98.32 457.40 99.08Q457.91 99.84 457.91 101.21Q457.91 102.58 457.40 103.34Q456.89 104.10 455.80 104.10M455.80 103.24Q456.08 103.24 456.27 103.13Q456.46 103.02 456.58 102.82Q456.70 102.62 456.75 102.33Q456.80 102.04 456.80 101.68L456.80 100.73Q456.80 100.01 456.58 99.59Q456.36 99.18 455.80 99.18Q455.24 99.18 455.02 99.59Q454.80 100.01 454.80 100.73L454.80 101.69Q454.80 102.41 455.02 102.82Q455.24 103.24 455.80 103.24M462.14 104.10Q461.42 104.10 460.91 103.85Q460.40 103.60 460.08 103.19L460.71 102.54Q461.02 102.90 461.39 103.07Q461.75 103.24 462.17 103.24Q462.65 103.24 462.90 103.02Q463.16 102.81 463.16 102.40Q463.16 102.06 462.97 101.89Q462.78 101.72 462.32 101.65L461.73 101.55Q460.95 101.42 460.62 100.99Q460.30 100.56 460.30 99.98Q460.30 99.18 460.82 98.75Q461.34 98.32 462.26 98.32Q462.91 98.32 463.39 98.53Q463.86 98.74 464.15 99.10L463.54 99.75Q463.31 99.49 463 99.33Q462.69 99.18 462.26 99.18Q461.35 99.18 461.35 99.93Q461.35 100.25 461.54 100.42Q461.74 100.58 462.20 100.66L462.78 100.77Q463.51 100.90 463.86 101.30Q464.22 101.70 464.22 102.33Q464.22 102.72 464.08 103.04Q463.94 103.37 463.68 103.60Q463.42 103.84 463.03 103.97Q462.64 104.10 462.14 104.10M470.39 104L466.86 104L466.86 98.42L470.39 98.42L470.39 99.28L467.91 99.28L467.91 100.74L470.30 100.74L470.30 101.60L467.91 101.60L467.91 103.14L470.39 103.14" fill="#6B5B4B"/><path d="M26.40 104.10Q25.86 104.10 25.46 103.90Q25.06 103.70 24.80 103.34Q24.54 102.97 24.41 102.43Q24.29 101.90 24.29 101.21Q24.29 100.53 24.41 99.99Q24.54 99.45 24.80 99.08Q25.06 98.71 25.46 98.52Q25.86 98.32 26.40 98.32Q27.49 98.32 28 99.08Q28.51 99.84 28.51 101.21Q28.51 102.58 28 103.34Q27.49 104.10 26.40 104.10M26.40 103.24Q26.68 103.24 26.87 103.13Q27.06 103.02 27.18 102.82Q27.30 102.62 27.35 102.33Q27.40 102.04 27.40 101.68L27.40 100.73Q27.40 100.01 27.18 99.59Q26.96 99.18 26.40 99.18Q25.84 99.18 25.62 99.59Q25.40 100.01 25.40 100.73L25.40 101.69Q25.40 102.41 25.62 102.82Q25.84 103.24 26.40 103.24M32.09 104L31.04 104L31.04 98.42L33.16 98.42Q33.98 98.42 34.41 98.88Q34.84 99.34 34.84 100.14Q34.84 100.94 34.41 101.41Q33.98 101.87 33.16 101.87L32.09 101.87L32.09 104M32.09 99.27L32.09 101.02L32.94 101.02Q33.37 101.02 33.55 100.84Q33.74 100.67 33.74 100.30L33.74 99.99Q33.74 99.62 33.55 99.44Q33.37 99.27 32.94 99.27M40.99 104L37.46 104L37.46 98.42L40.99 98.42L40.99 99.28L38.51 99.28L38.51 100.74L40.90 100.74L40.90 101.60L38.51 101.60L38.51 103.14L40.99 103.14M46.18 104L44.71 99.99L44.63 99.99L44.63 104L43.74 104L43.74 98.42L45.02 98.42L46.49 102.42L46.57 102.42L46.57 98.42L47.46 98.42L47.46 104" fill="#6B5B4B"/><path d="M58.40 104.10Q57.86 104.10 57.46 103.90Q57.06 103.70 56.80 103.34Q56.54 102.97 56.41 102.43Q56.29 101.90 56.29 101.21Q56.29 100.53 56.41 99.99Q56.54 99.45 56.80 99.08Q57.06 98.71 57.46 98.52Q57.86 98.32 58.40 98.32Q59.49 98.32 60 99.08Q60.51 99.84 60.51 101.21Q60.51 102.58 60 103.34Q59.49 104.10 58.40 104.10M58.40 103.26Q58.98 103.26 59.21 102.84Q59.45 102.43 59.45 101.70L59.45 100.71Q59.45 99.98 59.21 99.57Q58.98 99.16 58.40 99.16Q57.82 99.16 57.59 99.57Q57.35 99.98 57.35 100.71L57.35 101.70Q57.35 102.43 57.59 102.84Q57.82 103.26 58.40 103.26M58.40 101.68Q58.12 101.68 58.01 101.57Q57.90 101.46 57.90 101.30L57.90 101.12Q57.90 100.96 58.01 100.85Q58.12 100.74 58.40 100.74Q58.68 100.74 58.79 100.85Q58.90 100.96 58.90 101.12L58.90 101.30Q58.90 101.46 58.79 101.57Q58.68 101.68 58.40 101.68" fill="#302A25"/><path d="M107.22 104L107.22 101.60L105.58 101.60L105.58 104L104.54 104L104.54 98.42L105.58 98.42L105.58 100.74L107.22 100.74L107.22 98.42L108.26 98.42L108.26 104M114.58 104L111.02 104L111.02 103.22L112.28 103.22L112.28 99.20L111.02 99.20L111.02 98.42L114.58 98.42L114.58 99.20L113.32 99.20L113.32 103.22L114.58 103.22M120.17 104L120.17 103.22L120.10 103.22Q120.03 103.39 119.93 103.55Q119.82 103.71 119.67 103.83Q119.52 103.95 119.32 104.02Q119.11 104.10 118.85 104.10Q118 104.10 117.56 103.35Q117.13 102.60 117.13 101.25Q117.13 99.82 117.64 99.07Q118.15 98.32 119.22 98.32Q119.63 98.32 119.95 98.43Q120.26 98.54 120.49 98.74Q120.72 98.94 120.87 99.22Q121.02 99.50 121.10 99.82L120.14 100.09Q120.09 99.91 120.02 99.74Q119.95 99.58 119.84 99.45Q119.74 99.33 119.58 99.25Q119.43 99.18 119.21 99.18Q118.69 99.18 118.46 99.59Q118.24 100.01 118.24 100.73L118.24 101.62Q118.24 101.98 118.29 102.28Q118.34 102.58 118.46 102.80Q118.58 103.02 118.78 103.13Q118.97 103.25 119.26 103.25Q119.70 103.25 119.94 102.98Q120.17 102.71 120.17 102.30L120.17 101.84L119.15 101.84L119.15 101.08L121.10 101.08L121.10 104M126.42 104L126.42 101.60L124.78 101.60L124.78 104L123.74 104L123.74 98.42L124.78 98.42L124.78 100.74L126.42 100.74L126.42 98.42L127.46 98.42L127.46 104" fill="#6B5B4B"/><path d="M138.40 104.10Q137.86 104.10 137.46 103.90Q137.06 103.70 136.80 103.34Q136.54 102.97 136.41 102.43Q136.29 101.90 136.29 101.21Q136.29 100.53 136.41 99.99Q136.54 99.45 136.80 99.08Q137.06 98.71 137.46 98.52Q137.86 98.32 138.40 98.32Q139.49 98.32 140 99.08Q140.51 99.84 140.51 101.21Q140.51 102.58 140 103.34Q139.49 104.10 138.40 104.10M138.40 103.26Q138.98 103.26 139.21 102.84Q139.45 102.43 139.45 101.70L139.45 100.71Q139.45 99.98 139.21 99.57Q138.98 99.16 138.40 99.16Q137.82 99.16 137.59 99.57Q137.35 99.98 137.35 100.71L137.35 101.70Q137.35 102.43 137.59 102.84Q137.82 103.26 138.40 103.26M138.40 101.68Q138.12 101.68 138.01 101.57Q137.90 101.46 137.90 101.30L137.90 101.12Q137.90 100.96 138.01 100.85Q138.12 100.74 138.40 100.74Q138.68 100.74 138.79 100.85Q138.90 100.96 138.90 101.12L138.90 101.30Q138.90 101.46 138.79 101.57Q138.68 101.68 138.40 101.68" fill="#302A25"/><path d="M188.32 104L184.80 104L184.80 98.42L185.85 98.42L185.85 103.14L188.32 103.14M192.80 104.10Q192.26 104.10 191.86 103.90Q191.46 103.70 191.20 103.34Q190.94 102.97 190.81 102.43Q190.69 101.90 190.69 101.21Q190.69 100.53 190.81 99.99Q190.94 99.45 191.20 99.08Q191.46 98.71 191.86 98.52Q192.26 98.32 192.80 98.32Q193.89 98.32 194.40 99.08Q194.91 99.84 194.91 101.21Q194.91 102.58 194.40 103.34Q193.89 104.10 192.80 104.10M192.80 103.24Q193.08 103.24 193.27 103.13Q193.46 103.02 193.58 102.82Q193.70 102.62 193.75 102.33Q193.80 102.04 193.80 101.68L193.80 100.73Q193.80 100.01 193.58 99.59Q193.36 99.18 192.80 99.18Q192.24 99.18 192.02 99.59Q191.80 100.01 191.80 100.73L191.80 101.69Q191.80 102.41 192.02 102.82Q192.24 103.24 192.80 103.24M198.67 104L197.32 104L196.94 98.42L197.85 98.42L198.02 101.63L198.10 102.96L198.17 102.96L198.73 99.70L199.70 99.70L200.26 102.96L200.34 102.96L200.41 101.63L200.58 98.42L201.46 98.42L201.08 104L199.73 104L199.23 100.84L199.17 100.84" fill="#6B5B4B"/><path d="M212 104.10Q211.46 104.10 211.06 103.90Q210.66 103.70 210.40 103.34Q210.14 102.97 210.01 102.43Q209.89 101.90 209.89 101.21Q209.89 100.53 210.01 99.99Q210.14 99.45 210.40 99.08Q210.66 98.71 211.06 98.52Q211.46 98.32 212 98.32Q213.09 98.32 213.60 99.08Q214.11 99.84 214.11 101.21Q214.11 102.58 213.60 103.34Q213.09 104.10 212 104.10M212 103.26Q212.58 103.26 212.81 102.84Q213.05 102.43 213.05 101.70L213.05 100.71Q213.05 99.98 212.81 99.57Q212.58 99.16 212 99.16Q211.42 99.16 211.19 99.57Q210.95 99.98 210.95 100.71L210.95 101.70Q210.95 102.43 211.19 102.84Q211.42 103.26 212 103.26M212 101.68Q211.72 101.68 211.61 101.57Q211.50 101.46 211.50 101.30L211.50 101.12Q211.50 100.96 211.61 100.85Q211.72 100.74 212 100.74Q212.28 100.74 212.39 100.85Q212.50 100.96 212.50 101.12L212.50 101.30Q212.50 101.46 212.39 101.57Q212.28 101.68 212 101.68" fill="#302A25"/><path d="M259.14 104L257.66 104L256.14 98.42L257.29 98.42L257.98 101.24L258.39 103L258.45 103L258.86 101.24L259.57 98.42L260.66 98.42M264.80 104.10Q264.26 104.10 263.86 103.90Q263.46 103.70 263.20 103.34Q262.94 102.97 262.81 102.43Q262.69 101.90 262.69 101.21Q262.69 100.53 262.81 99.99Q262.94 99.45 263.20 99.08Q263.46 98.71 263.86 98.52Q264.26 98.32 264.80 98.32Q265.89 98.32 266.40 99.08Q266.91 99.84 266.91 101.21Q266.91 102.58 266.40 103.34Q265.89 104.10 264.80 104.10M264.80 103.24Q265.08 103.24 265.27 103.13Q265.46 103.02 265.58 102.82Q265.70 102.62 265.75 102.33Q265.80 102.04 265.80 101.68L265.80 100.73Q265.80 100.01 265.58 99.59Q265.36 99.18 264.80 99.18Q264.24 99.18 264.02 99.59Q263.80 100.01 263.80 100.73L263.80 101.69Q263.80 102.41 264.02 102.82Q264.24 103.24 264.80 103.24M273.12 104L269.60 104L269.60 98.42L270.65 98.42L270.65 103.14L273.12 103.14" fill="#6B5B4B"/><path d="M284 104.10Q283.46 104.10 283.06 103.90Q282.66 103.70 282.40 103.34Q282.14 102.97 282.01 102.43Q281.89 101.90 281.89 101.21Q281.89 100.53 282.01 99.99Q282.14 99.45 282.40 99.08Q282.66 98.71 283.06 98.52Q283.46 98.32 284 98.32Q285.09 98.32 285.60 99.08Q286.11 99.84 286.11 101.21Q286.11 102.58 285.60 103.34Q285.09 104.10 284 104.10M284 103.26Q284.58 103.26 284.81 102.84Q285.05 102.43 285.05 101.70L285.05 100.71Q285.05 99.98 284.81 99.57Q284.58 99.16 284 99.16Q283.42 99.16 283.19 99.57Q282.95 99.98 282.95 100.71L282.95 101.70Q282.95 102.43 283.19 102.84Q283.42 103.26 284 103.26M284 101.68Q283.72 101.68 283.61 101.57Q283.50 101.46 283.50 101.30L283.50 101.12Q283.50 100.96 283.61 100.85Q283.72 100.74 284 100.74Q284.28 100.74 284.39 100.85Q284.50 100.96 284.50 101.12L284.50 101.30Q284.50 101.46 284.39 101.57Q284.28 101.68 284 101.68" fill="#302A25"/><rect x="24" y="120" width="447" height="88" fill="none" stroke="#CDBDA8" stroke-width="1"/><line x1="32" y1="152" x2="463" y2="152" stroke="#CDBDA8" stroke-width="0.5" stroke-dasharray="2 3"/><line x1="32" y1="168" x2="463" y2="168" stroke="#CDBDA8" stroke-width="0.5" stroke-dasharray="2 3"/><line x1="32" y1="184" x2="463" y2="184" stroke="#CDBDA8" stroke-width="0.5" stroke-dasharray="2 3"/><line x1="32" y1="200" x2="463" y2="200" stroke="#CDBDA8" stroke-width="0.5"/><path d="M29.08 248L24.65 248L24.65 247.10L26.55 246.98L27.04 246.98L29.08 247.10L29.08 248M27.26 248L26.24 248L26.24 236.98L27.03 236.98L27.26 242.65L27.26 248M34.17 237.63L32.08 237.49L32.08 236.61L36.48 236.61L36.48 237.49L34.64 237.63L34.17 237.63M34.90 248.12L34.06 248.12L27.09 238.36L26.79 238.36L26.50 237.56L24.68 237.49L24.68 236.61L27.77 236.61L34.10 245.55L34.05 245.59L33.89 241.88L33.89 236.61L34.90 236.61L34.90 248.12M41.97 248.20Q40.90 248.20 39.95 247.71Q39.01 247.22 38.43 246.24Q37.85 245.26 37.85 243.85Q37.85 242.44 38.43 241.45Q39.01 240.45 39.95 239.94Q40.90 239.43 41.97 239.43Q43.04 239.43 43.98 239.93Q44.93 240.44 45.51 241.41Q46.10 242.39 46.10 243.80Q46.10 245.21 45.51 246.20Q44.93 247.18 43.98 247.69Q43.04 248.20 41.97 248.20M41.97 247.32Q42.75 247.32 43.30 246.93Q43.84 246.54 44.13 245.77Q44.42 245.01 44.42 243.85Q44.42 242.68 44.13 241.90Q43.84 241.12 43.30 240.72Q42.75 240.33 41.97 240.33Q41.20 240.33 40.66 240.72Q40.12 241.12 39.83 241.89Q39.54 242.66 39.54 243.82Q39.54 244.99 39.83 245.76Q40.12 246.54 40.66 246.93Q41.20 247.32 41.97 247.32M56.66 240.62L53.53 240.62L53.53 239.64L56.66 239.64L56.66 240.62M54.85 248.17Q53.90 248.17 53.32 247.64Q52.73 247.12 52.73 246.01Q52.73 245.71 52.73 245.41Q52.73 245.11 52.73 244.72L52.73 240.62L51.25 240.62L51.25 239.82L53.43 239.55L52.80 240.08L53.34 237.29L54.40 237.29L54.21 240.21L54.28 240.38L54.28 245.86Q54.28 246.54 54.56 246.83Q54.84 247.12 55.33 247.12Q55.65 247.12 55.93 247.01Q56.20 246.91 56.45 246.78L56.84 247.42Q56.66 247.61 56.37 247.79Q56.08 247.97 55.70 248.07Q55.31 248.17 54.85 248.17M62.35 248L57.80 248L57.80 247.18L59.72 247.01L60.19 247.01L62.35 247.18L62.35 248M60.70 248L59.12 248Q59.12 247.49 59.13 246.86Q59.14 246.23 59.14 245.57Q59.14 244.91 59.14 244.34L59.14 243.46Q59.14 243.02 59.14 242.65Q59.14 242.27 59.13 241.92Q59.12 241.57 59.12 241.20L57.69 241.13L57.69 240.38L59.94 239.53L60.41 239.62L60.58 241.93L60.69 241.95L60.69 244.34Q60.69 244.91 60.69 245.57Q60.69 246.23 60.69 246.86Q60.70 247.49 60.70 248M60.53 243.22L60.40 241.97L60.77 241.97Q61.08 241.20 61.44 240.64Q61.81 240.08 62.26 239.77Q62.71 239.47 63.25 239.47Q63.76 239.47 64.09 239.71Q64.43 239.96 64.55 240.25Q64.53 240.78 64.26 241.15Q64 241.52 63.44 241.52Q63.08 241.52 62.82 241.38Q62.56 241.23 62.34 241.03L61.94 240.66L62.83 240.59Q61.98 241 61.43 241.68Q60.87 242.37 60.53 243.22M67.93 248.24Q66.96 248.24 66.27 247.68Q65.58 247.12 65.58 246.03Q65.58 245.40 65.85 244.92Q66.11 244.45 66.71 244.07Q67.32 243.70 68.35 243.41Q68.85 243.26 69.33 243.13Q69.81 243 70.30 242.87Q70.78 242.73 71.26 242.59L71.26 243.29Q70.65 243.48 70.04 243.67Q69.42 243.87 68.81 244.07Q68.11 244.28 67.76 244.54Q67.40 244.80 67.27 245.10Q67.15 245.40 67.15 245.74Q67.15 246.37 67.54 246.72Q67.93 247.06 68.57 247.06Q69 247.06 69.34 246.91Q69.68 246.76 70.07 246.44Q70.46 246.13 70.99 245.67L71.11 246.64L70.51 246.64Q70.17 247.08 69.82 247.45Q69.47 247.81 69.02 248.03Q68.57 248.24 67.93 248.24M72.33 248.19Q71.60 248.19 71.15 247.71Q70.70 247.24 70.67 246.30L70.63 246.27L70.63 242.37Q70.63 241.59 70.44 241.13Q70.26 240.67 69.86 240.49Q69.46 240.30 68.85 240.30Q68.42 240.30 68.03 240.37Q67.64 240.44 67.21 240.62L67.89 239.94L67.62 241.47Q67.54 241.98 67.30 242.22Q67.06 242.46 66.67 242.46Q66.26 242.46 66.05 242.25Q65.84 242.03 65.79 241.74Q66.01 240.69 66.94 240.06Q67.88 239.43 69.29 239.43Q70.17 239.43 70.82 239.72Q71.46 240.01 71.81 240.65Q72.16 241.28 72.16 242.37L72.16 246.15Q72.16 246.67 72.35 246.90Q72.53 247.13 72.88 247.13Q73.10 247.13 73.26 247.06Q73.42 246.98 73.56 246.88L73.83 247.47Q73.57 247.80 73.21 247.99Q72.84 248.19 72.33 248.19M78.31 248.20Q77.28 248.20 76.48 247.69Q75.68 247.17 75.23 246.20Q74.78 245.23 74.78 243.87Q74.78 242.49 75.26 241.50Q75.73 240.50 76.55 239.97Q77.36 239.43 78.38 239.43Q78.98 239.43 79.42 239.61Q79.86 239.79 80.21 240.14Q80.56 240.49 80.87 240.96L81.48 240.96L81.39 242.12Q80.66 241.28 80.07 240.89Q79.49 240.49 78.79 240.49Q78.13 240.49 77.59 240.83Q77.06 241.18 76.74 241.92Q76.43 242.66 76.43 243.82Q76.43 244.96 76.73 245.69Q77.04 246.42 77.58 246.77Q78.11 247.12 78.79 247.12Q79.57 247.12 80.15 246.69Q80.73 246.27 81.38 245.40L81.44 246.56L80.87 246.56Q80.59 247.03 80.25 247.41Q79.91 247.78 79.45 247.99Q78.98 248.20 78.31 248.20M83.87 248L81.12 248.12L80.97 246.30L80.93 246.28L80.93 241.32L81.02 241.20L80.97 237.05L79.45 236.80L79.45 236.08L82.04 235.50L82.50 235.57L82.46 237.73L82.46 246.98L83.87 247.22L83.87 248M89.35 248L85.13 248L85.13 247.18L87.04 247.01L87.51 247.01L89.35 247.18L89.35 248M88.06 248L86.46 248Q86.48 247.49 86.48 246.86Q86.48 246.23 86.48 245.57Q86.49 244.91 86.49 244.34L86.49 243.46Q86.49 242.81 86.48 242.29Q86.48 241.76 86.46 241.20L85.05 241.13L85.05 240.38L87.58 239.53L88.06 239.62L88.02 241.69L88.02 244.34Q88.02 244.91 88.03 245.57Q88.04 246.23 88.04 246.86Q88.04 247.49 88.06 248M87.21 237.82Q86.73 237.82 86.40 237.49Q86.07 237.17 86.07 236.69Q86.07 236.22 86.40 235.90Q86.73 235.57 87.21 235.57Q87.70 235.57 88.03 235.90Q88.36 236.22 88.36 236.69Q88.36 237.17 88.03 237.49Q87.70 237.82 87.21 237.82M94.91 248L90.73 248L90.73 247.18L92.65 247.01L93.11 247.01L94.91 247.18L94.91 248M93.65 248L92.07 248Q92.07 247.49 92.08 246.86Q92.09 246.23 92.09 245.57Q92.09 244.91 92.09 244.34L92.09 243.46Q92.09 243.02 92.09 242.65Q92.09 242.27 92.08 241.92Q92.07 241.57 92.07 241.20L90.64 241.13L90.64 240.38L92.85 239.53L93.33 239.62L93.56 241.46L93.63 241.46L93.63 244.34Q93.63 244.91 93.63 245.57Q93.63 246.23 93.64 246.86Q93.65 247.49 93.65 248M100.45 248L96.27 248L96.27 247.18L98.15 247.01L98.61 247.01L100.45 247.18L100.45 248M99.16 248L97.58 248Q97.58 247.49 97.58 246.86Q97.59 246.23 97.59 245.58Q97.59 244.92 97.59 244.34L97.59 242.70Q97.59 241.63 97.24 241.19Q96.90 240.76 96.11 240.76Q95.67 240.76 95.23 240.89Q94.79 241.01 94.34 241.28Q93.89 241.54 93.41 241.91L93.29 241.18L93.70 241.18Q94.06 240.69 94.52 240.30Q94.98 239.91 95.54 239.67Q96.10 239.43 96.71 239.43Q97.93 239.43 98.53 240.17Q99.12 240.91 99.12 242.42L99.12 244.34Q99.12 244.92 99.13 245.58Q99.14 246.23 99.14 246.86Q99.14 247.49 99.16 248M105.19 252.01Q104 252.01 103.19 251.74Q102.37 251.47 101.95 250.99Q101.52 250.52 101.52 249.90Q101.52 249.43 101.76 249.05Q102 248.68 102.52 248.37Q103.05 248.07 103.90 247.81L104.02 247.93Q103.70 248.17 103.48 248.44Q103.25 248.71 103.14 249Q103.03 249.29 103.03 249.63Q103.03 250.07 103.28 250.41Q103.53 250.75 104.04 250.94Q104.56 251.13 105.38 251.13Q106.33 251.13 106.98 250.88Q107.62 250.63 107.95 250.24Q108.29 249.84 108.29 249.38Q108.29 248.82 107.89 248.47Q107.49 248.12 106.62 248.12L104.43 248.12Q104.17 248.12 103.91 248.11Q103.65 248.10 103.41 248.09L103.41 247.81Q102.78 247.69 102.39 247.40Q102 247.10 102 246.52Q102 246.01 102.36 245.62Q102.73 245.23 103.42 244.85L103.42 244.48L104.29 244.62Q103.83 245.01 103.61 245.30Q103.39 245.59 103.39 245.93Q103.39 246.35 103.69 246.57Q103.99 246.79 104.67 246.79L106.88 246.79Q107.81 246.79 108.44 247.07Q109.07 247.35 109.38 247.86Q109.70 248.36 109.70 249.02Q109.70 249.62 109.37 250.16Q109.05 250.70 108.46 251.12Q107.86 251.54 107.03 251.77Q106.20 252.01 105.19 252.01M105.19 245.14Q104.24 245.14 103.50 244.80Q102.76 244.46 102.34 243.83Q101.93 243.19 101.93 242.31Q101.93 241.42 102.34 240.78Q102.76 240.13 103.50 239.78Q104.24 239.43 105.19 239.43Q105.82 239.43 106.33 239.59Q106.84 239.74 107.22 240Q107.59 240.26 107.81 240.62L107.93 240.64Q108.18 240.96 108.32 241.35Q108.46 241.74 108.46 242.27Q108.46 243.14 108.04 243.78Q107.62 244.43 106.88 244.79Q106.14 245.14 105.19 245.14M105.18 244.33Q105.72 244.33 106.12 244.06Q106.52 243.80 106.74 243.34Q106.96 242.88 106.96 242.25Q106.96 241.64 106.75 241.19Q106.54 240.74 106.14 240.49Q105.74 240.25 105.21 240.25Q104.67 240.25 104.27 240.50Q103.87 240.76 103.65 241.22Q103.42 241.68 103.42 242.29Q103.42 242.90 103.64 243.36Q103.85 243.82 104.24 244.07Q104.63 244.33 105.18 244.33M109.92 240.93L107.33 240.93L107.33 240.44L107.76 240.44L109.37 239.36L109.92 239.45L109.92 240.93M119.32 248L115.10 248L115.10 247.18L117.02 247.01L117.48 247.01L119.32 247.18L119.32 248M118.03 248L116.45 248Q116.46 247.49 116.46 246.86Q116.46 246.23 116.47 245.57Q116.48 244.91 116.48 244.34L116.48 237.05L115 236.80L115 236.08L117.55 235.50L118.01 235.57L117.98 237.73L117.96 241.40L118.01 241.52L118.01 244.34Q118.01 244.91 118.01 245.57Q118.01 246.23 118.02 246.86Q118.03 247.49 118.03 248M124.88 248L120.70 248L120.70 247.18L122.57 247.01L123.04 247.01L124.88 247.18L124.88 248M123.57 248L121.99 248Q121.99 247.49 122 246.86Q122 246.23 122 245.58Q122 244.92 122 244.34L122 242.70Q122 241.63 121.66 241.19Q121.31 240.76 120.53 240.76Q120.08 240.76 119.64 240.89Q119.20 241.01 118.75 241.28Q118.30 241.54 117.82 241.93L117.67 241.20L118.18 241.20Q118.50 240.71 118.95 240.31Q119.40 239.91 119.96 239.67Q120.51 239.43 121.14 239.43Q122.34 239.43 122.95 240.17Q123.55 240.91 123.55 242.42L123.55 244.34Q123.55 244.92 123.55 245.58Q123.55 246.23 123.56 246.86Q123.57 247.49 123.57 248M130.27 248L126.05 248L126.05 247.18L127.95 247.01L128.43 247.01L130.27 247.18L130.27 248M128.97 248L127.38 248Q127.39 247.49 127.39 246.86Q127.39 246.23 127.40 245.57Q127.41 244.91 127.41 244.34L127.41 243.46Q127.41 242.81 127.40 242.29Q127.39 241.76 127.38 241.20L125.97 241.13L125.97 240.38L128.50 239.53L128.97 239.62L128.94 241.69L128.94 244.34Q128.94 244.91 128.95 245.57Q128.96 246.23 128.96 246.86Q128.96 247.49 128.97 248M128.13 237.82Q127.65 237.82 127.32 237.49Q126.99 237.17 126.99 236.69Q126.99 236.22 127.32 235.90Q127.65 235.57 128.13 235.57Q128.62 235.57 128.95 235.90Q129.28 236.22 129.28 236.69Q129.28 237.17 128.95 237.49Q128.62 237.82 128.13 237.82M134.62 248.20Q133.77 248.20 133.07 248.04Q132.38 247.88 131.81 247.61L131.75 245.55L132.75 245.55L133.21 247.63L132.39 247.63L132.39 246.78Q132.80 247.05 133.38 247.21Q133.96 247.37 134.64 247.37Q135.32 247.37 135.73 247.18Q136.15 247 136.34 246.68Q136.54 246.37 136.54 245.99Q136.54 245.43 136.15 245.11Q135.76 244.79 134.91 244.51L134.35 244.31Q133.55 244.06 132.99 243.72Q132.43 243.39 132.13 242.93Q131.83 242.47 131.83 241.85Q131.83 241.17 132.21 240.61Q132.60 240.06 133.32 239.75Q134.04 239.43 135.03 239.43Q135.78 239.43 136.44 239.60Q137.10 239.77 137.59 240.04L137.56 241.97L136.57 241.97L136.20 240.11L136.90 240.11L136.90 240.81Q136.49 240.54 136.02 240.41Q135.55 240.28 135.03 240.28Q134.16 240.28 133.74 240.62Q133.33 240.96 133.33 241.49Q133.33 242.02 133.69 242.31Q134.06 242.61 134.94 242.92L135.38 243.07Q136.28 243.36 136.89 243.73Q137.49 244.11 137.78 244.57Q138.07 245.04 138.07 245.67Q138.07 246.38 137.66 246.95Q137.25 247.52 136.49 247.86Q135.72 248.20 134.62 248.20M144.56 240.62L141.44 240.62L141.44 239.64L144.56 239.64L144.56 240.62M142.76 248.17Q141.81 248.17 141.22 247.64Q140.64 247.12 140.64 246.01Q140.64 245.71 140.64 245.41Q140.64 245.11 140.64 244.72L140.64 240.62L139.16 240.62L139.16 239.82L141.33 239.55L140.71 240.08L141.25 237.29L142.30 237.29L142.12 240.21L142.18 240.38L142.18 245.86Q142.18 246.54 142.46 246.83Q142.75 247.12 143.24 247.12Q143.56 247.12 143.83 247.01Q144.11 246.91 144.36 246.78L144.75 247.42Q144.56 247.61 144.28 247.79Q143.99 247.97 143.60 248.07Q143.22 248.17 142.76 248.17M149.85 248.20Q148.78 248.20 147.84 247.71Q146.89 247.22 146.32 246.24Q145.74 245.26 145.74 243.85Q145.74 242.44 146.32 241.45Q146.89 240.45 147.84 239.94Q148.78 239.43 149.85 239.43Q150.92 239.43 151.87 239.93Q152.81 240.44 153.40 241.41Q153.98 242.39 153.98 243.80Q153.98 245.21 153.40 246.20Q152.81 247.18 151.87 247.69Q150.92 248.20 149.85 248.20M149.85 247.32Q150.63 247.32 151.18 246.93Q151.72 246.54 152.01 245.77Q152.30 245.01 152.30 243.85Q152.30 242.68 152.01 241.90Q151.72 241.12 151.18 240.72Q150.63 240.33 149.85 240.33Q149.09 240.33 148.54 240.72Q148 241.12 147.71 241.89Q147.42 242.66 147.42 243.82Q147.42 244.99 147.71 245.76Q148 246.54 148.54 246.93Q149.09 247.32 149.85 247.32M160.10 248L155.55 248L155.55 247.18L157.47 247.01L157.94 247.01L160.10 247.18L160.10 248M158.45 248L156.87 248Q156.87 247.49 156.88 246.86Q156.89 246.23 156.89 245.57Q156.89 244.91 156.89 244.34L156.89 243.46Q156.89 243.02 156.89 242.65Q156.89 242.27 156.88 241.92Q156.87 241.57 156.87 241.20L155.44 241.13L155.44 240.38L157.69 239.53L158.16 239.62L158.33 241.93L158.44 241.95L158.44 244.34Q158.44 244.91 158.44 245.57Q158.44 246.23 158.44 246.86Q158.45 247.49 158.45 248M158.28 243.22L158.15 241.97L158.52 241.97Q158.83 241.20 159.19 240.64Q159.56 240.08 160.01 239.77Q160.46 239.47 161 239.47Q161.51 239.47 161.84 239.71Q162.18 239.96 162.30 240.25Q162.28 240.78 162.01 241.15Q161.75 241.52 161.19 241.52Q160.83 241.52 160.57 241.38Q160.31 241.23 160.09 241.03L159.69 240.66L160.58 240.59Q159.73 241 159.18 241.68Q158.62 242.37 158.28 243.22M164.37 252.13Q163.84 252.13 163.46 251.99Q163.08 251.84 162.86 251.59Q162.64 251.33 162.60 251.06Q162.69 250.72 162.99 250.52Q163.30 250.31 163.72 250.31Q164.15 250.31 164.45 250.47Q164.76 250.63 165.08 250.97L165.56 251.45L165.05 251.60L165.13 251.42Q165.61 251.09 165.98 250.67Q166.36 250.24 166.66 249.70Q166.95 249.16 167.23 248.53L167.50 247.85L167.77 247.78L169.13 243.41L170.47 239.64L171.61 239.64L168.28 248.07Q167.74 249.48 167.17 250.38Q166.60 251.28 165.92 251.71Q165.24 252.13 164.37 252.13M168.28 247.27L167.26 249.12L163.50 239.64L165.24 239.64L167.91 247.10L168.28 247.27M164.52 240.62L162.77 240.42L162.77 239.64L167.12 239.64L167.12 240.44L165.07 240.62L164.52 240.62M170.40 240.62L168.64 240.42L168.64 239.64L172.29 239.64L172.29 240.42L170.91 240.62L170.40 240.62M178.36 252.13Q177.83 252.13 177.45 251.99Q177.07 251.84 176.85 251.59Q176.63 251.33 176.59 251.06Q176.68 250.72 176.98 250.52Q177.29 250.31 177.71 250.31Q178.14 250.31 178.44 250.47Q178.75 250.63 179.07 250.97L179.55 251.45L179.04 251.60L179.13 251.42Q179.60 251.09 179.97 250.67Q180.35 250.24 180.65 249.70Q180.94 249.16 181.22 248.53L181.49 247.85L181.76 247.78L183.12 243.41L184.46 239.64L185.60 239.64L182.27 248.07Q181.73 249.48 181.16 250.38Q180.59 251.28 179.91 251.71Q179.23 252.13 178.36 252.13M182.27 247.27L181.25 249.12L177.49 239.64L179.23 239.64L181.90 247.10L182.27 247.27M178.51 240.62L176.76 240.42L176.76 239.64L181.11 239.64L181.11 240.44L179.06 240.62L178.51 240.62M184.40 240.62L182.63 240.42L182.63 239.64L186.28 239.64L186.28 240.42L184.91 240.62L184.40 240.62M191.35 248.20Q190.07 248.20 189.16 247.69Q188.25 247.17 187.77 246.21Q187.28 245.25 187.28 243.94Q187.28 242.61 187.79 241.60Q188.30 240.59 189.21 240.01Q190.11 239.43 191.26 239.43Q192.30 239.43 193.06 239.83Q193.83 240.23 194.26 240.98Q194.70 241.73 194.70 242.76Q194.70 243.09 194.65 243.40Q194.61 243.72 194.56 243.92L188.19 243.92L188.19 243.12L192.64 243.12Q193 243 193.10 242.78Q193.20 242.56 193.20 242.27Q193.20 241.61 192.97 241.17Q192.74 240.74 192.31 240.53Q191.88 240.32 191.26 240.32Q190.62 240.32 190.07 240.67Q189.53 241.03 189.21 241.79Q188.88 242.54 188.88 243.77Q188.88 244.80 189.23 245.54Q189.58 246.28 190.22 246.67Q190.85 247.06 191.70 247.06Q192.61 247.06 193.21 246.73Q193.81 246.40 194.29 245.86L194.82 246.28Q194.44 246.84 193.98 247.29Q193.52 247.73 192.89 247.97Q192.27 248.20 191.35 248.20M201.28 240.62L198.15 240.62L198.15 239.64L201.28 239.64L201.28 240.62M199.47 248.17Q198.52 248.17 197.94 247.64Q197.35 247.12 197.35 246.01Q197.35 245.71 197.35 245.41Q197.35 245.11 197.35 244.72L197.35 240.62L195.87 240.62L195.87 239.82L198.05 239.55L197.42 240.08L197.96 237.29L199.01 237.29L198.83 240.21L198.90 240.38L198.90 245.86Q198.90 246.54 199.18 246.83Q199.46 247.12 199.95 247.12Q200.27 247.12 200.54 247.01Q200.82 246.91 201.07 246.78L201.46 247.42Q201.28 247.61 200.99 247.79Q200.70 247.97 200.32 248.07Q199.93 248.17 199.47 248.17M204.22 248.20Q203.71 248.20 203.36 247.85Q203.01 247.49 203.01 247Q203.01 246.49 203.36 246.13Q203.71 245.77 204.22 245.77Q204.73 245.77 205.08 246.13Q205.44 246.49 205.44 247Q205.44 247.49 205.08 247.85Q204.73 248.20 204.22 248.20" fill="#302A25"/></svg>