<svg role="img" viewBox="0 0 495 248" width="495" height="248" xmlns="http://www.w3.org/2000/svg"><title>The Forecast card</title><desc>Projects a typical week from the median of each weekday over the past 12 weeks. A projection of past rhythm, not a prediction.</desc><rect width="495" height="248" rx="6" fill="#1D1916"/><rect x="0.5" y="0.5" width="494" height="247" rx="5.5" fill="none" stroke="#4A3F35"/><style>@media (prefers-reduced-motion: reduce){*{animation-duration:0.01ms!important;animation-iteration-count:1!important;}}</style><path d="M32.11 44L26.65 44L26.65 43.10L29.10 42.98L29.66 42.98L32.11 43.10L32.11 44M30.26 44L28.49 44Q28.50 43.12 28.51 42.24Q28.52 41.37 28.52 40.48Q28.52 39.60 28.52 38.71L28.52 37.88Q28.52 37.01 28.52 36.13Q28.52 35.24 28.51 34.36Q28.50 33.48 28.49 32.61L30.26 32.61Q30.26 33.48 30.25 34.35Q30.24 35.23 30.24 36.11Q30.24 37 30.24 37.88L30.24 38.71Q30.24 39.58 30.24 40.47Q30.24 41.37 30.25 42.24Q30.26 43.12 30.26 44M25.38 35.74L24.34 35.74L24.48 32.61L34.27 32.61L34.40 35.74L33.37 35.74L32.77 32.81L33.57 33.58L25.19 33.58L25.99 32.81L25.38 35.74M40.47 44L35.39 44L35.39 43.10L37.67 42.98L38.21 42.98L40.47 43.10L40.47 44M38.82 44L37.06 44Q37.07 43.12 37.07 42.24Q37.07 41.37 37.07 40.48Q37.07 39.60 37.07 38.71L37.07 37.88Q37.07 37 37.07 36.12Q37.07 35.24 37.07 34.36Q37.07 33.48 37.06 32.61L38.82 32.61Q38.82 33.48 38.82 34.35Q38.81 35.23 38.81 36.11Q38.81 37 38.81 37.88L38.81 38.46Q38.81 39.43 38.81 40.36Q38.81 41.30 38.82 42.20Q38.82 43.10 38.82 44M45.35 38.63L37.99 38.63L37.99 37.69L45.35 37.69L45.35 38.63M47.94 44L42.85 44L42.85 43.10L45.13 42.98L45.67 42.98L47.94 43.10L47.94 44M46.29 44L44.52 44Q44.54 43.10 44.54 42.21Q44.54 41.31 44.54 40.38Q44.54 39.44 44.54 38.46L44.54 37.88Q44.54 37 44.54 36.12Q44.54 35.24 44.54 34.36Q44.54 33.48 44.52 32.61L46.29 32.61Q46.27 33.48 46.26 34.35Q46.25 35.23 46.25 36.11Q46.25 37 46.25 37.88L46.25 38.71Q46.25 39.58 46.25 40.46Q46.25 41.35 46.26 42.23Q46.27 43.12 46.29 44M37.67 33.63L35.39 33.49L35.39 32.61L40.47 32.61L40.47 33.49L38.21 33.63L37.67 33.63M45.13 33.63L42.85 33.49L42.85 32.61L47.94 32.61L47.94 33.49L45.67 33.63L45.13 33.63M51.76 44L49.26 44L49.26 43.10L51.54 42.98L51.76 42.98L51.76 44M52.70 44L50.93 44Q50.95 43.12 50.95 42.24Q50.95 41.37 50.95 40.48Q50.95 39.60 50.95 38.71L50.95 37.88Q50.95 37.01 50.95 36.13Q50.95 35.24 50.95 34.36Q50.95 33.48 50.93 32.61L52.70 32.61Q52.70 33.48 52.69 34.35Q52.68 35.23 52.68 36.11Q52.68 37 52.68 37.88L52.68 38.61Q52.68 39.53 52.68 40.44Q52.68 41.35 52.69 42.23Q52.70 43.12 52.70 44M58.59 44L51.76 44L51.76 43.03L57.83 43.03L57.13 43.63L57.69 40.85L58.73 40.85L58.59 44M55.89 38.64L51.83 38.64L51.83 37.73L55.89 37.73L55.89 38.64M56.40 40.19L55.50 40.19L55.18 38.36L55.18 37.95L55.50 36.18L56.40 36.18L56.40 40.19M51.54 33.63L49.26 33.49L49.26 32.61L51.76 32.61L51.76 33.63L51.54 33.63M58.39 35.65L57.35 35.65L56.79 32.98L57.49 33.58L51.76 33.58L51.76 32.61L58.26 32.61L58.39 35.65M69.37 44L64.14 44L64.14 43.10L66.41 42.98L66.98 42.98L69.37 43.10L69.37 44M67.57 44L65.80 44Q65.82 43.12 65.82 42.24Q65.82 41.37 65.82 40.48Q65.82 39.60 65.82 38.71L65.82 37.88Q65.82 37.01 65.82 36.13Q65.82 35.24 65.82 34.36Q65.82 33.48 65.80 32.61L67.57 32.61Q67.57 33.48 67.56 34.35Q67.55 35.23 67.55 36.11Q67.55 37 67.55 37.88L67.55 38.61Q67.55 39.53 67.55 40.44Q67.55 41.35 67.56 42.23Q67.57 43.12 67.57 44M70.83 38.68L66.70 38.68L66.70 37.76L70.83 37.76L70.83 38.68M71.34 40.31L70.44 40.31L70.12 38.49L70.12 37.98L70.44 36.21L71.34 36.21L71.34 40.31M66.41 33.63L64.14 33.49L64.14 32.61L66.64 32.61L66.64 33.63L66.41 33.63M73.27 35.65L72.23 35.65L71.67 32.98L72.36 33.58L66.64 33.58L66.64 32.61L73.13 32.61L73.27 35.65M80.13 44.26Q79.01 44.26 78.02 43.86Q77.02 43.46 76.27 42.70Q75.51 41.94 75.09 40.84Q74.68 39.73 74.68 38.32Q74.68 36.95 75.10 35.84Q75.53 34.73 76.27 33.96Q77.02 33.19 78.02 32.76Q79.01 32.34 80.13 32.34Q81.27 32.34 82.26 32.74Q83.24 33.14 83.99 33.90Q84.74 34.67 85.17 35.75Q85.59 36.84 85.59 38.25Q85.59 39.63 85.17 40.74Q84.76 41.84 84 42.63Q83.24 43.42 82.26 43.84Q81.27 44.26 80.13 44.26M80.13 43.29Q81.05 43.29 81.72 42.89Q82.39 42.49 82.84 41.79Q83.28 41.09 83.49 40.19Q83.70 39.29 83.70 38.29Q83.70 37.28 83.49 36.39Q83.28 35.50 82.84 34.80Q82.39 34.11 81.72 33.71Q81.05 33.31 80.13 33.31Q79.23 33.31 78.55 33.71Q77.87 34.11 77.43 34.80Q76.99 35.50 76.77 36.39Q76.55 37.28 76.55 38.29Q76.55 39.29 76.77 40.19Q76.99 41.09 77.43 41.79Q77.87 42.49 78.55 42.89Q79.23 43.29 80.13 43.29M92.15 44L87.05 44L87.05 43.10L89.33 42.98L89.88 42.98L92.15 43.10L92.15 44M90.49 44L88.72 44Q88.74 43.12 88.74 42.24Q88.74 41.37 88.74 40.48Q88.74 39.60 88.74 38.71L88.74 37.88Q88.74 37 88.74 36.12Q88.74 35.24 88.74 34.36Q88.74 33.48 88.72 32.61L90.49 32.61Q90.49 33.49 90.48 34.39Q90.47 35.28 90.47 36.18Q90.47 37.08 90.47 38.05L90.47 38.63Q90.47 39.55 90.47 40.45Q90.47 41.35 90.48 42.23Q90.49 43.12 90.49 44M96.45 44.15Q95.60 44.15 95.14 43.86Q94.69 43.56 94.48 42.83L93.85 40.48Q93.68 39.78 93.40 39.42Q93.12 39.05 92.71 38.92Q92.29 38.78 91.63 38.78L89.65 38.78L89.65 37.91L91.93 37.91Q92.87 37.91 93.48 37.62Q94.09 37.32 94.38 36.79Q94.67 36.27 94.67 35.60Q94.67 34.56 94.03 34.05Q93.39 33.53 92.03 33.53L89.79 33.53L89.79 32.61L92.19 32.61Q94.24 32.61 95.36 33.39Q96.47 34.17 96.47 35.55Q96.47 36.37 96.01 36.97Q95.55 37.57 94.75 37.92Q93.94 38.27 92.90 38.34L92.90 38.44Q93.46 38.46 93.90 38.58Q94.33 38.70 94.64 38.94Q94.96 39.19 95.20 39.58Q95.43 39.97 95.60 40.55L96.49 43.46L95.86 42.96L97.85 43.13L97.85 44Q97.66 44.03 97.44 44.07Q97.22 44.10 96.97 44.13Q96.73 44.15 96.45 44.15M89.19 33.63L87.05 33.49L87.05 32.61L89.42 32.61L89.42 33.63L89.19 33.63M101.32 44L98.82 44L98.82 43.10L101.09 42.98L101.32 42.98L101.32 44M102.25 44L100.48 44Q100.50 43.12 100.50 42.24Q100.50 41.37 100.50 40.48Q100.50 39.60 100.50 38.71L100.50 37.88Q100.50 37.01 100.50 36.13Q100.50 35.24 100.50 34.36Q100.50 33.48 100.48 32.61L102.25 32.61Q102.25 33.48 102.24 34.35Q102.23 35.23 102.23 36.11Q102.23 37 102.23 37.88L102.23 38.61Q102.23 39.53 102.23 40.44Q102.23 41.35 102.24 42.23Q102.25 43.12 102.25 44M108.15 44L101.32 44L101.32 43.03L107.39 43.03L106.69 43.63L107.25 40.85L108.29 40.85L108.15 44M105.45 38.64L101.38 38.64L101.38 37.73L105.45 37.73L105.45 38.64M105.96 40.19L105.06 40.19L104.73 38.36L104.73 37.95L105.06 36.18L105.96 36.18L105.96 40.19M101.09 33.63L98.82 33.49L98.82 32.61L101.32 32.61L101.32 33.63L101.09 33.63M107.95 35.65L106.91 35.65L106.35 32.98L107.05 33.58L101.32 33.58L101.32 32.61L107.81 32.61L107.95 35.65M115.80 44.26Q114.49 44.26 113.39 43.85Q112.28 43.44 111.48 42.67Q110.68 41.89 110.24 40.80Q109.80 39.70 109.80 38.32Q109.80 36.96 110.26 35.87Q110.72 34.77 111.54 33.98Q112.37 33.19 113.47 32.76Q114.58 32.34 115.87 32.34Q116.82 32.34 117.70 32.54Q118.59 32.75 119.27 33.12L119.34 35.64L118.27 35.64L117.79 33.17L118.93 33.29L118.93 34.34Q118.28 33.83 117.53 33.57Q116.79 33.31 115.97 33.31Q114.78 33.31 113.80 33.88Q112.83 34.45 112.25 35.55Q111.67 36.66 111.67 38.29Q111.67 39.92 112.21 41.03Q112.76 42.15 113.71 42.72Q114.66 43.29 115.89 43.29Q116.84 43.29 117.65 43.03Q118.47 42.78 119.12 42.30L119.12 43.32L117.98 43.44L118.45 40.92L119.52 40.92L119.46 43.47Q118.81 43.81 117.89 44.03Q116.97 44.26 115.80 44.26M124.54 44L120.46 44L120.46 43.10L122.19 42.98L122.57 42.98L124.54 43.10L124.54 44M122.53 44L121.53 44L125.54 32.52L126.97 32.52L131.02 44L129.20 44L125.76 33.97L125.37 35.65L122.53 44M128.53 40.38L123.45 40.38L123.45 39.48L128.53 39.48L128.53 40.38M132.09 44L127.12 44L127.12 43.10L129.38 42.98L129.86 42.98L132.09 43.10L132.09 44M136.56 44.26Q135.42 44.26 134.48 43.97Q133.55 43.68 133.02 43.37L133.07 40.85L134.14 40.85L134.64 43.42L133.53 43.18L133.53 42.23Q134.02 42.57 134.47 42.81Q134.91 43.05 135.40 43.18Q135.89 43.30 136.52 43.30Q137.41 43.30 137.99 43.05Q138.58 42.79 138.88 42.33Q139.18 41.88 139.18 41.30Q139.18 40.75 138.95 40.39Q138.73 40.02 138.27 39.73Q137.81 39.44 137.07 39.17L136.44 38.92Q135.52 38.56 134.80 38.11Q134.08 37.66 133.66 37.02Q133.24 36.38 133.24 35.45Q133.24 34.46 133.75 33.77Q134.26 33.09 135.15 32.71Q136.05 32.34 137.19 32.34Q138.17 32.34 138.95 32.60Q139.74 32.86 140.18 33.19L140.13 35.55L139.07 35.55L138.56 33.02L139.65 33.31L139.65 34.28Q139.06 33.78 138.47 33.54Q137.88 33.29 137.14 33.29Q136.42 33.29 135.91 33.52Q135.40 33.75 135.12 34.17Q134.84 34.58 134.84 35.14Q134.84 35.65 135.06 36.02Q135.28 36.38 135.72 36.67Q136.17 36.96 136.85 37.23L137.49 37.47Q138.53 37.88 139.27 38.34Q140.01 38.80 140.39 39.44Q140.77 40.07 140.77 40.99Q140.77 41.99 140.25 42.73Q139.72 43.46 138.78 43.86Q137.83 44.26 136.56 44.26M149.70 44L144.24 44L144.24 43.10L146.69 42.98L147.25 42.98L149.70 43.10L149.70 44M147.84 44L146.08 44Q146.09 43.12 146.10 42.24Q146.11 41.37 146.11 40.48Q146.11 39.60 146.11 38.71L146.11 37.88Q146.11 37.01 146.11 36.13Q146.11 35.24 146.10 34.36Q146.09 33.48 146.08 32.61L147.84 32.61Q147.84 33.48 147.84 34.35Q147.83 35.23 147.83 36.11Q147.83 37 147.83 37.88L147.83 38.71Q147.83 39.58 147.83 40.47Q147.83 41.37 147.84 42.24Q147.84 43.12 147.84 44M142.97 35.74L141.93 35.74L142.06 32.61L151.86 32.61L151.99 35.74L150.96 35.74L150.36 32.81L151.16 33.58L142.78 33.58L143.58 32.81" fill="#EDE3D4"/><path d="M26.98 58L25.51 53.99L25.43 53.99L25.43 58L24.54 58L24.54 52.42L25.82 52.42L27.29 56.42L27.37 56.42L27.37 52.42L28.26 52.42L28.26 58M32.80 58.10Q32.26 58.10 31.86 57.90Q31.46 57.70 31.20 57.34Q30.94 56.97 30.81 56.43Q30.69 55.90 30.69 55.21Q30.69 54.53 30.81 53.99Q30.94 53.45 31.20 53.08Q31.46 52.71 31.86 52.52Q32.26 52.32 32.80 52.32Q33.89 52.32 34.40 53.08Q34.91 53.84 34.91 55.21Q34.91 56.58 34.40 57.34Q33.89 58.10 32.80 58.10M32.80 57.24Q33.08 57.24 33.27 57.13Q33.46 57.02 33.58 56.82Q33.70 56.62 33.75 56.33Q33.80 56.04 33.80 55.68L33.80 54.73Q33.80 54.01 33.58 53.59Q33.36 53.18 32.80 53.18Q32.24 53.18 32.02 53.59Q31.80 54.01 31.80 54.73L31.80 55.69Q31.80 56.41 32.02 56.82Q32.24 57.24 32.80 57.24M41.40 53.28L39.72 53.28L39.72 58L38.68 58L38.68 53.28L37 53.28L37 52.42L41.40 52.42M53.79 58L50.26 58L50.26 52.42L53.79 52.42L53.79 53.28L51.31 53.28L51.31 54.74L53.70 54.74L53.70 55.60L51.31 55.60L51.31 57.14L53.79 57.14M58.98 58L57.51 53.99L57.43 53.99L57.43 58L56.54 58L56.54 52.42L57.82 52.42L59.29 56.42L59.37 56.42L59.37 52.42L60.26 52.42L60.26 58M64.80 58.10Q64.26 58.10 63.86 57.90Q63.46 57.70 63.20 57.34Q62.94 56.97 62.81 56.43Q62.69 55.90 62.69 55.21Q62.69 54.53 62.81 53.99Q62.94 53.45 63.20 53.08Q63.46 52.71 63.86 52.52Q64.26 52.32 64.80 52.32Q65.89 52.32 66.40 53.08Q66.91 53.84 66.91 55.21Q66.91 56.58 66.40 57.34Q65.89 58.10 64.80 58.10M64.80 57.24Q65.08 57.24 65.27 57.13Q65.46 57.02 65.58 56.82Q65.70 56.62 65.75 56.33Q65.80 56.04 65.80 55.68L65.80 54.73Q65.80 54.01 65.58 53.59Q65.36 53.18 64.80 53.18Q64.24 53.18 64.02 53.59Q63.80 54.01 63.80 54.73L63.80 55.69Q63.80 56.41 64.02 56.82Q64.24 57.24 64.80 57.24M69.30 52.42L70.34 52.42L70.34 55.90Q70.34 56.21 70.36 56.46Q70.38 56.70 70.47 56.88Q70.55 57.05 70.72 57.14Q70.90 57.24 71.20 57.24Q71.50 57.24 71.68 57.14Q71.85 57.05 71.93 56.88Q72.02 56.70 72.04 56.46Q72.06 56.21 72.06 55.90L72.06 52.42L73.10 52.42L73.10 55.74Q73.10 56.33 73.03 56.77Q72.96 57.21 72.75 57.50Q72.54 57.80 72.17 57.95Q71.80 58.10 71.20 58.10Q70.60 58.10 70.23 57.95Q69.86 57.80 69.65 57.50Q69.44 57.21 69.37 56.77Q69.30 56.33 69.30 55.74M78.57 58L78.57 57.22L78.50 57.22Q78.43 57.39 78.33 57.55Q78.22 57.71 78.07 57.83Q77.92 57.95 77.72 58.02Q77.51 58.10 77.25 58.10Q76.40 58.10 75.96 57.35Q75.53 56.60 75.53 55.25Q75.53 53.82 76.04 53.07Q76.55 52.32 77.62 52.32Q78.03 52.32 78.35 52.43Q78.66 52.54 78.89 52.74Q79.12 52.94 79.27 53.22Q79.42 53.50 79.50 53.82L78.54 54.09Q78.49 53.91 78.42 53.74Q78.35 53.58 78.24 53.45Q78.14 53.33 77.98 53.25Q77.83 53.18 77.61 53.18Q77.09 53.18 76.86 53.59Q76.64 54.01 76.64 54.73L76.64 55.62Q76.64 55.98 76.69 56.28Q76.74 56.58 76.86 56.80Q76.98 57.02 77.18 57.13Q77.37 57.25 77.66 57.25Q78.10 57.25 78.34 56.98Q78.57 56.71 78.57 56.30L78.57 55.84L77.55 55.84L77.55 55.08L79.50 55.08L79.50 58M84.82 58L84.82 55.60L83.18 55.60L83.18 58L82.14 58L82.14 52.42L83.18 52.42L83.18 54.74L84.82 54.74L84.82 52.42L85.86 52.42L85.86 58M96.09 55.83L96.09 58L95.04 58L95.04 52.42L97.16 52.42Q97.98 52.42 98.41 52.88Q98.84 53.34 98.84 54.14Q98.84 54.76 98.56 55.18Q98.27 55.60 97.74 55.71L98.94 58L97.78 58L96.72 55.83L96.09 55.83M96.09 55.02L96.94 55.02Q97.37 55.02 97.55 54.84Q97.74 54.67 97.74 54.30L97.74 53.99Q97.74 53.62 97.55 53.44Q97.37 53.27 96.94 53.27L96.09 53.27M104.99 58L101.46 58L101.46 52.42L104.99 52.42L104.99 53.28L102.51 53.28L102.51 54.74L104.90 54.74L104.90 55.60L102.51 55.60L102.51 57.14L104.99 57.14M109.74 58.10Q108.65 58.10 108.12 57.34Q107.60 56.59 107.60 55.21Q107.60 53.83 108.12 53.08Q108.65 52.32 109.74 52.32Q110.16 52.32 110.48 52.43Q110.79 52.54 111.02 52.74Q111.26 52.94 111.41 53.21Q111.56 53.49 111.65 53.82L110.69 54.09Q110.63 53.90 110.56 53.73Q110.49 53.56 110.38 53.44Q110.27 53.31 110.11 53.24Q109.95 53.18 109.73 53.18Q109.18 53.18 108.95 53.59Q108.71 54.01 108.71 54.73L108.71 55.69Q108.71 56.41 108.95 56.82Q109.18 57.24 109.73 57.24Q109.95 57.24 110.11 57.17Q110.27 57.10 110.38 56.98Q110.49 56.86 110.56 56.69Q110.63 56.52 110.69 56.33L111.65 56.60Q111.56 56.93 111.41 57.20Q111.26 57.48 111.02 57.68Q110.79 57.87 110.48 57.98Q110.16 58.10 109.74 58.10M116 58.10Q115.46 58.10 115.06 57.90Q114.66 57.70 114.40 57.34Q114.14 56.97 114.01 56.43Q113.89 55.90 113.89 55.21Q113.89 54.53 114.01 53.99Q114.14 53.45 114.40 53.08Q114.66 52.71 115.06 52.52Q115.46 52.32 116 52.32Q117.09 52.32 117.60 53.08Q118.11 53.84 118.11 55.21Q118.11 56.58 117.60 57.34Q117.09 58.10 116 58.10M116 57.24Q116.28 57.24 116.47 57.13Q116.66 57.02 116.78 56.82Q116.90 56.62 116.95 56.33Q117 56.04 117 55.68L117 54.73Q117 54.01 116.78 53.59Q116.56 53.18 116 53.18Q115.44 53.18 115.22 53.59Q115 54.01 115 54.73L115 55.69Q115 56.41 115.22 56.82Q115.44 57.24 116 57.24M121.69 55.83L121.69 58L120.64 58L120.64 52.42L122.76 52.42Q123.58 52.42 124.01 52.88Q124.44 53.34 124.44 54.14Q124.44 54.76 124.16 55.18Q123.87 55.60 123.34 55.71L124.54 58L123.38 58L122.32 55.83L121.69 55.83M121.69 55.02L122.54 55.02Q122.97 55.02 123.15 54.84Q123.34 54.67 123.34 54.30L123.34 53.99Q123.34 53.62 123.15 53.44Q122.97 53.27 122.54 53.27L121.69 53.27M126.98 58L126.98 52.42L128.72 52.42Q129.81 52.42 130.34 53.14Q130.87 53.86 130.87 55.21Q130.87 56.57 130.34 57.28Q129.81 58 128.72 58L126.98 58M128.02 57.16L128.65 57.16Q129.22 57.16 129.50 56.78Q129.78 56.41 129.78 55.69L129.78 54.72Q129.78 54.01 129.50 53.63Q129.22 53.26 128.65 53.26L128.02 53.26M136.99 58L133.46 58L133.46 52.42L136.99 52.42L136.99 53.28L134.51 53.28L134.51 54.74L136.90 54.74L136.90 55.60L134.51 55.60L134.51 57.14L136.99 57.14M139.78 58L139.78 52.42L141.52 52.42Q142.61 52.42 143.14 53.14Q143.67 53.86 143.67 55.21Q143.67 56.57 143.14 57.28Q142.61 58 141.52 58L139.78 58M140.82 57.16L141.45 57.16Q142.02 57.16 142.30 56.78Q142.58 56.41 142.58 55.69L142.58 54.72Q142.58 54.01 142.30 53.63Q142.02 53.26 141.45 53.26L140.82 53.26M153.87 58L152.52 58L152.14 52.42L153.05 52.42L153.22 55.63L153.30 56.96L153.37 56.96L153.93 53.70L154.90 53.70L155.46 56.96L155.54 56.96L155.61 55.63L155.78 52.42L156.66 52.42L156.28 58L154.93 58L154.43 54.84L154.37 54.84M162.59 58L159.06 58L159.06 52.42L162.59 52.42L162.59 53.28L160.11 53.28L160.11 54.74L162.50 54.74L162.50 55.60L160.11 55.60L160.11 57.14L162.59 57.14M168.99 58L165.46 58L165.46 52.42L168.99 52.42L168.99 53.28L166.51 53.28L166.51 54.74L168.90 54.74L168.90 55.60L166.51 55.60L166.51 57.14L168.99 57.14M174.78 58L173.42 55.55L172.83 56.32L172.83 58L171.78 58L171.78 52.42L172.83 52.42L172.83 54.93L172.88 54.93L173.53 54L174.70 52.42L175.89 52.42L174.14 54.77L175.97 58M179.94 58.10Q179.22 58.10 178.71 57.85Q178.20 57.60 177.88 57.19L178.51 56.54Q178.82 56.90 179.19 57.07Q179.55 57.24 179.97 57.24Q180.45 57.24 180.70 57.02Q180.96 56.81 180.96 56.40Q180.96 56.06 180.77 55.89Q180.58 55.72 180.12 55.65L179.53 55.55Q178.75 55.42 178.42 54.99Q178.10 54.56 178.10 53.98Q178.10 53.18 178.62 52.75Q179.14 52.32 180.06 52.32Q180.71 52.32 181.19 52.53Q181.66 52.74 181.95 53.10L181.34 53.75Q181.11 53.49 180.80 53.33Q180.49 53.18 180.06 53.18Q179.15 53.18 179.15 53.93Q179.15 54.25 179.34 54.42Q179.54 54.58 180 54.66L180.58 54.77Q181.31 54.90 181.66 55.30Q182.02 55.70 182.02 56.33Q182.02 56.72 181.88 57.04Q181.74 57.37 181.48 57.60Q181.22 57.84 180.83 57.97Q180.44 58.10 179.94 58.10M195 53.28L193.32 53.28L193.32 58L192.28 58L192.28 53.28L190.60 53.28L190.60 52.42L195 52.42M199.20 58.10Q198.66 58.10 198.26 57.90Q197.86 57.70 197.60 57.34Q197.34 56.97 197.21 56.43Q197.09 55.90 197.09 55.21Q197.09 54.53 197.21 53.99Q197.34 53.45 197.60 53.08Q197.86 52.71 198.26 52.52Q198.66 52.32 199.20 52.32Q200.29 52.32 200.80 53.08Q201.31 53.84 201.31 55.21Q201.31 56.58 200.80 57.34Q200.29 58.10 199.20 58.10M199.20 57.24Q199.48 57.24 199.67 57.13Q199.86 57.02 199.98 56.82Q200.10 56.62 200.15 56.33Q200.20 56.04 200.20 55.68L200.20 54.73Q200.20 54.01 199.98 53.59Q199.76 53.18 199.20 53.18Q198.64 53.18 198.42 53.59Q198.20 54.01 198.20 54.73L198.20 55.69Q198.20 56.41 198.42 56.82Q198.64 57.24 199.20 57.24M211.29 58L210.24 58L210.24 52.42L212.36 52.42Q213.18 52.42 213.61 52.88Q214.04 53.34 214.04 54.14Q214.04 54.94 213.61 55.41Q213.18 55.87 212.36 55.87L211.29 55.87L211.29 58M211.29 53.27L211.29 55.02L212.14 55.02Q212.57 55.02 212.75 54.84Q212.94 54.67 212.94 54.30L212.94 53.99Q212.94 53.62 212.75 53.44Q212.57 53.27 212.14 53.27M217.69 55.83L217.69 58L216.64 58L216.64 52.42L218.76 52.42Q219.58 52.42 220.01 52.88Q220.44 53.34 220.44 54.14Q220.44 54.76 220.16 55.18Q219.87 55.60 219.34 55.71L220.54 58L219.38 58L218.32 55.83L217.69 55.83M217.69 55.02L218.54 55.02Q218.97 55.02 219.15 54.84Q219.34 54.67 219.34 54.30L219.34 53.99Q219.34 53.62 219.15 53.44Q218.97 53.27 218.54 53.27L217.69 53.27M224.80 58.10Q224.26 58.10 223.86 57.90Q223.46 57.70 223.20 57.34Q222.94 56.97 222.81 56.43Q222.69 55.90 222.69 55.21Q222.69 54.53 222.81 53.99Q222.94 53.45 223.20 53.08Q223.46 52.71 223.86 52.52Q224.26 52.32 224.80 52.32Q225.89 52.32 226.40 53.08Q226.91 53.84 226.91 55.21Q226.91 56.58 226.40 57.34Q225.89 58.10 224.80 58.10M224.80 57.24Q225.08 57.24 225.27 57.13Q225.46 57.02 225.58 56.82Q225.70 56.62 225.75 56.33Q225.80 56.04 225.80 55.68L225.80 54.73Q225.80 54.01 225.58 53.59Q225.36 53.18 224.80 53.18Q224.24 53.18 224.02 53.59Q223.80 54.01 223.80 54.73L223.80 55.69Q223.80 56.41 224.02 56.82Q224.24 57.24 224.80 57.24M229.87 52.42L232.82 52.42L232.82 56.47Q232.82 56.85 232.69 57.15Q232.56 57.45 232.32 57.66Q232.09 57.86 231.76 57.98Q231.42 58.10 231.02 58.10Q230.22 58.10 229.77 57.70Q229.32 57.30 229.19 56.63L230.18 56.42Q230.25 56.78 230.44 57Q230.62 57.23 231.02 57.23Q231.38 57.23 231.57 57.02Q231.76 56.81 231.76 56.35L231.76 53.28L229.87 53.28M239.39 58L235.86 58L235.86 52.42L239.39 52.42L239.39 53.28L236.91 53.28L236.91 54.74L239.30 54.74L239.30 55.60L236.91 55.60L236.91 57.14L239.39 57.14M244.14 58.10Q243.05 58.10 242.52 57.34Q242 56.59 242 55.21Q242 53.83 242.52 53.08Q243.05 52.32 244.14 52.32Q244.56 52.32 244.88 52.43Q245.19 52.54 245.42 52.74Q245.66 52.94 245.81 53.21Q245.96 53.49 246.05 53.82L245.09 54.09Q245.03 53.90 244.96 53.73Q244.89 53.56 244.78 53.44Q244.67 53.31 244.51 53.24Q244.35 53.18 244.13 53.18Q243.58 53.18 243.35 53.59Q243.11 54.01 243.11 54.73L243.11 55.69Q243.11 56.41 243.35 56.82Q243.58 57.24 244.13 57.24Q244.35 57.24 244.51 57.17Q244.67 57.10 244.78 56.98Q244.89 56.86 244.96 56.69Q245.03 56.52 245.09 56.33L246.05 56.60Q245.96 56.93 245.81 57.20Q245.66 57.48 245.42 57.68Q245.19 57.87 244.88 57.98Q244.56 58.10 244.14 58.10M252.60 53.28L250.92 53.28L250.92 58L249.88 58L249.88 53.28L248.20 53.28L248.20 52.42L252.60 52.42" fill="#A28E78"/><line x1="24" y1="68" x2="471" y2="68" stroke="#4A3F35" stroke-width="1"/><rect x="24" y="80" width="447" height="96" fill="none" stroke="#4A3F35" stroke-width="1" stroke-dasharray="3 3"/><line x1="87.86" y1="80" x2="87.86" y2="176" stroke="#4A3F35" stroke-width="0.5" stroke-dasharray="2 3"/><line x1="151.71" y1="80" x2="151.71" y2="176" stroke="#4A3F35" stroke-width="0.5" stroke-dasharray="2 3"/><line x1="215.57" y1="80" x2="215.57" y2="176" stroke="#4A3F35" stroke-width="0.5" stroke-dasharray="2 3"/><line x1="279.43" y1="80" x2="279.43" y2="176" stroke="#4A3F35" stroke-width="0.5" stroke-dasharray="2 3"/><line x1="343.29" y1="80" x2="343.29" y2="176" stroke="#4A3F35" stroke-width="0.5" stroke-dasharray="2 3"/><line x1="407.14" y1="80" x2="407.14" y2="176" stroke="#4A3F35" stroke-width="0.5" stroke-dasharray="2 3"/><path d="M50.63 96L50.63 93.42L50.68 91.80L50.61 91.80L49.53 94.67L48.45 91.80L48.38 91.80L48.42 93.42L48.42 96L47.51 96L47.51 90.42L48.76 90.42L49.54 92.47L49.59 92.47L50.38 90.42L51.55 90.42L51.55 96M55.93 96.10Q55.39 96.10 54.99 95.90Q54.59 95.70 54.33 95.34Q54.07 94.97 53.94 94.43Q53.82 93.90 53.82 93.21Q53.82 92.53 53.94 91.99Q54.07 91.45 54.33 91.08Q54.59 90.71 54.99 90.52Q55.39 90.32 55.93 90.32Q57.02 90.32 57.53 91.08Q58.04 91.84 58.04 93.21Q58.04 94.58 57.53 95.34Q57.02 96.10 55.93 96.10M55.93 95.24Q56.21 95.24 56.40 95.13Q56.59 95.02 56.71 94.82Q56.83 94.62 56.88 94.33Q56.93 94.04 56.93 93.68L56.93 92.73Q56.93 92.01 56.71 91.59Q56.49 91.18 55.93 91.18Q55.37 91.18 55.15 91.59Q54.93 92.01 54.93 92.73L54.93 93.69Q54.93 94.41 55.15 94.82Q55.37 95.24 55.93 95.24M62.91 96L61.44 91.99L61.36 91.99L61.36 96L60.47 96L60.47 90.42L61.75 90.42L63.22 94.42L63.30 94.42L63.30 90.42L64.19 90.42L64.19 96" fill="#A28E78"/><path d="M115.59 91.28L113.91 91.28L113.91 96L112.87 96L112.87 91.28L111.19 91.28L111.19 90.42L115.59 90.42M117.88 90.42L118.93 90.42L118.93 93.90Q118.93 94.21 118.95 94.46Q118.97 94.70 119.05 94.88Q119.14 95.05 119.31 95.14Q119.48 95.24 119.79 95.24Q120.09 95.24 120.26 95.14Q120.43 95.05 120.52 94.88Q120.60 94.70 120.62 94.46Q120.64 94.21 120.64 93.90L120.64 90.42L121.69 90.42L121.69 93.74Q121.69 94.33 121.62 94.77Q121.55 95.21 121.34 95.50Q121.13 95.80 120.76 95.95Q120.39 96.10 119.79 96.10Q119.19 96.10 118.81 95.95Q118.44 95.80 118.23 95.50Q118.03 95.21 117.95 94.77Q117.88 94.33 117.88 93.74M127.98 96L124.45 96L124.45 90.42L127.98 90.42L127.98 91.28L125.50 91.28L125.50 92.74L127.89 92.74L127.89 93.60L125.50 93.60L125.50 95.14L127.98 95.14" fill="#A28E78"/><path d="M176.72 96L175.36 96L174.99 90.42L175.89 90.42L176.07 93.63L176.14 94.96L176.21 94.96L176.77 91.70L177.75 91.70L178.31 94.96L178.38 94.96L178.45 93.63L178.63 90.42L179.50 90.42L179.12 96L177.77 96L177.27 92.84L177.21 92.84M185.44 96L181.91 96L181.91 90.42L185.44 90.42L185.44 91.28L182.95 91.28L182.95 92.74L185.35 92.74L185.35 93.60L182.95 93.60L182.95 95.14L185.44 95.14M188.23 96L188.23 90.42L189.96 90.42Q191.05 90.42 191.58 91.14Q192.12 91.86 192.12 93.21Q192.12 94.57 191.58 95.28Q191.05 96 189.96 96L188.23 96M189.26 95.16L189.89 95.16Q190.47 95.16 190.74 94.78Q191.02 94.41 191.02 93.69L191.02 92.72Q191.02 92.01 190.74 91.63Q190.47 91.26 189.89 91.26L189.26 91.26" fill="#A28E78"/><path d="M243.30 91.28L241.62 91.28L241.62 96L240.58 96L240.58 91.28L238.90 91.28L238.90 90.42L243.30 90.42M248.32 96L248.32 93.60L246.68 93.60L246.68 96L245.64 96L245.64 90.42L246.68 90.42L246.68 92.74L248.32 92.74L248.32 90.42L249.36 90.42L249.36 96M252 90.42L253.04 90.42L253.04 93.90Q253.04 94.21 253.06 94.46Q253.08 94.70 253.17 94.88Q253.25 95.05 253.42 95.14Q253.60 95.24 253.90 95.24Q254.20 95.24 254.38 95.14Q254.55 95.05 254.63 94.88Q254.72 94.70 254.74 94.46Q254.76 94.21 254.76 93.90L254.76 90.42L255.80 90.42L255.80 93.74Q255.80 94.33 255.73 94.77Q255.66 95.21 255.45 95.50Q255.24 95.80 254.87 95.95Q254.50 96.10 253.90 96.10Q253.30 96.10 252.93 95.95Q252.56 95.80 252.35 95.50Q252.14 95.21 252.07 94.77Q252 94.33 252 93.74" fill="#A28E78"/><path d="M304.27 96L303.22 96L303.22 90.42L306.87 90.42L306.87 91.28L304.27 91.28L304.27 92.74L306.61 92.74L306.61 93.60L304.27 93.60M310.64 93.83L310.64 96L309.60 96L309.60 90.42L311.72 90.42Q312.53 90.42 312.96 90.88Q313.40 91.34 313.40 92.14Q313.40 92.76 313.11 93.18Q312.83 93.60 312.30 93.71L313.49 96L312.34 96L311.28 93.83L310.64 93.83M310.64 93.02L311.50 93.02Q311.93 93.02 312.11 92.84Q312.29 92.67 312.29 92.30L312.29 91.99Q312.29 91.62 312.11 91.44Q311.93 91.27 311.50 91.27L310.64 91.27M319.53 96L315.98 96L315.98 95.22L317.24 95.22L317.24 91.20L315.98 91.20L315.98 90.42L319.53 90.42L319.53 91.20L318.28 91.20L318.28 95.22L319.53 95.22" fill="#A28E78"/><path d="M368.75 96.10Q368.03 96.10 367.52 95.85Q367.01 95.60 366.69 95.19L367.33 94.54Q367.64 94.90 368 95.07Q368.37 95.24 368.78 95.24Q369.26 95.24 369.52 95.02Q369.77 94.81 369.77 94.40Q369.77 94.06 369.58 93.89Q369.39 93.72 368.93 93.65L368.34 93.55Q367.57 93.42 367.24 92.99Q366.91 92.56 366.91 91.98Q366.91 91.18 367.43 90.75Q367.95 90.32 368.87 90.32Q369.53 90.32 370 90.53Q370.48 90.74 370.77 91.10L370.15 91.75Q369.93 91.49 369.61 91.33Q369.30 91.18 368.88 91.18Q367.97 91.18 367.97 91.93Q367.97 92.25 368.16 92.42Q368.35 92.58 368.81 92.66L369.40 92.77Q370.13 92.90 370.48 93.30Q370.83 93.70 370.83 94.33Q370.83 94.72 370.69 95.04Q370.56 95.37 370.29 95.60Q370.03 95.84 369.64 95.97Q369.25 96.10 368.75 96.10M377.52 96L376.41 96L376.01 94.58L374.36 94.58L373.97 96L372.92 96L374.49 90.42L375.94 90.42L377.52 96M375.84 93.73L375.22 91.45L375.16 91.45L374.54 93.73M383.81 91.28L382.13 91.28L382.13 96L381.09 96L381.09 91.28L379.41 91.28L379.41 90.42L383.81 90.42" fill="#A28E78"/><path d="M432.61 96.10Q431.89 96.10 431.38 95.85Q430.87 95.60 430.55 95.19L431.18 94.54Q431.50 94.90 431.86 95.07Q432.22 95.24 432.64 95.24Q433.12 95.24 433.38 95.02Q433.63 94.81 433.63 94.40Q433.63 94.06 433.44 93.89Q433.25 93.72 432.79 93.65L432.20 93.55Q431.42 93.42 431.10 92.99Q430.77 92.56 430.77 91.98Q430.77 91.18 431.29 90.75Q431.81 90.32 432.73 90.32Q433.38 90.32 433.86 90.53Q434.34 90.74 434.62 91.10L434.01 91.75Q433.78 91.49 433.47 91.33Q433.16 91.18 432.74 91.18Q431.82 91.18 431.82 91.93Q431.82 92.25 432.02 92.42Q432.21 92.58 432.67 92.66L433.25 92.77Q433.98 92.90 434.34 93.30Q434.69 93.70 434.69 94.33Q434.69 94.72 434.55 95.04Q434.42 95.37 434.15 95.60Q433.89 95.84 433.50 95.97Q433.11 96.10 432.61 96.10M437.17 90.42L438.21 90.42L438.21 93.90Q438.21 94.21 438.24 94.46Q438.25 94.70 438.34 94.88Q438.42 95.05 438.59 95.14Q438.77 95.24 439.07 95.24Q439.38 95.24 439.55 95.14Q439.72 95.05 439.80 94.88Q439.89 94.70 439.91 94.46Q439.93 94.21 439.93 93.90L439.93 90.42L440.97 90.42L440.97 93.74Q440.97 94.33 440.90 94.77Q440.83 95.21 440.62 95.50Q440.42 95.80 440.04 95.95Q439.67 96.10 439.07 96.10Q438.47 96.10 438.10 95.95Q437.73 95.80 437.52 95.50Q437.31 95.21 437.24 94.77Q437.17 94.33 437.17 93.74M446.05 96L444.58 91.99L444.50 91.99L444.50 96L443.61 96L443.61 90.42L444.90 90.42L446.36 94.42L446.44 94.42L446.44 90.42L447.34 90.42L447.34 96" fill="#A28E78"/><path d="M29.08 200L24.65 200L24.65 199.10L26.55 198.98L27.04 198.98L29.08 199.10L29.08 200M27.27 200L26.25 200L26.25 188.98L27.03 188.98L27.27 194.65L27.27 200M34.17 189.63L32.08 189.49L32.08 188.61L36.48 188.61L36.48 189.49L34.64 189.63L34.17 189.63M34.90 200.12L34.06 200.12L27.10 190.36L26.79 190.36L26.50 189.56L24.68 189.49L24.68 188.61L27.78 188.61L34.10 197.55L34.05 197.59L33.90 193.88L33.90 188.61L34.90 188.61L34.90 200.12M41.97 200.20Q40.90 200.20 39.96 199.71Q39.01 199.22 38.43 198.24Q37.86 197.26 37.86 195.85Q37.86 194.44 38.43 193.45Q39.01 192.45 39.96 191.94Q40.90 191.43 41.97 191.43Q43.04 191.43 43.98 191.93Q44.93 192.44 45.51 193.41Q46.10 194.39 46.10 195.80Q46.10 197.21 45.51 198.20Q44.93 199.18 43.98 199.69Q43.04 200.20 41.97 200.20M41.97 199.32Q42.75 199.32 43.30 198.93Q43.84 198.54 44.13 197.77Q44.42 197.01 44.42 195.85Q44.42 194.68 44.13 193.90Q43.84 193.12 43.30 192.72Q42.75 192.33 41.97 192.33Q41.21 192.33 40.66 192.72Q40.12 193.12 39.83 193.89Q39.54 194.66 39.54 195.82Q39.54 196.99 39.83 197.76Q40.12 198.54 40.66 198.93Q41.21 199.32 41.97 199.32M52.63 192.62L49.50 192.62L49.50 191.64L52.63 191.64L52.63 192.62M50.83 200.17Q49.88 200.17 49.29 199.64Q48.70 199.12 48.70 198.01Q48.70 197.71 48.70 197.41Q48.70 197.11 48.70 196.72L48.70 192.62L47.22 192.62L47.22 191.82L49.40 191.55L48.77 192.08L49.31 189.29L50.37 189.29L50.18 192.21L50.25 192.38L50.25 197.86Q50.25 198.54 50.53 198.83Q50.81 199.12 51.30 199.12Q51.63 199.12 51.90 199.01Q52.17 198.91 52.43 198.78L52.82 199.42Q52.63 199.61 52.34 199.79Q52.05 199.97 51.67 200.07Q51.29 200.17 50.83 200.17M61.89 200.20Q60.62 200.20 59.71 199.69Q58.80 199.17 58.32 198.21Q57.83 197.25 57.83 195.94Q57.83 194.61 58.34 193.60Q58.85 192.59 59.75 192.01Q60.65 191.43 61.81 191.43Q62.85 191.43 63.61 191.83Q64.38 192.23 64.81 192.98Q65.24 193.73 65.24 194.76Q65.24 195.09 65.20 195.40Q65.16 195.72 65.11 195.92L58.73 195.92L58.73 195.12L63.19 195.12Q63.54 195 63.65 194.78Q63.75 194.56 63.75 194.27Q63.75 193.61 63.52 193.17Q63.29 192.74 62.85 192.53Q62.42 192.32 61.81 192.32Q61.16 192.32 60.62 192.67Q60.08 193.03 59.75 193.79Q59.43 194.54 59.43 195.77Q59.43 196.80 59.78 197.54Q60.13 198.28 60.76 198.67Q61.40 199.06 62.25 199.06Q63.15 199.06 63.76 198.73Q64.36 198.40 64.84 197.86L65.36 198.28Q64.99 198.84 64.53 199.29Q64.07 199.73 63.44 199.97Q62.81 200.20 61.89 200.20M70.99 200L66.81 200L66.81 199.18L68.73 199.01L69.19 199.01L70.99 199.18L70.99 200M69.73 200L68.15 200Q68.15 199.49 68.16 198.86Q68.17 198.23 68.17 197.57Q68.17 196.91 68.17 196.34L68.17 195.46Q68.17 195.02 68.17 194.65Q68.17 194.27 68.16 193.92Q68.15 193.57 68.15 193.20L66.72 193.13L66.72 192.38L68.93 191.53L69.41 191.62L69.65 193.46L69.71 193.46L69.71 196.34Q69.71 196.91 69.71 197.57Q69.71 198.23 69.72 198.86Q69.73 199.49 69.73 200M76.53 200L72.35 200L72.35 199.18L74.24 199.01L74.70 199.01L76.53 199.18L76.53 200M75.24 200L73.66 200Q73.66 199.49 73.67 198.86Q73.68 198.23 73.68 197.58Q73.68 196.92 73.68 196.34L73.68 194.70Q73.68 193.63 73.33 193.19Q72.98 192.76 72.20 192.76Q71.75 192.76 71.31 192.89Q70.87 193.01 70.42 193.28Q69.97 193.54 69.49 193.91L69.37 193.18L69.78 193.18Q70.14 192.69 70.60 192.30Q71.06 191.91 71.62 191.67Q72.18 191.43 72.79 191.43Q74.02 191.43 74.61 192.17Q75.21 192.91 75.21 194.42L75.21 196.34Q75.21 196.92 75.21 197.58Q75.22 198.23 75.22 198.86Q75.22 199.49 75.24 200M81.94 200.20Q80.87 200.20 79.92 199.71Q78.98 199.22 78.40 198.24Q77.82 197.26 77.82 195.85Q77.82 194.44 78.40 193.45Q78.98 192.45 79.92 191.94Q80.87 191.43 81.94 191.43Q83.01 191.43 83.95 191.93Q84.90 192.44 85.48 193.41Q86.07 194.39 86.07 195.80Q86.07 197.21 85.48 198.20Q84.90 199.18 83.95 199.69Q83.01 200.20 81.94 200.20M81.94 199.32Q82.72 199.32 83.26 198.93Q83.81 198.54 84.10 197.77Q84.39 197.01 84.39 195.85Q84.39 194.68 84.10 193.90Q83.81 193.12 83.26 192.72Q82.72 192.33 81.94 192.33Q81.17 192.33 80.63 192.72Q80.08 193.12 79.80 193.89Q79.51 194.66 79.51 195.82Q79.51 196.99 79.80 197.76Q80.08 198.54 80.63 198.93Q81.17 199.32 81.94 199.32M91.02 200.20Q89.83 200.20 89.20 199.49Q88.57 198.78 88.58 197.25L88.60 192.38L89.13 192.96L87.22 192.59L87.22 191.87L89.72 191.59L90.15 191.67L90.11 193.73L90.11 196.97Q90.11 198.01 90.47 198.45Q90.83 198.90 91.58 198.90Q92.02 198.90 92.49 198.75Q92.95 198.61 93.41 198.33Q93.87 198.04 94.31 197.67L94.45 198.44L93.97 198.44Q93.62 198.98 93.16 199.38Q92.70 199.78 92.16 199.99Q91.63 200.20 91.02 200.20M96.95 200L94.33 200.14L94.16 198.22L94.09 198.20L94.11 192.84L92.73 192.59L92.73 191.87L95.21 191.59L95.64 191.67L95.62 193.73L95.62 199L96.95 199.25L96.95 200M101.79 204.01Q100.60 204.01 99.79 203.74Q98.97 203.47 98.55 202.99Q98.12 202.52 98.12 201.90Q98.12 201.43 98.36 201.05Q98.60 200.68 99.12 200.37Q99.65 200.07 100.50 199.81L100.62 199.93Q100.30 200.17 100.08 200.44Q99.86 200.71 99.74 201Q99.63 201.29 99.63 201.63Q99.63 202.07 99.88 202.41Q100.13 202.75 100.65 202.94Q101.16 203.13 101.98 203.13Q102.93 203.13 103.58 202.88Q104.22 202.63 104.56 202.24Q104.89 201.84 104.89 201.38Q104.89 200.82 104.49 200.47Q104.09 200.12 103.22 200.12L101.03 200.12Q100.77 200.12 100.51 200.11Q100.25 200.10 100.01 200.09L100.01 199.81Q99.38 199.69 98.99 199.40Q98.60 199.10 98.60 198.52Q98.60 198.01 98.96 197.62Q99.33 197.23 100.03 196.85L100.03 196.48L100.89 196.62Q100.43 197.01 100.21 197.30Q99.99 197.59 99.99 197.93Q99.99 198.35 100.29 198.57Q100.59 198.79 101.27 198.79L103.48 198.79Q104.41 198.79 105.04 199.07Q105.67 199.35 105.98 199.86Q106.30 200.36 106.30 201.02Q106.30 201.62 105.98 202.16Q105.65 202.70 105.06 203.12Q104.46 203.54 103.63 203.77Q102.80 204.01 101.79 204.01M101.79 197.14Q100.84 197.14 100.10 196.80Q99.36 196.46 98.95 195.83Q98.53 195.19 98.53 194.31Q98.53 193.42 98.95 192.78Q99.36 192.13 100.10 191.78Q100.84 191.43 101.79 191.43Q102.42 191.43 102.93 191.59Q103.44 191.74 103.82 192Q104.19 192.26 104.41 192.62L104.53 192.64Q104.79 192.96 104.92 193.35Q105.06 193.74 105.06 194.27Q105.06 195.14 104.64 195.78Q104.22 196.43 103.48 196.79Q102.75 197.14 101.79 197.14M101.78 196.33Q102.32 196.33 102.72 196.06Q103.12 195.80 103.34 195.34Q103.56 194.88 103.56 194.25Q103.56 193.64 103.35 193.19Q103.14 192.74 102.74 192.49Q102.34 192.25 101.81 192.25Q101.27 192.25 100.87 192.50Q100.47 192.76 100.25 193.22Q100.03 193.68 100.03 194.29Q100.03 194.90 100.24 195.36Q100.45 195.82 100.84 196.07Q101.23 196.33 101.78 196.33M106.52 192.93L103.94 192.93L103.94 192.44L104.36 192.44L105.98 191.36L106.52 191.45L106.52 192.93M111.89 200L107.68 200L107.68 199.18L109.60 199.01L110.06 199.01L111.89 199.18L111.89 200M110.60 200L109.02 200Q109.04 199.49 109.04 198.86Q109.04 198.23 109.04 197.57Q109.05 196.91 109.05 196.34L109.05 189.05L107.57 188.80L107.57 188.08L110.12 187.50L110.58 187.57L110.55 189.73L110.53 193.40L110.58 193.52L110.58 196.34Q110.58 196.91 110.58 197.57Q110.58 198.23 110.59 198.86Q110.60 199.49 110.60 200M117.45 200L113.27 200L113.27 199.18L115.14 199.01L115.61 199.01L117.45 199.18L117.45 200M116.14 200L114.56 200Q114.56 199.49 114.57 198.86Q114.58 198.23 114.58 197.58Q114.58 196.92 114.58 196.34L114.58 194.70Q114.58 193.63 114.23 193.19Q113.88 192.76 113.10 192.76Q112.66 192.76 112.21 192.89Q111.77 193.01 111.32 193.28Q110.87 193.54 110.40 193.93L110.24 193.20L110.75 193.20Q111.08 192.71 111.53 192.31Q111.98 191.91 112.53 191.67Q113.08 191.43 113.71 191.43Q114.92 191.43 115.52 192.17Q116.12 192.91 116.12 194.42L116.12 196.34Q116.12 196.92 116.12 197.58Q116.12 198.23 116.13 198.86Q116.14 199.49 116.14 200M127.26 200L122.70 200L122.70 199.18L124.62 199.01L125.10 199.01L127.26 199.18L127.26 200M125.61 200L124.03 200Q124.03 199.49 124.04 198.86Q124.05 198.23 124.05 197.57Q124.05 196.91 124.05 196.34L124.05 195.46Q124.05 195.02 124.05 194.65Q124.05 194.27 124.04 193.92Q124.03 193.57 124.03 193.20L122.60 193.13L122.60 192.38L124.85 191.53L125.32 191.62L125.49 193.93L125.59 193.95L125.59 196.34Q125.59 196.91 125.59 197.57Q125.59 198.23 125.60 198.86Q125.61 199.49 125.61 200M125.44 195.22L125.30 193.97L125.68 193.97Q125.98 193.20 126.35 192.64Q126.72 192.08 127.17 191.77Q127.62 191.47 128.16 191.47Q128.67 191.47 129 191.71Q129.33 191.96 129.45 192.25Q129.44 192.78 129.17 193.15Q128.91 193.52 128.35 193.52Q127.99 193.52 127.73 193.38Q127.46 193.23 127.24 193.03L126.85 192.66L127.74 192.59Q126.89 193 126.33 193.68Q125.78 194.37 125.44 195.22M134.55 200.20Q133.28 200.20 132.37 199.69Q131.46 199.17 130.97 198.21Q130.49 197.25 130.49 195.94Q130.49 194.61 131 193.60Q131.51 192.59 132.41 192.01Q133.31 191.43 134.47 191.43Q135.50 191.43 136.27 191.83Q137.03 192.23 137.47 192.98Q137.90 193.73 137.90 194.76Q137.90 195.09 137.86 195.40Q137.82 195.72 137.77 195.92L131.39 195.92L131.39 195.12L135.84 195.12Q136.20 195 136.30 194.78Q136.41 194.56 136.41 194.27Q136.41 193.61 136.18 193.17Q135.95 192.74 135.51 192.53Q135.08 192.32 134.47 192.32Q133.82 192.32 133.28 192.67Q132.73 193.03 132.41 193.79Q132.09 194.54 132.09 195.77Q132.09 196.80 132.44 197.54Q132.78 198.28 133.42 198.67Q134.06 199.06 134.91 199.06Q135.81 199.06 136.41 198.73Q137.02 198.40 137.49 197.86L138.02 198.28Q137.65 198.84 137.19 199.29Q136.73 199.73 136.10 199.97Q135.47 200.20 134.55 200.20M143.61 200.20Q142.36 200.20 141.44 199.68Q140.52 199.15 140.03 198.19Q139.55 197.23 139.55 195.92Q139.55 194.56 140.09 193.56Q140.64 192.55 141.57 191.99Q142.51 191.43 143.65 191.43Q144.58 191.43 145.27 191.71Q145.96 191.99 146.39 192.46Q146.83 192.93 146.96 193.49Q146.89 193.85 146.69 194.07Q146.49 194.29 146.11 194.29Q145.67 194.29 145.45 194.02Q145.23 193.76 145.11 193.40L144.63 191.84L145.62 192.71Q145.23 192.52 144.79 192.41Q144.36 192.30 143.82 192.30Q143.04 192.30 142.44 192.71Q141.85 193.12 141.51 193.89Q141.18 194.66 141.18 195.75Q141.18 196.84 141.54 197.57Q141.90 198.30 142.52 198.67Q143.14 199.03 143.94 199.03Q144.50 199.03 144.93 198.88Q145.36 198.72 145.72 198.46Q146.08 198.20 146.38 197.84L146.96 198.37Q146.66 198.88 146.22 199.29Q145.79 199.71 145.16 199.96Q144.53 200.20 143.61 200.20M152.50 200.20Q151.43 200.20 150.49 199.71Q149.55 199.22 148.97 198.24Q148.39 197.26 148.39 195.85Q148.39 194.44 148.97 193.45Q149.55 192.45 150.49 191.94Q151.43 191.43 152.50 191.43Q153.58 191.43 154.52 191.93Q155.46 192.44 156.05 193.41Q156.64 194.39 156.64 195.80Q156.64 197.21 156.05 198.20Q155.46 199.18 154.52 199.69Q153.58 200.20 152.50 200.20M152.50 199.32Q153.29 199.32 153.83 198.93Q154.37 198.54 154.66 197.77Q154.95 197.01 154.95 195.85Q154.95 194.68 154.66 193.90Q154.37 193.12 153.83 192.72Q153.29 192.33 152.50 192.33Q151.74 192.33 151.20 192.72Q150.65 193.12 150.36 193.89Q150.07 194.66 150.07 195.82Q150.07 196.99 150.36 197.76Q150.65 198.54 151.20 198.93Q151.74 199.32 152.50 199.32M162.76 200L158.20 200L158.20 199.18L160.12 199.01L160.60 199.01L162.76 199.18L162.76 200M161.11 200L159.53 200Q159.53 199.49 159.53 198.86Q159.54 198.23 159.54 197.57Q159.54 196.91 159.54 196.34L159.54 195.46Q159.54 195.02 159.54 194.65Q159.54 194.27 159.53 193.92Q159.53 193.57 159.53 193.20L158.10 193.13L158.10 192.38L160.34 191.53L160.82 191.62L160.99 193.93L161.09 193.95L161.09 196.34Q161.09 196.91 161.09 197.57Q161.09 198.23 161.10 198.86Q161.11 199.49 161.11 200M160.94 195.22L160.80 193.97L161.17 193.97Q161.48 193.20 161.85 192.64Q162.21 192.08 162.66 191.77Q163.11 191.47 163.66 191.47Q164.17 191.47 164.50 191.71Q164.83 191.96 164.95 192.25Q164.93 192.78 164.67 193.15Q164.40 193.52 163.84 193.52Q163.49 193.52 163.22 193.38Q162.96 193.23 162.74 193.03L162.35 192.66L163.23 192.59Q162.38 193 161.83 193.68Q161.28 194.37 160.94 195.22M169.52 200.20Q168.48 200.20 167.69 199.69Q166.89 199.17 166.44 198.20Q165.99 197.23 165.99 195.87Q165.99 194.49 166.46 193.50Q166.94 192.50 167.75 191.97Q168.57 191.43 169.59 191.43Q170.18 191.43 170.63 191.61Q171.07 191.79 171.42 192.14Q171.77 192.49 172.07 192.96L172.68 192.96L172.60 194.12Q171.87 193.28 171.28 192.89Q170.69 192.49 170 192.49Q169.33 192.49 168.80 192.83Q168.26 193.18 167.95 193.92Q167.63 194.66 167.63 195.82Q167.63 196.96 167.94 197.69Q168.25 198.42 168.78 198.77Q169.32 199.12 170 199.12Q170.78 199.12 171.36 198.69Q171.94 198.27 172.58 197.40L172.65 198.56L172.07 198.56Q171.80 199.03 171.46 199.41Q171.12 199.78 170.65 199.99Q170.18 200.20 169.52 200.20M175.08 200L172.33 200.12L172.17 198.30L172.14 198.28L172.14 193.32L172.22 193.20L172.17 189.05L170.66 188.80L170.66 188.08L173.24 187.50L173.70 187.57L173.67 189.73L173.67 198.98L175.08 199.22L175.08 200M180.49 200.20Q179.21 200.20 178.30 199.69Q177.39 199.17 176.91 198.21Q176.42 197.25 176.42 195.94Q176.42 194.61 176.93 193.60Q177.44 192.59 178.34 192.01Q179.25 191.43 180.40 191.43Q181.44 191.43 182.20 191.83Q182.97 192.23 183.40 192.98Q183.84 193.73 183.84 194.76Q183.84 195.09 183.79 195.40Q183.75 195.72 183.70 195.92L177.32 195.92L177.32 195.12L181.78 195.12Q182.14 195 182.24 194.78Q182.34 194.56 182.34 194.27Q182.34 193.61 182.11 193.17Q181.88 192.74 181.45 192.53Q181.01 192.32 180.40 192.32Q179.76 192.32 179.21 192.67Q178.67 193.03 178.34 193.79Q178.02 194.54 178.02 195.77Q178.02 196.80 178.37 197.54Q178.72 198.28 179.36 198.67Q179.99 199.06 180.84 199.06Q181.74 199.06 182.35 198.73Q182.95 198.40 183.43 197.86L183.95 198.28Q183.58 198.84 183.12 199.29Q182.66 199.73 182.03 199.97Q181.40 200.20 180.49 200.20M189.02 200.20Q187.98 200.20 187.18 199.69Q186.39 199.17 185.93 198.20Q185.48 197.23 185.48 195.87Q185.48 194.49 185.96 193.50Q186.44 192.50 187.25 191.97Q188.07 191.43 189.09 191.43Q189.68 191.43 190.13 191.61Q190.57 191.79 190.92 192.14Q191.26 192.49 191.57 192.96L192.18 192.96L192.10 194.12Q191.37 193.28 190.78 192.89Q190.19 192.49 189.50 192.49Q188.83 192.49 188.30 192.83Q187.76 193.18 187.45 193.92Q187.13 194.66 187.13 195.82Q187.13 196.96 187.44 197.69Q187.75 198.42 188.28 198.77Q188.82 199.12 189.50 199.12Q190.28 199.12 190.86 198.69Q191.43 198.27 192.08 197.40L192.15 198.56L191.57 198.56Q191.30 199.03 190.96 199.41Q190.62 199.78 190.15 199.99Q189.68 200.20 189.02 200.20M194.58 200L191.83 200.12L191.67 198.30L191.64 198.28L191.64 193.32L191.72 193.20L191.67 189.05L190.16 188.80L190.16 188.08L192.74 187.50L193.20 187.57L193.17 189.73L193.17 198.98L194.58 199.22L194.58 200M204.15 200.05L202.94 200.05L200.10 191.64L201.82 191.64L203.96 198.76L203.86 198.76L204.24 197.03L206.11 191.64L207.01 191.64L209.30 198.76L209.22 198.76L209.57 196.94L211.21 191.64L212.36 191.64L209.42 200.05L208.30 200.05L206.19 193.54L206.29 193.54L205.99 194.95L204.15 200.05M201.04 192.66L199.36 192.45L199.36 191.64L203.44 191.64L203.44 192.45L201.57 192.66L201.04 192.66M206.19 192.62L204.56 192.45L204.56 191.64L208.57 191.64L208.57 192.45L207.02 192.62L206.19 192.62M211.26 192.66L209.69 192.45L209.69 191.64L213.08 191.64L213.08 192.45L211.77 192.66L211.26 192.66M218.23 200.20Q216.95 200.20 216.04 199.69Q215.13 199.17 214.65 198.21Q214.16 197.25 214.16 195.94Q214.16 194.61 214.67 193.60Q215.18 192.59 216.08 192.01Q216.99 191.43 218.14 191.43Q219.18 191.43 219.94 191.83Q220.71 192.23 221.14 192.98Q221.58 193.73 221.58 194.76Q221.58 195.09 221.53 195.40Q221.49 195.72 221.44 195.92L215.06 195.92L215.06 195.12L219.52 195.12Q219.88 195 219.98 194.78Q220.08 194.56 220.08 194.27Q220.08 193.61 219.85 193.17Q219.62 192.74 219.19 192.53Q218.75 192.32 218.14 192.32Q217.50 192.32 216.95 192.67Q216.41 193.03 216.08 193.79Q215.76 194.54 215.76 195.77Q215.76 196.80 216.11 197.54Q216.46 198.28 217.10 198.67Q217.73 199.06 218.58 199.06Q219.48 199.06 220.09 198.73Q220.69 198.40 221.17 197.86L221.69 198.28Q221.32 198.84 220.86 199.29Q220.40 199.73 219.77 199.97Q219.14 200.20 218.23 200.20M227.29 200.20Q226.01 200.20 225.10 199.69Q224.19 199.17 223.71 198.21Q223.22 197.25 223.22 195.94Q223.22 194.61 223.73 193.60Q224.24 192.59 225.15 192.01Q226.05 191.43 227.20 191.43Q228.24 191.43 229 191.83Q229.77 192.23 230.20 192.98Q230.64 193.73 230.64 194.76Q230.64 195.09 230.59 195.40Q230.55 195.72 230.50 195.92L224.13 195.92L224.13 195.12L228.58 195.12Q228.94 195 229.04 194.78Q229.14 194.56 229.14 194.27Q229.14 193.61 228.91 193.17Q228.68 192.74 228.25 192.53Q227.81 192.32 227.20 192.32Q226.56 192.32 226.01 192.67Q225.47 193.03 225.15 193.79Q224.82 194.54 224.82 195.77Q224.82 196.80 225.17 197.54Q225.52 198.28 226.16 198.67Q226.79 199.06 227.64 199.06Q228.55 199.06 229.15 198.73Q229.75 198.40 230.23 197.86L230.76 198.28Q230.38 198.84 229.92 199.29Q229.46 199.73 228.83 199.97Q228.21 200.20 227.29 200.20M236.47 200L232.12 200L232.12 199.18L234.05 199.01L234.51 199.01L236.47 199.18L236.47 200M235.07 200L233.49 200Q233.51 199.54 233.51 199.09Q233.51 198.64 233.52 198.17Q233.53 197.71 233.53 197.25Q233.53 196.79 233.53 196.34L233.53 189.05L232.05 188.80L232.05 188.08L234.63 187.50L235.09 187.57L235.06 189.73L235.06 196.34Q235.06 196.79 235.06 197.25Q235.06 197.71 235.06 198.17Q235.06 198.64 235.06 199.09Q235.07 199.54 235.07 200M240.46 191.64L234.36 197.50L234.36 196.21L234.85 196.21L237.01 193.85L239.19 191.64L240.46 191.64M241.41 200L238.93 200L236.09 195.36L237.11 194.31L240.19 199.05L241.41 199.22L241.41 200M238.59 192.71L236.76 192.45L236.76 191.64L241.06 191.64L241.06 192.45L238.98 192.66L238.59 192.71M245.27 200.20Q244.42 200.20 243.73 200.04Q243.03 199.88 242.47 199.61L242.40 197.55L243.40 197.55L243.86 199.63L243.05 199.63L243.05 198.78Q243.45 199.05 244.03 199.21Q244.61 199.37 245.29 199.37Q245.97 199.37 246.39 199.18Q246.80 199 247 198.68Q247.19 198.37 247.19 197.99Q247.19 197.43 246.80 197.11Q246.41 196.79 245.56 196.51L245 196.31Q244.20 196.06 243.64 195.72Q243.08 195.39 242.78 194.93Q242.49 194.47 242.49 193.85Q242.49 193.17 242.87 192.61Q243.25 192.06 243.97 191.75Q244.70 191.43 245.68 191.43Q246.43 191.43 247.09 191.60Q247.76 191.77 248.25 192.04L248.21 193.97L247.23 193.97L246.85 192.11L247.55 192.11L247.55 192.81Q247.14 192.54 246.68 192.41Q246.21 192.28 245.68 192.28Q244.81 192.28 244.40 192.62Q243.98 192.96 243.98 193.49Q243.98 194.02 244.35 194.31Q244.71 194.61 245.60 194.92L246.04 195.07Q246.94 195.36 247.54 195.73Q248.15 196.11 248.44 196.57Q248.72 197.04 248.72 197.67Q248.72 198.38 248.32 198.95Q247.91 199.52 247.14 199.86Q246.38 200.20 245.27 200.20M259.25 192.62L256.12 192.62L256.12 191.64L259.25 191.64L259.25 192.62M257.45 200.17Q256.49 200.17 255.91 199.64Q255.32 199.12 255.32 198.01Q255.32 197.71 255.32 197.41Q255.32 197.11 255.32 196.72L255.32 192.62L253.84 192.62L253.84 191.82L256.02 191.55L255.39 192.08L255.93 189.29L256.99 189.29L256.80 192.21L256.87 192.38L256.87 197.86Q256.87 198.54 257.15 198.83Q257.43 199.12 257.92 199.12Q258.24 199.12 258.52 199.01Q258.79 198.91 259.04 198.78L259.43 199.42Q259.25 199.61 258.96 199.79Q258.67 199.97 258.29 200.07Q257.90 200.17 257.45 200.17M264.53 200.20Q263.46 200.20 262.52 199.71Q261.58 199.22 261 198.24Q260.42 197.26 260.42 195.85Q260.42 194.44 261 193.45Q261.58 192.45 262.52 191.94Q263.46 191.43 264.53 191.43Q265.61 191.43 266.55 191.93Q267.49 192.44 268.08 193.41Q268.67 194.39 268.67 195.80Q268.67 197.21 268.08 198.20Q267.49 199.18 266.55 199.69Q265.61 200.20 264.53 200.20M264.53 199.32Q265.32 199.32 265.86 198.93Q266.40 198.54 266.69 197.77Q266.98 197.01 266.98 195.85Q266.98 194.68 266.69 193.90Q266.40 193.12 265.86 192.72Q265.32 192.33 264.53 192.33Q263.77 192.33 263.23 192.72Q262.68 193.12 262.39 193.89Q262.10 194.66 262.10 195.82Q262.10 196.99 262.39 197.76Q262.68 198.54 263.23 198.93Q263.77 199.32 264.53 199.32M278.73 203.94L274.21 203.94L274.21 203.13L276.15 202.96L276.62 202.96L278.73 203.13L278.73 203.94M277.15 203.94L275.58 203.94Q275.60 203.38 275.60 202.83Q275.60 202.28 275.61 201.73Q275.62 201.17 275.62 200.61L275.62 195.46Q275.62 195.02 275.61 194.65Q275.60 194.27 275.60 193.92Q275.60 193.57 275.58 193.20L274.17 193.13L274.17 192.38L276.38 191.53L276.84 191.62L277.05 193.18L277.15 193.22L277.15 198.52L277.06 198.57L277.13 200.75Q277.13 201.26 277.13 201.80Q277.13 202.35 277.14 202.87Q277.15 203.40 277.15 203.94M279.72 200.20Q279.12 200.20 278.66 200.02Q278.20 199.83 277.83 199.46Q277.45 199.08 277.13 198.54L276.49 198.54L276.57 197.35Q277.25 198.25 277.88 198.70Q278.51 199.15 279.27 199.15Q279.94 199.15 280.46 198.80Q280.99 198.45 281.30 197.73Q281.62 197.01 281.62 195.89Q281.62 194.20 280.98 193.36Q280.34 192.52 279.38 192.52Q278.90 192.52 278.46 192.71Q278.02 192.89 277.56 193.28Q277.10 193.68 276.55 194.31L276.49 193.15L277.13 193.15Q277.49 192.62 277.87 192.24Q278.25 191.86 278.74 191.64Q279.22 191.43 279.85 191.43Q280.82 191.43 281.59 191.94Q282.37 192.45 282.82 193.42Q283.27 194.39 283.27 195.78Q283.27 197.18 282.80 198.16Q282.33 199.15 281.53 199.68Q280.74 200.20 279.72 200.20M289.39 200L284.83 200L284.83 199.18L286.75 199.01L287.23 199.01L289.39 199.18L289.39 200M287.74 200L286.16 200Q286.16 199.49 286.17 198.86Q286.18 198.23 286.18 197.57Q286.18 196.91 286.18 196.34L286.18 195.46Q286.18 195.02 286.18 194.65Q286.18 194.27 286.17 193.92Q286.16 193.57 286.16 193.20L284.73 193.13L284.73 192.38L286.97 191.53L287.45 191.62L287.62 193.93L287.72 193.95L287.72 196.34Q287.72 196.91 287.72 197.57Q287.72 198.23 287.73 198.86Q287.74 199.49 287.74 200M287.57 195.22L287.43 193.97L287.81 193.97Q288.11 193.20 288.48 192.64Q288.84 192.08 289.29 191.77Q289.75 191.47 290.29 191.47Q290.80 191.47 291.13 191.71Q291.46 191.96 291.58 192.25Q291.56 192.78 291.30 193.15Q291.04 193.52 290.48 193.52Q290.12 193.52 289.86 193.38Q289.59 193.23 289.37 193.03L288.98 192.66L289.86 192.59Q289.01 193 288.46 193.68Q287.91 194.37 287.57 195.22M296.73 200.20Q295.66 200.20 294.72 199.71Q293.77 199.22 293.20 198.24Q292.62 197.26 292.62 195.85Q292.62 194.44 293.20 193.45Q293.77 192.45 294.72 191.94Q295.66 191.43 296.73 191.43Q297.80 191.43 298.75 191.93Q299.69 192.44 300.28 193.41Q300.86 194.39 300.86 195.80Q300.86 197.21 300.28 198.20Q299.69 199.18 298.75 199.69Q297.80 200.20 296.73 200.20M296.73 199.32Q297.51 199.32 298.06 198.93Q298.60 198.54 298.89 197.77Q299.18 197.01 299.18 195.85Q299.18 194.68 298.89 193.90Q298.60 193.12 298.06 192.72Q297.51 192.33 296.73 192.33Q295.97 192.33 295.42 192.72Q294.88 193.12 294.59 193.89Q294.30 194.66 294.30 195.82Q294.30 196.99 294.59 197.76Q294.88 198.54 295.42 198.93Q295.97 199.32 296.73 199.32M302 204.13Q301.48 204.13 301.14 203.97Q300.81 203.81 300.63 203.58Q300.46 203.35 300.42 203.16Q300.52 202.81 300.79 202.58Q301.05 202.36 301.53 202.36Q301.95 202.36 302.27 202.54Q302.58 202.72 302.85 202.99L303.40 203.54L303.19 203.50L303.06 203.50L302.94 203.50Q303.11 203.30 303.21 203.09Q303.31 202.87 303.40 202.47Q303.50 202.13 303.56 201.57Q303.62 201.02 303.65 200.22Q303.69 199.42 303.69 198.32L303.69 195.46Q303.69 194.81 303.68 194.29Q303.67 193.76 303.65 193.20L302.24 193.13L302.24 192.38L304.74 191.53L305.22 191.62L305.18 193.69L305.18 198.33Q305.18 199.52 305.11 200.37Q305.05 201.22 304.86 201.82Q304.67 202.41 304.31 202.87Q303.92 203.45 303.40 203.79Q302.87 204.13 302 204.13M304.40 189.82Q303.92 189.82 303.59 189.49Q303.26 189.17 303.26 188.69Q303.26 188.22 303.59 187.90Q303.92 187.57 304.40 187.57Q304.89 187.57 305.22 187.90Q305.56 188.22 305.56 188.69Q305.56 189.17 305.22 189.49Q304.89 189.82 304.40 189.82M311.68 200.20Q310.40 200.20 309.49 199.69Q308.58 199.17 308.10 198.21Q307.61 197.25 307.61 195.94Q307.61 194.61 308.12 193.60Q308.63 192.59 309.53 192.01Q310.43 191.43 311.59 191.43Q312.63 191.43 313.39 191.83Q314.16 192.23 314.59 192.98Q315.02 193.73 315.02 194.76Q315.02 195.09 314.98 195.40Q314.94 195.72 314.89 195.92L308.51 195.92L308.51 195.12L312.97 195.12Q313.32 195 313.43 194.78Q313.53 194.56 313.53 194.27Q313.53 193.61 313.30 193.17Q313.07 192.74 312.64 192.53Q312.20 192.32 311.59 192.32Q310.94 192.32 310.40 192.67Q309.86 193.03 309.53 193.79Q309.21 194.54 309.21 195.77Q309.21 196.80 309.56 197.54Q309.91 198.28 310.54 198.67Q311.18 199.06 312.03 199.06Q312.93 199.06 313.54 198.73Q314.14 198.40 314.62 197.86L315.14 198.28Q314.77 198.84 314.31 199.29Q313.85 199.73 313.22 199.97Q312.59 200.20 311.68 200.20M320.74 200.20Q319.48 200.20 318.56 199.68Q317.64 199.15 317.16 198.19Q316.67 197.23 316.67 195.92Q316.67 194.56 317.22 193.56Q317.76 192.55 318.70 191.99Q319.63 191.43 320.77 191.43Q321.71 191.43 322.39 191.71Q323.08 191.99 323.52 192.46Q323.95 192.93 324.09 193.49Q324.02 193.85 323.81 194.07Q323.61 194.29 323.24 194.29Q322.79 194.29 322.57 194.02Q322.35 193.76 322.23 193.40L321.76 191.84L322.74 192.71Q322.35 192.52 321.92 192.41Q321.48 192.30 320.94 192.30Q320.16 192.30 319.56 192.71Q318.97 193.12 318.64 193.89Q318.31 194.66 318.31 195.75Q318.31 196.84 318.66 197.57Q319.02 198.30 319.64 198.67Q320.26 199.03 321.06 199.03Q321.62 199.03 322.05 198.88Q322.49 198.72 322.84 198.46Q323.20 198.20 323.51 197.84L324.09 198.37Q323.78 198.88 323.35 199.29Q322.91 199.71 322.28 199.96Q321.65 200.20 320.74 200.20M330.44 192.62L327.32 192.62L327.32 191.64L330.44 191.64L330.44 192.62M328.64 200.17Q327.69 200.17 327.10 199.64Q326.52 199.12 326.52 198.01Q326.52 197.71 326.52 197.41Q326.52 197.11 326.52 196.72L326.52 192.62L325.04 192.62L325.04 191.82L327.21 191.55L326.58 192.08L327.13 189.29L328.18 189.29L328 192.21L328.06 192.38L328.06 197.86Q328.06 198.54 328.34 198.83Q328.62 199.12 329.12 199.12Q329.44 199.12 329.71 199.01Q329.98 198.91 330.24 198.78L330.63 199.42Q330.44 199.61 330.15 199.79Q329.87 199.97 329.48 200.07Q329.10 200.17 328.64 200.17M337.99 200.24Q337.02 200.24 336.33 199.68Q335.65 199.12 335.65 198.03Q335.65 197.40 335.91 196.92Q336.17 196.45 336.78 196.07Q337.38 195.70 338.42 195.41Q338.91 195.26 339.39 195.13Q339.88 195 340.36 194.87Q340.85 194.73 341.32 194.59L341.32 195.29Q340.71 195.48 340.10 195.67Q339.49 195.87 338.88 196.07Q338.18 196.28 337.82 196.54Q337.46 196.80 337.34 197.10Q337.21 197.40 337.21 197.74Q337.21 198.37 337.60 198.72Q337.99 199.06 338.64 199.06Q339.06 199.06 339.40 198.91Q339.74 198.76 340.13 198.44Q340.52 198.13 341.05 197.67L341.17 198.64L340.58 198.64Q340.24 199.08 339.89 199.45Q339.54 199.81 339.09 200.03Q338.64 200.24 337.99 200.24M342.39 200.19Q341.66 200.19 341.21 199.71Q340.76 199.24 340.73 198.30L340.69 198.27L340.69 194.37Q340.69 193.59 340.51 193.13Q340.32 192.67 339.92 192.49Q339.52 192.30 338.91 192.30Q338.48 192.30 338.09 192.37Q337.70 192.44 337.28 192.62L337.96 191.94L337.69 193.47Q337.60 193.98 337.36 194.22Q337.12 194.46 336.73 194.46Q336.33 194.46 336.11 194.25Q335.90 194.03 335.85 193.74Q336.07 192.69 337.01 192.06Q337.94 191.43 339.35 191.43Q340.24 191.43 340.88 191.72Q341.53 192.01 341.88 192.65Q342.22 193.28 342.22 194.37L342.22 198.15Q342.22 198.67 342.41 198.90Q342.60 199.13 342.94 199.13Q343.16 199.13 343.32 199.06Q343.48 198.98 343.62 198.88L343.89 199.47Q343.64 199.80 343.27 199.99Q342.90 200.19 342.39 200.19M353.39 200L348.84 200L348.84 199.18L350.76 199.01L351.23 199.01L353.39 199.18L353.39 200M351.74 200L350.16 200Q350.16 199.49 350.17 198.86Q350.18 198.23 350.18 197.57Q350.18 196.91 350.18 196.34L350.18 195.46Q350.18 195.02 350.18 194.65Q350.18 194.27 350.17 193.92Q350.16 193.57 350.16 193.20L348.74 193.13L348.74 192.38L350.98 191.53L351.46 191.62L351.63 193.93L351.73 193.95L351.73 196.34Q351.73 196.91 351.73 197.57Q351.73 198.23 351.74 198.86Q351.74 199.49 351.74 200M351.57 195.22L351.44 193.97L351.81 193.97Q352.12 193.20 352.48 192.64Q352.85 192.08 353.30 191.77Q353.75 191.47 354.29 191.47Q354.80 191.47 355.14 191.71Q355.47 191.96 355.59 192.25Q355.57 192.78 355.31 193.15Q355.04 193.52 354.48 193.52Q354.12 193.52 353.86 193.38Q353.60 193.23 353.38 193.03L352.99 192.66L353.87 192.59Q353.02 193 352.47 193.68Q351.91 194.37 351.57 195.22M360.70 200L356.49 200L356.49 199.18L358.41 199.01L358.87 199.01L360.70 199.18L360.70 200M359.41 200L357.83 200Q357.85 199.49 357.85 198.86Q357.85 198.23 357.86 197.57Q357.86 196.91 357.86 196.34L357.86 189.05L356.39 188.80L356.39 188.08L358.94 187.50L359.39 187.57L359.36 189.73L359.34 193.40L359.39 193.52L359.39 196.34Q359.39 196.91 359.39 197.57Q359.39 198.23 359.40 198.86Q359.41 199.49 359.41 200M366.26 200L362.08 200L362.08 199.18L363.95 199.01L364.43 199.01L366.26 199.18L366.26 200M364.95 200L363.37 200Q363.37 199.49 363.38 198.86Q363.39 198.23 363.39 197.58Q363.39 196.92 363.39 196.34L363.39 194.70Q363.39 193.63 363.04 193.19Q362.69 192.76 361.91 192.76Q361.47 192.76 361.03 192.89Q360.58 193.01 360.13 193.28Q359.68 193.54 359.21 193.93L359.05 193.20L359.56 193.20Q359.89 192.71 360.34 192.31Q360.79 191.91 361.34 191.67Q361.89 191.43 362.52 191.43Q363.73 191.43 364.33 192.17Q364.94 192.91 364.94 194.42L364.94 196.34Q364.94 196.92 364.94 197.58Q364.94 198.23 364.94 198.86Q364.95 199.49 364.95 200M368.56 204.13Q368.03 204.13 367.65 203.99Q367.27 203.84 367.04 203.59Q366.82 203.33 366.79 203.06Q366.87 202.72 367.18 202.52Q367.49 202.31 367.91 202.31Q368.34 202.31 368.64 202.47Q368.95 202.63 369.27 202.97L369.75 203.45L369.24 203.60L369.32 203.42Q369.80 203.09 370.17 202.67Q370.55 202.24 370.84 201.70Q371.14 201.16 371.41 200.53L371.69 199.85L371.96 199.78L373.32 195.41L374.66 191.64L375.80 191.64L372.47 200.07Q371.92 201.48 371.35 202.38Q370.78 203.28 370.10 203.71Q369.42 204.13 368.56 204.13M372.47 199.27L371.45 201.12L367.69 191.64L369.42 191.64L372.09 199.10L372.47 199.27M368.71 192.62L366.96 192.42L366.96 191.64L371.31 191.64L371.31 192.44L369.25 192.62L368.71 192.62M374.59 192.62L372.82 192.42L372.82 191.64L376.48 191.64L376.48 192.42L375.10 192.62L374.59 192.62M382.41 192.62L379.28 192.62L379.28 191.64L382.41 191.64L382.41 192.62M380.61 200.17Q379.66 200.17 379.07 199.64Q378.49 199.12 378.49 198.01Q378.49 197.71 378.49 197.41Q378.49 197.11 378.49 196.72L378.49 192.62L377.01 192.62L377.01 191.82L379.18 191.55L378.55 192.08L379.10 189.29L380.15 189.29L379.96 192.21L380.03 192.38L380.03 197.86Q380.03 198.54 380.31 198.83Q380.59 199.12 381.09 199.12Q381.41 199.12 381.68 199.01Q381.95 198.91 382.21 198.78L382.60 199.42Q382.41 199.61 382.12 199.79Q381.83 199.97 381.45 200.07Q381.07 200.17 380.61 200.17M387.67 200L383.45 200L383.45 199.18L385.37 199.01L385.83 199.01L387.67 199.18L387.67 200M386.37 200L384.79 200Q384.81 199.49 384.81 198.86Q384.81 198.23 384.82 197.57Q384.83 196.91 384.83 196.34L384.83 189.05L383.35 188.80L383.35 188.08L385.90 187.50L386.36 187.57L386.32 189.73L386.31 193.40L386.36 193.52L386.36 196.34Q386.36 196.91 386.36 197.57Q386.36 198.23 386.36 198.86Q386.37 199.49 386.37 200M393.22 200L389.04 200L389.04 199.18L390.91 199.01L391.39 199.01L393.22 199.18L393.22 200M391.92 200L390.33 200Q390.33 199.49 390.34 198.86Q390.35 198.23 390.35 197.58Q390.35 196.92 390.35 196.34L390.35 194.70Q390.35 193.63 390 193.19Q389.65 192.76 388.87 192.76Q388.43 192.76 387.99 192.89Q387.55 193.01 387.10 193.28Q386.65 193.54 386.17 193.93L386.02 193.20L386.53 193.20Q386.85 192.71 387.30 192.31Q387.75 191.91 388.30 191.67Q388.86 191.43 389.48 191.43Q390.69 191.43 391.29 192.17Q391.90 192.91 391.90 194.42L391.90 196.34Q391.90 196.92 391.90 197.58Q391.90 198.23 391.91 198.86Q391.92 199.49 391.92 200M398.58 200L394.40 200L394.40 199.18L396.32 199.01L396.78 199.01L398.58 199.18L398.58 200M397.32 200L395.74 200Q395.74 199.49 395.75 198.86Q395.76 198.23 395.76 197.57Q395.76 196.91 395.76 196.34L395.76 195.46Q395.76 195.02 395.76 194.65Q395.76 194.27 395.75 193.92Q395.74 193.57 395.74 193.20L394.31 193.13L394.31 192.38L396.52 191.53L397 191.62L397.24 193.46L397.30 193.47L397.30 196.34Q397.30 196.91 397.30 197.57Q397.30 198.23 397.31 198.86Q397.32 199.49 397.32 200M404.02 200L399.84 200L399.84 199.18L401.72 199.01L402.18 199.01L404.02 199.18L404.02 200M402.73 200L401.15 200Q401.15 199.49 401.15 198.86Q401.16 198.23 401.16 197.58Q401.16 196.92 401.16 196.34L401.16 194.70Q401.16 193.64 400.83 193.20Q400.50 192.76 399.72 192.76Q399.29 192.76 398.86 192.89Q398.43 193.01 397.98 193.28Q397.54 193.54 397.08 193.91L396.95 193.22L397.36 193.22Q397.70 192.72 398.15 192.32Q398.60 191.91 399.15 191.67Q399.70 191.43 400.31 191.43Q401.52 191.43 402.11 192.17Q402.69 192.91 402.69 194.42L402.69 196.34Q402.69 196.92 402.70 197.58Q402.71 198.23 402.71 198.86Q402.71 199.49 402.73 200M409.43 200L405.24 200L405.24 199.18L407.13 199.01L407.59 199.01L409.43 199.18L409.43 200M408.13 200L406.55 200Q406.55 199.49 406.56 198.86Q406.57 198.23 406.57 197.58Q406.57 196.92 406.57 196.34L406.57 194.68Q406.57 193.61 406.23 193.18Q405.89 192.76 405.11 192.76Q404.70 192.76 404.27 192.89Q403.85 193.01 403.41 193.27Q402.97 193.52 402.49 193.91L402.32 193.23L402.73 193.23Q403.08 192.69 403.54 192.28Q404 191.87 404.55 191.65Q405.09 191.43 405.72 191.43Q406.89 191.43 407.50 192.15Q408.10 192.86 408.10 194.34L408.10 196.34Q408.10 196.92 408.11 197.58Q408.12 198.23 408.12 198.86Q408.12 199.49 408.13 200M412.49 200.20Q411.98 200.20 411.63 199.85Q411.28 199.49 411.28 199Q411.28 198.49 411.63 198.13Q411.98 197.77 412.49 197.77Q413 197.77 413.35 198.13Q413.71 198.49 413.71 199Q413.71 199.49 413.35 199.85Q413 200.20 412.49 200.20" fill="#EDE3D4"/><path d="M28.70 216L27.59 216L27.20 214.58L25.54 214.58L25.16 216L24.10 216L25.67 210.42L27.13 210.42L28.70 216M27.02 213.73L26.41 211.45L26.34 211.45L25.73 213.73M38.49 216L37.44 216L37.44 210.42L39.56 210.42Q40.38 210.42 40.81 210.88Q41.24 211.34 41.24 212.14Q41.24 212.94 40.81 213.41Q40.38 213.87 39.56 213.87L38.49 213.87L38.49 216M38.49 211.27L38.49 213.02L39.34 213.02Q39.77 213.02 39.95 212.84Q40.14 212.67 40.14 212.30L40.14 211.99Q40.14 211.62 39.95 211.44Q39.77 211.27 39.34 211.27M44.89 213.83L44.89 216L43.84 216L43.84 210.42L45.96 210.42Q46.78 210.42 47.21 210.88Q47.64 211.34 47.64 212.14Q47.64 212.76 47.36 213.18Q47.07 213.60 46.54 213.71L47.74 216L46.58 216L45.52 213.83L44.89 213.83M44.89 213.02L45.74 213.02Q46.17 213.02 46.35 212.84Q46.54 212.67 46.54 212.30L46.54 211.99Q46.54 211.62 46.35 211.44Q46.17 211.27 45.74 211.27L44.89 211.27M52 216.10Q51.46 216.10 51.06 215.90Q50.66 215.70 50.40 215.34Q50.14 214.97 50.01 214.43Q49.89 213.90 49.89 213.21Q49.89 212.53 50.01 211.99Q50.14 211.45 50.40 211.08Q50.66 210.71 51.06 210.52Q51.46 210.32 52 210.32Q53.09 210.32 53.60 211.08Q54.11 211.84 54.11 213.21Q54.11 214.58 53.60 215.34Q53.09 216.10 52 216.10M52 215.24Q52.28 215.24 52.47 215.13Q52.66 215.02 52.78 214.82Q52.90 214.62 52.95 214.33Q53 214.04 53 213.68L53 212.73Q53 212.01 52.78 211.59Q52.56 211.18 52 211.18Q51.44 211.18 51.22 211.59Q51 212.01 51 212.73L51 213.69Q51 214.41 51.22 214.82Q51.44 215.24 52 215.24M57.07 210.42L60.02 210.42L60.02 214.47Q60.02 214.85 59.89 215.15Q59.76 215.45 59.52 215.66Q59.29 215.86 58.96 215.98Q58.62 216.10 58.22 216.10Q57.42 216.10 56.97 215.70Q56.52 215.30 56.39 214.63L57.38 214.42Q57.45 214.78 57.64 215Q57.82 215.23 58.22 215.23Q58.58 215.23 58.77 215.02Q58.96 214.81 58.96 214.35L58.96 211.28L57.07 211.28M66.59 216L63.06 216L63.06 210.42L66.59 210.42L66.59 211.28L64.11 211.28L64.11 212.74L66.50 212.74L66.50 213.60L64.11 213.60L64.11 215.14L66.59 215.14M71.34 216.10Q70.25 216.10 69.72 215.34Q69.20 214.59 69.20 213.21Q69.20 211.83 69.72 211.08Q70.25 210.32 71.34 210.32Q71.76 210.32 72.08 210.43Q72.39 210.54 72.62 210.74Q72.86 210.94 73.01 211.21Q73.16 211.49 73.25 211.82L72.29 212.09Q72.23 211.90 72.16 211.73Q72.09 211.56 71.98 211.44Q71.87 211.31 71.71 211.24Q71.55 211.18 71.33 211.18Q70.78 211.18 70.55 211.59Q70.31 212.01 70.31 212.73L70.31 213.69Q70.31 214.41 70.55 214.82Q70.78 215.24 71.33 215.24Q71.55 215.24 71.71 215.17Q71.87 215.10 71.98 214.98Q72.09 214.86 72.16 214.69Q72.23 214.52 72.29 214.33L73.25 214.60Q73.16 214.93 73.01 215.20Q72.86 215.48 72.62 215.68Q72.39 215.87 72.08 215.98Q71.76 216.10 71.34 216.10M79.80 211.28L78.12 211.28L78.12 216L77.08 216L77.08 211.28L75.40 211.28L75.40 210.42L79.80 210.42M85.78 216L82.22 216L82.22 215.22L83.48 215.22L83.48 211.20L82.22 211.20L82.22 210.42L85.78 210.42L85.78 211.20L84.52 211.20L84.52 215.22L85.78 215.22M90.40 216.10Q89.86 216.10 89.46 215.90Q89.06 215.70 88.80 215.34Q88.54 214.97 88.41 214.43Q88.29 213.90 88.29 213.21Q88.29 212.53 88.41 211.99Q88.54 211.45 88.80 211.08Q89.06 210.71 89.46 210.52Q89.86 210.32 90.40 210.32Q91.49 210.32 92 211.08Q92.51 211.84 92.51 213.21Q92.51 214.58 92 215.34Q91.49 216.10 90.40 216.10M90.40 215.24Q90.68 215.24 90.87 215.13Q91.06 215.02 91.18 214.82Q91.30 214.62 91.35 214.33Q91.40 214.04 91.40 213.68L91.40 212.73Q91.40 212.01 91.18 211.59Q90.96 211.18 90.40 211.18Q89.84 211.18 89.62 211.59Q89.40 212.01 89.40 212.73L89.40 213.69Q89.40 214.41 89.62 214.82Q89.84 215.24 90.40 215.24M97.38 216L95.91 211.99L95.83 211.99L95.83 216L94.94 216L94.94 210.42L96.22 210.42L97.69 214.42L97.77 214.42L97.77 210.42L98.66 210.42L98.66 216M109.60 216.10Q109.06 216.10 108.66 215.90Q108.26 215.70 108 215.34Q107.74 214.97 107.61 214.43Q107.49 213.90 107.49 213.21Q107.49 212.53 107.61 211.99Q107.74 211.45 108 211.08Q108.26 210.71 108.66 210.52Q109.06 210.32 109.60 210.32Q110.69 210.32 111.20 211.08Q111.71 211.84 111.71 213.21Q111.71 214.58 111.20 215.34Q110.69 216.10 109.60 216.10M109.60 215.24Q109.88 215.24 110.07 215.13Q110.26 215.02 110.38 214.82Q110.50 214.62 110.55 214.33Q110.60 214.04 110.60 213.68L110.60 212.73Q110.60 212.01 110.38 211.59Q110.16 211.18 109.60 211.18Q109.04 211.18 108.82 211.59Q108.60 212.01 108.60 212.73L108.60 213.69Q108.60 214.41 108.82 214.82Q109.04 215.24 109.60 215.24M115.31 216L114.26 216L114.26 210.42L117.91 210.42L117.91 211.28L115.31 211.28L115.31 212.74L117.66 212.74L117.66 213.60L115.31 213.60M128.09 216L127.04 216L127.04 210.42L129.16 210.42Q129.98 210.42 130.41 210.88Q130.84 211.34 130.84 212.14Q130.84 212.94 130.41 213.41Q129.98 213.87 129.16 213.87L128.09 213.87L128.09 216M128.09 211.27L128.09 213.02L128.94 213.02Q129.37 213.02 129.55 212.84Q129.74 212.67 129.74 212.30L129.74 211.99Q129.74 211.62 129.55 211.44Q129.37 211.27 128.94 211.27M137.50 216L136.39 216L136 214.58L134.34 214.58L133.96 216L132.90 216L134.47 210.42L135.93 210.42L137.50 216M135.82 213.73L135.21 211.45L135.14 211.45L134.53 213.73M141.54 216.10Q140.82 216.10 140.31 215.85Q139.80 215.60 139.48 215.19L140.11 214.54Q140.42 214.90 140.79 215.07Q141.15 215.24 141.57 215.24Q142.05 215.24 142.30 215.02Q142.56 214.81 142.56 214.40Q142.56 214.06 142.37 213.89Q142.18 213.72 141.72 213.65L141.13 213.55Q140.35 213.42 140.02 212.99Q139.70 212.56 139.70 211.98Q139.70 211.18 140.22 210.75Q140.74 210.32 141.66 210.32Q142.31 210.32 142.79 210.53Q143.26 210.74 143.55 211.10L142.94 211.75Q142.71 211.49 142.40 211.33Q142.09 211.18 141.66 211.18Q140.75 211.18 140.75 211.93Q140.75 212.25 140.94 212.42Q141.14 212.58 141.60 212.66L142.18 212.77Q142.91 212.90 143.26 213.30Q143.62 213.70 143.62 214.33Q143.62 214.72 143.48 215.04Q143.34 215.37 143.08 215.60Q142.82 215.84 142.43 215.97Q142.04 216.10 141.54 216.10M150.20 211.28L148.52 211.28L148.52 216L147.48 216L147.48 211.28L145.80 211.28L145.80 210.42L150.20 210.42M160.09 213.83L160.09 216L159.04 216L159.04 210.42L161.16 210.42Q161.98 210.42 162.41 210.88Q162.84 211.34 162.84 212.14Q162.84 212.76 162.56 213.18Q162.27 213.60 161.74 213.71L162.94 216L161.78 216L160.72 213.83L160.09 213.83M160.09 213.02L160.94 213.02Q161.37 213.02 161.55 212.84Q161.74 212.67 161.74 212.30L161.74 211.99Q161.74 211.62 161.55 211.44Q161.37 211.27 160.94 211.27L160.09 211.27M168.02 216L168.02 213.60L166.38 213.60L166.38 216L165.34 216L165.34 210.42L166.38 210.42L166.38 212.74L168.02 212.74L168.02 210.42L169.06 210.42L169.06 216M174.12 216L173.08 216L173.08 213.96L171.26 210.42L172.43 210.42L173.08 211.76L173.58 212.90L173.64 212.90L174.15 211.76L174.81 210.42L175.94 210.42L174.12 213.96M182.20 211.28L180.52 211.28L180.52 216L179.48 216L179.48 211.28L177.80 211.28L177.80 210.42L182.20 210.42M187.22 216L187.22 213.60L185.58 213.60L185.58 216L184.54 216L184.54 210.42L185.58 210.42L185.58 212.74L187.22 212.74L187.22 210.42L188.26 210.42L188.26 216M193.90 216L193.90 213.42L193.95 211.80L193.88 211.80L192.80 214.67L191.72 211.80L191.65 211.80L191.70 213.42L191.70 216L190.78 216L190.78 210.42L192.03 210.42L192.81 212.47L192.86 212.47L193.65 210.42L194.82 210.42L194.82 216M198.24 217.18L198.69 214.70L200.06 214.70L199.02 217.18M212.58 216L211.11 211.99L211.03 211.99L211.03 216L210.14 216L210.14 210.42L211.42 210.42L212.89 214.42L212.97 214.42L212.97 210.42L213.86 210.42L213.86 216M218.40 216.10Q217.86 216.10 217.46 215.90Q217.06 215.70 216.80 215.34Q216.54 214.97 216.41 214.43Q216.29 213.90 216.29 213.21Q216.29 212.53 216.41 211.99Q216.54 211.45 216.80 211.08Q217.06 210.71 217.46 210.52Q217.86 210.32 218.40 210.32Q219.49 210.32 220 211.08Q220.51 211.84 220.51 213.21Q220.51 214.58 220 215.34Q219.49 216.10 218.40 216.10M218.40 215.24Q218.68 215.24 218.87 215.13Q219.06 215.02 219.18 214.82Q219.30 214.62 219.35 214.33Q219.40 214.04 219.40 213.68L219.40 212.73Q219.40 212.01 219.18 211.59Q218.96 211.18 218.40 211.18Q217.84 211.18 217.62 211.59Q217.40 212.01 217.40 212.73L217.40 213.69Q217.40 214.41 217.62 214.82Q217.84 215.24 218.40 215.24M227 211.28L225.32 211.28L225.32 216L224.28 216L224.28 211.28L222.60 211.28L222.60 210.42L227 210.42M239.90 216L238.79 216L238.40 214.58L236.74 214.58L236.36 216L235.30 216L236.87 210.42L238.33 210.42L239.90 216M238.22 213.73L237.61 211.45L237.54 211.45L236.93 213.73M249.69 216L248.64 216L248.64 210.42L250.76 210.42Q251.58 210.42 252.01 210.88Q252.44 211.34 252.44 212.14Q252.44 212.94 252.01 213.41Q251.58 213.87 250.76 213.87L249.69 213.87L249.69 216M249.69 211.27L249.69 213.02L250.54 213.02Q250.97 213.02 251.15 212.84Q251.34 212.67 251.34 212.30L251.34 211.99Q251.34 211.62 251.15 211.44Q250.97 211.27 250.54 211.27M256.09 213.83L256.09 216L255.04 216L255.04 210.42L257.16 210.42Q257.98 210.42 258.41 210.88Q258.84 211.34 258.84 212.14Q258.84 212.76 258.56 213.18Q258.27 213.60 257.74 213.71L258.94 216L257.78 216L256.72 213.83L256.09 213.83M256.09 213.02L256.94 213.02Q257.37 213.02 257.55 212.84Q257.74 212.67 257.74 212.30L257.74 211.99Q257.74 211.62 257.55 211.44Q257.37 211.27 256.94 211.27L256.09 211.27M264.99 216L261.46 216L261.46 210.42L264.99 210.42L264.99 211.28L262.51 211.28L262.51 212.74L264.90 212.74L264.90 213.60L262.51 213.60L262.51 215.14L264.99 215.14M267.78 216L267.78 210.42L269.52 210.42Q270.61 210.42 271.14 211.14Q271.67 211.86 271.67 213.21Q271.67 214.57 271.14 215.28Q270.61 216 269.52 216L267.78 216M268.82 215.16L269.45 215.16Q270.02 215.16 270.30 214.78Q270.58 214.41 270.58 213.69L270.58 212.72Q270.58 212.01 270.30 211.63Q270.02 211.26 269.45 211.26L268.82 211.26M277.78 216L274.22 216L274.22 215.22L275.48 215.22L275.48 211.20L274.22 211.20L274.22 210.42L277.78 210.42L277.78 211.20L276.52 211.20L276.52 215.22L277.78 215.22M282.54 216.10Q281.45 216.10 280.92 215.34Q280.40 214.59 280.40 213.21Q280.40 211.83 280.92 211.08Q281.45 210.32 282.54 210.32Q282.96 210.32 283.28 210.43Q283.59 210.54 283.82 210.74Q284.06 210.94 284.21 211.21Q284.36 211.49 284.45 211.82L283.49 212.09Q283.43 211.90 283.36 211.73Q283.29 211.56 283.18 211.44Q283.07 211.31 282.91 211.24Q282.75 211.18 282.53 211.18Q281.98 211.18 281.75 211.59Q281.51 212.01 281.51 212.73L281.51 213.69Q281.51 214.41 281.75 214.82Q281.98 215.24 282.53 215.24Q282.75 215.24 282.91 215.17Q283.07 215.10 283.18 214.98Q283.29 214.86 283.36 214.69Q283.43 214.52 283.49 214.33L284.45 214.60Q284.36 214.93 284.21 215.20Q284.06 215.48 283.82 215.68Q283.59 215.87 283.28 215.98Q282.96 216.10 282.54 216.10M291 211.28L289.32 211.28L289.32 216L288.28 216L288.28 211.28L286.60 211.28L286.60 210.42L291 210.42M296.98 216L293.42 216L293.42 215.22L294.68 215.22L294.68 211.20L293.42 211.20L293.42 210.42L296.98 210.42L296.98 211.20L295.72 211.20L295.72 215.22L296.98 215.22M301.60 216.10Q301.06 216.10 300.66 215.90Q300.26 215.70 300 215.34Q299.74 214.97 299.61 214.43Q299.49 213.90 299.49 213.21Q299.49 212.53 299.61 211.99Q299.74 211.45 300 211.08Q300.26 210.71 300.66 210.52Q301.06 210.32 301.60 210.32Q302.69 210.32 303.20 211.08Q303.71 211.84 303.71 213.21Q303.71 214.58 303.20 215.34Q302.69 216.10 301.60 216.10M301.60 215.24Q301.88 215.24 302.07 215.13Q302.26 215.02 302.38 214.82Q302.50 214.62 302.55 214.33Q302.60 214.04 302.60 213.68L302.60 212.73Q302.60 212.01 302.38 211.59Q302.16 211.18 301.60 211.18Q301.04 211.18 300.82 211.59Q300.60 212.01 300.60 212.73L300.60 213.69Q300.60 214.41 300.82 214.82Q301.04 215.24 301.60 215.24M308.58 216L307.11 211.99L307.03 211.99L307.03 216L306.14 216L306.14 210.42L307.42 210.42L308.89 214.42L308.97 214.42L308.97 210.42L309.86 210.42L309.86 216" fill="#A28E78"/></svg>