<svg role="img" viewBox="0 0 495 204" width="495" height="204" xmlns="http://www.w3.org/2000/svg"><title>廢墟卡片</title><desc>顯示超過 180 天未推送的已放棄專案，以墓碑形式標示每個專案存活的天數。</desc><rect width="495" height="204" rx="6" fill="#F7F1E7"/><rect x="0.5" y="0.5" width="494" height="203" rx="5.5" fill="none" stroke="#CDBDA8"/><style>@media (prefers-reduced-motion: reduce){*{animation-duration:0.01ms!important;animation-iteration-count:1!important;}}</style><path d="M28.74 38.12L29.95 38.70L29.51 38.70L29.66 38.61C29.64 38.83 29.63 39.09 29.59 39.39C29.56 39.72 29.52 40.02 29.49 40.33C29.46 40.65 29.42 40.92 29.37 41.14L29.52 41.14L28.98 41.72L27.86 40.80C27.98 40.74 28.13 40.67 28.32 40.58C28.49 40.52 28.64 40.46 28.78 40.45L28.45 41.04C28.49 40.82 28.52 40.53 28.57 40.17C28.61 39.82 28.64 39.44 28.68 39.07C28.71 38.71 28.73 38.39 28.74 38.12M33.32 41.96L33.42 41.69C34.52 41.93 35.46 42.20 36.19 42.49C36.92 42.78 37.50 43.06 37.92 43.35C38.35 43.64 38.65 43.91 38.84 44.17C39.03 44.42 39.11 44.65 39.11 44.83C39.10 45.02 39.03 45.16 38.91 45.21C38.77 45.27 38.60 45.26 38.40 45.17C38.14 44.88 37.79 44.54 37.29 44.15C36.80 43.78 36.22 43.41 35.56 43.01C34.88 42.62 34.13 42.28 33.32 41.96M31.43 40.67L31.26 40.67L31.85 40.06L33.04 41.02C32.99 41.08 32.91 41.13 32.79 41.18C32.67 41.23 32.53 41.26 32.38 41.28C32.31 42.28 32.18 43.08 32.01 43.66C31.82 44.26 31.57 44.65 31.28 44.87C31.09 44.99 30.89 45.09 30.63 45.16C30.38 45.24 30.12 45.27 29.85 45.27C29.85 45.14 29.83 45 29.80 44.87C29.76 44.73 29.70 44.63 29.59 44.56C29.51 44.48 29.36 44.41 29.15 44.36C28.95 44.31 28.73 44.27 28.50 44.24L28.50 43.93C28.68 43.95 28.88 43.95 29.10 43.97C29.32 43.98 29.52 44 29.73 44.02C29.93 44.03 30.09 44.03 30.17 44.03C30.29 44.03 30.39 44.02 30.48 44C30.56 43.98 30.63 43.97 30.70 43.91C30.85 43.80 30.99 43.46 31.12 42.90C31.26 42.35 31.36 41.60 31.43 40.67M31.53 36.54L31.39 36.54L31.92 35.98L33.08 36.86C33.03 36.91 32.96 36.98 32.86 37.01C32.76 37.06 32.64 37.10 32.52 37.12L32.52 39.46C32.52 39.48 32.47 39.51 32.36 39.56C32.26 39.61 32.14 39.65 32.02 39.68C31.91 39.72 31.79 39.73 31.68 39.73L31.53 39.73L31.53 36.54M36.02 36.62L35.87 36.62L36.44 36.04L37.58 37.03C37.53 37.10 37.45 37.15 37.34 37.17C37.23 37.20 37.11 37.23 36.97 37.25L36.97 38.70C36.97 38.78 36.99 38.83 37.02 38.87C37.04 38.90 37.11 38.92 37.19 38.92L37.67 38.92C37.75 38.92 37.84 38.92 37.92 38.90C38.01 38.90 38.06 38.90 38.11 38.90C38.13 38.90 38.16 38.90 38.21 38.90C38.25 38.90 38.28 38.90 38.30 38.90C38.38 38.88 38.47 38.87 38.55 38.83L38.70 38.83L38.76 38.87C38.91 38.92 39.01 38.95 39.08 39C39.15 39.05 39.18 39.14 39.18 39.26C39.18 39.44 39.08 39.58 38.88 39.66C38.65 39.77 38.23 39.82 37.58 39.82L36.92 39.82C36.66 39.82 36.48 39.78 36.34 39.73C36.21 39.68 36.12 39.60 36.09 39.48C36.04 39.36 36.02 39.19 36.02 39L36.02 36.62M36.72 40.38L36.55 40.38L37.26 39.70L38.47 40.77C38.35 40.91 38.13 40.97 37.79 40.97C37.31 42.03 36.60 42.93 35.66 43.66C34.73 44.39 33.50 44.95 32.02 45.33L31.91 45.05C33.18 44.58 34.22 43.95 35.02 43.15C35.81 42.35 36.39 41.43 36.72 40.38M33.21 40.38L37.46 40.38L37.46 40.89L33.37 40.89L33.21 40.38M33.69 36.62L33.69 36.45L33.69 36.08L34.86 36.62L34.68 36.62L34.68 37.45C34.68 37.69 34.66 37.95 34.63 38.20C34.57 38.46 34.49 38.73 34.37 39C34.23 39.27 34.03 39.53 33.77 39.77C33.52 40.02 33.16 40.24 32.72 40.45L32.55 40.19C32.91 39.90 33.16 39.61 33.32 39.31C33.47 39 33.57 38.70 33.62 38.39C33.67 38.08 33.69 37.78 33.69 37.47L33.69 36.62M28.71 40.67L31.94 40.67L31.94 41.16L28.71 41.16L28.71 40.67M29 38.70L32.02 38.70L32.02 39.19L29 39.19L29 38.70M34.12 36.62L36.66 36.62L36.66 37.12L34.12 37.12L34.12 36.62M37.99 33.65L39.27 34.43C39.22 34.51 39.13 34.56 39.06 34.58C38.98 34.62 38.84 34.60 38.65 34.55C38.40 34.70 38.09 34.89 37.72 35.08C37.34 35.26 36.97 35.43 36.60 35.55L36.39 35.33C36.68 35.11 36.97 34.82 37.28 34.48C37.58 34.16 37.82 33.87 37.99 33.65M36.55 32.44L37.80 33.20C37.74 33.29 37.65 33.34 37.58 33.36C37.50 33.38 37.36 33.38 37.17 33.32C36.92 33.48 36.61 33.65 36.24 33.83C35.87 34.04 35.49 34.21 35.14 34.34L34.91 34.12C35.20 33.88 35.51 33.60 35.83 33.27C36.14 32.95 36.38 32.66 36.55 32.44M33.61 32.42L33.91 32.25C34.27 32.97 34.74 33.60 35.37 34.16C35.98 34.72 36.70 35.18 37.52 35.57C38.33 35.96 39.20 36.27 40.10 36.49L40.08 36.69C39.66 36.74 39.39 37.01 39.25 37.47C37.94 37.01 36.80 36.37 35.81 35.52C34.83 34.68 34.10 33.65 33.61 32.42M28 34.21L28.15 34.05C28.69 34.11 29.12 34.23 29.41 34.38C29.70 34.53 29.90 34.72 30 34.91C30.10 35.09 30.14 35.28 30.10 35.43C30.05 35.59 29.97 35.70 29.83 35.75C29.70 35.82 29.52 35.81 29.34 35.69C29.25 35.43 29.07 35.16 28.81 34.87C28.54 34.58 28.27 34.36 28 34.21M31.99 33.09L31.82 33.09L32.52 32.44L33.69 33.46C33.62 33.55 33.54 33.60 33.44 33.61C33.32 33.65 33.16 33.66 32.98 33.66C32.47 34.46 31.77 35.19 30.87 35.86C29.97 36.52 28.91 37.03 27.71 37.40L27.54 37.12C28.20 36.83 28.83 36.47 29.42 36.04C30 35.62 30.51 35.16 30.95 34.65C31.39 34.16 31.73 33.63 31.99 33.09M28.93 36.54L32.01 36.54L32.01 37.03L29.08 37.03L28.93 36.54M28.23 33.09L32.47 33.09L32.47 33.60L28.39 33.60L28.23 33.09M31.68 29.74L31.85 29.60C32.38 29.65 32.82 29.75 33.15 29.91C33.47 30.06 33.71 30.21 33.86 30.38C34.01 30.57 34.10 30.74 34.12 30.91C34.13 31.08 34.10 31.23 34.01 31.35C33.93 31.47 33.81 31.56 33.66 31.59C33.50 31.62 33.33 31.59 33.15 31.49C33.03 31.20 32.82 30.88 32.53 30.55C32.25 30.23 31.97 29.96 31.68 29.74M26.28 31.56L26.28 31.39L26.28 31.01L27.52 31.56L27.32 31.56L27.32 36.15C27.32 36.86 27.30 37.61 27.26 38.41C27.21 39.21 27.13 40.02 26.98 40.82C26.82 41.64 26.58 42.44 26.26 43.20C25.94 43.97 25.48 44.68 24.92 45.33L24.65 45.16C25.16 44.27 25.53 43.34 25.75 42.33C25.97 41.33 26.13 40.31 26.19 39.26C26.24 38.22 26.28 37.18 26.28 36.15L26.28 31.56M37.94 31.56L38.76 30.50C38.76 30.50 38.81 30.55 38.91 30.62C39.01 30.71 39.15 30.82 39.30 30.94C39.45 31.08 39.62 31.22 39.81 31.37C39.98 31.52 40.13 31.66 40.29 31.79C40.23 31.98 40.08 32.07 39.83 32.07L26.92 32.07L26.92 31.56L37.94 31.56M48.77 38.98L50.32 39.17C50.30 39.29 50.25 39.38 50.16 39.46C50.06 39.55 49.91 39.60 49.69 39.63L49.69 40.28L48.77 40.28L48.77 39.27L48.77 38.98M48.77 39.68L49.48 39.68L49.69 39.80L49.69 42.30L49.81 42.30L49.41 42.88L48.29 42.08C48.38 42.01 48.51 41.93 48.67 41.82C48.82 41.74 48.94 41.67 49.06 41.62L48.77 42.15L48.77 39.68M55.31 39.07L56.71 39.24C56.69 39.33 56.66 39.39 56.59 39.46C56.50 39.53 56.39 39.58 56.23 39.61L56.23 42.81C56.23 42.84 56.20 42.88 56.13 42.93C56.06 42.98 55.98 43.03 55.86 43.06C55.74 43.12 55.62 43.13 55.50 43.13L55.31 43.13L55.31 39.07M53.66 41.79L55.88 41.79L55.88 42.28L53.66 42.28L53.66 41.79M49.19 41.81L51.39 41.81L51.39 42.30L49.19 42.30L49.19 41.81M53.84 35.33L54.36 34.56C54.36 34.56 54.43 34.62 54.57 34.70C54.69 34.79 54.84 34.91 55.04 35.02C55.23 35.16 55.38 35.28 55.54 35.40C55.52 35.48 55.48 35.55 55.42 35.60C55.33 35.65 55.25 35.69 55.14 35.70L48.85 36.28L48.67 35.81L53.84 35.33M51.06 33.97L52.54 34.14C52.51 34.34 52.34 34.48 52.05 34.53L52.05 36.71C52.05 36.81 52.08 36.88 52.15 36.91C52.20 36.96 52.36 36.98 52.61 36.98L54.01 36.98C54.28 36.98 54.53 36.98 54.77 36.98C55.01 36.98 55.18 36.98 55.26 36.96C55.31 36.96 55.38 36.96 55.43 36.95C55.48 36.95 55.54 36.95 55.55 36.95C55.62 36.95 55.69 36.95 55.74 36.91C55.79 36.89 55.86 36.89 55.91 36.88L56.06 36.88L56.11 36.89C56.30 36.95 56.42 36.98 56.50 37.03C56.57 37.08 56.61 37.17 56.61 37.27C56.61 37.42 56.54 37.52 56.40 37.61C56.27 37.69 56.01 37.76 55.62 37.78C55.23 37.81 54.67 37.83 53.90 37.83L52.41 37.83C52.02 37.83 51.73 37.80 51.54 37.74C51.35 37.69 51.22 37.61 51.17 37.45C51.10 37.32 51.06 37.13 51.06 36.89L51.06 33.97M53.10 38.39L54.63 38.56C54.62 38.68 54.58 38.76 54.50 38.83C54.41 38.92 54.26 38.97 54.07 38.98L54.07 44.42L53.10 44.42L53.10 38.39M50.86 38.42L52.37 38.58C52.36 38.70 52.32 38.78 52.24 38.85C52.15 38.93 52.02 38.98 51.81 39.02L51.81 44.48L50.86 44.48L50.86 38.42M55.42 44.12L56.16 43.15C56.16 43.15 56.22 43.18 56.32 43.25C56.40 43.34 56.52 43.42 56.67 43.54C56.81 43.66 56.96 43.80 57.12 43.93C57.27 44.09 57.41 44.22 57.54 44.36C57.49 44.54 57.34 44.63 57.08 44.63L47.27 44.63L47.14 44.12L55.42 44.12M55.79 33.29L55.60 33.29L56.27 32.61L57.47 33.80C57.37 33.88 57.17 33.94 56.84 33.97C56.69 34.14 56.49 34.34 56.23 34.58C55.98 34.82 55.74 35.01 55.55 35.16L55.31 35.04C55.37 34.89 55.42 34.72 55.48 34.50C55.54 34.28 55.60 34.05 55.67 33.83C55.72 33.61 55.77 33.44 55.79 33.29M48.05 33.29L56.30 33.29L56.30 33.80L48.05 33.80L48.05 33.29M47.36 33.29L47.36 33.12L47.36 32.66L48.58 33.29L48.38 33.29L48.38 37.18C48.38 37.86 48.34 38.56 48.28 39.29C48.19 40.02 48.04 40.74 47.82 41.45C47.58 42.18 47.22 42.86 46.75 43.52C46.27 44.19 45.62 44.80 44.83 45.34L44.60 45.16C45.40 44.41 46 43.61 46.39 42.74C46.78 41.88 47.03 40.97 47.17 40.04C47.29 39.10 47.36 38.15 47.36 37.20L47.36 33.29M51.20 29.74L52.87 29.92C52.85 30.04 52.80 30.13 52.71 30.20C52.61 30.28 52.46 30.33 52.25 30.37L52.25 33.53L51.20 33.53L51.20 29.74M54.92 31.57L55.62 30.64C55.62 30.64 55.69 30.71 55.86 30.82C56.01 30.94 56.18 31.10 56.39 31.27C56.59 31.45 56.78 31.62 56.93 31.79C56.90 31.98 56.76 32.07 56.50 32.07L51.85 32.07L51.85 31.57L54.92 31.57M42.45 42.69L41.66 41.28C41.97 41.20 42.39 41.09 42.92 40.94C43.45 40.79 44.04 40.62 44.72 40.41C45.39 40.23 46.08 40.01 46.78 39.78L46.85 40.02C46.39 40.28 45.83 40.60 45.16 40.99C44.50 41.38 43.70 41.81 42.80 42.27C42.75 42.47 42.63 42.61 42.45 42.69M43.58 30.23L45.27 30.42C45.25 30.54 45.18 30.62 45.10 30.71C45.01 30.79 44.86 30.84 44.64 30.86L44.64 40.94L43.58 41.26L43.58 30.23M45.06 34.65L45.74 33.72C45.74 33.72 45.81 33.78 45.96 33.90C46.12 34.04 46.29 34.19 46.49 34.36C46.70 34.55 46.87 34.72 47.02 34.89C46.97 35.08 46.83 35.16 46.59 35.16L41.83 35.16L41.70 34.65" fill="#302A25"/><path d="M441.72 43.26L441.72 39.18L442.51 39.26C442.50 39.31 442.48 39.35 442.44 39.38C442.40 39.42 442.34 39.45 442.25 39.46L442.25 43.26L441.72 43.26M446.40 41.26L446.40 37.99L446.31 37.99L446.62 37.66L447.31 38.18C447.28 38.22 447.23 38.25 447.17 38.28C447.10 38.32 447.02 38.34 446.94 38.36L446.94 41.08C446.94 41.10 446.91 41.12 446.86 41.14C446.80 41.18 446.74 41.20 446.67 41.22C446.60 41.25 446.54 41.26 446.48 41.26L446.40 41.26M441.72 43.45L441.72 43.07L442.25 43.07L442.25 43.46C442.25 43.63 442.32 43.74 442.47 43.78C442.62 43.84 442.82 43.86 443.10 43.86L446.23 43.86C446.54 43.86 446.75 43.85 446.89 43.81C447.02 43.78 447.12 43.70 447.18 43.58C447.22 43.50 447.26 43.38 447.30 43.22C447.34 43.07 447.39 42.90 447.43 42.70C447.47 42.52 447.51 42.34 447.54 42.18L447.63 42.18L447.64 43.68C447.78 43.72 447.87 43.75 447.93 43.78C447.98 43.81 448.01 43.86 448.01 43.91C448.01 43.98 447.98 44.03 447.93 44.09C447.87 44.14 447.78 44.19 447.66 44.23C447.53 44.27 447.35 44.30 447.13 44.33C446.90 44.35 446.62 44.36 446.27 44.36L443.14 44.36C442.67 44.36 442.32 44.30 442.08 44.17C441.84 44.04 441.72 43.80 441.72 43.45M441.31 38.23L441.24 37.99L446.58 37.99L446.58 38.23L441.31 38.23M442.03 40.62L442.03 40.38L446.62 40.38L446.62 40.62L442.03 40.62M451.94 38.10L451.94 37.87L455.48 37.87L455.48 38.10L451.94 38.10M451.87 39.66L451.87 39.43L455.46 39.43L455.46 39.66L451.87 39.66M451.90 41.23L451.90 41L455.47 41L455.47 41.23L451.90 41.23M455.21 41.55L455.21 37.87L455.13 37.87L455.42 37.54L456.07 38.04C456.05 38.07 456 38.10 455.94 38.14C455.88 38.17 455.81 38.19 455.73 38.21L455.73 41.38C455.73 41.39 455.70 41.42 455.66 41.44C455.60 41.47 455.54 41.50 455.48 41.52C455.41 41.54 455.34 41.55 455.28 41.55L455.21 41.55M451.63 41.74L451.63 37.87L451.63 37.61L452.24 37.87L452.14 37.87L452.14 41.58C452.14 41.59 452.10 41.62 452.03 41.67C451.95 41.72 451.85 41.74 451.71 41.74L451.63 41.74M451.36 42.72L451.30 42.50L455.04 42.50L455.41 42.02C455.41 42.02 455.43 42.03 455.48 42.07C455.53 42.11 455.59 42.16 455.66 42.22C455.74 42.27 455.81 42.34 455.89 42.40C455.96 42.47 456.03 42.54 456.10 42.60C456.08 42.68 456.01 42.72 455.89 42.72L451.36 42.72M450.83 44.32L450.77 44.09L455.17 44.09L455.57 43.58C455.57 43.58 455.59 43.60 455.64 43.64C455.69 43.68 455.75 43.74 455.83 43.79C455.90 43.86 455.98 43.92 456.06 43.99C456.14 44.06 456.22 44.13 456.29 44.19C456.26 44.28 456.20 44.32 456.08 44.32L450.83 44.32M453.42 44.23L453.42 37.87L453.94 37.87L453.94 44.23L453.42 44.23M448.91 39.79L448.85 39.55L450.57 39.55L450.91 39.09C450.91 39.09 450.94 39.10 450.98 39.14C451.02 39.18 451.07 39.23 451.14 39.29C451.19 39.34 451.26 39.41 451.34 39.47C451.41 39.54 451.46 39.60 451.52 39.66C451.51 39.70 451.50 39.74 451.46 39.76C451.42 39.78 451.38 39.79 451.32 39.79L448.91 39.79M449.85 42.61L449.85 37.44L450.66 37.53C450.65 37.58 450.62 37.62 450.58 37.66C450.54 37.70 450.46 37.74 450.37 37.74L450.37 42.45L449.85 42.61M449.07 43.40L448.76 42.71C448.91 42.67 449.14 42.60 449.42 42.50C449.70 42.41 450.03 42.29 450.39 42.15C450.75 42.02 451.13 41.88 451.50 41.74L451.55 41.85C451.28 42.01 450.95 42.21 450.57 42.43C450.18 42.66 449.74 42.92 449.23 43.20C449.21 43.30 449.16 43.37 449.07 43.40M461.81 37.29L462.58 37.37C462.58 37.42 462.56 37.46 462.52 37.49C462.48 37.52 462.42 37.54 462.33 37.55L462.33 38.75C462.33 38.78 462.31 38.79 462.27 38.82C462.23 38.84 462.18 38.86 462.11 38.89C462.04 38.91 461.98 38.92 461.90 38.92L461.81 38.92L461.81 37.29M458.43 37.30L459.22 37.38C459.21 37.44 459.18 37.48 459.14 37.50C459.10 37.54 459.05 37.56 458.96 37.57L458.96 38.74C458.96 38.76 458.94 38.78 458.90 38.81C458.86 38.83 458.80 38.86 458.74 38.88C458.67 38.90 458.61 38.91 458.54 38.91L458.43 38.91L458.43 37.30M460.93 39.17L461.42 39.17C461.42 39.22 461.42 39.26 461.42 39.30C461.42 39.34 461.42 39.38 461.42 39.41L461.42 41.06C461.42 41.11 461.43 41.14 461.47 41.17C461.50 41.19 461.59 41.20 461.73 41.20L462.50 41.20C462.66 41.20 462.81 41.20 462.94 41.19C463.07 41.19 463.16 41.19 463.22 41.18C463.29 41.18 463.34 41.15 463.37 41.11C463.39 41.07 463.42 40.98 463.46 40.86C463.50 40.74 463.54 40.60 463.58 40.46L463.67 40.46L463.70 41.13C463.78 41.15 463.85 41.18 463.88 41.21C463.90 41.24 463.92 41.28 463.92 41.34C463.92 41.41 463.89 41.46 463.82 41.51C463.74 41.56 463.60 41.59 463.40 41.61C463.19 41.62 462.88 41.63 462.47 41.63L461.65 41.63C461.45 41.63 461.30 41.62 461.19 41.59C461.09 41.57 461.02 41.52 460.98 41.45C460.94 41.38 460.93 41.28 460.93 41.16L460.93 39.17M462.49 40.16L462.84 39.73C462.84 39.73 462.88 39.76 462.95 39.82C463.02 39.87 463.11 39.94 463.22 40.02C463.32 40.11 463.41 40.19 463.50 40.27C463.47 40.36 463.41 40.40 463.29 40.40L461.13 40.40L461.13 40.16L462.49 40.16M463.24 37.99L463.58 37.56C463.58 37.56 463.62 37.59 463.69 37.65C463.76 37.70 463.84 37.78 463.94 37.86C464.03 37.94 464.12 38.02 464.19 38.10C464.18 38.19 464.11 38.23 464 38.23L460.74 38.23L460.68 37.99L463.24 37.99M459.57 37.99L459.90 37.56C459.90 37.56 459.94 37.59 460.02 37.65C460.09 37.70 460.17 37.78 460.27 37.86C460.37 37.94 460.46 38.02 460.53 38.10C460.50 38.19 460.44 38.23 460.32 38.23L456.89 38.23L456.82 37.99L459.57 37.99M458.06 40.42L458.14 40.34C458.41 40.38 458.62 40.44 458.76 40.52C458.90 40.60 459 40.68 459.06 40.77C459.11 40.86 459.13 40.94 459.11 41.02C459.10 41.09 459.06 41.14 458.99 41.16C458.93 41.18 458.85 41.18 458.76 41.13C458.70 41.01 458.62 40.88 458.48 40.74C458.34 40.61 458.20 40.50 458.06 40.42M460.02 39.85L459.97 39.85L460.25 39.57L460.80 40.05C460.74 40.10 460.63 40.13 460.46 40.14C460.23 40.51 459.97 40.83 459.66 41.09C459.35 41.34 458.98 41.55 458.56 41.72C458.14 41.89 457.63 42.02 457.05 42.12L456.98 41.97C457.48 41.84 457.92 41.69 458.30 41.51C458.69 41.34 459.02 41.11 459.30 40.85C459.58 40.58 459.82 40.25 460.02 39.85M458.96 39.08L459.63 39.08C459.46 39.37 459.23 39.63 458.97 39.88C458.70 40.13 458.40 40.34 458.09 40.53C457.77 40.71 457.44 40.87 457.10 41L457.02 40.88C457.30 40.74 457.56 40.57 457.82 40.38C458.06 40.18 458.30 39.98 458.50 39.75C458.70 39.53 458.86 39.30 458.96 39.08M458.70 39.85L460.18 39.85L460.18 40.09L458.42 40.09L458.70 39.85M459.06 41.74L459.83 41.82C459.82 41.87 459.81 41.91 459.77 41.94C459.73 41.98 459.66 42.01 459.57 42.02L459.57 42.54C459.56 42.74 459.53 42.93 459.47 43.13C459.41 43.33 459.30 43.53 459.14 43.71C458.98 43.90 458.74 44.07 458.45 44.23C458.15 44.39 457.76 44.53 457.28 44.64L457.22 44.53C457.72 44.36 458.11 44.17 458.38 43.95C458.64 43.74 458.82 43.50 458.91 43.25C459.01 43 459.06 42.76 459.06 42.52L459.06 41.74M461.61 41.78L462.35 41.86C462.34 41.90 462.33 41.94 462.30 41.97C462.26 42 462.20 42.02 462.12 42.04L462.12 44.44C462.12 44.46 462.10 44.49 462.06 44.51C462.02 44.54 461.97 44.56 461.90 44.58C461.84 44.61 461.78 44.62 461.70 44.62L461.61 44.62L461.61 41.78M462.72 39.08L463.08 38.67C463.08 38.67 463.12 38.70 463.19 38.75C463.26 38.81 463.35 38.88 463.46 38.95C463.56 39.03 463.66 39.11 463.74 39.18C463.73 39.27 463.66 39.31 463.53 39.31L457.22 39.31L457.15 39.08L462.72 39.08M463.04 42.60L463.40 42.17C463.40 42.17 463.42 42.18 463.47 42.22C463.51 42.26 463.58 42.30 463.65 42.35C463.72 42.41 463.79 42.46 463.87 42.52C463.94 42.58 464.02 42.65 464.09 42.70C464.06 42.79 463.99 42.83 463.87 42.83L457.14 42.83L457.06 42.60L463.04 42.60M468.77 44.12C468.46 44.12 468.15 44.02 467.87 43.81C467.59 43.60 467.36 43.27 467.18 42.82C467.01 42.38 466.92 41.80 466.92 41.07C466.92 40.36 467.01 39.78 467.18 39.34C467.36 38.90 467.59 38.57 467.87 38.36C468.15 38.16 468.46 38.06 468.77 38.06C469.10 38.06 469.40 38.16 469.68 38.36C469.96 38.57 470.18 38.90 470.36 39.34C470.53 39.78 470.62 40.36 470.62 41.07C470.62 41.80 470.53 42.38 470.36 42.82C470.18 43.27 469.96 43.60 469.68 43.81C469.40 44.02 469.10 44.12 468.77 44.12M468.77 43.87C468.92 43.87 469.06 43.82 469.21 43.73C469.34 43.64 469.47 43.49 469.58 43.27C469.70 43.06 469.78 42.77 469.86 42.41C469.92 42.05 469.95 41.61 469.95 41.07C469.95 40.55 469.92 40.11 469.86 39.75C469.78 39.40 469.70 39.12 469.58 38.90C469.47 38.70 469.34 38.54 469.21 38.45C469.06 38.36 468.92 38.31 468.77 38.31C468.62 38.31 468.47 38.36 468.34 38.45C468.19 38.54 468.06 38.70 467.95 38.90C467.84 39.12 467.75 39.40 467.69 39.75C467.62 40.11 467.58 40.55 467.58 41.07C467.58 41.61 467.62 42.06 467.69 42.41C467.75 42.77 467.84 43.06 467.95 43.27C468.06 43.49 468.19 43.64 468.34 43.73C468.47 43.82 468.62 43.87 468.77 43.87" fill="#6B5B4B"/><line x1="24" y1="58" x2="471" y2="58" stroke="#CDBDA8" stroke-width="1"/><line x1="24" y1="158" x2="471" y2="158" stroke="#302A25" stroke-width="1.5"/><path d="M27.71 115.43L27.94 115.30C28.39 116.03 28.91 116.56 29.52 116.91C30.12 117.27 30.87 117.49 31.75 117.61C32.62 117.73 33.66 117.78 34.86 117.78C35.19 117.78 35.61 117.78 36.10 117.78C36.60 117.78 37.12 117.78 37.69 117.78C38.25 117.78 38.77 117.78 39.28 117.76C39.78 117.76 40.20 117.76 40.54 117.75L40.54 117.97C40.32 118.02 40.13 118.12 40.01 118.29C39.90 118.46 39.83 118.66 39.81 118.92C39.54 118.92 39.18 118.92 38.76 118.92C38.31 118.92 37.86 118.92 37.36 118.92C36.87 118.92 36.39 118.92 35.95 118.92C35.49 118.92 35.12 118.92 34.83 118.92C33.55 118.92 32.48 118.83 31.60 118.65C30.70 118.46 29.95 118.12 29.34 117.61C28.71 117.12 28.16 116.39 27.71 115.43M28.32 108.04L29.19 108.55C29.03 108.77 28.84 109.06 28.61 109.38C28.35 109.72 28.10 110.08 27.82 110.44C27.55 110.81 27.28 111.17 27.03 111.51C26.75 111.85 26.52 112.14 26.31 112.39L26.46 112.39L25.97 112.76L25.05 111.90C25.17 111.83 25.33 111.76 25.51 111.69C25.70 111.64 25.85 111.61 25.99 111.59L25.43 112.03C25.62 111.78 25.85 111.49 26.13 111.15C26.40 110.81 26.67 110.45 26.96 110.06C27.23 109.69 27.48 109.31 27.72 108.96C27.96 108.60 28.16 108.29 28.32 108.04M28.32 108.06L28.11 108.06L28.74 107.41L30.05 108.56C29.97 108.65 29.85 108.70 29.68 108.73C29.51 108.79 29.32 108.80 29.12 108.80C28.91 108.82 28.71 108.80 28.49 108.79L28.32 108.06M28.56 111.98L28.39 111.98L29.08 111.28L30.29 112.37C30.19 112.49 29.97 112.56 29.61 112.58C29.37 113.43 29.05 114.26 28.62 115.09C28.20 115.93 27.66 116.71 27.03 117.44C26.40 118.17 25.62 118.80 24.71 119.36L24.53 119.12C25.26 118.54 25.90 117.86 26.43 117.08C26.96 116.30 27.40 115.47 27.76 114.58C28.11 113.72 28.37 112.85 28.56 111.98M24.85 108.06L28.57 108.06L28.57 108.56L25 108.56L24.85 108.06M26.19 111.98L29.29 111.98L29.29 112.47L25.99 112.47L26.19 111.98M25.79 103.87L25.95 103.72C26.57 103.91 27.06 104.13 27.45 104.38C27.84 104.64 28.13 104.89 28.32 105.15C28.50 105.40 28.62 105.64 28.68 105.86C28.73 106.08 28.71 106.27 28.64 106.42C28.56 106.58 28.45 106.66 28.30 106.69C28.15 106.75 27.96 106.69 27.77 106.58C27.69 106.27 27.54 105.95 27.33 105.61C27.11 105.28 26.86 104.96 26.58 104.66C26.30 104.35 26.04 104.09 25.79 103.87M33.16 103.70L33.35 103.58C33.88 103.74 34.28 103.92 34.61 104.14C34.91 104.37 35.14 104.59 35.27 104.81C35.41 105.03 35.48 105.25 35.48 105.45C35.48 105.66 35.42 105.83 35.34 105.95C35.24 106.08 35.12 106.15 34.97 106.17C34.81 106.19 34.64 106.13 34.45 106C34.40 105.61 34.25 105.20 34 104.77C33.72 104.35 33.45 103.99 33.16 103.70M32.36 112.93L32.36 116.66C32.36 116.69 32.31 116.74 32.23 116.79C32.14 116.84 32.02 116.89 31.89 116.95C31.75 117 31.60 117.01 31.45 117.01L31.28 117.01L31.28 112.44L31.28 111.91L32.45 112.44L38.11 112.44L38.11 112.93L32.36 112.93M31.72 115.59L38.04 115.59L38.04 116.10L31.72 116.10L31.72 115.59M37.33 112.44L37.16 112.44L37.79 111.76L39.16 112.81C39.11 112.88 39.01 112.95 38.88 113C38.74 113.05 38.59 113.10 38.43 113.14L38.43 116.66C38.43 116.67 38.38 116.72 38.28 116.78C38.16 116.83 38.04 116.88 37.91 116.93C37.75 116.98 37.62 117 37.50 117L37.33 117L37.33 112.44M37.86 106.44L38.64 105.47C38.64 105.47 38.69 105.50 38.79 105.59C38.88 105.67 38.99 105.76 39.16 105.88C39.32 106 39.47 106.13 39.64 106.27C39.81 106.41 39.96 106.54 40.08 106.68C40.05 106.86 39.91 106.95 39.66 106.95L30.14 106.95L30 106.44L37.86 106.44M36.82 108.38L37.53 107.48C37.53 107.48 37.62 107.53 37.77 107.65C37.92 107.77 38.11 107.92 38.33 108.09C38.55 108.28 38.74 108.45 38.91 108.60C38.86 108.79 38.72 108.87 38.47 108.87L31.34 108.87L31.21 108.38L36.82 108.38M36.84 110.44L37.57 109.53C37.57 109.53 37.65 109.60 37.80 109.72C37.96 109.84 38.14 109.99 38.37 110.16C38.57 110.33 38.76 110.50 38.93 110.67C38.88 110.86 38.74 110.94 38.50 110.94L31.36 110.94L31.23 110.44L36.84 110.44M49.33 105.61L49.33 112.75C49.33 112.78 49.28 112.83 49.21 112.88C49.13 112.95 49.01 113 48.89 113.05C48.77 113.10 48.62 113.12 48.46 113.12L48.29 113.12L48.29 105.10L48.29 104.57L49.41 105.10L55.52 105.10L55.52 105.61L49.33 105.61M51.47 105.32L52.51 105.32L52.51 118.48L51.47 118.48L51.47 105.32M55.01 118.07L55.79 117.03C55.79 117.03 55.84 117.06 55.94 117.15C56.05 117.23 56.18 117.34 56.33 117.46C56.49 117.59 56.64 117.73 56.83 117.86C57 118.02 57.15 118.15 57.27 118.29C57.25 118.37 57.22 118.44 57.13 118.49C57.05 118.54 56.95 118.56 56.83 118.56L47.27 118.56L47.14 118.07L55.01 118.07M54.23 114.65L55.04 113.65C55.04 113.65 55.09 113.68 55.20 113.77C55.28 113.85 55.42 113.95 55.57 114.06C55.72 114.17 55.88 114.31 56.05 114.46C56.20 114.62 56.35 114.75 56.49 114.89C56.45 115.08 56.30 115.16 56.05 115.16L48.26 115.16L48.12 114.65L54.23 114.65M54.72 105.10L54.55 105.10L55.16 104.43L56.50 105.47C56.45 105.54 56.35 105.61 56.22 105.66C56.08 105.71 55.93 105.76 55.76 105.79L55.76 112.49C55.76 112.53 55.70 112.58 55.62 112.63C55.52 112.68 55.40 112.73 55.26 112.78C55.13 112.83 54.99 112.87 54.87 112.87L54.72 112.87L54.72 105.10M48.65 111.32L55.33 111.32L55.33 111.81L48.65 111.81L48.65 111.32M48.67 108.21L55.42 108.21L55.42 108.72L48.67 108.72L48.67 108.21M47.03 109.74L48.19 110.55C48.14 110.64 48.07 110.69 47.95 110.71C47.83 110.74 47.70 110.74 47.55 110.69C47.31 110.96 47.03 111.23 46.75 111.49C46.46 111.74 46.15 111.97 45.86 112.15L45.62 111.93C45.84 111.68 46.08 111.35 46.34 110.96C46.59 110.57 46.81 110.16 47.03 109.74M43.28 103.96L43.47 103.84C44.03 103.99 44.48 104.18 44.83 104.40C45.16 104.62 45.42 104.86 45.59 105.10C45.74 105.33 45.83 105.56 45.84 105.76C45.86 105.96 45.83 106.13 45.74 106.27C45.66 106.41 45.52 106.49 45.37 106.51C45.22 106.54 45.03 106.49 44.84 106.36C44.77 106.08 44.66 105.79 44.50 105.50C44.33 105.22 44.15 104.93 43.92 104.66C43.70 104.38 43.50 104.14 43.28 103.96M45.27 110.81L45.27 118.88C45.27 118.92 45.23 118.97 45.15 119.02C45.06 119.07 44.96 119.14 44.84 119.19C44.71 119.24 44.55 119.28 44.38 119.28L44.20 119.28L44.20 111.76L45.27 110.81M44.98 111.66L45.15 111.52C45.74 111.69 46.24 111.88 46.61 112.10C46.97 112.32 47.26 112.56 47.44 112.78C47.63 113.02 47.75 113.24 47.80 113.43C47.85 113.63 47.83 113.80 47.77 113.92C47.68 114.06 47.58 114.14 47.44 114.16C47.29 114.19 47.14 114.16 46.95 114.04C46.85 113.78 46.70 113.50 46.47 113.21C46.25 112.92 46 112.64 45.74 112.36C45.47 112.08 45.22 111.85 44.98 111.66M46.15 107.31L45.93 107.31L46.66 106.63L47.90 107.80C47.82 107.87 47.73 107.90 47.61 107.92C47.49 107.94 47.32 107.95 47.14 107.97C46.81 108.73 46.37 109.50 45.81 110.28C45.25 111.08 44.62 111.83 43.94 112.54C43.24 113.26 42.53 113.89 41.80 114.41L41.58 114.23C42.05 113.78 42.53 113.27 42.99 112.71C43.45 112.15 43.89 111.56 44.31 110.93C44.72 110.30 45.08 109.69 45.40 109.06C45.73 108.43 45.96 107.85 46.15 107.31M41.82 107.31L46.85 107.31L46.85 107.80L41.97 107.80L41.82 107.31M61.35 119.31L61.35 105.08L61.35 104.50L62.59 105.08L71.50 105.08L71.50 105.57L62.49 105.57L62.49 118.85C62.49 118.90 62.45 118.97 62.37 119.04C62.28 119.11 62.18 119.17 62.05 119.22C61.91 119.28 61.76 119.31 61.57 119.31L61.35 119.31M70.63 119.24L70.63 105.08L70.44 105.08L71.11 104.30L72.59 105.47C72.52 105.56 72.42 105.62 72.28 105.69C72.14 105.76 71.97 105.81 71.79 105.84L71.79 118.80C71.77 118.83 71.72 118.88 71.62 118.95C71.50 119.04 71.36 119.11 71.23 119.16C71.07 119.21 70.92 119.24 70.78 119.24L70.63 119.24M61.91 109.62L61.91 109.13L71.29 109.13L71.29 109.62L61.91 109.62M61.91 113.73L61.91 113.24L71.29 113.24L71.29 113.73L61.91 113.73M61.91 117.92L61.91 117.42L71.29 117.42L71.29 117.92L61.91 117.92M77.84 109.13L82.12 109.13L82.12 109.62L77.84 109.62L77.84 109.13M77.26 109.13L77.26 108.96L77.26 108.55L78.54 109.13L78.33 109.13L78.33 113.12C78.33 113.65 78.31 114.19 78.26 114.75C78.21 115.31 78.13 115.88 77.97 116.42C77.82 116.98 77.58 117.51 77.26 118C76.94 118.49 76.50 118.95 75.94 119.36L75.71 119.16C76.19 118.61 76.53 118.02 76.75 117.35C76.97 116.71 77.11 116.03 77.18 115.31C77.23 114.60 77.26 113.87 77.26 113.14L77.26 109.13M77.75 114.36L82.19 114.36L82.19 114.87L77.75 114.87L77.75 114.36M77.75 111.69L82.19 111.69L82.19 112.20L77.75 112.20L77.75 111.69M79.13 103.94L79.32 103.81C79.91 103.97 80.41 104.18 80.76 104.42C81.12 104.66 81.39 104.89 81.56 105.15C81.73 105.40 81.83 105.64 81.85 105.86C81.87 106.08 81.82 106.27 81.73 106.42C81.65 106.58 81.51 106.66 81.34 106.68C81.17 106.71 80.98 106.66 80.78 106.54C80.73 106.24 80.63 105.91 80.46 105.59C80.29 105.27 80.08 104.96 79.84 104.67C79.61 104.38 79.37 104.13 79.13 103.94M86.37 103.77L88.17 104.30C88.14 104.38 88.07 104.45 87.97 104.50C87.85 104.57 87.70 104.60 87.51 104.60C87.31 104.88 87.05 105.16 86.76 105.49C86.47 105.81 86.17 106.12 85.85 106.42C85.52 106.73 85.20 107.02 84.88 107.27L84.54 107.27C84.76 106.95 84.98 106.58 85.20 106.17C85.42 105.78 85.64 105.35 85.86 104.93C86.07 104.50 86.24 104.13 86.37 103.77M88.60 108.56L90.28 108.75C90.27 108.87 90.20 108.96 90.11 109.04C90.03 109.13 89.88 109.18 89.67 109.19L89.67 117.75C89.67 118.03 89.64 118.29 89.57 118.51C89.48 118.73 89.33 118.92 89.08 119.04C88.82 119.17 88.45 119.28 87.92 119.33C87.90 119.17 87.85 119.02 87.80 118.88C87.75 118.77 87.65 118.65 87.53 118.56C87.41 118.48 87.22 118.39 87 118.32C86.76 118.25 86.46 118.20 86.07 118.15L86.07 117.90C86.07 117.90 86.17 117.90 86.36 117.92C86.54 117.93 86.75 117.95 87 117.97C87.26 117.98 87.50 118 87.72 118.02C87.94 118.03 88.11 118.03 88.19 118.03C88.34 118.03 88.46 118 88.52 117.95C88.57 117.90 88.60 117.80 88.60 117.68L88.60 108.56M81.66 109.13L81.49 109.13L82.06 108.43L83.48 109.50C83.43 109.57 83.33 109.64 83.19 109.69C83.06 109.75 82.91 109.81 82.73 109.82L82.73 117.73C82.73 118.02 82.70 118.25 82.63 118.46C82.56 118.68 82.43 118.85 82.21 118.97C81.99 119.11 81.65 119.19 81.19 119.22C81.17 119.07 81.15 118.92 81.12 118.80C81.07 118.68 81 118.56 80.92 118.48C80.83 118.39 80.69 118.32 80.53 118.25C80.34 118.19 80.10 118.14 79.81 118.10L79.81 117.85C79.81 117.85 79.88 117.85 80.02 117.85C80.13 117.86 80.29 117.86 80.47 117.88C80.64 117.90 80.81 117.90 80.98 117.92C81.15 117.93 81.27 117.93 81.34 117.93C81.48 117.93 81.56 117.90 81.61 117.85C81.65 117.80 81.66 117.71 81.66 117.61L81.66 109.13M85.05 109.02L86.73 109.21C86.71 109.33 86.66 109.41 86.58 109.50C86.49 109.58 86.32 109.64 86.10 109.65L86.10 116.25C86.10 116.28 86.07 116.33 85.98 116.37C85.90 116.42 85.78 116.47 85.66 116.52C85.52 116.57 85.39 116.59 85.25 116.59L85.05 116.59L85.05 109.02M88.92 106.93L89.79 105.88C89.79 105.88 89.84 105.91 89.94 106C90.05 106.08 90.18 106.19 90.35 106.30C90.50 106.44 90.67 106.58 90.86 106.73C91.03 106.88 91.18 107.03 91.34 107.17C91.29 107.36 91.15 107.44 90.89 107.44L75.85 107.44L75.70 106.93L88.92 106.93M102.10 119.19L102.10 103.94L103.88 104.14C103.87 104.26 103.81 104.37 103.73 104.45C103.64 104.54 103.49 104.60 103.27 104.62L103.27 118.73C103.27 118.78 103.22 118.85 103.14 118.92C103.03 118.99 102.91 119.05 102.78 119.11C102.64 119.16 102.49 119.19 102.34 119.19L102.10 119.19M97.54 110.01L97.41 109.52L106.08 109.52L106.91 108.46C106.91 108.46 106.96 108.50 107.06 108.58C107.16 108.67 107.30 108.77 107.45 108.91C107.61 109.04 107.76 109.18 107.95 109.33C108.12 109.48 108.27 109.62 108.41 109.74C108.39 109.92 108.23 110.01 107.96 110.01L97.54 110.01M95.09 119.29L95.09 108.80L95.60 108.14L96.76 108.56C96.73 108.65 96.67 108.72 96.59 108.77C96.50 108.82 96.39 108.87 96.23 108.89L96.23 118.90C96.23 118.94 96.18 118.99 96.10 119.04C96 119.11 95.88 119.16 95.74 119.21C95.60 119.26 95.47 119.29 95.31 119.29L95.09 119.29M96.66 103.75L98.48 104.35C98.46 104.45 98.39 104.54 98.29 104.60C98.17 104.67 98.02 104.71 97.81 104.69C97.41 105.74 96.95 106.76 96.44 107.73C95.91 108.70 95.35 109.60 94.75 110.42C94.16 111.25 93.51 111.97 92.85 112.59L92.59 112.44C93.12 111.74 93.63 110.93 94.14 109.99C94.64 109.06 95.11 108.07 95.55 107C95.98 105.93 96.35 104.86 96.66 103.75M122.58 108.91L123.81 109.08C123.79 109.30 123.64 109.41 123.36 109.45L123.36 111.01C123.36 111.17 123.43 111.23 123.55 111.23L123.89 111.23C123.94 111.23 123.99 111.23 124.06 111.23C124.11 111.23 124.15 111.23 124.18 111.23C124.20 111.23 124.23 111.23 124.27 111.22C124.28 111.22 124.30 111.22 124.32 111.22C124.33 111.22 124.37 111.22 124.42 111.20C124.47 111.20 124.50 111.20 124.52 111.18L124.67 111.18L124.72 111.18C124.86 111.23 124.96 111.27 125.03 111.30C125.10 111.34 125.13 111.40 125.13 111.51C125.13 111.66 125.05 111.78 124.86 111.85C124.67 111.93 124.33 111.97 123.81 111.97L123.33 111.97C123.03 111.97 122.82 111.91 122.74 111.80C122.63 111.68 122.58 111.51 122.58 111.25L122.58 108.91M119.30 108.91L120.63 109.04C120.61 109.13 120.58 109.19 120.51 109.28C120.42 109.36 120.31 109.41 120.15 109.43C120.14 109.69 120.08 109.98 120.03 110.32C119.98 110.66 119.86 111 119.68 111.35C119.49 111.71 119.20 112.03 118.81 112.32L118.55 112.07C118.81 111.74 118.98 111.39 119.08 111.01C119.18 110.66 119.25 110.28 119.27 109.92C119.28 109.57 119.30 109.23 119.30 108.91M120.85 106.34L122.41 106.49C122.40 106.61 122.34 106.69 122.26 106.76C122.17 106.85 122.02 106.90 121.82 106.92L121.82 108.17L121.70 108.17L121.70 108.21L121.78 108.21L121.78 112.53C121.77 112.54 121.70 112.59 121.56 112.64C121.41 112.70 121.24 112.73 121.02 112.73L120.90 112.73L120.90 108.21L120.98 108.21L120.98 108.17L120.85 108.17L120.85 106.34M114.95 106.29L116.51 106.44C116.50 106.56 116.46 106.64 116.38 106.71C116.29 106.80 116.14 106.85 115.94 106.86L115.94 108.12L115.80 108.12L115.80 108.16L115.89 108.16L115.89 112.49C115.87 112.51 115.80 112.54 115.66 112.59C115.53 112.64 115.36 112.68 115.15 112.68L115.02 112.68L115.02 108.16L115.10 108.16L115.10 108.12L114.95 108.12L114.95 106.29M116.63 108.84L117.86 109.01C117.84 109.11 117.81 109.19 117.72 109.26C117.64 109.33 117.53 109.38 117.42 109.40L117.42 110.72C117.42 110.86 117.45 110.93 117.52 110.93L117.60 110.93C117.62 110.93 117.64 110.93 117.65 110.93C117.65 110.93 117.67 110.93 117.69 110.93C117.70 110.93 117.74 110.93 117.75 110.93C117.77 110.93 117.77 110.93 117.79 110.93C117.86 110.93 117.92 110.91 117.99 110.88L118.16 110.88L118.20 110.89C118.33 110.91 118.44 110.94 118.50 111C118.55 111.05 118.59 111.11 118.59 111.20C118.59 111.35 118.52 111.47 118.37 111.54C118.21 111.63 117.92 111.66 117.53 111.66L117.28 111.66C117.01 111.66 116.84 111.61 116.75 111.49C116.67 111.37 116.63 111.20 116.63 110.96L116.63 108.84M113.42 108.89L114.75 109.02C114.73 109.11 114.69 109.18 114.63 109.26C114.54 109.35 114.42 109.40 114.27 109.41C114.25 109.70 114.20 110.01 114.15 110.35C114.10 110.71 113.96 111.05 113.78 111.37C113.59 111.71 113.28 112.02 112.86 112.31L112.60 112.07C112.86 111.74 113.05 111.40 113.17 111.05C113.28 110.69 113.35 110.33 113.39 109.98C113.40 109.62 113.42 109.25 113.42 108.89M117.84 112.02L119.23 112.78C119.18 112.87 119.08 112.93 118.93 112.98C118.76 113.04 118.54 113 118.27 112.88L118.78 112.80C118.49 113.04 118.09 113.29 117.62 113.58C117.14 113.87 116.63 114.16 116.11 114.41C115.56 114.69 115.03 114.92 114.54 115.11L114.53 114.91L115.03 114.91C115 115.23 114.93 115.48 114.81 115.65C114.69 115.82 114.58 115.93 114.46 115.96L113.95 114.74C113.95 114.74 114 114.72 114.10 114.70C114.20 114.69 114.29 114.65 114.34 114.63C114.66 114.52 114.98 114.34 115.34 114.12C115.68 113.90 116 113.67 116.33 113.41C116.65 113.16 116.94 112.90 117.21 112.64C117.47 112.41 117.69 112.20 117.84 112.02M114.56 115.76L114.22 114.75C114.58 114.75 115.07 114.74 115.70 114.72C116.31 114.70 117.01 114.69 117.81 114.63C118.59 114.60 119.39 114.57 120.22 114.53L120.24 114.82C119.64 114.92 118.83 115.06 117.82 115.25C116.80 115.43 115.72 115.60 114.56 115.76M121.19 113.22L122.50 114.16C122.45 114.24 122.33 114.31 122.16 114.33C121.97 114.36 121.77 114.31 121.51 114.16L122.04 114.11C121.65 114.40 121.14 114.74 120.54 115.08C119.95 115.43 119.28 115.81 118.57 116.18C117.84 116.57 117.11 116.93 116.34 117.27C115.58 117.61 114.85 117.92 114.12 118.19L114.10 118.03L114.64 118.03C114.59 118.36 114.51 118.61 114.39 118.80C114.27 118.99 114.13 119.09 114 119.14L113.47 117.81C113.47 117.81 113.54 117.80 113.67 117.78C113.79 117.76 113.90 117.73 113.98 117.69C114.61 117.44 115.26 117.13 115.95 116.76C116.65 116.40 117.33 115.99 118.01 115.57C118.67 115.14 119.28 114.72 119.85 114.31C120.39 113.90 120.83 113.55 121.19 113.22M114.05 118.92L113.67 117.90C114.10 117.88 114.66 117.86 115.34 117.83C116 117.81 116.77 117.76 117.64 117.71C118.50 117.66 119.42 117.61 120.41 117.54C121.38 117.47 122.38 117.41 123.42 117.34L123.42 117.66C122.36 117.81 121.02 118.02 119.40 118.24C117.79 118.48 116 118.70 114.05 118.92M122.91 107.87L123.59 107C123.59 107 123.65 107.05 123.81 107.17C123.96 107.29 124.13 107.43 124.33 107.60C124.52 107.77 124.71 107.94 124.86 108.11C124.81 108.29 124.67 108.38 124.42 108.38L118.54 108.38L118.40 107.87L122.91 107.87M116.67 107.87L117.31 107.07C117.31 107.07 117.38 107.12 117.52 107.22C117.65 107.34 117.82 107.48 118.01 107.63C118.20 107.78 118.37 107.95 118.52 108.11C118.47 108.29 118.33 108.38 118.08 108.38L112.88 108.38L112.74 107.87L116.67 107.87M116.72 103.75L116.89 103.60C117.40 103.65 117.81 103.75 118.13 103.91C118.44 104.06 118.67 104.21 118.83 104.38C118.98 104.57 119.06 104.74 119.08 104.91C119.10 105.08 119.08 105.22 119 105.33C118.91 105.45 118.81 105.52 118.67 105.56C118.52 105.59 118.37 105.56 118.18 105.45C118.08 105.16 117.89 104.84 117.60 104.52C117.31 104.20 117.01 103.94 116.72 103.75M111.41 105.54L111.41 105.37L111.41 104.98L112.66 105.54L112.45 105.54L112.45 110.13C112.45 110.86 112.43 111.61 112.38 112.41C112.33 113.21 112.23 114.02 112.08 114.84C111.91 115.67 111.65 116.45 111.30 117.22C110.94 117.98 110.44 118.70 109.83 119.34L109.56 119.16C110.12 118.29 110.55 117.35 110.80 116.35C111.06 115.35 111.23 114.33 111.31 113.27C111.38 112.22 111.41 111.18 111.41 110.15L111.41 105.54M122.99 105.54L123.79 104.50C123.79 104.50 123.84 104.54 123.94 104.62C124.05 104.71 124.18 104.81 124.33 104.93C124.49 105.06 124.66 105.20 124.83 105.35C125 105.50 125.15 105.64 125.29 105.78C125.23 105.96 125.10 106.05 124.84 106.05L111.96 106.05L111.96 105.54L122.99 105.54M120.61 115.59L120.80 115.43C121.56 115.72 122.17 116.05 122.65 116.39C123.13 116.72 123.50 117.06 123.76 117.39C124.01 117.71 124.18 118.02 124.25 118.27C124.32 118.54 124.32 118.77 124.27 118.94C124.22 119.12 124.10 119.22 123.94 119.28C123.79 119.33 123.60 119.28 123.38 119.14C123.26 118.75 123.06 118.32 122.75 117.88C122.43 117.46 122.09 117.03 121.72 116.62C121.33 116.22 120.97 115.88 120.61 115.59M129.18 112.19L129.18 111.69L133.87 111.69L133.87 112.19L129.18 112.19M129.15 114.94L129.15 114.43L133.82 114.43L133.82 114.94L129.15 114.94M129.09 117.75L129.09 117.25L133.79 117.25L133.79 117.75L129.09 117.75M128.57 119.21L128.57 111.69L128.57 111.22L129.69 111.69L129.60 111.69L129.60 118.83C129.60 118.88 129.52 118.95 129.37 119.05C129.21 119.16 128.99 119.21 128.74 119.21L128.57 119.21M127.26 106.86L127.12 106.37L131.95 106.37L132.68 105.40C132.68 105.40 132.77 105.47 132.92 105.59C133.07 105.73 133.24 105.88 133.46 106.07C133.68 106.25 133.87 106.42 134.04 106.59C133.99 106.78 133.84 106.86 133.58 106.86L127.26 106.86M126.73 109.74L126.59 109.25L133.89 109.25L134.65 108.28C134.65 108.28 134.74 108.34 134.89 108.46C135.04 108.58 135.25 108.73 135.47 108.92C135.69 109.11 135.89 109.28 136.05 109.47C136 109.65 135.86 109.74 135.62 109.74L126.73 109.74M129.93 109.64L129.93 103.86L131.63 104.03C131.61 104.14 131.56 104.25 131.47 104.31C131.37 104.40 131.22 104.47 131.01 104.48L131.01 109.64L129.93 109.64M133.28 118.94L133.28 111.69L133.11 111.69L133.74 111.01L135.06 112.05C135.01 112.12 134.93 112.19 134.81 112.24C134.67 112.31 134.52 112.36 134.36 112.39L134.36 118.56C134.36 118.59 134.31 118.65 134.21 118.70C134.09 118.75 133.97 118.80 133.84 118.85C133.70 118.90 133.56 118.94 133.45 118.94L133.28 118.94M140.69 105.06L140.48 105.06L141.20 104.37L142.52 105.66C142.41 105.78 142.13 105.84 141.74 105.84C141.59 106.13 141.42 106.46 141.22 106.83C140.99 107.22 140.77 107.61 140.55 108.02C140.33 108.45 140.09 108.84 139.87 109.21C139.65 109.58 139.43 109.91 139.23 110.18C139.91 110.67 140.45 111.15 140.86 111.64C141.25 112.14 141.54 112.61 141.72 113.09C141.90 113.58 141.98 114.06 141.98 114.52C142 115.35 141.81 115.96 141.44 116.37C141.06 116.79 140.43 117.01 139.53 117.06C139.53 116.93 139.53 116.81 139.51 116.69C139.50 116.59 139.46 116.49 139.43 116.40C139.40 116.32 139.34 116.25 139.29 116.20C139.23 116.13 139.09 116.08 138.90 116.03C138.72 115.99 138.50 115.96 138.27 115.94L138.27 115.67C138.51 115.67 138.80 115.67 139.12 115.67C139.45 115.67 139.70 115.67 139.87 115.67C140.06 115.67 140.21 115.64 140.33 115.57C140.50 115.47 140.64 115.31 140.74 115.11C140.82 114.92 140.88 114.63 140.88 114.28C140.88 113.63 140.72 112.97 140.42 112.29C140.09 111.63 139.57 110.93 138.82 110.23C138.95 109.92 139.11 109.55 139.28 109.09C139.43 108.65 139.60 108.19 139.79 107.70C139.96 107.20 140.13 106.73 140.28 106.27C140.43 105.81 140.57 105.42 140.69 105.06M134.72 104.31L136.25 105.06C136.20 105.15 136.13 105.22 136.03 105.25C135.91 105.28 135.76 105.28 135.55 105.23C135.15 106.03 134.65 106.83 134.07 107.66C133.48 108.50 132.82 109.31 132.07 110.11C131.30 110.91 130.47 111.68 129.55 112.37C128.63 113.09 127.65 113.72 126.58 114.26L126.39 114.06C127.36 113.46 128.26 112.76 129.11 112C129.96 111.23 130.74 110.44 131.46 109.57C132.17 108.70 132.80 107.83 133.36 106.93C133.92 106.03 134.36 105.16 134.72 104.31M137.05 105.56L137.05 105.06L141.15 105.06L141.15 105.56L137.05 105.56M136.49 119.33L136.49 105.06L136.49 104.40L137.78 105.06L137.58 105.06L137.58 118.94C137.58 118.97 137.54 119.02 137.46 119.07C137.37 119.14 137.27 119.19 137.13 119.24C137 119.29 136.83 119.33 136.64 119.33L136.49 119.33M146.47 115.59L146.71 115.43C147.13 116.13 147.62 116.64 148.22 116.98C148.80 117.32 149.51 117.54 150.34 117.64C151.18 117.76 152.16 117.81 153.30 117.81C153.64 117.81 154.08 117.81 154.61 117.81C155.14 117.81 155.68 117.81 156.28 117.81C156.85 117.81 157.42 117.81 157.96 117.80C158.49 117.80 158.93 117.80 159.29 117.78L159.29 118C159.06 118.05 158.91 118.14 158.79 118.29C158.67 118.44 158.62 118.61 158.61 118.83C158.32 118.83 157.94 118.83 157.48 118.83C157.03 118.83 156.51 118.83 155.99 118.83C155.46 118.83 154.95 118.83 154.47 118.83C153.98 118.83 153.57 118.83 153.25 118.83C152.35 118.83 151.57 118.78 150.87 118.70C150.17 118.61 149.56 118.44 149.03 118.20C148.51 117.98 148.03 117.64 147.61 117.22C147.18 116.79 146.81 116.25 146.47 115.59M153.39 113.83L153.56 113.63C154.46 113.89 155.21 114.16 155.82 114.45C156.41 114.74 156.91 115.01 157.26 115.28C157.62 115.57 157.89 115.82 158.05 116.05C158.20 116.28 158.28 116.49 158.28 116.64C158.28 116.81 158.22 116.93 158.11 116.98C157.99 117.05 157.82 117.05 157.64 116.98C157.43 116.72 157.16 116.47 156.84 116.18C156.51 115.89 156.14 115.60 155.75 115.31C155.34 115.03 154.93 114.75 154.53 114.50C154.12 114.24 153.74 114.02 153.39 113.83M150.97 113.97L151.94 113.58L151.94 114.65L150.97 114.65L150.97 113.97M151.07 117.18L150.62 116.30C150.84 116.23 151.14 116.15 151.53 116.01C151.91 115.89 152.33 115.76 152.81 115.60C153.27 115.45 153.74 115.28 154.24 115.11L154.34 115.35C154.12 115.47 153.85 115.64 153.51 115.84C153.15 116.05 152.78 116.27 152.35 116.49C151.93 116.71 151.50 116.95 151.07 117.18M150.97 114.21L151.70 114.21L151.94 114.34L151.94 116.30L151.04 116.61L151.36 116.27C151.45 116.57 151.41 116.81 151.30 116.98C151.18 117.15 151.06 117.27 150.94 117.32L150.45 116.30C150.67 116.18 150.82 116.10 150.89 116.01C150.94 115.94 150.97 115.86 150.97 115.74L150.97 114.21M156.85 108.72L157.55 107.94C157.55 107.94 157.62 107.99 157.77 108.09C157.93 108.21 158.10 108.33 158.30 108.48C158.50 108.63 158.69 108.79 158.86 108.94C158.81 109.13 158.67 109.21 158.42 109.21L148.76 109.21L148.63 108.72L156.85 108.72M154.15 104.72L155.09 104.72L155.09 107.49L154.15 107.49L154.15 104.72M151.81 104.72L152.74 104.72L152.74 107.49L151.81 107.49L151.81 104.72M157.50 112.93L158.56 113.77C158.45 113.87 158.30 113.89 158.10 113.80C157.93 113.90 157.71 114.02 157.42 114.16C157.13 114.31 156.84 114.45 156.51 114.58C156.19 114.74 155.87 114.86 155.56 114.96L155.44 114.77C155.68 114.60 155.94 114.40 156.19 114.17C156.45 113.95 156.70 113.72 156.94 113.48C157.18 113.26 157.37 113.07 157.50 112.93M153.73 112.27L153.73 112.54C153.10 113.22 152.32 113.82 151.36 114.33C150.41 114.86 149.39 115.28 148.30 115.60L148.12 115.31C149.02 114.92 149.87 114.46 150.67 113.94C151.45 113.41 152.09 112.87 152.59 112.27L153.73 112.27M150.80 110.74L150.80 113.04C150.80 113.07 150.77 113.10 150.68 113.16C150.60 113.21 150.48 113.26 150.36 113.29C150.22 113.33 150.09 113.34 149.95 113.34L149.80 113.34L149.80 110.23L149.80 109.74L150.89 110.23L156.50 110.23L156.50 110.74L150.80 110.74M156.11 110.23L155.97 110.23L156.51 109.69L157.67 110.57C157.62 110.62 157.55 110.67 157.45 110.71C157.35 110.76 157.23 110.81 157.11 110.83L157.11 112.83C157.11 112.87 157.06 112.90 156.97 112.95C156.87 113 156.75 113.05 156.63 113.09C156.50 113.14 156.38 113.16 156.26 113.16L156.11 113.16L156.11 110.23M150.28 112.27L156.41 112.27L156.41 112.76L150.28 112.76L150.28 112.27M149.80 107.14L157.01 107.14L157.01 107.65L149.80 107.65L149.80 107.14M150.34 105.18L150.34 107.94C150.34 107.97 150.31 108 150.22 108.06C150.14 108.11 150.04 108.14 149.92 108.17C149.80 108.22 149.66 108.24 149.53 108.24L149.39 108.24L149.39 104.67L149.39 104.20L150.43 104.67L157.09 104.67L157.09 105.18L150.34 105.18M156.57 104.67L156.43 104.67L156.96 104.13L158.10 105C157.98 105.15 157.79 105.23 157.53 105.25L157.53 107.73C157.53 107.77 157.48 107.80 157.40 107.85C157.30 107.90 157.18 107.95 157.06 108C156.94 108.06 156.82 108.07 156.72 108.07L156.57 108.07L156.57 104.67M147.13 107.56L148.03 108.06C147.90 108.29 147.73 108.58 147.50 108.91C147.28 109.25 147.06 109.60 146.82 109.96C146.57 110.33 146.33 110.69 146.11 111.03C145.87 111.39 145.67 111.68 145.48 111.93L145.63 111.93L145.14 112.32L144.19 111.45C144.29 111.40 144.43 111.34 144.62 111.27C144.80 111.22 144.96 111.17 145.09 111.15L144.55 111.57C144.73 111.34 144.96 111.05 145.19 110.69C145.41 110.35 145.65 109.99 145.91 109.60C146.16 109.23 146.38 108.85 146.60 108.50C146.82 108.14 147 107.82 147.13 107.56M147.13 107.56L146.93 107.56L147.56 106.92L148.87 108.07C148.78 108.16 148.66 108.21 148.49 108.24C148.32 108.29 148.13 108.31 147.93 108.31C147.73 108.33 147.52 108.31 147.32 108.29L147.13 107.56M147.54 111.44L147.39 111.44L148.07 110.76L149.24 111.85C149.12 111.97 148.90 112.03 148.56 112.05C148.32 112.88 148 113.73 147.57 114.60C147.15 115.47 146.64 116.28 146.03 117.05C145.41 117.83 144.68 118.53 143.83 119.12L143.65 118.90C144.31 118.27 144.90 117.54 145.43 116.71C145.96 115.88 146.40 115.01 146.76 114.09C147.11 113.19 147.37 112.31 147.54 111.44M143.83 107.56L147.64 107.56L147.64 108.06L143.99 108.06L143.83 107.56M145.29 111.44L148.08 111.44L148.08 111.95L145.11 111.95L145.29 111.44M144.53 104.09L144.72 103.94C145.33 104.09 145.82 104.28 146.21 104.50C146.59 104.72 146.88 104.96 147.06 105.20C147.25 105.45 147.35 105.67 147.39 105.90C147.42 106.12 147.40 106.30 147.32 106.46C147.23 106.61 147.11 106.71 146.96 106.75C146.79 106.78 146.60 106.75 146.42 106.63C146.33 106.34 146.20 106.03 145.99 105.71C145.79 105.40 145.57 105.10 145.31 104.81C145.06 104.52 144.78 104.28 144.53 104.09M166.97 117.97L166.97 117.46L174.26 117.46L174.26 117.97L166.97 117.97M165.42 109.53L165.29 109.02L174.03 109.02L174.86 107.97C174.86 107.97 174.91 108 175.01 108.09C175.11 108.17 175.25 108.29 175.40 108.41C175.56 108.55 175.72 108.68 175.91 108.84C176.08 108.99 176.24 109.13 176.39 109.26C176.37 109.35 176.32 109.41 176.24 109.47C176.15 109.52 176.05 109.53 175.93 109.53L165.42 109.53M174.23 103.92L175.56 105.16C175.47 105.22 175.35 105.25 175.20 105.25C175.05 105.25 174.88 105.22 174.67 105.15C173.91 105.32 173.04 105.49 172.05 105.66C171.05 105.83 170.01 105.98 168.93 106.10C167.84 106.22 166.77 106.30 165.69 106.36L165.64 106.07C166.39 105.95 167.17 105.81 167.97 105.66C168.77 105.50 169.57 105.32 170.35 105.11C171.12 104.93 171.85 104.72 172.53 104.52C173.19 104.31 173.77 104.11 174.23 103.92M161.87 104.16L162.02 104.01C162.65 104.09 163.16 104.23 163.55 104.42C163.94 104.60 164.25 104.79 164.45 105.01C164.64 105.23 164.76 105.45 164.81 105.67C164.86 105.90 164.84 106.07 164.76 106.22C164.68 106.37 164.56 106.46 164.40 106.51C164.25 106.56 164.06 106.54 163.84 106.42C163.76 106.15 163.60 105.88 163.38 105.59C163.16 105.32 162.92 105.05 162.67 104.79C162.40 104.54 162.13 104.33 161.87 104.16M160.61 107.90L160.76 107.73C161.38 107.80 161.87 107.92 162.26 108.07C162.63 108.24 162.92 108.43 163.11 108.63C163.30 108.85 163.42 109.06 163.47 109.25C163.52 109.45 163.50 109.62 163.43 109.77C163.37 109.92 163.25 110.01 163.09 110.04C162.94 110.09 162.75 110.06 162.55 109.94C162.45 109.69 162.29 109.45 162.09 109.18C161.89 108.92 161.65 108.68 161.39 108.46C161.14 108.24 160.87 108.06 160.61 107.90M161.67 114.63C161.77 114.63 161.84 114.62 161.89 114.58C161.94 114.55 162.01 114.45 162.09 114.28C162.14 114.16 162.21 114.04 162.28 113.92C162.33 113.80 162.41 113.63 162.53 113.38C162.65 113.14 162.82 112.78 163.04 112.29C163.26 111.80 163.57 111.13 163.96 110.27C164.35 109.41 164.84 108.33 165.46 106.98L165.76 107.07C165.63 107.48 165.46 107.95 165.27 108.48C165.07 109.01 164.86 109.55 164.66 110.11C164.44 110.67 164.25 111.22 164.06 111.73C163.88 112.24 163.72 112.68 163.59 113.05C163.45 113.43 163.35 113.70 163.30 113.85C163.21 114.11 163.16 114.38 163.11 114.62C163.06 114.87 163.03 115.11 163.04 115.31C163.04 115.50 163.08 115.69 163.13 115.89C163.18 116.10 163.23 116.32 163.28 116.54C163.33 116.76 163.38 117.01 163.43 117.29C163.47 117.56 163.49 117.86 163.47 118.22C163.45 118.58 163.37 118.87 163.20 119.07C163.03 119.29 162.81 119.39 162.52 119.39C162.36 119.39 162.24 119.31 162.16 119.16C162.06 119 161.99 118.80 161.97 118.53C162.06 117.95 162.09 117.42 162.11 116.96C162.11 116.50 162.07 116.11 162.02 115.81C161.96 115.52 161.85 115.33 161.73 115.25C161.62 115.16 161.50 115.09 161.38 115.06C161.24 115.04 161.09 115.03 160.90 115.01L160.90 114.63C160.90 114.63 160.95 114.63 161.05 114.63C161.16 114.63 161.28 114.63 161.39 114.63C161.51 114.63 161.62 114.63 161.67 114.63M173.79 119.22L173.79 112.88L173.62 112.88L174.23 112.20L175.61 113.26C175.56 113.33 175.45 113.39 175.33 113.44C175.22 113.51 175.06 113.56 174.89 113.60L174.89 118.83C174.89 118.87 174.84 118.92 174.74 118.97C174.62 119.04 174.50 119.09 174.37 119.14C174.21 119.19 174.08 119.22 173.96 119.22L173.79 119.22M170.10 113.19L170.10 105.28L171.20 105.13L171.20 113.19C171.20 113.19 171.12 113.19 170.97 113.19C170.79 113.19 170.56 113.19 170.27 113.19L170.10 113.19M166.38 119.28L166.38 112.88L166.38 112.36L167.58 112.88L174.40 112.88L174.40 113.39L167.48 113.39L167.48 118.92C167.48 118.94 167.43 118.99 167.34 119.04C167.26 119.11 167.14 119.16 167 119.21C166.85 119.26 166.72 119.28 166.56 119.28L166.38 119.28M188.22 103.75L189.85 103.92C189.84 104.04 189.80 104.13 189.72 104.18C189.63 104.25 189.50 104.30 189.31 104.31L189.31 106.97C189.31 107 189.27 107.05 189.19 107.10C189.10 107.15 188.99 107.20 188.85 107.26C188.71 107.31 188.58 107.32 188.42 107.32L188.22 107.32L188.22 103.75M181.44 103.75L183.09 103.92C183.07 104.04 183.02 104.13 182.93 104.18C182.85 104.25 182.73 104.30 182.54 104.31L182.54 107.09C182.54 107.12 182.49 107.15 182.41 107.20C182.32 107.26 182.20 107.31 182.07 107.36C181.93 107.41 181.79 107.43 181.66 107.43L181.44 107.43L181.44 103.75M190.07 107.14L191.52 108.02C191.47 108.11 191.38 108.17 191.28 108.19C191.18 108.21 191.03 108.19 190.82 108.14C190.18 108.85 189.39 109.57 188.47 110.28C187.54 111 186.52 111.69 185.38 112.34C184.24 113 183.03 113.61 181.76 114.16C180.49 114.72 179.16 115.18 177.82 115.57L177.70 115.30C178.94 114.84 180.18 114.31 181.39 113.68C182.59 113.07 183.73 112.41 184.82 111.68C185.91 110.96 186.89 110.21 187.79 109.45C188.70 108.68 189.44 107.90 190.07 107.14M189.24 112.98L189.07 112.98L189.68 112.29L191.06 113.36C191.01 113.43 190.91 113.50 190.79 113.55C190.65 113.60 190.50 113.65 190.33 113.68L190.33 118.88C190.33 118.92 190.28 118.97 190.18 119.02C190.06 119.07 189.94 119.12 189.80 119.17C189.65 119.22 189.51 119.24 189.39 119.24L189.24 119.24L189.24 112.98M183.97 106.75L185.62 106.92C185.60 107.03 185.57 107.12 185.48 107.19C185.40 107.27 185.26 107.32 185.07 107.34L185.07 111.18L183.97 111.18L183.97 106.75M190.74 110.88L191.53 109.91C191.53 109.91 191.59 109.94 191.69 110.01C191.77 110.09 191.91 110.20 192.06 110.30C192.22 110.42 192.38 110.55 192.56 110.69C192.72 110.84 192.88 110.98 193.03 111.10C192.98 111.28 192.83 111.37 192.57 111.37L178.17 111.37L178.02 110.88L190.74 110.88M186.42 108.51L187.15 107.63C187.15 107.63 187.23 107.68 187.39 107.80C187.54 107.92 187.73 108.07 187.95 108.24C188.15 108.41 188.34 108.58 188.53 108.73C188.47 108.92 188.34 109.01 188.08 109.01L180.23 109.01L180.09 108.51L186.42 108.51M182.87 113.48L182.87 118.95C182.87 118.99 182.81 119.04 182.73 119.09C182.64 119.14 182.53 119.19 182.39 119.24C182.25 119.29 182.10 119.31 181.95 119.31L181.76 119.31L181.76 112.98L181.76 112.42L182.95 112.98L189.87 112.98L189.87 113.48L182.87 113.48M182.27 117.80L189.89 117.80L189.89 118.31L182.27 118.31L182.27 117.80M182.27 115.33L189.89 115.33L189.89 115.84L182.27 115.84L182.27 115.33M191.28 105.40L191.98 104.48C191.98 104.48 192.05 104.55 192.20 104.67C192.35 104.79 192.52 104.94 192.72 105.11C192.93 105.30 193.12 105.47 193.27 105.62C193.24 105.81 193.10 105.90 192.84 105.90L186.03 105.90L185.89 105.40L191.28 105.40M183.38 105.40L184.07 104.48C184.07 104.48 184.14 104.55 184.29 104.67C184.45 104.79 184.62 104.94 184.82 105.11C185.02 105.30 185.21 105.47 185.36 105.62C185.31 105.81 185.18 105.90 184.94 105.90L177.90 105.90L177.76 105.40L183.38 105.40M200.12 111.54C200.12 111.10 200.24 110.69 200.46 110.33C200.68 109.98 200.97 109.70 201.33 109.48C201.68 109.26 202.09 109.16 202.52 109.16C202.96 109.16 203.37 109.26 203.72 109.48C204.08 109.70 204.35 109.98 204.57 110.33C204.79 110.69 204.90 111.10 204.90 111.54C204.90 111.97 204.79 112.37 204.57 112.73C204.35 113.09 204.08 113.38 203.72 113.60C203.37 113.82 202.96 113.94 202.52 113.94C202.09 113.94 201.68 113.83 201.33 113.60C200.97 113.38 200.68 113.09 200.46 112.73C200.24 112.37 200.12 111.97 200.12 111.54M200.70 111.54C200.70 112.03 200.87 112.46 201.22 112.81C201.58 113.17 202.01 113.36 202.52 113.36C203.01 113.36 203.44 113.17 203.79 112.81C204.15 112.46 204.32 112.03 204.32 111.54C204.32 111.05 204.15 110.62 203.79 110.27C203.44 109.91 203.01 109.74 202.52 109.74C202.01 109.74 201.58 109.91 201.22 110.27C200.87 110.62 200.70 111.05 200.70 111.54" fill="#302A25"/></svg>